%TF.GenerationSoftware,KiCad,Pcbnew,9.0.6*%
%TF.CreationDate,2025-12-23T13:53:16+01:00*%
%TF.ProjectId,demo wateranalyser,64656d6f-2077-4617-9465-72616e616c79,rev?*%
%TF.SameCoordinates,Original*%
%TF.FileFunction,Other,User*%
%FSLAX46Y46*%
G04 Gerber Fmt 4.6, Leading zero omitted, Abs format (unit mm)*
G04 Created by KiCad (PCBNEW 9.0.6) date 2025-12-23 13:53:16*
%MOMM*%
%LPD*%
G01*
G04 APERTURE LIST*
%ADD10C,0.050000*%
G04 APERTURE END LIST*
D10*
%TO.C,J7*%
X131830000Y-62325000D02*
X129150000Y-62325000D01*
X131830000Y-53825000D02*
X131830000Y-62325000D01*
X131830000Y-53825000D02*
X129150000Y-53825000D01*
X129150000Y-63255000D02*
X126250000Y-63255000D01*
X129150000Y-62325000D02*
X129150000Y-63255000D01*
X129150000Y-53825000D02*
X129150000Y-52895000D01*
X129150000Y-52895000D02*
X126250000Y-52895000D01*
X126250000Y-63255000D02*
X126250000Y-62605000D01*
X126250000Y-62605000D02*
X124450000Y-62605000D01*
X126250000Y-53545000D02*
X124450000Y-53545000D01*
X126250000Y-52895000D02*
X126250000Y-53545000D01*
X124450000Y-53545000D02*
X124450000Y-62605000D01*
%TO.C,REF\u002A\u002A*%
X200150000Y-67200000D02*
G75*
G02*
X193250000Y-67200000I-3450000J0D01*
G01*
X193250000Y-67200000D02*
G75*
G02*
X200150000Y-67200000I3450000J0D01*
G01*
%TO.C,FB3*%
X189232500Y-41870000D02*
X192192500Y-41870000D01*
X189232500Y-43330000D02*
X189232500Y-41870000D01*
X192192500Y-41870000D02*
X192192500Y-43330000D01*
X192192500Y-43330000D02*
X189232500Y-43330000D01*
%TO.C,J1*%
X164220000Y-17390000D02*
X164220000Y-28200000D01*
X164220000Y-28200000D02*
X185540000Y-28200000D01*
X185540000Y-17390000D02*
X164220000Y-17390000D01*
X185540000Y-28200000D02*
X185540000Y-17390000D01*
%TO.C,R23*%
X144570000Y-35220000D02*
X146030000Y-35220000D01*
X144570000Y-38180000D02*
X144570000Y-35220000D01*
X146030000Y-35220000D02*
X146030000Y-38180000D01*
X146030000Y-38180000D02*
X144570000Y-38180000D01*
%TO.C,L8*%
X162050000Y-37650000D02*
X163750000Y-37650000D01*
X162050000Y-41150000D02*
X162050000Y-37650000D01*
X163750000Y-37650000D02*
X163750000Y-41150000D01*
X163750000Y-41150000D02*
X162050000Y-41150000D01*
%TO.C,C32*%
X134870000Y-45020000D02*
X136330000Y-45020000D01*
X134870000Y-47980000D02*
X134870000Y-45020000D01*
X136330000Y-45020000D02*
X136330000Y-47980000D01*
X136330000Y-47980000D02*
X134870000Y-47980000D01*
%TO.C,R5*%
X166970000Y-37795000D02*
X168430000Y-37795000D01*
X166970000Y-40755000D02*
X166970000Y-37795000D01*
X168430000Y-37795000D02*
X168430000Y-40755000D01*
X168430000Y-40755000D02*
X166970000Y-40755000D01*
%TO.C,R20*%
X134370000Y-22520000D02*
X135830000Y-22520000D01*
X134370000Y-25480000D02*
X134370000Y-22520000D01*
X135830000Y-22520000D02*
X135830000Y-25480000D01*
X135830000Y-25480000D02*
X134370000Y-25480000D01*
%TO.C,C34*%
X148970000Y-20520000D02*
X150430000Y-20520000D01*
X148970000Y-23480000D02*
X148970000Y-20520000D01*
X150430000Y-20520000D02*
X150430000Y-23480000D01*
X150430000Y-23480000D02*
X148970000Y-23480000D01*
%TO.C,R15*%
X154120000Y-65545000D02*
X155580000Y-65545000D01*
X154120000Y-68505000D02*
X154120000Y-65545000D01*
X155580000Y-65545000D02*
X155580000Y-68505000D01*
X155580000Y-68505000D02*
X154120000Y-68505000D01*
%TO.C,R24*%
X138070000Y-32820000D02*
X139530000Y-32820000D01*
X138070000Y-35780000D02*
X138070000Y-32820000D01*
X139530000Y-32820000D02*
X139530000Y-35780000D01*
X139530000Y-35780000D02*
X138070000Y-35780000D01*
%TO.C,C6*%
X178045000Y-53470000D02*
X181005000Y-53470000D01*
X178045000Y-54930000D02*
X178045000Y-53470000D01*
X181005000Y-53470000D02*
X181005000Y-54930000D01*
X181005000Y-54930000D02*
X178045000Y-54930000D01*
%TO.C,L7*%
X139150000Y-26150000D02*
X142650000Y-26150000D01*
X139150000Y-27850000D02*
X139150000Y-26150000D01*
X142650000Y-26150000D02*
X142650000Y-27850000D01*
X142650000Y-27850000D02*
X139150000Y-27850000D01*
%TO.C,J3*%
X160490000Y-75800000D02*
X160490000Y-86610000D01*
X160490000Y-86610000D02*
X176740000Y-86610000D01*
X176740000Y-75800000D02*
X160490000Y-75800000D01*
X176740000Y-86610000D02*
X176740000Y-75800000D01*
%TO.C,L1*%
X179350000Y-56912500D02*
X181050000Y-56912500D01*
X179350000Y-60412500D02*
X179350000Y-56912500D01*
X181050000Y-56912500D02*
X181050000Y-60412500D01*
X181050000Y-60412500D02*
X179350000Y-60412500D01*
%TO.C,BT1*%
X126650000Y-29290000D02*
X126650000Y-39300000D01*
X126650000Y-39300000D02*
X134900000Y-39300000D01*
X134900000Y-29290000D02*
X126650000Y-29290000D01*
X134900000Y-39300000D02*
X134900000Y-29290000D01*
%TO.C,R27*%
X153870000Y-37920000D02*
X155330000Y-37920000D01*
X153870000Y-40880000D02*
X153870000Y-37920000D01*
X155330000Y-37920000D02*
X155330000Y-40880000D01*
X155330000Y-40880000D02*
X153870000Y-40880000D01*
%TO.C,D7*%
X154120000Y-61745000D02*
X155580000Y-61745000D01*
X154120000Y-64705000D02*
X154120000Y-61745000D01*
X155580000Y-61745000D02*
X155580000Y-64705000D01*
X155580000Y-64705000D02*
X154120000Y-64705000D01*
%TO.C,C4*%
X191870000Y-71820000D02*
X193330000Y-71820000D01*
X191870000Y-74780000D02*
X191870000Y-71820000D01*
X193330000Y-71820000D02*
X193330000Y-74780000D01*
X193330000Y-74780000D02*
X191870000Y-74780000D01*
%TO.C,C14*%
X164790000Y-61470000D02*
X167750000Y-61470000D01*
X164790000Y-62930000D02*
X164790000Y-61470000D01*
X167750000Y-61470000D02*
X167750000Y-62930000D01*
X167750000Y-62930000D02*
X164790000Y-62930000D01*
%TO.C,REF\u002A\u002A*%
X135150000Y-81700000D02*
G75*
G02*
X128250000Y-81700000I-3450000J0D01*
G01*
X128250000Y-81700000D02*
G75*
G02*
X135150000Y-81700000I3450000J0D01*
G01*
%TO.C,R22*%
X136070000Y-28720000D02*
X137530000Y-28720000D01*
X136070000Y-31680000D02*
X136070000Y-28720000D01*
X137530000Y-28720000D02*
X137530000Y-31680000D01*
X137530000Y-31680000D02*
X136070000Y-31680000D01*
%TO.C,J2*%
X191300000Y-17390000D02*
X191300000Y-28200000D01*
X191300000Y-28200000D02*
X207550000Y-28200000D01*
X207550000Y-17390000D02*
X191300000Y-17390000D01*
X207550000Y-28200000D02*
X207550000Y-17390000D01*
%TO.C,C10*%
X141870000Y-59170000D02*
X143330000Y-59170000D01*
X141870000Y-62130000D02*
X141870000Y-59170000D01*
X143330000Y-59170000D02*
X143330000Y-62130000D01*
X143330000Y-62130000D02*
X141870000Y-62130000D01*
%TO.C,L3*%
X199670000Y-51582500D02*
X201130000Y-51582500D01*
X199670000Y-54542500D02*
X199670000Y-51582500D01*
X201130000Y-51582500D02*
X201130000Y-54542500D01*
X201130000Y-54542500D02*
X199670000Y-54542500D01*
%TO.C,FB2*%
X175070000Y-51732500D02*
X176530000Y-51732500D01*
X175070000Y-54692500D02*
X175070000Y-51732500D01*
X176530000Y-51732500D02*
X176530000Y-54692500D01*
X176530000Y-54692500D02*
X175070000Y-54692500D01*
%TO.C,REF\u002A\u002A*%
X218450000Y-23000000D02*
G75*
G02*
X211550000Y-23000000I-3450000J0D01*
G01*
X211550000Y-23000000D02*
G75*
G02*
X218450000Y-23000000I3450000J0D01*
G01*
%TO.C,R19*%
X143370000Y-20320000D02*
X144830000Y-20320000D01*
X143370000Y-23280000D02*
X143370000Y-20320000D01*
X144830000Y-20320000D02*
X144830000Y-23280000D01*
X144830000Y-23280000D02*
X143370000Y-23280000D01*
%TO.C,R13*%
X146070000Y-62795000D02*
X147530000Y-62795000D01*
X146070000Y-65755000D02*
X146070000Y-62795000D01*
X147530000Y-62795000D02*
X147530000Y-65755000D01*
X147530000Y-65755000D02*
X146070000Y-65755000D01*
%TO.C,U4*%
X209400000Y-56400000D02*
X210600000Y-56400000D01*
X210600000Y-58000000D01*
X209400000Y-58000000D01*
X209400000Y-56400000D01*
%TO.C,U2*%
X143870000Y-56320000D02*
X144220000Y-56320000D01*
X143870000Y-60080000D02*
X143870000Y-56320000D01*
X144220000Y-55450000D02*
X145090000Y-55450000D01*
X144220000Y-56320000D02*
X144220000Y-55450000D01*
X144220000Y-60080000D02*
X143870000Y-60080000D01*
X144220000Y-60950000D02*
X144220000Y-60080000D01*
X145090000Y-55100000D02*
X148850000Y-55100000D01*
X145090000Y-55450000D02*
X145090000Y-55100000D01*
X145090000Y-60950000D02*
X144220000Y-60950000D01*
X145090000Y-61300000D02*
X145090000Y-60950000D01*
X148850000Y-55100000D02*
X148850000Y-55450000D01*
X148850000Y-55450000D02*
X149720000Y-55450000D01*
X148850000Y-60950000D02*
X148850000Y-61300000D01*
X148850000Y-61300000D02*
X145090000Y-61300000D01*
X149720000Y-55450000D02*
X149720000Y-56320000D01*
X149720000Y-56320000D02*
X150070000Y-56320000D01*
X149720000Y-60080000D02*
X149720000Y-60950000D01*
X149720000Y-60950000D02*
X148850000Y-60950000D01*
X150070000Y-56320000D02*
X150070000Y-60080000D01*
X150070000Y-60080000D02*
X149720000Y-60080000D01*
%TO.C,R7*%
X193495000Y-29022500D02*
X194955000Y-29022500D01*
X193495000Y-31982500D02*
X193495000Y-29022500D01*
X194955000Y-29022500D02*
X194955000Y-31982500D01*
X194955000Y-31982500D02*
X193495000Y-31982500D01*
%TO.C,REF\u002A\u002A*%
X134050000Y-21600000D02*
G75*
G02*
X127150000Y-21600000I-3450000J0D01*
G01*
X127150000Y-21600000D02*
G75*
G02*
X134050000Y-21600000I3450000J0D01*
G01*
%TO.C,D2*%
X181950000Y-30235000D02*
X183100000Y-30235000D01*
X181950000Y-32035000D02*
X181950000Y-30235000D01*
X182150000Y-32035000D02*
X181950000Y-32035000D01*
X182150000Y-33065000D02*
X182150000Y-32035000D01*
X183100000Y-29205000D02*
X184200000Y-29205000D01*
X183100000Y-30235000D02*
X183100000Y-29205000D01*
X184200000Y-29205000D02*
X184200000Y-30235000D01*
X184200000Y-30235000D02*
X185350000Y-30235000D01*
X185150000Y-32035000D02*
X185150000Y-33065000D01*
X185150000Y-33065000D02*
X182150000Y-33065000D01*
X185350000Y-30235000D02*
X185350000Y-32035000D01*
X185350000Y-32035000D02*
X185150000Y-32035000D01*
%TO.C,D4*%
X161100000Y-71550000D02*
X168100000Y-71550000D01*
X161100000Y-75050000D02*
X161100000Y-71550000D01*
X168100000Y-71550000D02*
X168100000Y-75050000D01*
X168100000Y-75050000D02*
X161100000Y-75050000D01*
%TO.C,U7*%
X157820000Y-38020000D02*
X158200000Y-38020000D01*
X157820000Y-40780000D02*
X157820000Y-38020000D01*
X158200000Y-37900000D02*
X161200000Y-37900000D01*
X158200000Y-38020000D02*
X158200000Y-37900000D01*
X158200000Y-40780000D02*
X157820000Y-40780000D01*
X158200000Y-40900000D02*
X158200000Y-40780000D01*
X161200000Y-37900000D02*
X161200000Y-38020000D01*
X161200000Y-38020000D02*
X161580000Y-38020000D01*
X161200000Y-40780000D02*
X161200000Y-40900000D01*
X161200000Y-40900000D02*
X158200000Y-40900000D01*
X161580000Y-38020000D02*
X161580000Y-40780000D01*
X161580000Y-40780000D02*
X161200000Y-40780000D01*
%TO.C,SW1*%
X144850000Y-76700000D02*
X154950000Y-76700000D01*
X144850000Y-78800000D02*
X144850000Y-76700000D01*
X144850000Y-81400000D02*
X146650000Y-81400000D01*
X144850000Y-83500000D02*
X144850000Y-81400000D01*
X146650000Y-78800000D02*
X144850000Y-78800000D01*
X146650000Y-81400000D02*
X146650000Y-78800000D01*
X153150000Y-78800000D02*
X153150000Y-81400000D01*
X153150000Y-81400000D02*
X154950000Y-81400000D01*
X154950000Y-76700000D02*
X154950000Y-78800000D01*
X154950000Y-78800000D02*
X153150000Y-78800000D01*
X154950000Y-81400000D02*
X154950000Y-83500000D01*
X154950000Y-83500000D02*
X144850000Y-83500000D01*
%TO.C,R2*%
X181970000Y-37795000D02*
X183430000Y-37795000D01*
X181970000Y-40755000D02*
X181970000Y-37795000D01*
X183430000Y-37795000D02*
X183430000Y-40755000D01*
X183430000Y-40755000D02*
X181970000Y-40755000D01*
%TO.C,R21*%
X139595000Y-20270000D02*
X142555000Y-20270000D01*
X139595000Y-21730000D02*
X139595000Y-20270000D01*
X142555000Y-20270000D02*
X142555000Y-21730000D01*
X142555000Y-21730000D02*
X139595000Y-21730000D01*
%TO.C,FB1*%
X153870000Y-20607500D02*
X155330000Y-20607500D01*
X153870000Y-23567500D02*
X153870000Y-20607500D01*
X155330000Y-20607500D02*
X155330000Y-23567500D01*
X155330000Y-23567500D02*
X153870000Y-23567500D01*
%TO.C,U5*%
X138850000Y-22300000D02*
X139850000Y-22300000D01*
X138850000Y-25300000D02*
X138850000Y-22300000D01*
X139850000Y-22100000D02*
X141950000Y-22100000D01*
X139850000Y-22300000D02*
X139850000Y-22100000D01*
X139850000Y-25300000D02*
X138850000Y-25300000D01*
X139850000Y-25500000D02*
X139850000Y-25300000D01*
X141950000Y-22100000D02*
X141950000Y-22300000D01*
X141950000Y-22300000D02*
X142950000Y-22300000D01*
X141950000Y-25300000D02*
X141950000Y-25500000D01*
X141950000Y-25500000D02*
X139850000Y-25500000D01*
X142950000Y-22300000D02*
X142950000Y-25300000D01*
X142950000Y-25300000D02*
X141950000Y-25300000D01*
%TO.C,C38*%
X161220000Y-41570000D02*
X164180000Y-41570000D01*
X161220000Y-43030000D02*
X161220000Y-41570000D01*
X164180000Y-41570000D02*
X164180000Y-43030000D01*
X164180000Y-43030000D02*
X161220000Y-43030000D01*
%TO.C,C24*%
X203657500Y-47595000D02*
X205117500Y-47595000D01*
X203657500Y-50555000D02*
X203657500Y-47595000D01*
X205117500Y-47595000D02*
X205117500Y-50555000D01*
X205117500Y-50555000D02*
X203657500Y-50555000D01*
%TO.C,C16*%
X186970000Y-48445000D02*
X188430000Y-48445000D01*
X186970000Y-51405000D02*
X186970000Y-48445000D01*
X188430000Y-48445000D02*
X188430000Y-51405000D01*
X188430000Y-51405000D02*
X186970000Y-51405000D01*
%TO.C,C33*%
X136670000Y-22445000D02*
X138130000Y-22445000D01*
X136670000Y-25405000D02*
X136670000Y-22445000D01*
X138130000Y-22445000D02*
X138130000Y-25405000D01*
X138130000Y-25405000D02*
X136670000Y-25405000D01*
%TO.C,C19*%
X187770000Y-60620000D02*
X189230000Y-60620000D01*
X187770000Y-63580000D02*
X187770000Y-60620000D01*
X189230000Y-60620000D02*
X189230000Y-63580000D01*
X189230000Y-63580000D02*
X187770000Y-63580000D01*
%TO.C,C11*%
X177670000Y-57345000D02*
X179130000Y-57345000D01*
X177670000Y-60305000D02*
X177670000Y-57345000D01*
X179130000Y-57345000D02*
X179130000Y-60305000D01*
X179130000Y-60305000D02*
X177670000Y-60305000D01*
%TO.C,J5*%
X162100000Y-56565000D02*
X169100000Y-56565000D01*
X162100000Y-60565000D02*
X162100000Y-56565000D01*
X169100000Y-56565000D02*
X169100000Y-60565000D01*
X169100000Y-60565000D02*
X162100000Y-60565000D01*
%TO.C,D3*%
X198325000Y-28777500D02*
X205325000Y-28777500D01*
X198325000Y-32277500D02*
X198325000Y-28777500D01*
X205325000Y-28777500D02*
X205325000Y-32277500D01*
X205325000Y-32277500D02*
X198325000Y-32277500D01*
%TO.C,R18*%
X194030000Y-71795000D02*
X195490000Y-71795000D01*
X194030000Y-74755000D02*
X194030000Y-71795000D01*
X195490000Y-71795000D02*
X195490000Y-74755000D01*
X195490000Y-74755000D02*
X194030000Y-74755000D01*
%TO.C,R14*%
X151520000Y-65520000D02*
X152980000Y-65520000D01*
X151520000Y-68480000D02*
X151520000Y-65520000D01*
X152980000Y-65520000D02*
X152980000Y-68480000D01*
X152980000Y-68480000D02*
X151520000Y-68480000D01*
%TO.C,L2*%
X197670000Y-51557500D02*
X199130000Y-51557500D01*
X197670000Y-54517500D02*
X197670000Y-51557500D01*
X199130000Y-51557500D02*
X199130000Y-54517500D01*
X199130000Y-54517500D02*
X197670000Y-54517500D01*
%TO.C,C12*%
X189220000Y-43670000D02*
X192180000Y-43670000D01*
X189220000Y-45130000D02*
X189220000Y-43670000D01*
X192180000Y-43670000D02*
X192180000Y-45130000D01*
X192180000Y-45130000D02*
X189220000Y-45130000D01*
%TO.C,F1*%
X151250000Y-20420000D02*
X153150000Y-20420000D01*
X151250000Y-23780000D02*
X151250000Y-20420000D01*
X153150000Y-20420000D02*
X153150000Y-23780000D01*
X153150000Y-23780000D02*
X151250000Y-23780000D01*
%TO.C,U9*%
X132900000Y-56650000D02*
X137700000Y-56650000D01*
X132900000Y-60250000D02*
X132900000Y-56650000D01*
X137700000Y-56650000D02*
X137700000Y-60250000D01*
X137700000Y-60250000D02*
X132900000Y-60250000D01*
%TO.C,C20*%
X189470000Y-60645000D02*
X190930000Y-60645000D01*
X189470000Y-63605000D02*
X189470000Y-60645000D01*
X190930000Y-60645000D02*
X190930000Y-63605000D01*
X190930000Y-63605000D02*
X189470000Y-63605000D01*
%TO.C,R4*%
X179870000Y-37795000D02*
X181330000Y-37795000D01*
X179870000Y-40755000D02*
X179870000Y-37795000D01*
X181330000Y-37795000D02*
X181330000Y-40755000D01*
X181330000Y-40755000D02*
X179870000Y-40755000D01*
%TO.C,C25*%
X209057500Y-47595000D02*
X210517500Y-47595000D01*
X209057500Y-50555000D02*
X209057500Y-47595000D01*
X210517500Y-47595000D02*
X210517500Y-50555000D01*
X210517500Y-50555000D02*
X209057500Y-50555000D01*
%TO.C,C30*%
X200545000Y-55870000D02*
X203505000Y-55870000D01*
X200545000Y-57330000D02*
X200545000Y-55870000D01*
X203505000Y-55870000D02*
X203505000Y-57330000D01*
X203505000Y-57330000D02*
X200545000Y-57330000D01*
%TO.C,J4*%
X179075000Y-75727500D02*
X179075000Y-86537500D01*
X179075000Y-86537500D02*
X195325000Y-86537500D01*
X195325000Y-75727500D02*
X179075000Y-75727500D01*
X195325000Y-86537500D02*
X195325000Y-75727500D01*
%TO.C,L6*%
X197870000Y-55970000D02*
X199330000Y-55970000D01*
X197870000Y-58930000D02*
X197870000Y-55970000D01*
X199330000Y-55970000D02*
X199330000Y-58930000D01*
X199330000Y-58930000D02*
X197870000Y-58930000D01*
%TO.C,C3*%
X173670000Y-71820000D02*
X175130000Y-71820000D01*
X173670000Y-74780000D02*
X173670000Y-71820000D01*
X175130000Y-71820000D02*
X175130000Y-74780000D01*
X175130000Y-74780000D02*
X173670000Y-74780000D01*
%TO.C,R3*%
X184070000Y-37820000D02*
X185530000Y-37820000D01*
X184070000Y-40780000D02*
X184070000Y-37820000D01*
X185530000Y-37820000D02*
X185530000Y-40780000D01*
X185530000Y-40780000D02*
X184070000Y-40780000D01*
%TO.C,R10*%
X187470000Y-71820000D02*
X188930000Y-71820000D01*
X187470000Y-74780000D02*
X187470000Y-71820000D01*
X188930000Y-71820000D02*
X188930000Y-74780000D01*
X188930000Y-74780000D02*
X187470000Y-74780000D01*
%TO.C,C26*%
X211370000Y-56420000D02*
X212830000Y-56420000D01*
X211370000Y-59380000D02*
X211370000Y-56420000D01*
X212830000Y-56420000D02*
X212830000Y-59380000D01*
X212830000Y-59380000D02*
X211370000Y-59380000D01*
%TO.C,J8*%
X126350000Y-43460000D02*
X126350000Y-50000000D01*
X126350000Y-50000000D02*
X133850000Y-50000000D01*
X133850000Y-43460000D02*
X126350000Y-43460000D01*
X133850000Y-50000000D02*
X133850000Y-43460000D01*
%TO.C,R11*%
X189670000Y-71845000D02*
X191130000Y-71845000D01*
X189670000Y-74805000D02*
X189670000Y-71845000D01*
X191130000Y-71845000D02*
X191130000Y-74805000D01*
X191130000Y-74805000D02*
X189670000Y-74805000D01*
%TO.C,C9*%
X140070000Y-59220000D02*
X141530000Y-59220000D01*
X140070000Y-62180000D02*
X140070000Y-59220000D01*
X141530000Y-59220000D02*
X141530000Y-62180000D01*
X141530000Y-62180000D02*
X140070000Y-62180000D01*
%TO.C,D5*%
X179100000Y-71750000D02*
X186100000Y-71750000D01*
X179100000Y-75250000D02*
X179100000Y-71750000D01*
X186100000Y-71750000D02*
X186100000Y-75250000D01*
X186100000Y-75250000D02*
X179100000Y-75250000D01*
%TO.C,C23*%
X203732500Y-51520000D02*
X206692500Y-51520000D01*
X203732500Y-52980000D02*
X203732500Y-51520000D01*
X206692500Y-51520000D02*
X206692500Y-52980000D01*
X206692500Y-52980000D02*
X203732500Y-52980000D01*
%TO.C,R12*%
X141870000Y-62745000D02*
X143330000Y-62745000D01*
X141870000Y-65705000D02*
X141870000Y-62745000D01*
X143330000Y-62745000D02*
X143330000Y-65705000D01*
X143330000Y-65705000D02*
X141870000Y-65705000D01*
%TO.C,L4*%
X207520000Y-51520000D02*
X210480000Y-51520000D01*
X207520000Y-52980000D02*
X207520000Y-51520000D01*
X210480000Y-51520000D02*
X210480000Y-52980000D01*
X210480000Y-52980000D02*
X207520000Y-52980000D01*
%TO.C,C1*%
X173920000Y-34570000D02*
X176880000Y-34570000D01*
X173920000Y-36030000D02*
X173920000Y-34570000D01*
X176880000Y-34570000D02*
X176880000Y-36030000D01*
X176880000Y-36030000D02*
X173920000Y-36030000D01*
%TO.C,C28*%
X211445000Y-68470000D02*
X214405000Y-68470000D01*
X211445000Y-69930000D02*
X211445000Y-68470000D01*
X214405000Y-68470000D02*
X214405000Y-69930000D01*
X214405000Y-69930000D02*
X211445000Y-69930000D01*
%TO.C,C2*%
X191070000Y-29045000D02*
X192530000Y-29045000D01*
X191070000Y-32005000D02*
X191070000Y-29045000D01*
X192530000Y-29045000D02*
X192530000Y-32005000D01*
X192530000Y-32005000D02*
X191070000Y-32005000D01*
%TO.C,U3*%
X181770000Y-52970000D02*
X182150000Y-52970000D01*
X181770000Y-59230000D02*
X181770000Y-52970000D01*
X182150000Y-52350000D02*
X182770000Y-52350000D01*
X182150000Y-52970000D02*
X182150000Y-52350000D01*
X182150000Y-59230000D02*
X181770000Y-59230000D01*
X182150000Y-59850000D02*
X182150000Y-59230000D01*
X182770000Y-51970000D02*
X189030000Y-51970000D01*
X182770000Y-52350000D02*
X182770000Y-51970000D01*
X182770000Y-59850000D02*
X182150000Y-59850000D01*
X182770000Y-60230000D02*
X182770000Y-59850000D01*
X189030000Y-51970000D02*
X189030000Y-52350000D01*
X189030000Y-52350000D02*
X189650000Y-52350000D01*
X189030000Y-59850000D02*
X189030000Y-60230000D01*
X189030000Y-60230000D02*
X182770000Y-60230000D01*
X189650000Y-52350000D02*
X189650000Y-52970000D01*
X189650000Y-52970000D02*
X190030000Y-52970000D01*
X189650000Y-59230000D02*
X189650000Y-59850000D01*
X189650000Y-59850000D02*
X189030000Y-59850000D01*
X190030000Y-52970000D02*
X190030000Y-59230000D01*
X190030000Y-59230000D02*
X189650000Y-59230000D01*
%TO.C,C27*%
X211445000Y-61570000D02*
X214405000Y-61570000D01*
X211445000Y-63030000D02*
X211445000Y-61570000D01*
X214405000Y-61570000D02*
X214405000Y-63030000D01*
X214405000Y-63030000D02*
X211445000Y-63030000D01*
%TO.C,C18*%
X189820000Y-51170000D02*
X192780000Y-51170000D01*
X189820000Y-52630000D02*
X189820000Y-51170000D01*
X192780000Y-51170000D02*
X192780000Y-52630000D01*
X192780000Y-52630000D02*
X189820000Y-52630000D01*
%TO.C,Y1*%
X192500000Y-48850000D02*
X189000000Y-48850000D01*
X189000000Y-45850000D01*
X192500000Y-45850000D01*
X192500000Y-48850000D01*
%TO.C,U1*%
X171700000Y-36840000D02*
X173200000Y-36840000D01*
X171700000Y-41760000D02*
X171700000Y-36840000D01*
X173200000Y-36600000D02*
X177600000Y-36600000D01*
X173200000Y-36840000D02*
X173200000Y-36600000D01*
X173200000Y-41760000D02*
X171700000Y-41760000D01*
X173200000Y-42000000D02*
X173200000Y-41760000D01*
X177600000Y-36600000D02*
X177600000Y-36840000D01*
X177600000Y-36840000D02*
X179100000Y-36840000D01*
X177600000Y-41760000D02*
X177600000Y-42000000D01*
X177600000Y-42000000D02*
X173200000Y-42000000D01*
X179100000Y-36840000D02*
X179100000Y-41760000D01*
X179100000Y-41760000D02*
X177600000Y-41760000D01*
%TO.C,C15*%
X178945000Y-51370000D02*
X181905000Y-51370000D01*
X178945000Y-52830000D02*
X178945000Y-51370000D01*
X181905000Y-51370000D02*
X181905000Y-52830000D01*
X181905000Y-52830000D02*
X178945000Y-52830000D01*
%TO.C,C13*%
X185370000Y-48445000D02*
X186830000Y-48445000D01*
X185370000Y-51405000D02*
X185370000Y-48445000D01*
X186830000Y-48445000D02*
X186830000Y-51405000D01*
X186830000Y-51405000D02*
X185370000Y-51405000D01*
%TO.C,U6*%
X140770000Y-34270000D02*
X141150000Y-34270000D01*
X140770000Y-37030000D02*
X140770000Y-34270000D01*
X141150000Y-33900000D02*
X143650000Y-33900000D01*
X141150000Y-34270000D02*
X141150000Y-33900000D01*
X141150000Y-37030000D02*
X140770000Y-37030000D01*
X141150000Y-37400000D02*
X141150000Y-37030000D01*
X143650000Y-33900000D02*
X143650000Y-34270000D01*
X143650000Y-34270000D02*
X144030000Y-34270000D01*
X143650000Y-37030000D02*
X143650000Y-37400000D01*
X143650000Y-37400000D02*
X141150000Y-37400000D01*
X144030000Y-34270000D02*
X144030000Y-37030000D01*
X144030000Y-37030000D02*
X143650000Y-37030000D01*
%TO.C,R16*%
X143790000Y-62745000D02*
X145250000Y-62745000D01*
X143790000Y-65705000D02*
X143790000Y-62745000D01*
X145250000Y-62745000D02*
X145250000Y-65705000D01*
X145250000Y-65705000D02*
X143790000Y-65705000D01*
%TO.C,C8*%
X140070000Y-62745000D02*
X141530000Y-62745000D01*
X140070000Y-65705000D02*
X140070000Y-62745000D01*
X141530000Y-62745000D02*
X141530000Y-65705000D01*
X141530000Y-65705000D02*
X140070000Y-65705000D01*
%TO.C,D6*%
X151520000Y-61745000D02*
X152980000Y-61745000D01*
X151520000Y-64705000D02*
X151520000Y-61745000D01*
X152980000Y-61745000D02*
X152980000Y-64705000D01*
X152980000Y-64705000D02*
X151520000Y-64705000D01*
%TO.C,C37*%
X155870000Y-37945000D02*
X157330000Y-37945000D01*
X155870000Y-40905000D02*
X155870000Y-37945000D01*
X157330000Y-37945000D02*
X157330000Y-40905000D01*
X157330000Y-40905000D02*
X155870000Y-40905000D01*
%TO.C,C5*%
X173270000Y-51757500D02*
X174730000Y-51757500D01*
X173270000Y-54717500D02*
X173270000Y-51757500D01*
X174730000Y-51757500D02*
X174730000Y-54717500D01*
X174730000Y-54717500D02*
X173270000Y-54717500D01*
%TO.C,C21*%
X197670000Y-47395000D02*
X199130000Y-47395000D01*
X197670000Y-50355000D02*
X197670000Y-47395000D01*
X199130000Y-47395000D02*
X199130000Y-50355000D01*
X199130000Y-50355000D02*
X197670000Y-50355000D01*
%TO.C,J6*%
X204670000Y-71470000D02*
X219730000Y-71470000D01*
X204670000Y-96400000D02*
X204670000Y-71470000D01*
X219730000Y-71470000D02*
X219730000Y-96400000D01*
X219730000Y-96400000D02*
X204670000Y-96400000D01*
%TO.C,C35*%
X144570000Y-32020000D02*
X146030000Y-32020000D01*
X144570000Y-34980000D02*
X144570000Y-32020000D01*
X146030000Y-32020000D02*
X146030000Y-34980000D01*
X146030000Y-34980000D02*
X144570000Y-34980000D01*
%TO.C,R6*%
X195695000Y-29047500D02*
X197155000Y-29047500D01*
X195695000Y-32007500D02*
X195695000Y-29047500D01*
X197155000Y-29047500D02*
X197155000Y-32007500D01*
X197155000Y-32007500D02*
X195695000Y-32007500D01*
%TO.C,R1*%
X168970000Y-37795000D02*
X170430000Y-37795000D01*
X168970000Y-40755000D02*
X168970000Y-37795000D01*
X170430000Y-37795000D02*
X170430000Y-40755000D01*
X170430000Y-40755000D02*
X168970000Y-40755000D01*
%TO.C,R25*%
X146370000Y-35220000D02*
X147830000Y-35220000D01*
X146370000Y-38180000D02*
X146370000Y-35220000D01*
X147830000Y-35220000D02*
X147830000Y-38180000D01*
X147830000Y-38180000D02*
X146370000Y-38180000D01*
%TO.C,L5*%
X211395000Y-64332500D02*
X212855000Y-64332500D01*
X211395000Y-67292500D02*
X211395000Y-64332500D01*
X212855000Y-64332500D02*
X212855000Y-67292500D01*
X212855000Y-67292500D02*
X211395000Y-67292500D01*
%TO.C,R8*%
X169270000Y-71820000D02*
X170730000Y-71820000D01*
X169270000Y-74780000D02*
X169270000Y-71820000D01*
X170730000Y-71820000D02*
X170730000Y-74780000D01*
X170730000Y-74780000D02*
X169270000Y-74780000D01*
%TO.C,R26*%
X157120000Y-41470000D02*
X160080000Y-41470000D01*
X157120000Y-42930000D02*
X157120000Y-41470000D01*
X160080000Y-41470000D02*
X160080000Y-42930000D01*
X160080000Y-42930000D02*
X157120000Y-42930000D01*
%TO.C,D1*%
X156250000Y-20600000D02*
X159750000Y-20600000D01*
X156250000Y-27600000D02*
X156250000Y-20600000D01*
X159750000Y-20600000D02*
X159750000Y-27600000D01*
X159750000Y-27600000D02*
X156250000Y-27600000D01*
%TO.C,R9*%
X171470000Y-71820000D02*
X172930000Y-71820000D01*
X171470000Y-74780000D02*
X171470000Y-71820000D01*
X172930000Y-71820000D02*
X172930000Y-74780000D01*
X172930000Y-74780000D02*
X171470000Y-74780000D01*
%TO.C,C29*%
X200545000Y-57620000D02*
X203505000Y-57620000D01*
X200545000Y-59080000D02*
X200545000Y-57620000D01*
X203505000Y-57620000D02*
X203505000Y-59080000D01*
X203505000Y-59080000D02*
X200545000Y-59080000D01*
%TO.C,C22*%
X201670000Y-51595000D02*
X203130000Y-51595000D01*
X201670000Y-54555000D02*
X201670000Y-51595000D01*
X203130000Y-51595000D02*
X203130000Y-54555000D01*
X203130000Y-54555000D02*
X201670000Y-54555000D01*
%TO.C,D9*%
X136070000Y-32807500D02*
X137530000Y-32807500D01*
X136070000Y-35767500D02*
X136070000Y-32807500D01*
X137530000Y-32807500D02*
X137530000Y-35767500D01*
X137530000Y-35767500D02*
X136070000Y-35767500D01*
%TO.C,D8*%
X145400000Y-26950000D02*
X145400000Y-20650000D01*
X148400000Y-20650000D02*
X145400000Y-20650000D01*
X148400000Y-20650000D02*
X148400000Y-26950000D01*
X148400000Y-26950000D02*
X145400000Y-26950000D01*
%TO.C,C36*%
X140920000Y-31970000D02*
X143880000Y-31970000D01*
X140920000Y-33430000D02*
X140920000Y-31970000D01*
X143880000Y-31970000D02*
X143880000Y-33430000D01*
X143880000Y-33430000D02*
X140920000Y-33430000D01*
%TO.C,C7*%
X178045000Y-55170000D02*
X181005000Y-55170000D01*
X178045000Y-56630000D02*
X178045000Y-55170000D01*
X181005000Y-55170000D02*
X181005000Y-56630000D01*
X181005000Y-56630000D02*
X178045000Y-56630000D01*
%TD*%
M02*
