%TF.GenerationSoftware,KiCad,Pcbnew,9.0.6*%
%TF.CreationDate,2025-12-23T13:53:16+01:00*%
%TF.ProjectId,demo wateranalyser,64656d6f-2077-4617-9465-72616e616c79,rev?*%
%TF.SameCoordinates,Original*%
%TF.FileFunction,Legend,Top*%
%TF.FilePolarity,Positive*%
%FSLAX46Y46*%
G04 Gerber Fmt 4.6, Leading zero omitted, Abs format (unit mm)*
G04 Created by KiCad (PCBNEW 9.0.6) date 2025-12-23 13:53:16*
%MOMM*%
%LPD*%
G01*
G04 APERTURE LIST*
%ADD10C,0.200000*%
%ADD11C,0.150000*%
%ADD12C,0.120000*%
%ADD13C,0.100000*%
G04 APERTURE END LIST*
D10*
X157769673Y-34386266D02*
X158531578Y-34386266D01*
X158150625Y-34767219D02*
X158150625Y-34005314D01*
X158912530Y-33767219D02*
X159531577Y-33767219D01*
X159531577Y-33767219D02*
X159198244Y-34148171D01*
X159198244Y-34148171D02*
X159341101Y-34148171D01*
X159341101Y-34148171D02*
X159436339Y-34195790D01*
X159436339Y-34195790D02*
X159483958Y-34243409D01*
X159483958Y-34243409D02*
X159531577Y-34338647D01*
X159531577Y-34338647D02*
X159531577Y-34576742D01*
X159531577Y-34576742D02*
X159483958Y-34671980D01*
X159483958Y-34671980D02*
X159436339Y-34719600D01*
X159436339Y-34719600D02*
X159341101Y-34767219D01*
X159341101Y-34767219D02*
X159055387Y-34767219D01*
X159055387Y-34767219D02*
X158960149Y-34719600D01*
X158960149Y-34719600D02*
X158912530Y-34671980D01*
X159817292Y-33767219D02*
X160150625Y-34767219D01*
X160150625Y-34767219D02*
X160483958Y-33767219D01*
X160722054Y-33767219D02*
X161341101Y-33767219D01*
X161341101Y-33767219D02*
X161007768Y-34148171D01*
X161007768Y-34148171D02*
X161150625Y-34148171D01*
X161150625Y-34148171D02*
X161245863Y-34195790D01*
X161245863Y-34195790D02*
X161293482Y-34243409D01*
X161293482Y-34243409D02*
X161341101Y-34338647D01*
X161341101Y-34338647D02*
X161341101Y-34576742D01*
X161341101Y-34576742D02*
X161293482Y-34671980D01*
X161293482Y-34671980D02*
X161245863Y-34719600D01*
X161245863Y-34719600D02*
X161150625Y-34767219D01*
X161150625Y-34767219D02*
X160864911Y-34767219D01*
X160864911Y-34767219D02*
X160769673Y-34719600D01*
X160769673Y-34719600D02*
X160722054Y-34671980D01*
X130203006Y-40543409D02*
X130345863Y-40591028D01*
X130345863Y-40591028D02*
X130393482Y-40638647D01*
X130393482Y-40638647D02*
X130441101Y-40733885D01*
X130441101Y-40733885D02*
X130441101Y-40876742D01*
X130441101Y-40876742D02*
X130393482Y-40971980D01*
X130393482Y-40971980D02*
X130345863Y-41019600D01*
X130345863Y-41019600D02*
X130250625Y-41067219D01*
X130250625Y-41067219D02*
X129869673Y-41067219D01*
X129869673Y-41067219D02*
X129869673Y-40067219D01*
X129869673Y-40067219D02*
X130203006Y-40067219D01*
X130203006Y-40067219D02*
X130298244Y-40114838D01*
X130298244Y-40114838D02*
X130345863Y-40162457D01*
X130345863Y-40162457D02*
X130393482Y-40257695D01*
X130393482Y-40257695D02*
X130393482Y-40352933D01*
X130393482Y-40352933D02*
X130345863Y-40448171D01*
X130345863Y-40448171D02*
X130298244Y-40495790D01*
X130298244Y-40495790D02*
X130203006Y-40543409D01*
X130203006Y-40543409D02*
X129869673Y-40543409D01*
X130822054Y-40781504D02*
X131298244Y-40781504D01*
X130726816Y-41067219D02*
X131060149Y-40067219D01*
X131060149Y-40067219D02*
X131393482Y-41067219D01*
X131583959Y-40067219D02*
X132155387Y-40067219D01*
X131869673Y-41067219D02*
X131869673Y-40067219D01*
X132345864Y-40067219D02*
X132917292Y-40067219D01*
X132631578Y-41067219D02*
X132631578Y-40067219D01*
X155322054Y-85819600D02*
X155464911Y-85867219D01*
X155464911Y-85867219D02*
X155703006Y-85867219D01*
X155703006Y-85867219D02*
X155798244Y-85819600D01*
X155798244Y-85819600D02*
X155845863Y-85771980D01*
X155845863Y-85771980D02*
X155893482Y-85676742D01*
X155893482Y-85676742D02*
X155893482Y-85581504D01*
X155893482Y-85581504D02*
X155845863Y-85486266D01*
X155845863Y-85486266D02*
X155798244Y-85438647D01*
X155798244Y-85438647D02*
X155703006Y-85391028D01*
X155703006Y-85391028D02*
X155512530Y-85343409D01*
X155512530Y-85343409D02*
X155417292Y-85295790D01*
X155417292Y-85295790D02*
X155369673Y-85248171D01*
X155369673Y-85248171D02*
X155322054Y-85152933D01*
X155322054Y-85152933D02*
X155322054Y-85057695D01*
X155322054Y-85057695D02*
X155369673Y-84962457D01*
X155369673Y-84962457D02*
X155417292Y-84914838D01*
X155417292Y-84914838D02*
X155512530Y-84867219D01*
X155512530Y-84867219D02*
X155750625Y-84867219D01*
X155750625Y-84867219D02*
X155893482Y-84914838D01*
X156322054Y-85343409D02*
X156655387Y-85343409D01*
X156798244Y-85867219D02*
X156322054Y-85867219D01*
X156322054Y-85867219D02*
X156322054Y-84867219D01*
X156322054Y-84867219D02*
X156798244Y-84867219D01*
X157226816Y-85867219D02*
X157226816Y-84867219D01*
X157226816Y-84867219D02*
X157798244Y-85867219D01*
X157798244Y-85867219D02*
X157798244Y-84867219D01*
X158226816Y-85819600D02*
X158369673Y-85867219D01*
X158369673Y-85867219D02*
X158607768Y-85867219D01*
X158607768Y-85867219D02*
X158703006Y-85819600D01*
X158703006Y-85819600D02*
X158750625Y-85771980D01*
X158750625Y-85771980D02*
X158798244Y-85676742D01*
X158798244Y-85676742D02*
X158798244Y-85581504D01*
X158798244Y-85581504D02*
X158750625Y-85486266D01*
X158750625Y-85486266D02*
X158703006Y-85438647D01*
X158703006Y-85438647D02*
X158607768Y-85391028D01*
X158607768Y-85391028D02*
X158417292Y-85343409D01*
X158417292Y-85343409D02*
X158322054Y-85295790D01*
X158322054Y-85295790D02*
X158274435Y-85248171D01*
X158274435Y-85248171D02*
X158226816Y-85152933D01*
X158226816Y-85152933D02*
X158226816Y-85057695D01*
X158226816Y-85057695D02*
X158274435Y-84962457D01*
X158274435Y-84962457D02*
X158322054Y-84914838D01*
X158322054Y-84914838D02*
X158417292Y-84867219D01*
X158417292Y-84867219D02*
X158655387Y-84867219D01*
X158655387Y-84867219D02*
X158798244Y-84914838D01*
X159179197Y-84962457D02*
X159226816Y-84914838D01*
X159226816Y-84914838D02*
X159322054Y-84867219D01*
X159322054Y-84867219D02*
X159560149Y-84867219D01*
X159560149Y-84867219D02*
X159655387Y-84914838D01*
X159655387Y-84914838D02*
X159703006Y-84962457D01*
X159703006Y-84962457D02*
X159750625Y-85057695D01*
X159750625Y-85057695D02*
X159750625Y-85152933D01*
X159750625Y-85152933D02*
X159703006Y-85295790D01*
X159703006Y-85295790D02*
X159131578Y-85867219D01*
X159131578Y-85867219D02*
X159750625Y-85867219D01*
X144369673Y-28786266D02*
X145131578Y-28786266D01*
X144750625Y-29167219D02*
X144750625Y-28405314D01*
X146131577Y-29167219D02*
X145560149Y-29167219D01*
X145845863Y-29167219D02*
X145845863Y-28167219D01*
X145845863Y-28167219D02*
X145750625Y-28310076D01*
X145750625Y-28310076D02*
X145655387Y-28405314D01*
X145655387Y-28405314D02*
X145560149Y-28452933D01*
X146512530Y-28262457D02*
X146560149Y-28214838D01*
X146560149Y-28214838D02*
X146655387Y-28167219D01*
X146655387Y-28167219D02*
X146893482Y-28167219D01*
X146893482Y-28167219D02*
X146988720Y-28214838D01*
X146988720Y-28214838D02*
X147036339Y-28262457D01*
X147036339Y-28262457D02*
X147083958Y-28357695D01*
X147083958Y-28357695D02*
X147083958Y-28452933D01*
X147083958Y-28452933D02*
X147036339Y-28595790D01*
X147036339Y-28595790D02*
X146464911Y-29167219D01*
X146464911Y-29167219D02*
X147083958Y-29167219D01*
X147369673Y-28167219D02*
X147703006Y-29167219D01*
X147703006Y-29167219D02*
X148036339Y-28167219D01*
X208022054Y-27619600D02*
X208164911Y-27667219D01*
X208164911Y-27667219D02*
X208403006Y-27667219D01*
X208403006Y-27667219D02*
X208498244Y-27619600D01*
X208498244Y-27619600D02*
X208545863Y-27571980D01*
X208545863Y-27571980D02*
X208593482Y-27476742D01*
X208593482Y-27476742D02*
X208593482Y-27381504D01*
X208593482Y-27381504D02*
X208545863Y-27286266D01*
X208545863Y-27286266D02*
X208498244Y-27238647D01*
X208498244Y-27238647D02*
X208403006Y-27191028D01*
X208403006Y-27191028D02*
X208212530Y-27143409D01*
X208212530Y-27143409D02*
X208117292Y-27095790D01*
X208117292Y-27095790D02*
X208069673Y-27048171D01*
X208069673Y-27048171D02*
X208022054Y-26952933D01*
X208022054Y-26952933D02*
X208022054Y-26857695D01*
X208022054Y-26857695D02*
X208069673Y-26762457D01*
X208069673Y-26762457D02*
X208117292Y-26714838D01*
X208117292Y-26714838D02*
X208212530Y-26667219D01*
X208212530Y-26667219D02*
X208450625Y-26667219D01*
X208450625Y-26667219D02*
X208593482Y-26714838D01*
X209022054Y-27143409D02*
X209355387Y-27143409D01*
X209498244Y-27667219D02*
X209022054Y-27667219D01*
X209022054Y-27667219D02*
X209022054Y-26667219D01*
X209022054Y-26667219D02*
X209498244Y-26667219D01*
X209926816Y-27667219D02*
X209926816Y-26667219D01*
X209926816Y-26667219D02*
X210498244Y-27667219D01*
X210498244Y-27667219D02*
X210498244Y-26667219D01*
X210926816Y-27619600D02*
X211069673Y-27667219D01*
X211069673Y-27667219D02*
X211307768Y-27667219D01*
X211307768Y-27667219D02*
X211403006Y-27619600D01*
X211403006Y-27619600D02*
X211450625Y-27571980D01*
X211450625Y-27571980D02*
X211498244Y-27476742D01*
X211498244Y-27476742D02*
X211498244Y-27381504D01*
X211498244Y-27381504D02*
X211450625Y-27286266D01*
X211450625Y-27286266D02*
X211403006Y-27238647D01*
X211403006Y-27238647D02*
X211307768Y-27191028D01*
X211307768Y-27191028D02*
X211117292Y-27143409D01*
X211117292Y-27143409D02*
X211022054Y-27095790D01*
X211022054Y-27095790D02*
X210974435Y-27048171D01*
X210974435Y-27048171D02*
X210926816Y-26952933D01*
X210926816Y-26952933D02*
X210926816Y-26857695D01*
X210926816Y-26857695D02*
X210974435Y-26762457D01*
X210974435Y-26762457D02*
X211022054Y-26714838D01*
X211022054Y-26714838D02*
X211117292Y-26667219D01*
X211117292Y-26667219D02*
X211355387Y-26667219D01*
X211355387Y-26667219D02*
X211498244Y-26714838D01*
X212450625Y-27667219D02*
X211879197Y-27667219D01*
X212164911Y-27667219D02*
X212164911Y-26667219D01*
X212164911Y-26667219D02*
X212069673Y-26810076D01*
X212069673Y-26810076D02*
X211974435Y-26905314D01*
X211974435Y-26905314D02*
X211879197Y-26952933D01*
X202781504Y-79877945D02*
X202781504Y-79401755D01*
X203067219Y-79973183D02*
X202067219Y-79639850D01*
X202067219Y-79639850D02*
X203067219Y-79306517D01*
X203067219Y-78973183D02*
X202067219Y-78973183D01*
X202067219Y-78973183D02*
X203067219Y-78401755D01*
X203067219Y-78401755D02*
X202067219Y-78401755D01*
X202067219Y-78068421D02*
X202067219Y-77496993D01*
X203067219Y-77782707D02*
X202067219Y-77782707D01*
X195822054Y-81719600D02*
X195964911Y-81767219D01*
X195964911Y-81767219D02*
X196203006Y-81767219D01*
X196203006Y-81767219D02*
X196298244Y-81719600D01*
X196298244Y-81719600D02*
X196345863Y-81671980D01*
X196345863Y-81671980D02*
X196393482Y-81576742D01*
X196393482Y-81576742D02*
X196393482Y-81481504D01*
X196393482Y-81481504D02*
X196345863Y-81386266D01*
X196345863Y-81386266D02*
X196298244Y-81338647D01*
X196298244Y-81338647D02*
X196203006Y-81291028D01*
X196203006Y-81291028D02*
X196012530Y-81243409D01*
X196012530Y-81243409D02*
X195917292Y-81195790D01*
X195917292Y-81195790D02*
X195869673Y-81148171D01*
X195869673Y-81148171D02*
X195822054Y-81052933D01*
X195822054Y-81052933D02*
X195822054Y-80957695D01*
X195822054Y-80957695D02*
X195869673Y-80862457D01*
X195869673Y-80862457D02*
X195917292Y-80814838D01*
X195917292Y-80814838D02*
X196012530Y-80767219D01*
X196012530Y-80767219D02*
X196250625Y-80767219D01*
X196250625Y-80767219D02*
X196393482Y-80814838D01*
X196822054Y-81243409D02*
X197155387Y-81243409D01*
X197298244Y-81767219D02*
X196822054Y-81767219D01*
X196822054Y-81767219D02*
X196822054Y-80767219D01*
X196822054Y-80767219D02*
X197298244Y-80767219D01*
X197726816Y-81767219D02*
X197726816Y-80767219D01*
X197726816Y-80767219D02*
X198298244Y-81767219D01*
X198298244Y-81767219D02*
X198298244Y-80767219D01*
X198726816Y-81719600D02*
X198869673Y-81767219D01*
X198869673Y-81767219D02*
X199107768Y-81767219D01*
X199107768Y-81767219D02*
X199203006Y-81719600D01*
X199203006Y-81719600D02*
X199250625Y-81671980D01*
X199250625Y-81671980D02*
X199298244Y-81576742D01*
X199298244Y-81576742D02*
X199298244Y-81481504D01*
X199298244Y-81481504D02*
X199250625Y-81386266D01*
X199250625Y-81386266D02*
X199203006Y-81338647D01*
X199203006Y-81338647D02*
X199107768Y-81291028D01*
X199107768Y-81291028D02*
X198917292Y-81243409D01*
X198917292Y-81243409D02*
X198822054Y-81195790D01*
X198822054Y-81195790D02*
X198774435Y-81148171D01*
X198774435Y-81148171D02*
X198726816Y-81052933D01*
X198726816Y-81052933D02*
X198726816Y-80957695D01*
X198726816Y-80957695D02*
X198774435Y-80862457D01*
X198774435Y-80862457D02*
X198822054Y-80814838D01*
X198822054Y-80814838D02*
X198917292Y-80767219D01*
X198917292Y-80767219D02*
X199155387Y-80767219D01*
X199155387Y-80767219D02*
X199298244Y-80814838D01*
X199631578Y-80767219D02*
X200250625Y-80767219D01*
X200250625Y-80767219D02*
X199917292Y-81148171D01*
X199917292Y-81148171D02*
X200060149Y-81148171D01*
X200060149Y-81148171D02*
X200155387Y-81195790D01*
X200155387Y-81195790D02*
X200203006Y-81243409D01*
X200203006Y-81243409D02*
X200250625Y-81338647D01*
X200250625Y-81338647D02*
X200250625Y-81576742D01*
X200250625Y-81576742D02*
X200203006Y-81671980D01*
X200203006Y-81671980D02*
X200155387Y-81719600D01*
X200155387Y-81719600D02*
X200060149Y-81767219D01*
X200060149Y-81767219D02*
X199774435Y-81767219D01*
X199774435Y-81767219D02*
X199679197Y-81719600D01*
X199679197Y-81719600D02*
X199631578Y-81671980D01*
X165081101Y-29939719D02*
X164747768Y-29463528D01*
X164509673Y-29939719D02*
X164509673Y-28939719D01*
X164509673Y-28939719D02*
X164890625Y-28939719D01*
X164890625Y-28939719D02*
X164985863Y-28987338D01*
X164985863Y-28987338D02*
X165033482Y-29034957D01*
X165033482Y-29034957D02*
X165081101Y-29130195D01*
X165081101Y-29130195D02*
X165081101Y-29273052D01*
X165081101Y-29273052D02*
X165033482Y-29368290D01*
X165033482Y-29368290D02*
X164985863Y-29415909D01*
X164985863Y-29415909D02*
X164890625Y-29463528D01*
X164890625Y-29463528D02*
X164509673Y-29463528D01*
X165462054Y-29892100D02*
X165604911Y-29939719D01*
X165604911Y-29939719D02*
X165843006Y-29939719D01*
X165843006Y-29939719D02*
X165938244Y-29892100D01*
X165938244Y-29892100D02*
X165985863Y-29844480D01*
X165985863Y-29844480D02*
X166033482Y-29749242D01*
X166033482Y-29749242D02*
X166033482Y-29654004D01*
X166033482Y-29654004D02*
X165985863Y-29558766D01*
X165985863Y-29558766D02*
X165938244Y-29511147D01*
X165938244Y-29511147D02*
X165843006Y-29463528D01*
X165843006Y-29463528D02*
X165652530Y-29415909D01*
X165652530Y-29415909D02*
X165557292Y-29368290D01*
X165557292Y-29368290D02*
X165509673Y-29320671D01*
X165509673Y-29320671D02*
X165462054Y-29225433D01*
X165462054Y-29225433D02*
X165462054Y-29130195D01*
X165462054Y-29130195D02*
X165509673Y-29034957D01*
X165509673Y-29034957D02*
X165557292Y-28987338D01*
X165557292Y-28987338D02*
X165652530Y-28939719D01*
X165652530Y-28939719D02*
X165890625Y-28939719D01*
X165890625Y-28939719D02*
X166033482Y-28987338D01*
X166890625Y-29273052D02*
X166890625Y-29939719D01*
X166652530Y-28892100D02*
X166414435Y-29606385D01*
X166414435Y-29606385D02*
X167033482Y-29606385D01*
X167557292Y-29368290D02*
X167462054Y-29320671D01*
X167462054Y-29320671D02*
X167414435Y-29273052D01*
X167414435Y-29273052D02*
X167366816Y-29177814D01*
X167366816Y-29177814D02*
X167366816Y-29130195D01*
X167366816Y-29130195D02*
X167414435Y-29034957D01*
X167414435Y-29034957D02*
X167462054Y-28987338D01*
X167462054Y-28987338D02*
X167557292Y-28939719D01*
X167557292Y-28939719D02*
X167747768Y-28939719D01*
X167747768Y-28939719D02*
X167843006Y-28987338D01*
X167843006Y-28987338D02*
X167890625Y-29034957D01*
X167890625Y-29034957D02*
X167938244Y-29130195D01*
X167938244Y-29130195D02*
X167938244Y-29177814D01*
X167938244Y-29177814D02*
X167890625Y-29273052D01*
X167890625Y-29273052D02*
X167843006Y-29320671D01*
X167843006Y-29320671D02*
X167747768Y-29368290D01*
X167747768Y-29368290D02*
X167557292Y-29368290D01*
X167557292Y-29368290D02*
X167462054Y-29415909D01*
X167462054Y-29415909D02*
X167414435Y-29463528D01*
X167414435Y-29463528D02*
X167366816Y-29558766D01*
X167366816Y-29558766D02*
X167366816Y-29749242D01*
X167366816Y-29749242D02*
X167414435Y-29844480D01*
X167414435Y-29844480D02*
X167462054Y-29892100D01*
X167462054Y-29892100D02*
X167557292Y-29939719D01*
X167557292Y-29939719D02*
X167747768Y-29939719D01*
X167747768Y-29939719D02*
X167843006Y-29892100D01*
X167843006Y-29892100D02*
X167890625Y-29844480D01*
X167890625Y-29844480D02*
X167938244Y-29749242D01*
X167938244Y-29749242D02*
X167938244Y-29558766D01*
X167938244Y-29558766D02*
X167890625Y-29463528D01*
X167890625Y-29463528D02*
X167843006Y-29415909D01*
X167843006Y-29415909D02*
X167747768Y-29368290D01*
X168843006Y-28939719D02*
X168366816Y-28939719D01*
X168366816Y-28939719D02*
X168319197Y-29415909D01*
X168319197Y-29415909D02*
X168366816Y-29368290D01*
X168366816Y-29368290D02*
X168462054Y-29320671D01*
X168462054Y-29320671D02*
X168700149Y-29320671D01*
X168700149Y-29320671D02*
X168795387Y-29368290D01*
X168795387Y-29368290D02*
X168843006Y-29415909D01*
X168843006Y-29415909D02*
X168890625Y-29511147D01*
X168890625Y-29511147D02*
X168890625Y-29749242D01*
X168890625Y-29749242D02*
X168843006Y-29844480D01*
X168843006Y-29844480D02*
X168795387Y-29892100D01*
X168795387Y-29892100D02*
X168700149Y-29939719D01*
X168700149Y-29939719D02*
X168462054Y-29939719D01*
X168462054Y-29939719D02*
X168366816Y-29892100D01*
X168366816Y-29892100D02*
X168319197Y-29844480D01*
X163022054Y-56019600D02*
X163164911Y-56067219D01*
X163164911Y-56067219D02*
X163403006Y-56067219D01*
X163403006Y-56067219D02*
X163498244Y-56019600D01*
X163498244Y-56019600D02*
X163545863Y-55971980D01*
X163545863Y-55971980D02*
X163593482Y-55876742D01*
X163593482Y-55876742D02*
X163593482Y-55781504D01*
X163593482Y-55781504D02*
X163545863Y-55686266D01*
X163545863Y-55686266D02*
X163498244Y-55638647D01*
X163498244Y-55638647D02*
X163403006Y-55591028D01*
X163403006Y-55591028D02*
X163212530Y-55543409D01*
X163212530Y-55543409D02*
X163117292Y-55495790D01*
X163117292Y-55495790D02*
X163069673Y-55448171D01*
X163069673Y-55448171D02*
X163022054Y-55352933D01*
X163022054Y-55352933D02*
X163022054Y-55257695D01*
X163022054Y-55257695D02*
X163069673Y-55162457D01*
X163069673Y-55162457D02*
X163117292Y-55114838D01*
X163117292Y-55114838D02*
X163212530Y-55067219D01*
X163212530Y-55067219D02*
X163450625Y-55067219D01*
X163450625Y-55067219D02*
X163593482Y-55114838D01*
X163926816Y-55067219D02*
X164164911Y-56067219D01*
X164164911Y-56067219D02*
X164355387Y-55352933D01*
X164355387Y-55352933D02*
X164545863Y-56067219D01*
X164545863Y-56067219D02*
X164783959Y-55067219D01*
X165164911Y-56067219D02*
X165164911Y-55067219D01*
X165164911Y-55067219D02*
X165403006Y-55067219D01*
X165403006Y-55067219D02*
X165545863Y-55114838D01*
X165545863Y-55114838D02*
X165641101Y-55210076D01*
X165641101Y-55210076D02*
X165688720Y-55305314D01*
X165688720Y-55305314D02*
X165736339Y-55495790D01*
X165736339Y-55495790D02*
X165736339Y-55638647D01*
X165736339Y-55638647D02*
X165688720Y-55829123D01*
X165688720Y-55829123D02*
X165641101Y-55924361D01*
X165641101Y-55924361D02*
X165545863Y-56019600D01*
X165545863Y-56019600D02*
X165403006Y-56067219D01*
X165403006Y-56067219D02*
X165164911Y-56067219D01*
D11*
X130054819Y-52708333D02*
X130769104Y-52708333D01*
X130769104Y-52708333D02*
X130911961Y-52755952D01*
X130911961Y-52755952D02*
X131007200Y-52851190D01*
X131007200Y-52851190D02*
X131054819Y-52994047D01*
X131054819Y-52994047D02*
X131054819Y-53089285D01*
X130054819Y-52327380D02*
X130054819Y-51660714D01*
X130054819Y-51660714D02*
X131054819Y-52089285D01*
X189879166Y-41031009D02*
X189545833Y-41031009D01*
X189545833Y-41554819D02*
X189545833Y-40554819D01*
X189545833Y-40554819D02*
X190022023Y-40554819D01*
X190736309Y-41031009D02*
X190879166Y-41078628D01*
X190879166Y-41078628D02*
X190926785Y-41126247D01*
X190926785Y-41126247D02*
X190974404Y-41221485D01*
X190974404Y-41221485D02*
X190974404Y-41364342D01*
X190974404Y-41364342D02*
X190926785Y-41459580D01*
X190926785Y-41459580D02*
X190879166Y-41507200D01*
X190879166Y-41507200D02*
X190783928Y-41554819D01*
X190783928Y-41554819D02*
X190402976Y-41554819D01*
X190402976Y-41554819D02*
X190402976Y-40554819D01*
X190402976Y-40554819D02*
X190736309Y-40554819D01*
X190736309Y-40554819D02*
X190831547Y-40602438D01*
X190831547Y-40602438D02*
X190879166Y-40650057D01*
X190879166Y-40650057D02*
X190926785Y-40745295D01*
X190926785Y-40745295D02*
X190926785Y-40840533D01*
X190926785Y-40840533D02*
X190879166Y-40935771D01*
X190879166Y-40935771D02*
X190831547Y-40983390D01*
X190831547Y-40983390D02*
X190736309Y-41031009D01*
X190736309Y-41031009D02*
X190402976Y-41031009D01*
X191307738Y-40554819D02*
X191926785Y-40554819D01*
X191926785Y-40554819D02*
X191593452Y-40935771D01*
X191593452Y-40935771D02*
X191736309Y-40935771D01*
X191736309Y-40935771D02*
X191831547Y-40983390D01*
X191831547Y-40983390D02*
X191879166Y-41031009D01*
X191879166Y-41031009D02*
X191926785Y-41126247D01*
X191926785Y-41126247D02*
X191926785Y-41364342D01*
X191926785Y-41364342D02*
X191879166Y-41459580D01*
X191879166Y-41459580D02*
X191831547Y-41507200D01*
X191831547Y-41507200D02*
X191736309Y-41554819D01*
X191736309Y-41554819D02*
X191450595Y-41554819D01*
X191450595Y-41554819D02*
X191355357Y-41507200D01*
X191355357Y-41507200D02*
X191307738Y-41459580D01*
X162866666Y-18654819D02*
X162866666Y-19369104D01*
X162866666Y-19369104D02*
X162819047Y-19511961D01*
X162819047Y-19511961D02*
X162723809Y-19607200D01*
X162723809Y-19607200D02*
X162580952Y-19654819D01*
X162580952Y-19654819D02*
X162485714Y-19654819D01*
X163866666Y-19654819D02*
X163295238Y-19654819D01*
X163580952Y-19654819D02*
X163580952Y-18654819D01*
X163580952Y-18654819D02*
X163485714Y-18797676D01*
X163485714Y-18797676D02*
X163390476Y-18892914D01*
X163390476Y-18892914D02*
X163295238Y-18940533D01*
X145754819Y-40342857D02*
X145278628Y-40676190D01*
X145754819Y-40914285D02*
X144754819Y-40914285D01*
X144754819Y-40914285D02*
X144754819Y-40533333D01*
X144754819Y-40533333D02*
X144802438Y-40438095D01*
X144802438Y-40438095D02*
X144850057Y-40390476D01*
X144850057Y-40390476D02*
X144945295Y-40342857D01*
X144945295Y-40342857D02*
X145088152Y-40342857D01*
X145088152Y-40342857D02*
X145183390Y-40390476D01*
X145183390Y-40390476D02*
X145231009Y-40438095D01*
X145231009Y-40438095D02*
X145278628Y-40533333D01*
X145278628Y-40533333D02*
X145278628Y-40914285D01*
X144850057Y-39961904D02*
X144802438Y-39914285D01*
X144802438Y-39914285D02*
X144754819Y-39819047D01*
X144754819Y-39819047D02*
X144754819Y-39580952D01*
X144754819Y-39580952D02*
X144802438Y-39485714D01*
X144802438Y-39485714D02*
X144850057Y-39438095D01*
X144850057Y-39438095D02*
X144945295Y-39390476D01*
X144945295Y-39390476D02*
X145040533Y-39390476D01*
X145040533Y-39390476D02*
X145183390Y-39438095D01*
X145183390Y-39438095D02*
X145754819Y-40009523D01*
X145754819Y-40009523D02*
X145754819Y-39390476D01*
X144754819Y-39057142D02*
X144754819Y-38438095D01*
X144754819Y-38438095D02*
X145135771Y-38771428D01*
X145135771Y-38771428D02*
X145135771Y-38628571D01*
X145135771Y-38628571D02*
X145183390Y-38533333D01*
X145183390Y-38533333D02*
X145231009Y-38485714D01*
X145231009Y-38485714D02*
X145326247Y-38438095D01*
X145326247Y-38438095D02*
X145564342Y-38438095D01*
X145564342Y-38438095D02*
X145659580Y-38485714D01*
X145659580Y-38485714D02*
X145707200Y-38533333D01*
X145707200Y-38533333D02*
X145754819Y-38628571D01*
X145754819Y-38628571D02*
X145754819Y-38914285D01*
X145754819Y-38914285D02*
X145707200Y-39009523D01*
X145707200Y-39009523D02*
X145659580Y-39057142D01*
X162733333Y-37054819D02*
X162257143Y-37054819D01*
X162257143Y-37054819D02*
X162257143Y-36054819D01*
X163209524Y-36483390D02*
X163114286Y-36435771D01*
X163114286Y-36435771D02*
X163066667Y-36388152D01*
X163066667Y-36388152D02*
X163019048Y-36292914D01*
X163019048Y-36292914D02*
X163019048Y-36245295D01*
X163019048Y-36245295D02*
X163066667Y-36150057D01*
X163066667Y-36150057D02*
X163114286Y-36102438D01*
X163114286Y-36102438D02*
X163209524Y-36054819D01*
X163209524Y-36054819D02*
X163400000Y-36054819D01*
X163400000Y-36054819D02*
X163495238Y-36102438D01*
X163495238Y-36102438D02*
X163542857Y-36150057D01*
X163542857Y-36150057D02*
X163590476Y-36245295D01*
X163590476Y-36245295D02*
X163590476Y-36292914D01*
X163590476Y-36292914D02*
X163542857Y-36388152D01*
X163542857Y-36388152D02*
X163495238Y-36435771D01*
X163495238Y-36435771D02*
X163400000Y-36483390D01*
X163400000Y-36483390D02*
X163209524Y-36483390D01*
X163209524Y-36483390D02*
X163114286Y-36531009D01*
X163114286Y-36531009D02*
X163066667Y-36578628D01*
X163066667Y-36578628D02*
X163019048Y-36673866D01*
X163019048Y-36673866D02*
X163019048Y-36864342D01*
X163019048Y-36864342D02*
X163066667Y-36959580D01*
X163066667Y-36959580D02*
X163114286Y-37007200D01*
X163114286Y-37007200D02*
X163209524Y-37054819D01*
X163209524Y-37054819D02*
X163400000Y-37054819D01*
X163400000Y-37054819D02*
X163495238Y-37007200D01*
X163495238Y-37007200D02*
X163542857Y-36959580D01*
X163542857Y-36959580D02*
X163590476Y-36864342D01*
X163590476Y-36864342D02*
X163590476Y-36673866D01*
X163590476Y-36673866D02*
X163542857Y-36578628D01*
X163542857Y-36578628D02*
X163495238Y-36531009D01*
X163495238Y-36531009D02*
X163400000Y-36483390D01*
X135959580Y-50142857D02*
X136007200Y-50190476D01*
X136007200Y-50190476D02*
X136054819Y-50333333D01*
X136054819Y-50333333D02*
X136054819Y-50428571D01*
X136054819Y-50428571D02*
X136007200Y-50571428D01*
X136007200Y-50571428D02*
X135911961Y-50666666D01*
X135911961Y-50666666D02*
X135816723Y-50714285D01*
X135816723Y-50714285D02*
X135626247Y-50761904D01*
X135626247Y-50761904D02*
X135483390Y-50761904D01*
X135483390Y-50761904D02*
X135292914Y-50714285D01*
X135292914Y-50714285D02*
X135197676Y-50666666D01*
X135197676Y-50666666D02*
X135102438Y-50571428D01*
X135102438Y-50571428D02*
X135054819Y-50428571D01*
X135054819Y-50428571D02*
X135054819Y-50333333D01*
X135054819Y-50333333D02*
X135102438Y-50190476D01*
X135102438Y-50190476D02*
X135150057Y-50142857D01*
X135054819Y-49809523D02*
X135054819Y-49190476D01*
X135054819Y-49190476D02*
X135435771Y-49523809D01*
X135435771Y-49523809D02*
X135435771Y-49380952D01*
X135435771Y-49380952D02*
X135483390Y-49285714D01*
X135483390Y-49285714D02*
X135531009Y-49238095D01*
X135531009Y-49238095D02*
X135626247Y-49190476D01*
X135626247Y-49190476D02*
X135864342Y-49190476D01*
X135864342Y-49190476D02*
X135959580Y-49238095D01*
X135959580Y-49238095D02*
X136007200Y-49285714D01*
X136007200Y-49285714D02*
X136054819Y-49380952D01*
X136054819Y-49380952D02*
X136054819Y-49666666D01*
X136054819Y-49666666D02*
X136007200Y-49761904D01*
X136007200Y-49761904D02*
X135959580Y-49809523D01*
X135150057Y-48809523D02*
X135102438Y-48761904D01*
X135102438Y-48761904D02*
X135054819Y-48666666D01*
X135054819Y-48666666D02*
X135054819Y-48428571D01*
X135054819Y-48428571D02*
X135102438Y-48333333D01*
X135102438Y-48333333D02*
X135150057Y-48285714D01*
X135150057Y-48285714D02*
X135245295Y-48238095D01*
X135245295Y-48238095D02*
X135340533Y-48238095D01*
X135340533Y-48238095D02*
X135483390Y-48285714D01*
X135483390Y-48285714D02*
X136054819Y-48857142D01*
X136054819Y-48857142D02*
X136054819Y-48238095D01*
X167533333Y-42154819D02*
X167200000Y-41678628D01*
X166961905Y-42154819D02*
X166961905Y-41154819D01*
X166961905Y-41154819D02*
X167342857Y-41154819D01*
X167342857Y-41154819D02*
X167438095Y-41202438D01*
X167438095Y-41202438D02*
X167485714Y-41250057D01*
X167485714Y-41250057D02*
X167533333Y-41345295D01*
X167533333Y-41345295D02*
X167533333Y-41488152D01*
X167533333Y-41488152D02*
X167485714Y-41583390D01*
X167485714Y-41583390D02*
X167438095Y-41631009D01*
X167438095Y-41631009D02*
X167342857Y-41678628D01*
X167342857Y-41678628D02*
X166961905Y-41678628D01*
X168438095Y-41154819D02*
X167961905Y-41154819D01*
X167961905Y-41154819D02*
X167914286Y-41631009D01*
X167914286Y-41631009D02*
X167961905Y-41583390D01*
X167961905Y-41583390D02*
X168057143Y-41535771D01*
X168057143Y-41535771D02*
X168295238Y-41535771D01*
X168295238Y-41535771D02*
X168390476Y-41583390D01*
X168390476Y-41583390D02*
X168438095Y-41631009D01*
X168438095Y-41631009D02*
X168485714Y-41726247D01*
X168485714Y-41726247D02*
X168485714Y-41964342D01*
X168485714Y-41964342D02*
X168438095Y-42059580D01*
X168438095Y-42059580D02*
X168390476Y-42107200D01*
X168390476Y-42107200D02*
X168295238Y-42154819D01*
X168295238Y-42154819D02*
X168057143Y-42154819D01*
X168057143Y-42154819D02*
X167961905Y-42107200D01*
X167961905Y-42107200D02*
X167914286Y-42059580D01*
X133557142Y-21854819D02*
X133223809Y-21378628D01*
X132985714Y-21854819D02*
X132985714Y-20854819D01*
X132985714Y-20854819D02*
X133366666Y-20854819D01*
X133366666Y-20854819D02*
X133461904Y-20902438D01*
X133461904Y-20902438D02*
X133509523Y-20950057D01*
X133509523Y-20950057D02*
X133557142Y-21045295D01*
X133557142Y-21045295D02*
X133557142Y-21188152D01*
X133557142Y-21188152D02*
X133509523Y-21283390D01*
X133509523Y-21283390D02*
X133461904Y-21331009D01*
X133461904Y-21331009D02*
X133366666Y-21378628D01*
X133366666Y-21378628D02*
X132985714Y-21378628D01*
X133938095Y-20950057D02*
X133985714Y-20902438D01*
X133985714Y-20902438D02*
X134080952Y-20854819D01*
X134080952Y-20854819D02*
X134319047Y-20854819D01*
X134319047Y-20854819D02*
X134414285Y-20902438D01*
X134414285Y-20902438D02*
X134461904Y-20950057D01*
X134461904Y-20950057D02*
X134509523Y-21045295D01*
X134509523Y-21045295D02*
X134509523Y-21140533D01*
X134509523Y-21140533D02*
X134461904Y-21283390D01*
X134461904Y-21283390D02*
X133890476Y-21854819D01*
X133890476Y-21854819D02*
X134509523Y-21854819D01*
X135128571Y-20854819D02*
X135223809Y-20854819D01*
X135223809Y-20854819D02*
X135319047Y-20902438D01*
X135319047Y-20902438D02*
X135366666Y-20950057D01*
X135366666Y-20950057D02*
X135414285Y-21045295D01*
X135414285Y-21045295D02*
X135461904Y-21235771D01*
X135461904Y-21235771D02*
X135461904Y-21473866D01*
X135461904Y-21473866D02*
X135414285Y-21664342D01*
X135414285Y-21664342D02*
X135366666Y-21759580D01*
X135366666Y-21759580D02*
X135319047Y-21807200D01*
X135319047Y-21807200D02*
X135223809Y-21854819D01*
X135223809Y-21854819D02*
X135128571Y-21854819D01*
X135128571Y-21854819D02*
X135033333Y-21807200D01*
X135033333Y-21807200D02*
X134985714Y-21759580D01*
X134985714Y-21759580D02*
X134938095Y-21664342D01*
X134938095Y-21664342D02*
X134890476Y-21473866D01*
X134890476Y-21473866D02*
X134890476Y-21235771D01*
X134890476Y-21235771D02*
X134938095Y-21045295D01*
X134938095Y-21045295D02*
X134985714Y-20950057D01*
X134985714Y-20950057D02*
X135033333Y-20902438D01*
X135033333Y-20902438D02*
X135128571Y-20854819D01*
X148957142Y-19759580D02*
X148909523Y-19807200D01*
X148909523Y-19807200D02*
X148766666Y-19854819D01*
X148766666Y-19854819D02*
X148671428Y-19854819D01*
X148671428Y-19854819D02*
X148528571Y-19807200D01*
X148528571Y-19807200D02*
X148433333Y-19711961D01*
X148433333Y-19711961D02*
X148385714Y-19616723D01*
X148385714Y-19616723D02*
X148338095Y-19426247D01*
X148338095Y-19426247D02*
X148338095Y-19283390D01*
X148338095Y-19283390D02*
X148385714Y-19092914D01*
X148385714Y-19092914D02*
X148433333Y-18997676D01*
X148433333Y-18997676D02*
X148528571Y-18902438D01*
X148528571Y-18902438D02*
X148671428Y-18854819D01*
X148671428Y-18854819D02*
X148766666Y-18854819D01*
X148766666Y-18854819D02*
X148909523Y-18902438D01*
X148909523Y-18902438D02*
X148957142Y-18950057D01*
X149290476Y-18854819D02*
X149909523Y-18854819D01*
X149909523Y-18854819D02*
X149576190Y-19235771D01*
X149576190Y-19235771D02*
X149719047Y-19235771D01*
X149719047Y-19235771D02*
X149814285Y-19283390D01*
X149814285Y-19283390D02*
X149861904Y-19331009D01*
X149861904Y-19331009D02*
X149909523Y-19426247D01*
X149909523Y-19426247D02*
X149909523Y-19664342D01*
X149909523Y-19664342D02*
X149861904Y-19759580D01*
X149861904Y-19759580D02*
X149814285Y-19807200D01*
X149814285Y-19807200D02*
X149719047Y-19854819D01*
X149719047Y-19854819D02*
X149433333Y-19854819D01*
X149433333Y-19854819D02*
X149338095Y-19807200D01*
X149338095Y-19807200D02*
X149290476Y-19759580D01*
X150766666Y-19188152D02*
X150766666Y-19854819D01*
X150528571Y-18807200D02*
X150290476Y-19521485D01*
X150290476Y-19521485D02*
X150909523Y-19521485D01*
X154607142Y-70079819D02*
X154273809Y-69603628D01*
X154035714Y-70079819D02*
X154035714Y-69079819D01*
X154035714Y-69079819D02*
X154416666Y-69079819D01*
X154416666Y-69079819D02*
X154511904Y-69127438D01*
X154511904Y-69127438D02*
X154559523Y-69175057D01*
X154559523Y-69175057D02*
X154607142Y-69270295D01*
X154607142Y-69270295D02*
X154607142Y-69413152D01*
X154607142Y-69413152D02*
X154559523Y-69508390D01*
X154559523Y-69508390D02*
X154511904Y-69556009D01*
X154511904Y-69556009D02*
X154416666Y-69603628D01*
X154416666Y-69603628D02*
X154035714Y-69603628D01*
X155559523Y-70079819D02*
X154988095Y-70079819D01*
X155273809Y-70079819D02*
X155273809Y-69079819D01*
X155273809Y-69079819D02*
X155178571Y-69222676D01*
X155178571Y-69222676D02*
X155083333Y-69317914D01*
X155083333Y-69317914D02*
X154988095Y-69365533D01*
X156464285Y-69079819D02*
X155988095Y-69079819D01*
X155988095Y-69079819D02*
X155940476Y-69556009D01*
X155940476Y-69556009D02*
X155988095Y-69508390D01*
X155988095Y-69508390D02*
X156083333Y-69460771D01*
X156083333Y-69460771D02*
X156321428Y-69460771D01*
X156321428Y-69460771D02*
X156416666Y-69508390D01*
X156416666Y-69508390D02*
X156464285Y-69556009D01*
X156464285Y-69556009D02*
X156511904Y-69651247D01*
X156511904Y-69651247D02*
X156511904Y-69889342D01*
X156511904Y-69889342D02*
X156464285Y-69984580D01*
X156464285Y-69984580D02*
X156416666Y-70032200D01*
X156416666Y-70032200D02*
X156321428Y-70079819D01*
X156321428Y-70079819D02*
X156083333Y-70079819D01*
X156083333Y-70079819D02*
X155988095Y-70032200D01*
X155988095Y-70032200D02*
X155940476Y-69984580D01*
X138457142Y-31754819D02*
X138123809Y-31278628D01*
X137885714Y-31754819D02*
X137885714Y-30754819D01*
X137885714Y-30754819D02*
X138266666Y-30754819D01*
X138266666Y-30754819D02*
X138361904Y-30802438D01*
X138361904Y-30802438D02*
X138409523Y-30850057D01*
X138409523Y-30850057D02*
X138457142Y-30945295D01*
X138457142Y-30945295D02*
X138457142Y-31088152D01*
X138457142Y-31088152D02*
X138409523Y-31183390D01*
X138409523Y-31183390D02*
X138361904Y-31231009D01*
X138361904Y-31231009D02*
X138266666Y-31278628D01*
X138266666Y-31278628D02*
X137885714Y-31278628D01*
X138838095Y-30850057D02*
X138885714Y-30802438D01*
X138885714Y-30802438D02*
X138980952Y-30754819D01*
X138980952Y-30754819D02*
X139219047Y-30754819D01*
X139219047Y-30754819D02*
X139314285Y-30802438D01*
X139314285Y-30802438D02*
X139361904Y-30850057D01*
X139361904Y-30850057D02*
X139409523Y-30945295D01*
X139409523Y-30945295D02*
X139409523Y-31040533D01*
X139409523Y-31040533D02*
X139361904Y-31183390D01*
X139361904Y-31183390D02*
X138790476Y-31754819D01*
X138790476Y-31754819D02*
X139409523Y-31754819D01*
X140266666Y-31088152D02*
X140266666Y-31754819D01*
X140028571Y-30707200D02*
X139790476Y-31421485D01*
X139790476Y-31421485D02*
X140409523Y-31421485D01*
X177633333Y-52959580D02*
X177585714Y-53007200D01*
X177585714Y-53007200D02*
X177442857Y-53054819D01*
X177442857Y-53054819D02*
X177347619Y-53054819D01*
X177347619Y-53054819D02*
X177204762Y-53007200D01*
X177204762Y-53007200D02*
X177109524Y-52911961D01*
X177109524Y-52911961D02*
X177061905Y-52816723D01*
X177061905Y-52816723D02*
X177014286Y-52626247D01*
X177014286Y-52626247D02*
X177014286Y-52483390D01*
X177014286Y-52483390D02*
X177061905Y-52292914D01*
X177061905Y-52292914D02*
X177109524Y-52197676D01*
X177109524Y-52197676D02*
X177204762Y-52102438D01*
X177204762Y-52102438D02*
X177347619Y-52054819D01*
X177347619Y-52054819D02*
X177442857Y-52054819D01*
X177442857Y-52054819D02*
X177585714Y-52102438D01*
X177585714Y-52102438D02*
X177633333Y-52150057D01*
X178490476Y-52054819D02*
X178300000Y-52054819D01*
X178300000Y-52054819D02*
X178204762Y-52102438D01*
X178204762Y-52102438D02*
X178157143Y-52150057D01*
X178157143Y-52150057D02*
X178061905Y-52292914D01*
X178061905Y-52292914D02*
X178014286Y-52483390D01*
X178014286Y-52483390D02*
X178014286Y-52864342D01*
X178014286Y-52864342D02*
X178061905Y-52959580D01*
X178061905Y-52959580D02*
X178109524Y-53007200D01*
X178109524Y-53007200D02*
X178204762Y-53054819D01*
X178204762Y-53054819D02*
X178395238Y-53054819D01*
X178395238Y-53054819D02*
X178490476Y-53007200D01*
X178490476Y-53007200D02*
X178538095Y-52959580D01*
X178538095Y-52959580D02*
X178585714Y-52864342D01*
X178585714Y-52864342D02*
X178585714Y-52626247D01*
X178585714Y-52626247D02*
X178538095Y-52531009D01*
X178538095Y-52531009D02*
X178490476Y-52483390D01*
X178490476Y-52483390D02*
X178395238Y-52435771D01*
X178395238Y-52435771D02*
X178204762Y-52435771D01*
X178204762Y-52435771D02*
X178109524Y-52483390D01*
X178109524Y-52483390D02*
X178061905Y-52531009D01*
X178061905Y-52531009D02*
X178014286Y-52626247D01*
X140733333Y-29254819D02*
X140257143Y-29254819D01*
X140257143Y-29254819D02*
X140257143Y-28254819D01*
X140971429Y-28254819D02*
X141638095Y-28254819D01*
X141638095Y-28254819D02*
X141209524Y-29254819D01*
X158366666Y-82754819D02*
X158366666Y-83469104D01*
X158366666Y-83469104D02*
X158319047Y-83611961D01*
X158319047Y-83611961D02*
X158223809Y-83707200D01*
X158223809Y-83707200D02*
X158080952Y-83754819D01*
X158080952Y-83754819D02*
X157985714Y-83754819D01*
X158747619Y-82754819D02*
X159366666Y-82754819D01*
X159366666Y-82754819D02*
X159033333Y-83135771D01*
X159033333Y-83135771D02*
X159176190Y-83135771D01*
X159176190Y-83135771D02*
X159271428Y-83183390D01*
X159271428Y-83183390D02*
X159319047Y-83231009D01*
X159319047Y-83231009D02*
X159366666Y-83326247D01*
X159366666Y-83326247D02*
X159366666Y-83564342D01*
X159366666Y-83564342D02*
X159319047Y-83659580D01*
X159319047Y-83659580D02*
X159271428Y-83707200D01*
X159271428Y-83707200D02*
X159176190Y-83754819D01*
X159176190Y-83754819D02*
X158890476Y-83754819D01*
X158890476Y-83754819D02*
X158795238Y-83707200D01*
X158795238Y-83707200D02*
X158747619Y-83659580D01*
X180854819Y-61529166D02*
X180854819Y-62005356D01*
X180854819Y-62005356D02*
X179854819Y-62005356D01*
X180854819Y-60672023D02*
X180854819Y-61243451D01*
X180854819Y-60957737D02*
X179854819Y-60957737D01*
X179854819Y-60957737D02*
X179997676Y-61052975D01*
X179997676Y-61052975D02*
X180092914Y-61148213D01*
X180092914Y-61148213D02*
X180140533Y-61243451D01*
X127171785Y-27943509D02*
X127314642Y-27991128D01*
X127314642Y-27991128D02*
X127362261Y-28038747D01*
X127362261Y-28038747D02*
X127409880Y-28133985D01*
X127409880Y-28133985D02*
X127409880Y-28276842D01*
X127409880Y-28276842D02*
X127362261Y-28372080D01*
X127362261Y-28372080D02*
X127314642Y-28419700D01*
X127314642Y-28419700D02*
X127219404Y-28467319D01*
X127219404Y-28467319D02*
X126838452Y-28467319D01*
X126838452Y-28467319D02*
X126838452Y-27467319D01*
X126838452Y-27467319D02*
X127171785Y-27467319D01*
X127171785Y-27467319D02*
X127267023Y-27514938D01*
X127267023Y-27514938D02*
X127314642Y-27562557D01*
X127314642Y-27562557D02*
X127362261Y-27657795D01*
X127362261Y-27657795D02*
X127362261Y-27753033D01*
X127362261Y-27753033D02*
X127314642Y-27848271D01*
X127314642Y-27848271D02*
X127267023Y-27895890D01*
X127267023Y-27895890D02*
X127171785Y-27943509D01*
X127171785Y-27943509D02*
X126838452Y-27943509D01*
X127695595Y-27467319D02*
X128267023Y-27467319D01*
X127981309Y-28467319D02*
X127981309Y-27467319D01*
X129124166Y-28467319D02*
X128552738Y-28467319D01*
X128838452Y-28467319D02*
X128838452Y-27467319D01*
X128838452Y-27467319D02*
X128743214Y-27610176D01*
X128743214Y-27610176D02*
X128647976Y-27705414D01*
X128647976Y-27705414D02*
X128552738Y-27753033D01*
X155054819Y-43067857D02*
X154578628Y-43401190D01*
X155054819Y-43639285D02*
X154054819Y-43639285D01*
X154054819Y-43639285D02*
X154054819Y-43258333D01*
X154054819Y-43258333D02*
X154102438Y-43163095D01*
X154102438Y-43163095D02*
X154150057Y-43115476D01*
X154150057Y-43115476D02*
X154245295Y-43067857D01*
X154245295Y-43067857D02*
X154388152Y-43067857D01*
X154388152Y-43067857D02*
X154483390Y-43115476D01*
X154483390Y-43115476D02*
X154531009Y-43163095D01*
X154531009Y-43163095D02*
X154578628Y-43258333D01*
X154578628Y-43258333D02*
X154578628Y-43639285D01*
X154150057Y-42686904D02*
X154102438Y-42639285D01*
X154102438Y-42639285D02*
X154054819Y-42544047D01*
X154054819Y-42544047D02*
X154054819Y-42305952D01*
X154054819Y-42305952D02*
X154102438Y-42210714D01*
X154102438Y-42210714D02*
X154150057Y-42163095D01*
X154150057Y-42163095D02*
X154245295Y-42115476D01*
X154245295Y-42115476D02*
X154340533Y-42115476D01*
X154340533Y-42115476D02*
X154483390Y-42163095D01*
X154483390Y-42163095D02*
X155054819Y-42734523D01*
X155054819Y-42734523D02*
X155054819Y-42115476D01*
X154054819Y-41782142D02*
X154054819Y-41115476D01*
X154054819Y-41115476D02*
X155054819Y-41544047D01*
X154111905Y-61279819D02*
X154111905Y-60279819D01*
X154111905Y-60279819D02*
X154350000Y-60279819D01*
X154350000Y-60279819D02*
X154492857Y-60327438D01*
X154492857Y-60327438D02*
X154588095Y-60422676D01*
X154588095Y-60422676D02*
X154635714Y-60517914D01*
X154635714Y-60517914D02*
X154683333Y-60708390D01*
X154683333Y-60708390D02*
X154683333Y-60851247D01*
X154683333Y-60851247D02*
X154635714Y-61041723D01*
X154635714Y-61041723D02*
X154588095Y-61136961D01*
X154588095Y-61136961D02*
X154492857Y-61232200D01*
X154492857Y-61232200D02*
X154350000Y-61279819D01*
X154350000Y-61279819D02*
X154111905Y-61279819D01*
X155016667Y-60279819D02*
X155683333Y-60279819D01*
X155683333Y-60279819D02*
X155254762Y-61279819D01*
X192733333Y-70659580D02*
X192685714Y-70707200D01*
X192685714Y-70707200D02*
X192542857Y-70754819D01*
X192542857Y-70754819D02*
X192447619Y-70754819D01*
X192447619Y-70754819D02*
X192304762Y-70707200D01*
X192304762Y-70707200D02*
X192209524Y-70611961D01*
X192209524Y-70611961D02*
X192161905Y-70516723D01*
X192161905Y-70516723D02*
X192114286Y-70326247D01*
X192114286Y-70326247D02*
X192114286Y-70183390D01*
X192114286Y-70183390D02*
X192161905Y-69992914D01*
X192161905Y-69992914D02*
X192209524Y-69897676D01*
X192209524Y-69897676D02*
X192304762Y-69802438D01*
X192304762Y-69802438D02*
X192447619Y-69754819D01*
X192447619Y-69754819D02*
X192542857Y-69754819D01*
X192542857Y-69754819D02*
X192685714Y-69802438D01*
X192685714Y-69802438D02*
X192733333Y-69850057D01*
X193590476Y-70088152D02*
X193590476Y-70754819D01*
X193352381Y-69707200D02*
X193114286Y-70421485D01*
X193114286Y-70421485D02*
X193733333Y-70421485D01*
X165627142Y-64159580D02*
X165579523Y-64207200D01*
X165579523Y-64207200D02*
X165436666Y-64254819D01*
X165436666Y-64254819D02*
X165341428Y-64254819D01*
X165341428Y-64254819D02*
X165198571Y-64207200D01*
X165198571Y-64207200D02*
X165103333Y-64111961D01*
X165103333Y-64111961D02*
X165055714Y-64016723D01*
X165055714Y-64016723D02*
X165008095Y-63826247D01*
X165008095Y-63826247D02*
X165008095Y-63683390D01*
X165008095Y-63683390D02*
X165055714Y-63492914D01*
X165055714Y-63492914D02*
X165103333Y-63397676D01*
X165103333Y-63397676D02*
X165198571Y-63302438D01*
X165198571Y-63302438D02*
X165341428Y-63254819D01*
X165341428Y-63254819D02*
X165436666Y-63254819D01*
X165436666Y-63254819D02*
X165579523Y-63302438D01*
X165579523Y-63302438D02*
X165627142Y-63350057D01*
X166579523Y-64254819D02*
X166008095Y-64254819D01*
X166293809Y-64254819D02*
X166293809Y-63254819D01*
X166293809Y-63254819D02*
X166198571Y-63397676D01*
X166198571Y-63397676D02*
X166103333Y-63492914D01*
X166103333Y-63492914D02*
X166008095Y-63540533D01*
X167436666Y-63588152D02*
X167436666Y-64254819D01*
X167198571Y-63207200D02*
X166960476Y-63921485D01*
X166960476Y-63921485D02*
X167579523Y-63921485D01*
X133557142Y-28654819D02*
X133223809Y-28178628D01*
X132985714Y-28654819D02*
X132985714Y-27654819D01*
X132985714Y-27654819D02*
X133366666Y-27654819D01*
X133366666Y-27654819D02*
X133461904Y-27702438D01*
X133461904Y-27702438D02*
X133509523Y-27750057D01*
X133509523Y-27750057D02*
X133557142Y-27845295D01*
X133557142Y-27845295D02*
X133557142Y-27988152D01*
X133557142Y-27988152D02*
X133509523Y-28083390D01*
X133509523Y-28083390D02*
X133461904Y-28131009D01*
X133461904Y-28131009D02*
X133366666Y-28178628D01*
X133366666Y-28178628D02*
X132985714Y-28178628D01*
X133938095Y-27750057D02*
X133985714Y-27702438D01*
X133985714Y-27702438D02*
X134080952Y-27654819D01*
X134080952Y-27654819D02*
X134319047Y-27654819D01*
X134319047Y-27654819D02*
X134414285Y-27702438D01*
X134414285Y-27702438D02*
X134461904Y-27750057D01*
X134461904Y-27750057D02*
X134509523Y-27845295D01*
X134509523Y-27845295D02*
X134509523Y-27940533D01*
X134509523Y-27940533D02*
X134461904Y-28083390D01*
X134461904Y-28083390D02*
X133890476Y-28654819D01*
X133890476Y-28654819D02*
X134509523Y-28654819D01*
X134890476Y-27750057D02*
X134938095Y-27702438D01*
X134938095Y-27702438D02*
X135033333Y-27654819D01*
X135033333Y-27654819D02*
X135271428Y-27654819D01*
X135271428Y-27654819D02*
X135366666Y-27702438D01*
X135366666Y-27702438D02*
X135414285Y-27750057D01*
X135414285Y-27750057D02*
X135461904Y-27845295D01*
X135461904Y-27845295D02*
X135461904Y-27940533D01*
X135461904Y-27940533D02*
X135414285Y-28083390D01*
X135414285Y-28083390D02*
X134842857Y-28654819D01*
X134842857Y-28654819D02*
X135461904Y-28654819D01*
X189666666Y-18154819D02*
X189666666Y-18869104D01*
X189666666Y-18869104D02*
X189619047Y-19011961D01*
X189619047Y-19011961D02*
X189523809Y-19107200D01*
X189523809Y-19107200D02*
X189380952Y-19154819D01*
X189380952Y-19154819D02*
X189285714Y-19154819D01*
X190095238Y-18250057D02*
X190142857Y-18202438D01*
X190142857Y-18202438D02*
X190238095Y-18154819D01*
X190238095Y-18154819D02*
X190476190Y-18154819D01*
X190476190Y-18154819D02*
X190571428Y-18202438D01*
X190571428Y-18202438D02*
X190619047Y-18250057D01*
X190619047Y-18250057D02*
X190666666Y-18345295D01*
X190666666Y-18345295D02*
X190666666Y-18440533D01*
X190666666Y-18440533D02*
X190619047Y-18583390D01*
X190619047Y-18583390D02*
X190047619Y-19154819D01*
X190047619Y-19154819D02*
X190666666Y-19154819D01*
X138959580Y-61342857D02*
X139007200Y-61390476D01*
X139007200Y-61390476D02*
X139054819Y-61533333D01*
X139054819Y-61533333D02*
X139054819Y-61628571D01*
X139054819Y-61628571D02*
X139007200Y-61771428D01*
X139007200Y-61771428D02*
X138911961Y-61866666D01*
X138911961Y-61866666D02*
X138816723Y-61914285D01*
X138816723Y-61914285D02*
X138626247Y-61961904D01*
X138626247Y-61961904D02*
X138483390Y-61961904D01*
X138483390Y-61961904D02*
X138292914Y-61914285D01*
X138292914Y-61914285D02*
X138197676Y-61866666D01*
X138197676Y-61866666D02*
X138102438Y-61771428D01*
X138102438Y-61771428D02*
X138054819Y-61628571D01*
X138054819Y-61628571D02*
X138054819Y-61533333D01*
X138054819Y-61533333D02*
X138102438Y-61390476D01*
X138102438Y-61390476D02*
X138150057Y-61342857D01*
X139054819Y-60390476D02*
X139054819Y-60961904D01*
X139054819Y-60676190D02*
X138054819Y-60676190D01*
X138054819Y-60676190D02*
X138197676Y-60771428D01*
X138197676Y-60771428D02*
X138292914Y-60866666D01*
X138292914Y-60866666D02*
X138340533Y-60961904D01*
X138054819Y-59771428D02*
X138054819Y-59676190D01*
X138054819Y-59676190D02*
X138102438Y-59580952D01*
X138102438Y-59580952D02*
X138150057Y-59533333D01*
X138150057Y-59533333D02*
X138245295Y-59485714D01*
X138245295Y-59485714D02*
X138435771Y-59438095D01*
X138435771Y-59438095D02*
X138673866Y-59438095D01*
X138673866Y-59438095D02*
X138864342Y-59485714D01*
X138864342Y-59485714D02*
X138959580Y-59533333D01*
X138959580Y-59533333D02*
X139007200Y-59580952D01*
X139007200Y-59580952D02*
X139054819Y-59676190D01*
X139054819Y-59676190D02*
X139054819Y-59771428D01*
X139054819Y-59771428D02*
X139007200Y-59866666D01*
X139007200Y-59866666D02*
X138959580Y-59914285D01*
X138959580Y-59914285D02*
X138864342Y-59961904D01*
X138864342Y-59961904D02*
X138673866Y-60009523D01*
X138673866Y-60009523D02*
X138435771Y-60009523D01*
X138435771Y-60009523D02*
X138245295Y-59961904D01*
X138245295Y-59961904D02*
X138150057Y-59914285D01*
X138150057Y-59914285D02*
X138102438Y-59866666D01*
X138102438Y-59866666D02*
X138054819Y-59771428D01*
X200854819Y-50416666D02*
X200854819Y-50892856D01*
X200854819Y-50892856D02*
X199854819Y-50892856D01*
X199854819Y-50178570D02*
X199854819Y-49559523D01*
X199854819Y-49559523D02*
X200235771Y-49892856D01*
X200235771Y-49892856D02*
X200235771Y-49749999D01*
X200235771Y-49749999D02*
X200283390Y-49654761D01*
X200283390Y-49654761D02*
X200331009Y-49607142D01*
X200331009Y-49607142D02*
X200426247Y-49559523D01*
X200426247Y-49559523D02*
X200664342Y-49559523D01*
X200664342Y-49559523D02*
X200759580Y-49607142D01*
X200759580Y-49607142D02*
X200807200Y-49654761D01*
X200807200Y-49654761D02*
X200854819Y-49749999D01*
X200854819Y-49749999D02*
X200854819Y-50035713D01*
X200854819Y-50035713D02*
X200807200Y-50130951D01*
X200807200Y-50130951D02*
X200759580Y-50178570D01*
X175731009Y-50845833D02*
X175731009Y-51179166D01*
X176254819Y-51179166D02*
X175254819Y-51179166D01*
X175254819Y-51179166D02*
X175254819Y-50702976D01*
X175731009Y-49988690D02*
X175778628Y-49845833D01*
X175778628Y-49845833D02*
X175826247Y-49798214D01*
X175826247Y-49798214D02*
X175921485Y-49750595D01*
X175921485Y-49750595D02*
X176064342Y-49750595D01*
X176064342Y-49750595D02*
X176159580Y-49798214D01*
X176159580Y-49798214D02*
X176207200Y-49845833D01*
X176207200Y-49845833D02*
X176254819Y-49941071D01*
X176254819Y-49941071D02*
X176254819Y-50322023D01*
X176254819Y-50322023D02*
X175254819Y-50322023D01*
X175254819Y-50322023D02*
X175254819Y-49988690D01*
X175254819Y-49988690D02*
X175302438Y-49893452D01*
X175302438Y-49893452D02*
X175350057Y-49845833D01*
X175350057Y-49845833D02*
X175445295Y-49798214D01*
X175445295Y-49798214D02*
X175540533Y-49798214D01*
X175540533Y-49798214D02*
X175635771Y-49845833D01*
X175635771Y-49845833D02*
X175683390Y-49893452D01*
X175683390Y-49893452D02*
X175731009Y-49988690D01*
X175731009Y-49988690D02*
X175731009Y-50322023D01*
X175350057Y-49369642D02*
X175302438Y-49322023D01*
X175302438Y-49322023D02*
X175254819Y-49226785D01*
X175254819Y-49226785D02*
X175254819Y-48988690D01*
X175254819Y-48988690D02*
X175302438Y-48893452D01*
X175302438Y-48893452D02*
X175350057Y-48845833D01*
X175350057Y-48845833D02*
X175445295Y-48798214D01*
X175445295Y-48798214D02*
X175540533Y-48798214D01*
X175540533Y-48798214D02*
X175683390Y-48845833D01*
X175683390Y-48845833D02*
X176254819Y-49417261D01*
X176254819Y-49417261D02*
X176254819Y-48798214D01*
X143457142Y-19854819D02*
X143123809Y-19378628D01*
X142885714Y-19854819D02*
X142885714Y-18854819D01*
X142885714Y-18854819D02*
X143266666Y-18854819D01*
X143266666Y-18854819D02*
X143361904Y-18902438D01*
X143361904Y-18902438D02*
X143409523Y-18950057D01*
X143409523Y-18950057D02*
X143457142Y-19045295D01*
X143457142Y-19045295D02*
X143457142Y-19188152D01*
X143457142Y-19188152D02*
X143409523Y-19283390D01*
X143409523Y-19283390D02*
X143361904Y-19331009D01*
X143361904Y-19331009D02*
X143266666Y-19378628D01*
X143266666Y-19378628D02*
X142885714Y-19378628D01*
X144409523Y-19854819D02*
X143838095Y-19854819D01*
X144123809Y-19854819D02*
X144123809Y-18854819D01*
X144123809Y-18854819D02*
X144028571Y-18997676D01*
X144028571Y-18997676D02*
X143933333Y-19092914D01*
X143933333Y-19092914D02*
X143838095Y-19140533D01*
X144885714Y-19854819D02*
X145076190Y-19854819D01*
X145076190Y-19854819D02*
X145171428Y-19807200D01*
X145171428Y-19807200D02*
X145219047Y-19759580D01*
X145219047Y-19759580D02*
X145314285Y-19616723D01*
X145314285Y-19616723D02*
X145361904Y-19426247D01*
X145361904Y-19426247D02*
X145361904Y-19045295D01*
X145361904Y-19045295D02*
X145314285Y-18950057D01*
X145314285Y-18950057D02*
X145266666Y-18902438D01*
X145266666Y-18902438D02*
X145171428Y-18854819D01*
X145171428Y-18854819D02*
X144980952Y-18854819D01*
X144980952Y-18854819D02*
X144885714Y-18902438D01*
X144885714Y-18902438D02*
X144838095Y-18950057D01*
X144838095Y-18950057D02*
X144790476Y-19045295D01*
X144790476Y-19045295D02*
X144790476Y-19283390D01*
X144790476Y-19283390D02*
X144838095Y-19378628D01*
X144838095Y-19378628D02*
X144885714Y-19426247D01*
X144885714Y-19426247D02*
X144980952Y-19473866D01*
X144980952Y-19473866D02*
X145171428Y-19473866D01*
X145171428Y-19473866D02*
X145266666Y-19426247D01*
X145266666Y-19426247D02*
X145314285Y-19378628D01*
X145314285Y-19378628D02*
X145361904Y-19283390D01*
X147254819Y-68092857D02*
X146778628Y-68426190D01*
X147254819Y-68664285D02*
X146254819Y-68664285D01*
X146254819Y-68664285D02*
X146254819Y-68283333D01*
X146254819Y-68283333D02*
X146302438Y-68188095D01*
X146302438Y-68188095D02*
X146350057Y-68140476D01*
X146350057Y-68140476D02*
X146445295Y-68092857D01*
X146445295Y-68092857D02*
X146588152Y-68092857D01*
X146588152Y-68092857D02*
X146683390Y-68140476D01*
X146683390Y-68140476D02*
X146731009Y-68188095D01*
X146731009Y-68188095D02*
X146778628Y-68283333D01*
X146778628Y-68283333D02*
X146778628Y-68664285D01*
X147254819Y-67140476D02*
X147254819Y-67711904D01*
X147254819Y-67426190D02*
X146254819Y-67426190D01*
X146254819Y-67426190D02*
X146397676Y-67521428D01*
X146397676Y-67521428D02*
X146492914Y-67616666D01*
X146492914Y-67616666D02*
X146540533Y-67711904D01*
X146254819Y-66807142D02*
X146254819Y-66188095D01*
X146254819Y-66188095D02*
X146635771Y-66521428D01*
X146635771Y-66521428D02*
X146635771Y-66378571D01*
X146635771Y-66378571D02*
X146683390Y-66283333D01*
X146683390Y-66283333D02*
X146731009Y-66235714D01*
X146731009Y-66235714D02*
X146826247Y-66188095D01*
X146826247Y-66188095D02*
X147064342Y-66188095D01*
X147064342Y-66188095D02*
X147159580Y-66235714D01*
X147159580Y-66235714D02*
X147207200Y-66283333D01*
X147207200Y-66283333D02*
X147254819Y-66378571D01*
X147254819Y-66378571D02*
X147254819Y-66664285D01*
X147254819Y-66664285D02*
X147207200Y-66759523D01*
X147207200Y-66759523D02*
X147159580Y-66807142D01*
X209188095Y-58654819D02*
X209188095Y-59464342D01*
X209188095Y-59464342D02*
X209235714Y-59559580D01*
X209235714Y-59559580D02*
X209283333Y-59607200D01*
X209283333Y-59607200D02*
X209378571Y-59654819D01*
X209378571Y-59654819D02*
X209569047Y-59654819D01*
X209569047Y-59654819D02*
X209664285Y-59607200D01*
X209664285Y-59607200D02*
X209711904Y-59559580D01*
X209711904Y-59559580D02*
X209759523Y-59464342D01*
X209759523Y-59464342D02*
X209759523Y-58654819D01*
X210664285Y-58988152D02*
X210664285Y-59654819D01*
X210426190Y-58607200D02*
X210188095Y-59321485D01*
X210188095Y-59321485D02*
X210807142Y-59321485D01*
X144938095Y-51804819D02*
X144938095Y-52614342D01*
X144938095Y-52614342D02*
X144985714Y-52709580D01*
X144985714Y-52709580D02*
X145033333Y-52757200D01*
X145033333Y-52757200D02*
X145128571Y-52804819D01*
X145128571Y-52804819D02*
X145319047Y-52804819D01*
X145319047Y-52804819D02*
X145414285Y-52757200D01*
X145414285Y-52757200D02*
X145461904Y-52709580D01*
X145461904Y-52709580D02*
X145509523Y-52614342D01*
X145509523Y-52614342D02*
X145509523Y-51804819D01*
X145938095Y-51900057D02*
X145985714Y-51852438D01*
X145985714Y-51852438D02*
X146080952Y-51804819D01*
X146080952Y-51804819D02*
X146319047Y-51804819D01*
X146319047Y-51804819D02*
X146414285Y-51852438D01*
X146414285Y-51852438D02*
X146461904Y-51900057D01*
X146461904Y-51900057D02*
X146509523Y-51995295D01*
X146509523Y-51995295D02*
X146509523Y-52090533D01*
X146509523Y-52090533D02*
X146461904Y-52233390D01*
X146461904Y-52233390D02*
X145890476Y-52804819D01*
X145890476Y-52804819D02*
X146509523Y-52804819D01*
X194258333Y-33582319D02*
X193925000Y-33106128D01*
X193686905Y-33582319D02*
X193686905Y-32582319D01*
X193686905Y-32582319D02*
X194067857Y-32582319D01*
X194067857Y-32582319D02*
X194163095Y-32629938D01*
X194163095Y-32629938D02*
X194210714Y-32677557D01*
X194210714Y-32677557D02*
X194258333Y-32772795D01*
X194258333Y-32772795D02*
X194258333Y-32915652D01*
X194258333Y-32915652D02*
X194210714Y-33010890D01*
X194210714Y-33010890D02*
X194163095Y-33058509D01*
X194163095Y-33058509D02*
X194067857Y-33106128D01*
X194067857Y-33106128D02*
X193686905Y-33106128D01*
X194591667Y-32582319D02*
X195258333Y-32582319D01*
X195258333Y-32582319D02*
X194829762Y-33582319D01*
X185911905Y-31989819D02*
X185911905Y-30989819D01*
X185911905Y-30989819D02*
X186150000Y-30989819D01*
X186150000Y-30989819D02*
X186292857Y-31037438D01*
X186292857Y-31037438D02*
X186388095Y-31132676D01*
X186388095Y-31132676D02*
X186435714Y-31227914D01*
X186435714Y-31227914D02*
X186483333Y-31418390D01*
X186483333Y-31418390D02*
X186483333Y-31561247D01*
X186483333Y-31561247D02*
X186435714Y-31751723D01*
X186435714Y-31751723D02*
X186388095Y-31846961D01*
X186388095Y-31846961D02*
X186292857Y-31942200D01*
X186292857Y-31942200D02*
X186150000Y-31989819D01*
X186150000Y-31989819D02*
X185911905Y-31989819D01*
X186864286Y-31085057D02*
X186911905Y-31037438D01*
X186911905Y-31037438D02*
X187007143Y-30989819D01*
X187007143Y-30989819D02*
X187245238Y-30989819D01*
X187245238Y-30989819D02*
X187340476Y-31037438D01*
X187340476Y-31037438D02*
X187388095Y-31085057D01*
X187388095Y-31085057D02*
X187435714Y-31180295D01*
X187435714Y-31180295D02*
X187435714Y-31275533D01*
X187435714Y-31275533D02*
X187388095Y-31418390D01*
X187388095Y-31418390D02*
X186816667Y-31989819D01*
X186816667Y-31989819D02*
X187435714Y-31989819D01*
X163661905Y-70754819D02*
X163661905Y-69754819D01*
X163661905Y-69754819D02*
X163900000Y-69754819D01*
X163900000Y-69754819D02*
X164042857Y-69802438D01*
X164042857Y-69802438D02*
X164138095Y-69897676D01*
X164138095Y-69897676D02*
X164185714Y-69992914D01*
X164185714Y-69992914D02*
X164233333Y-70183390D01*
X164233333Y-70183390D02*
X164233333Y-70326247D01*
X164233333Y-70326247D02*
X164185714Y-70516723D01*
X164185714Y-70516723D02*
X164138095Y-70611961D01*
X164138095Y-70611961D02*
X164042857Y-70707200D01*
X164042857Y-70707200D02*
X163900000Y-70754819D01*
X163900000Y-70754819D02*
X163661905Y-70754819D01*
X165090476Y-70088152D02*
X165090476Y-70754819D01*
X164852381Y-69707200D02*
X164614286Y-70421485D01*
X164614286Y-70421485D02*
X165233333Y-70421485D01*
X159138095Y-35454819D02*
X159138095Y-36264342D01*
X159138095Y-36264342D02*
X159185714Y-36359580D01*
X159185714Y-36359580D02*
X159233333Y-36407200D01*
X159233333Y-36407200D02*
X159328571Y-36454819D01*
X159328571Y-36454819D02*
X159519047Y-36454819D01*
X159519047Y-36454819D02*
X159614285Y-36407200D01*
X159614285Y-36407200D02*
X159661904Y-36359580D01*
X159661904Y-36359580D02*
X159709523Y-36264342D01*
X159709523Y-36264342D02*
X159709523Y-35454819D01*
X160090476Y-35454819D02*
X160757142Y-35454819D01*
X160757142Y-35454819D02*
X160328571Y-36454819D01*
X148566667Y-84807200D02*
X148709524Y-84854819D01*
X148709524Y-84854819D02*
X148947619Y-84854819D01*
X148947619Y-84854819D02*
X149042857Y-84807200D01*
X149042857Y-84807200D02*
X149090476Y-84759580D01*
X149090476Y-84759580D02*
X149138095Y-84664342D01*
X149138095Y-84664342D02*
X149138095Y-84569104D01*
X149138095Y-84569104D02*
X149090476Y-84473866D01*
X149090476Y-84473866D02*
X149042857Y-84426247D01*
X149042857Y-84426247D02*
X148947619Y-84378628D01*
X148947619Y-84378628D02*
X148757143Y-84331009D01*
X148757143Y-84331009D02*
X148661905Y-84283390D01*
X148661905Y-84283390D02*
X148614286Y-84235771D01*
X148614286Y-84235771D02*
X148566667Y-84140533D01*
X148566667Y-84140533D02*
X148566667Y-84045295D01*
X148566667Y-84045295D02*
X148614286Y-83950057D01*
X148614286Y-83950057D02*
X148661905Y-83902438D01*
X148661905Y-83902438D02*
X148757143Y-83854819D01*
X148757143Y-83854819D02*
X148995238Y-83854819D01*
X148995238Y-83854819D02*
X149138095Y-83902438D01*
X149471429Y-83854819D02*
X149709524Y-84854819D01*
X149709524Y-84854819D02*
X149900000Y-84140533D01*
X149900000Y-84140533D02*
X150090476Y-84854819D01*
X150090476Y-84854819D02*
X150328572Y-83854819D01*
X151233333Y-84854819D02*
X150661905Y-84854819D01*
X150947619Y-84854819D02*
X150947619Y-83854819D01*
X150947619Y-83854819D02*
X150852381Y-83997676D01*
X150852381Y-83997676D02*
X150757143Y-84092914D01*
X150757143Y-84092914D02*
X150661905Y-84140533D01*
X182533333Y-42304819D02*
X182200000Y-41828628D01*
X181961905Y-42304819D02*
X181961905Y-41304819D01*
X181961905Y-41304819D02*
X182342857Y-41304819D01*
X182342857Y-41304819D02*
X182438095Y-41352438D01*
X182438095Y-41352438D02*
X182485714Y-41400057D01*
X182485714Y-41400057D02*
X182533333Y-41495295D01*
X182533333Y-41495295D02*
X182533333Y-41638152D01*
X182533333Y-41638152D02*
X182485714Y-41733390D01*
X182485714Y-41733390D02*
X182438095Y-41781009D01*
X182438095Y-41781009D02*
X182342857Y-41828628D01*
X182342857Y-41828628D02*
X181961905Y-41828628D01*
X182914286Y-41400057D02*
X182961905Y-41352438D01*
X182961905Y-41352438D02*
X183057143Y-41304819D01*
X183057143Y-41304819D02*
X183295238Y-41304819D01*
X183295238Y-41304819D02*
X183390476Y-41352438D01*
X183390476Y-41352438D02*
X183438095Y-41400057D01*
X183438095Y-41400057D02*
X183485714Y-41495295D01*
X183485714Y-41495295D02*
X183485714Y-41590533D01*
X183485714Y-41590533D02*
X183438095Y-41733390D01*
X183438095Y-41733390D02*
X182866667Y-42304819D01*
X182866667Y-42304819D02*
X183485714Y-42304819D01*
X140457142Y-19854819D02*
X140123809Y-19378628D01*
X139885714Y-19854819D02*
X139885714Y-18854819D01*
X139885714Y-18854819D02*
X140266666Y-18854819D01*
X140266666Y-18854819D02*
X140361904Y-18902438D01*
X140361904Y-18902438D02*
X140409523Y-18950057D01*
X140409523Y-18950057D02*
X140457142Y-19045295D01*
X140457142Y-19045295D02*
X140457142Y-19188152D01*
X140457142Y-19188152D02*
X140409523Y-19283390D01*
X140409523Y-19283390D02*
X140361904Y-19331009D01*
X140361904Y-19331009D02*
X140266666Y-19378628D01*
X140266666Y-19378628D02*
X139885714Y-19378628D01*
X140838095Y-18950057D02*
X140885714Y-18902438D01*
X140885714Y-18902438D02*
X140980952Y-18854819D01*
X140980952Y-18854819D02*
X141219047Y-18854819D01*
X141219047Y-18854819D02*
X141314285Y-18902438D01*
X141314285Y-18902438D02*
X141361904Y-18950057D01*
X141361904Y-18950057D02*
X141409523Y-19045295D01*
X141409523Y-19045295D02*
X141409523Y-19140533D01*
X141409523Y-19140533D02*
X141361904Y-19283390D01*
X141361904Y-19283390D02*
X140790476Y-19854819D01*
X140790476Y-19854819D02*
X141409523Y-19854819D01*
X142361904Y-19854819D02*
X141790476Y-19854819D01*
X142076190Y-19854819D02*
X142076190Y-18854819D01*
X142076190Y-18854819D02*
X141980952Y-18997676D01*
X141980952Y-18997676D02*
X141885714Y-19092914D01*
X141885714Y-19092914D02*
X141790476Y-19140533D01*
X154366666Y-19231009D02*
X154033333Y-19231009D01*
X154033333Y-19754819D02*
X154033333Y-18754819D01*
X154033333Y-18754819D02*
X154509523Y-18754819D01*
X155223809Y-19231009D02*
X155366666Y-19278628D01*
X155366666Y-19278628D02*
X155414285Y-19326247D01*
X155414285Y-19326247D02*
X155461904Y-19421485D01*
X155461904Y-19421485D02*
X155461904Y-19564342D01*
X155461904Y-19564342D02*
X155414285Y-19659580D01*
X155414285Y-19659580D02*
X155366666Y-19707200D01*
X155366666Y-19707200D02*
X155271428Y-19754819D01*
X155271428Y-19754819D02*
X154890476Y-19754819D01*
X154890476Y-19754819D02*
X154890476Y-18754819D01*
X154890476Y-18754819D02*
X155223809Y-18754819D01*
X155223809Y-18754819D02*
X155319047Y-18802438D01*
X155319047Y-18802438D02*
X155366666Y-18850057D01*
X155366666Y-18850057D02*
X155414285Y-18945295D01*
X155414285Y-18945295D02*
X155414285Y-19040533D01*
X155414285Y-19040533D02*
X155366666Y-19135771D01*
X155366666Y-19135771D02*
X155319047Y-19183390D01*
X155319047Y-19183390D02*
X155223809Y-19231009D01*
X155223809Y-19231009D02*
X154890476Y-19231009D01*
X156414285Y-19754819D02*
X155842857Y-19754819D01*
X156128571Y-19754819D02*
X156128571Y-18754819D01*
X156128571Y-18754819D02*
X156033333Y-18897676D01*
X156033333Y-18897676D02*
X155938095Y-18992914D01*
X155938095Y-18992914D02*
X155842857Y-19040533D01*
X143238095Y-25054819D02*
X143238095Y-25864342D01*
X143238095Y-25864342D02*
X143285714Y-25959580D01*
X143285714Y-25959580D02*
X143333333Y-26007200D01*
X143333333Y-26007200D02*
X143428571Y-26054819D01*
X143428571Y-26054819D02*
X143619047Y-26054819D01*
X143619047Y-26054819D02*
X143714285Y-26007200D01*
X143714285Y-26007200D02*
X143761904Y-25959580D01*
X143761904Y-25959580D02*
X143809523Y-25864342D01*
X143809523Y-25864342D02*
X143809523Y-25054819D01*
X144761904Y-25054819D02*
X144285714Y-25054819D01*
X144285714Y-25054819D02*
X144238095Y-25531009D01*
X144238095Y-25531009D02*
X144285714Y-25483390D01*
X144285714Y-25483390D02*
X144380952Y-25435771D01*
X144380952Y-25435771D02*
X144619047Y-25435771D01*
X144619047Y-25435771D02*
X144714285Y-25483390D01*
X144714285Y-25483390D02*
X144761904Y-25531009D01*
X144761904Y-25531009D02*
X144809523Y-25626247D01*
X144809523Y-25626247D02*
X144809523Y-25864342D01*
X144809523Y-25864342D02*
X144761904Y-25959580D01*
X144761904Y-25959580D02*
X144714285Y-26007200D01*
X144714285Y-26007200D02*
X144619047Y-26054819D01*
X144619047Y-26054819D02*
X144380952Y-26054819D01*
X144380952Y-26054819D02*
X144285714Y-26007200D01*
X144285714Y-26007200D02*
X144238095Y-25959580D01*
X162157142Y-44459580D02*
X162109523Y-44507200D01*
X162109523Y-44507200D02*
X161966666Y-44554819D01*
X161966666Y-44554819D02*
X161871428Y-44554819D01*
X161871428Y-44554819D02*
X161728571Y-44507200D01*
X161728571Y-44507200D02*
X161633333Y-44411961D01*
X161633333Y-44411961D02*
X161585714Y-44316723D01*
X161585714Y-44316723D02*
X161538095Y-44126247D01*
X161538095Y-44126247D02*
X161538095Y-43983390D01*
X161538095Y-43983390D02*
X161585714Y-43792914D01*
X161585714Y-43792914D02*
X161633333Y-43697676D01*
X161633333Y-43697676D02*
X161728571Y-43602438D01*
X161728571Y-43602438D02*
X161871428Y-43554819D01*
X161871428Y-43554819D02*
X161966666Y-43554819D01*
X161966666Y-43554819D02*
X162109523Y-43602438D01*
X162109523Y-43602438D02*
X162157142Y-43650057D01*
X162490476Y-43554819D02*
X163109523Y-43554819D01*
X163109523Y-43554819D02*
X162776190Y-43935771D01*
X162776190Y-43935771D02*
X162919047Y-43935771D01*
X162919047Y-43935771D02*
X163014285Y-43983390D01*
X163014285Y-43983390D02*
X163061904Y-44031009D01*
X163061904Y-44031009D02*
X163109523Y-44126247D01*
X163109523Y-44126247D02*
X163109523Y-44364342D01*
X163109523Y-44364342D02*
X163061904Y-44459580D01*
X163061904Y-44459580D02*
X163014285Y-44507200D01*
X163014285Y-44507200D02*
X162919047Y-44554819D01*
X162919047Y-44554819D02*
X162633333Y-44554819D01*
X162633333Y-44554819D02*
X162538095Y-44507200D01*
X162538095Y-44507200D02*
X162490476Y-44459580D01*
X163680952Y-43983390D02*
X163585714Y-43935771D01*
X163585714Y-43935771D02*
X163538095Y-43888152D01*
X163538095Y-43888152D02*
X163490476Y-43792914D01*
X163490476Y-43792914D02*
X163490476Y-43745295D01*
X163490476Y-43745295D02*
X163538095Y-43650057D01*
X163538095Y-43650057D02*
X163585714Y-43602438D01*
X163585714Y-43602438D02*
X163680952Y-43554819D01*
X163680952Y-43554819D02*
X163871428Y-43554819D01*
X163871428Y-43554819D02*
X163966666Y-43602438D01*
X163966666Y-43602438D02*
X164014285Y-43650057D01*
X164014285Y-43650057D02*
X164061904Y-43745295D01*
X164061904Y-43745295D02*
X164061904Y-43792914D01*
X164061904Y-43792914D02*
X164014285Y-43888152D01*
X164014285Y-43888152D02*
X163966666Y-43935771D01*
X163966666Y-43935771D02*
X163871428Y-43983390D01*
X163871428Y-43983390D02*
X163680952Y-43983390D01*
X163680952Y-43983390D02*
X163585714Y-44031009D01*
X163585714Y-44031009D02*
X163538095Y-44078628D01*
X163538095Y-44078628D02*
X163490476Y-44173866D01*
X163490476Y-44173866D02*
X163490476Y-44364342D01*
X163490476Y-44364342D02*
X163538095Y-44459580D01*
X163538095Y-44459580D02*
X163585714Y-44507200D01*
X163585714Y-44507200D02*
X163680952Y-44554819D01*
X163680952Y-44554819D02*
X163871428Y-44554819D01*
X163871428Y-44554819D02*
X163966666Y-44507200D01*
X163966666Y-44507200D02*
X164014285Y-44459580D01*
X164014285Y-44459580D02*
X164061904Y-44364342D01*
X164061904Y-44364342D02*
X164061904Y-44173866D01*
X164061904Y-44173866D02*
X164014285Y-44078628D01*
X164014285Y-44078628D02*
X163966666Y-44031009D01*
X163966666Y-44031009D02*
X163871428Y-43983390D01*
X206359580Y-49742857D02*
X206407200Y-49790476D01*
X206407200Y-49790476D02*
X206454819Y-49933333D01*
X206454819Y-49933333D02*
X206454819Y-50028571D01*
X206454819Y-50028571D02*
X206407200Y-50171428D01*
X206407200Y-50171428D02*
X206311961Y-50266666D01*
X206311961Y-50266666D02*
X206216723Y-50314285D01*
X206216723Y-50314285D02*
X206026247Y-50361904D01*
X206026247Y-50361904D02*
X205883390Y-50361904D01*
X205883390Y-50361904D02*
X205692914Y-50314285D01*
X205692914Y-50314285D02*
X205597676Y-50266666D01*
X205597676Y-50266666D02*
X205502438Y-50171428D01*
X205502438Y-50171428D02*
X205454819Y-50028571D01*
X205454819Y-50028571D02*
X205454819Y-49933333D01*
X205454819Y-49933333D02*
X205502438Y-49790476D01*
X205502438Y-49790476D02*
X205550057Y-49742857D01*
X205550057Y-49361904D02*
X205502438Y-49314285D01*
X205502438Y-49314285D02*
X205454819Y-49219047D01*
X205454819Y-49219047D02*
X205454819Y-48980952D01*
X205454819Y-48980952D02*
X205502438Y-48885714D01*
X205502438Y-48885714D02*
X205550057Y-48838095D01*
X205550057Y-48838095D02*
X205645295Y-48790476D01*
X205645295Y-48790476D02*
X205740533Y-48790476D01*
X205740533Y-48790476D02*
X205883390Y-48838095D01*
X205883390Y-48838095D02*
X206454819Y-49409523D01*
X206454819Y-49409523D02*
X206454819Y-48790476D01*
X205788152Y-47933333D02*
X206454819Y-47933333D01*
X205407200Y-48171428D02*
X206121485Y-48409523D01*
X206121485Y-48409523D02*
X206121485Y-47790476D01*
X187759580Y-47342857D02*
X187807200Y-47390476D01*
X187807200Y-47390476D02*
X187854819Y-47533333D01*
X187854819Y-47533333D02*
X187854819Y-47628571D01*
X187854819Y-47628571D02*
X187807200Y-47771428D01*
X187807200Y-47771428D02*
X187711961Y-47866666D01*
X187711961Y-47866666D02*
X187616723Y-47914285D01*
X187616723Y-47914285D02*
X187426247Y-47961904D01*
X187426247Y-47961904D02*
X187283390Y-47961904D01*
X187283390Y-47961904D02*
X187092914Y-47914285D01*
X187092914Y-47914285D02*
X186997676Y-47866666D01*
X186997676Y-47866666D02*
X186902438Y-47771428D01*
X186902438Y-47771428D02*
X186854819Y-47628571D01*
X186854819Y-47628571D02*
X186854819Y-47533333D01*
X186854819Y-47533333D02*
X186902438Y-47390476D01*
X186902438Y-47390476D02*
X186950057Y-47342857D01*
X187854819Y-46390476D02*
X187854819Y-46961904D01*
X187854819Y-46676190D02*
X186854819Y-46676190D01*
X186854819Y-46676190D02*
X186997676Y-46771428D01*
X186997676Y-46771428D02*
X187092914Y-46866666D01*
X187092914Y-46866666D02*
X187140533Y-46961904D01*
X186854819Y-45533333D02*
X186854819Y-45723809D01*
X186854819Y-45723809D02*
X186902438Y-45819047D01*
X186902438Y-45819047D02*
X186950057Y-45866666D01*
X186950057Y-45866666D02*
X187092914Y-45961904D01*
X187092914Y-45961904D02*
X187283390Y-46009523D01*
X187283390Y-46009523D02*
X187664342Y-46009523D01*
X187664342Y-46009523D02*
X187759580Y-45961904D01*
X187759580Y-45961904D02*
X187807200Y-45914285D01*
X187807200Y-45914285D02*
X187854819Y-45819047D01*
X187854819Y-45819047D02*
X187854819Y-45628571D01*
X187854819Y-45628571D02*
X187807200Y-45533333D01*
X187807200Y-45533333D02*
X187759580Y-45485714D01*
X187759580Y-45485714D02*
X187664342Y-45438095D01*
X187664342Y-45438095D02*
X187426247Y-45438095D01*
X187426247Y-45438095D02*
X187331009Y-45485714D01*
X187331009Y-45485714D02*
X187283390Y-45533333D01*
X187283390Y-45533333D02*
X187235771Y-45628571D01*
X187235771Y-45628571D02*
X187235771Y-45819047D01*
X187235771Y-45819047D02*
X187283390Y-45914285D01*
X187283390Y-45914285D02*
X187331009Y-45961904D01*
X187331009Y-45961904D02*
X187426247Y-46009523D01*
X136457142Y-20859580D02*
X136409523Y-20907200D01*
X136409523Y-20907200D02*
X136266666Y-20954819D01*
X136266666Y-20954819D02*
X136171428Y-20954819D01*
X136171428Y-20954819D02*
X136028571Y-20907200D01*
X136028571Y-20907200D02*
X135933333Y-20811961D01*
X135933333Y-20811961D02*
X135885714Y-20716723D01*
X135885714Y-20716723D02*
X135838095Y-20526247D01*
X135838095Y-20526247D02*
X135838095Y-20383390D01*
X135838095Y-20383390D02*
X135885714Y-20192914D01*
X135885714Y-20192914D02*
X135933333Y-20097676D01*
X135933333Y-20097676D02*
X136028571Y-20002438D01*
X136028571Y-20002438D02*
X136171428Y-19954819D01*
X136171428Y-19954819D02*
X136266666Y-19954819D01*
X136266666Y-19954819D02*
X136409523Y-20002438D01*
X136409523Y-20002438D02*
X136457142Y-20050057D01*
X136790476Y-19954819D02*
X137409523Y-19954819D01*
X137409523Y-19954819D02*
X137076190Y-20335771D01*
X137076190Y-20335771D02*
X137219047Y-20335771D01*
X137219047Y-20335771D02*
X137314285Y-20383390D01*
X137314285Y-20383390D02*
X137361904Y-20431009D01*
X137361904Y-20431009D02*
X137409523Y-20526247D01*
X137409523Y-20526247D02*
X137409523Y-20764342D01*
X137409523Y-20764342D02*
X137361904Y-20859580D01*
X137361904Y-20859580D02*
X137314285Y-20907200D01*
X137314285Y-20907200D02*
X137219047Y-20954819D01*
X137219047Y-20954819D02*
X136933333Y-20954819D01*
X136933333Y-20954819D02*
X136838095Y-20907200D01*
X136838095Y-20907200D02*
X136790476Y-20859580D01*
X137742857Y-19954819D02*
X138361904Y-19954819D01*
X138361904Y-19954819D02*
X138028571Y-20335771D01*
X138028571Y-20335771D02*
X138171428Y-20335771D01*
X138171428Y-20335771D02*
X138266666Y-20383390D01*
X138266666Y-20383390D02*
X138314285Y-20431009D01*
X138314285Y-20431009D02*
X138361904Y-20526247D01*
X138361904Y-20526247D02*
X138361904Y-20764342D01*
X138361904Y-20764342D02*
X138314285Y-20859580D01*
X138314285Y-20859580D02*
X138266666Y-20907200D01*
X138266666Y-20907200D02*
X138171428Y-20954819D01*
X138171428Y-20954819D02*
X137885714Y-20954819D01*
X137885714Y-20954819D02*
X137790476Y-20907200D01*
X137790476Y-20907200D02*
X137742857Y-20859580D01*
X188859580Y-65842857D02*
X188907200Y-65890476D01*
X188907200Y-65890476D02*
X188954819Y-66033333D01*
X188954819Y-66033333D02*
X188954819Y-66128571D01*
X188954819Y-66128571D02*
X188907200Y-66271428D01*
X188907200Y-66271428D02*
X188811961Y-66366666D01*
X188811961Y-66366666D02*
X188716723Y-66414285D01*
X188716723Y-66414285D02*
X188526247Y-66461904D01*
X188526247Y-66461904D02*
X188383390Y-66461904D01*
X188383390Y-66461904D02*
X188192914Y-66414285D01*
X188192914Y-66414285D02*
X188097676Y-66366666D01*
X188097676Y-66366666D02*
X188002438Y-66271428D01*
X188002438Y-66271428D02*
X187954819Y-66128571D01*
X187954819Y-66128571D02*
X187954819Y-66033333D01*
X187954819Y-66033333D02*
X188002438Y-65890476D01*
X188002438Y-65890476D02*
X188050057Y-65842857D01*
X188954819Y-64890476D02*
X188954819Y-65461904D01*
X188954819Y-65176190D02*
X187954819Y-65176190D01*
X187954819Y-65176190D02*
X188097676Y-65271428D01*
X188097676Y-65271428D02*
X188192914Y-65366666D01*
X188192914Y-65366666D02*
X188240533Y-65461904D01*
X188954819Y-64414285D02*
X188954819Y-64223809D01*
X188954819Y-64223809D02*
X188907200Y-64128571D01*
X188907200Y-64128571D02*
X188859580Y-64080952D01*
X188859580Y-64080952D02*
X188716723Y-63985714D01*
X188716723Y-63985714D02*
X188526247Y-63938095D01*
X188526247Y-63938095D02*
X188145295Y-63938095D01*
X188145295Y-63938095D02*
X188050057Y-63985714D01*
X188050057Y-63985714D02*
X188002438Y-64033333D01*
X188002438Y-64033333D02*
X187954819Y-64128571D01*
X187954819Y-64128571D02*
X187954819Y-64319047D01*
X187954819Y-64319047D02*
X188002438Y-64414285D01*
X188002438Y-64414285D02*
X188050057Y-64461904D01*
X188050057Y-64461904D02*
X188145295Y-64509523D01*
X188145295Y-64509523D02*
X188383390Y-64509523D01*
X188383390Y-64509523D02*
X188478628Y-64461904D01*
X188478628Y-64461904D02*
X188526247Y-64414285D01*
X188526247Y-64414285D02*
X188573866Y-64319047D01*
X188573866Y-64319047D02*
X188573866Y-64128571D01*
X188573866Y-64128571D02*
X188526247Y-64033333D01*
X188526247Y-64033333D02*
X188478628Y-63985714D01*
X188478628Y-63985714D02*
X188383390Y-63938095D01*
X178759580Y-62342857D02*
X178807200Y-62390476D01*
X178807200Y-62390476D02*
X178854819Y-62533333D01*
X178854819Y-62533333D02*
X178854819Y-62628571D01*
X178854819Y-62628571D02*
X178807200Y-62771428D01*
X178807200Y-62771428D02*
X178711961Y-62866666D01*
X178711961Y-62866666D02*
X178616723Y-62914285D01*
X178616723Y-62914285D02*
X178426247Y-62961904D01*
X178426247Y-62961904D02*
X178283390Y-62961904D01*
X178283390Y-62961904D02*
X178092914Y-62914285D01*
X178092914Y-62914285D02*
X177997676Y-62866666D01*
X177997676Y-62866666D02*
X177902438Y-62771428D01*
X177902438Y-62771428D02*
X177854819Y-62628571D01*
X177854819Y-62628571D02*
X177854819Y-62533333D01*
X177854819Y-62533333D02*
X177902438Y-62390476D01*
X177902438Y-62390476D02*
X177950057Y-62342857D01*
X178854819Y-61390476D02*
X178854819Y-61961904D01*
X178854819Y-61676190D02*
X177854819Y-61676190D01*
X177854819Y-61676190D02*
X177997676Y-61771428D01*
X177997676Y-61771428D02*
X178092914Y-61866666D01*
X178092914Y-61866666D02*
X178140533Y-61961904D01*
X178854819Y-60438095D02*
X178854819Y-61009523D01*
X178854819Y-60723809D02*
X177854819Y-60723809D01*
X177854819Y-60723809D02*
X177997676Y-60819047D01*
X177997676Y-60819047D02*
X178092914Y-60914285D01*
X178092914Y-60914285D02*
X178140533Y-61009523D01*
X160536666Y-59504819D02*
X160536666Y-60219104D01*
X160536666Y-60219104D02*
X160489047Y-60361961D01*
X160489047Y-60361961D02*
X160393809Y-60457200D01*
X160393809Y-60457200D02*
X160250952Y-60504819D01*
X160250952Y-60504819D02*
X160155714Y-60504819D01*
X161489047Y-59504819D02*
X161012857Y-59504819D01*
X161012857Y-59504819D02*
X160965238Y-59981009D01*
X160965238Y-59981009D02*
X161012857Y-59933390D01*
X161012857Y-59933390D02*
X161108095Y-59885771D01*
X161108095Y-59885771D02*
X161346190Y-59885771D01*
X161346190Y-59885771D02*
X161441428Y-59933390D01*
X161441428Y-59933390D02*
X161489047Y-59981009D01*
X161489047Y-59981009D02*
X161536666Y-60076247D01*
X161536666Y-60076247D02*
X161536666Y-60314342D01*
X161536666Y-60314342D02*
X161489047Y-60409580D01*
X161489047Y-60409580D02*
X161441428Y-60457200D01*
X161441428Y-60457200D02*
X161346190Y-60504819D01*
X161346190Y-60504819D02*
X161108095Y-60504819D01*
X161108095Y-60504819D02*
X161012857Y-60457200D01*
X161012857Y-60457200D02*
X160965238Y-60409580D01*
X201686905Y-33782319D02*
X201686905Y-32782319D01*
X201686905Y-32782319D02*
X201925000Y-32782319D01*
X201925000Y-32782319D02*
X202067857Y-32829938D01*
X202067857Y-32829938D02*
X202163095Y-32925176D01*
X202163095Y-32925176D02*
X202210714Y-33020414D01*
X202210714Y-33020414D02*
X202258333Y-33210890D01*
X202258333Y-33210890D02*
X202258333Y-33353747D01*
X202258333Y-33353747D02*
X202210714Y-33544223D01*
X202210714Y-33544223D02*
X202163095Y-33639461D01*
X202163095Y-33639461D02*
X202067857Y-33734700D01*
X202067857Y-33734700D02*
X201925000Y-33782319D01*
X201925000Y-33782319D02*
X201686905Y-33782319D01*
X202591667Y-32782319D02*
X203210714Y-32782319D01*
X203210714Y-32782319D02*
X202877381Y-33163271D01*
X202877381Y-33163271D02*
X203020238Y-33163271D01*
X203020238Y-33163271D02*
X203115476Y-33210890D01*
X203115476Y-33210890D02*
X203163095Y-33258509D01*
X203163095Y-33258509D02*
X203210714Y-33353747D01*
X203210714Y-33353747D02*
X203210714Y-33591842D01*
X203210714Y-33591842D02*
X203163095Y-33687080D01*
X203163095Y-33687080D02*
X203115476Y-33734700D01*
X203115476Y-33734700D02*
X203020238Y-33782319D01*
X203020238Y-33782319D02*
X202734524Y-33782319D01*
X202734524Y-33782319D02*
X202639286Y-33734700D01*
X202639286Y-33734700D02*
X202591667Y-33687080D01*
X196814819Y-73917857D02*
X196338628Y-74251190D01*
X196814819Y-74489285D02*
X195814819Y-74489285D01*
X195814819Y-74489285D02*
X195814819Y-74108333D01*
X195814819Y-74108333D02*
X195862438Y-74013095D01*
X195862438Y-74013095D02*
X195910057Y-73965476D01*
X195910057Y-73965476D02*
X196005295Y-73917857D01*
X196005295Y-73917857D02*
X196148152Y-73917857D01*
X196148152Y-73917857D02*
X196243390Y-73965476D01*
X196243390Y-73965476D02*
X196291009Y-74013095D01*
X196291009Y-74013095D02*
X196338628Y-74108333D01*
X196338628Y-74108333D02*
X196338628Y-74489285D01*
X196814819Y-72965476D02*
X196814819Y-73536904D01*
X196814819Y-73251190D02*
X195814819Y-73251190D01*
X195814819Y-73251190D02*
X195957676Y-73346428D01*
X195957676Y-73346428D02*
X196052914Y-73441666D01*
X196052914Y-73441666D02*
X196100533Y-73536904D01*
X196243390Y-72394047D02*
X196195771Y-72489285D01*
X196195771Y-72489285D02*
X196148152Y-72536904D01*
X196148152Y-72536904D02*
X196052914Y-72584523D01*
X196052914Y-72584523D02*
X196005295Y-72584523D01*
X196005295Y-72584523D02*
X195910057Y-72536904D01*
X195910057Y-72536904D02*
X195862438Y-72489285D01*
X195862438Y-72489285D02*
X195814819Y-72394047D01*
X195814819Y-72394047D02*
X195814819Y-72203571D01*
X195814819Y-72203571D02*
X195862438Y-72108333D01*
X195862438Y-72108333D02*
X195910057Y-72060714D01*
X195910057Y-72060714D02*
X196005295Y-72013095D01*
X196005295Y-72013095D02*
X196052914Y-72013095D01*
X196052914Y-72013095D02*
X196148152Y-72060714D01*
X196148152Y-72060714D02*
X196195771Y-72108333D01*
X196195771Y-72108333D02*
X196243390Y-72203571D01*
X196243390Y-72203571D02*
X196243390Y-72394047D01*
X196243390Y-72394047D02*
X196291009Y-72489285D01*
X196291009Y-72489285D02*
X196338628Y-72536904D01*
X196338628Y-72536904D02*
X196433866Y-72584523D01*
X196433866Y-72584523D02*
X196624342Y-72584523D01*
X196624342Y-72584523D02*
X196719580Y-72536904D01*
X196719580Y-72536904D02*
X196767200Y-72489285D01*
X196767200Y-72489285D02*
X196814819Y-72394047D01*
X196814819Y-72394047D02*
X196814819Y-72203571D01*
X196814819Y-72203571D02*
X196767200Y-72108333D01*
X196767200Y-72108333D02*
X196719580Y-72060714D01*
X196719580Y-72060714D02*
X196624342Y-72013095D01*
X196624342Y-72013095D02*
X196433866Y-72013095D01*
X196433866Y-72013095D02*
X196338628Y-72060714D01*
X196338628Y-72060714D02*
X196291009Y-72108333D01*
X196291009Y-72108333D02*
X196243390Y-72203571D01*
X151607142Y-70079819D02*
X151273809Y-69603628D01*
X151035714Y-70079819D02*
X151035714Y-69079819D01*
X151035714Y-69079819D02*
X151416666Y-69079819D01*
X151416666Y-69079819D02*
X151511904Y-69127438D01*
X151511904Y-69127438D02*
X151559523Y-69175057D01*
X151559523Y-69175057D02*
X151607142Y-69270295D01*
X151607142Y-69270295D02*
X151607142Y-69413152D01*
X151607142Y-69413152D02*
X151559523Y-69508390D01*
X151559523Y-69508390D02*
X151511904Y-69556009D01*
X151511904Y-69556009D02*
X151416666Y-69603628D01*
X151416666Y-69603628D02*
X151035714Y-69603628D01*
X152559523Y-70079819D02*
X151988095Y-70079819D01*
X152273809Y-70079819D02*
X152273809Y-69079819D01*
X152273809Y-69079819D02*
X152178571Y-69222676D01*
X152178571Y-69222676D02*
X152083333Y-69317914D01*
X152083333Y-69317914D02*
X151988095Y-69365533D01*
X153416666Y-69413152D02*
X153416666Y-70079819D01*
X153178571Y-69032200D02*
X152940476Y-69746485D01*
X152940476Y-69746485D02*
X153559523Y-69746485D01*
X185857142Y-44659580D02*
X185809523Y-44707200D01*
X185809523Y-44707200D02*
X185666666Y-44754819D01*
X185666666Y-44754819D02*
X185571428Y-44754819D01*
X185571428Y-44754819D02*
X185428571Y-44707200D01*
X185428571Y-44707200D02*
X185333333Y-44611961D01*
X185333333Y-44611961D02*
X185285714Y-44516723D01*
X185285714Y-44516723D02*
X185238095Y-44326247D01*
X185238095Y-44326247D02*
X185238095Y-44183390D01*
X185238095Y-44183390D02*
X185285714Y-43992914D01*
X185285714Y-43992914D02*
X185333333Y-43897676D01*
X185333333Y-43897676D02*
X185428571Y-43802438D01*
X185428571Y-43802438D02*
X185571428Y-43754819D01*
X185571428Y-43754819D02*
X185666666Y-43754819D01*
X185666666Y-43754819D02*
X185809523Y-43802438D01*
X185809523Y-43802438D02*
X185857142Y-43850057D01*
X186809523Y-44754819D02*
X186238095Y-44754819D01*
X186523809Y-44754819D02*
X186523809Y-43754819D01*
X186523809Y-43754819D02*
X186428571Y-43897676D01*
X186428571Y-43897676D02*
X186333333Y-43992914D01*
X186333333Y-43992914D02*
X186238095Y-44040533D01*
X187190476Y-43850057D02*
X187238095Y-43802438D01*
X187238095Y-43802438D02*
X187333333Y-43754819D01*
X187333333Y-43754819D02*
X187571428Y-43754819D01*
X187571428Y-43754819D02*
X187666666Y-43802438D01*
X187666666Y-43802438D02*
X187714285Y-43850057D01*
X187714285Y-43850057D02*
X187761904Y-43945295D01*
X187761904Y-43945295D02*
X187761904Y-44040533D01*
X187761904Y-44040533D02*
X187714285Y-44183390D01*
X187714285Y-44183390D02*
X187142857Y-44754819D01*
X187142857Y-44754819D02*
X187761904Y-44754819D01*
X151966666Y-19231009D02*
X151633333Y-19231009D01*
X151633333Y-19754819D02*
X151633333Y-18754819D01*
X151633333Y-18754819D02*
X152109523Y-18754819D01*
X153014285Y-19754819D02*
X152442857Y-19754819D01*
X152728571Y-19754819D02*
X152728571Y-18754819D01*
X152728571Y-18754819D02*
X152633333Y-18897676D01*
X152633333Y-18897676D02*
X152538095Y-18992914D01*
X152538095Y-18992914D02*
X152442857Y-19040533D01*
X134538095Y-55004819D02*
X134538095Y-55814342D01*
X134538095Y-55814342D02*
X134585714Y-55909580D01*
X134585714Y-55909580D02*
X134633333Y-55957200D01*
X134633333Y-55957200D02*
X134728571Y-56004819D01*
X134728571Y-56004819D02*
X134919047Y-56004819D01*
X134919047Y-56004819D02*
X135014285Y-55957200D01*
X135014285Y-55957200D02*
X135061904Y-55909580D01*
X135061904Y-55909580D02*
X135109523Y-55814342D01*
X135109523Y-55814342D02*
X135109523Y-55004819D01*
X135633333Y-56004819D02*
X135823809Y-56004819D01*
X135823809Y-56004819D02*
X135919047Y-55957200D01*
X135919047Y-55957200D02*
X135966666Y-55909580D01*
X135966666Y-55909580D02*
X136061904Y-55766723D01*
X136061904Y-55766723D02*
X136109523Y-55576247D01*
X136109523Y-55576247D02*
X136109523Y-55195295D01*
X136109523Y-55195295D02*
X136061904Y-55100057D01*
X136061904Y-55100057D02*
X136014285Y-55052438D01*
X136014285Y-55052438D02*
X135919047Y-55004819D01*
X135919047Y-55004819D02*
X135728571Y-55004819D01*
X135728571Y-55004819D02*
X135633333Y-55052438D01*
X135633333Y-55052438D02*
X135585714Y-55100057D01*
X135585714Y-55100057D02*
X135538095Y-55195295D01*
X135538095Y-55195295D02*
X135538095Y-55433390D01*
X135538095Y-55433390D02*
X135585714Y-55528628D01*
X135585714Y-55528628D02*
X135633333Y-55576247D01*
X135633333Y-55576247D02*
X135728571Y-55623866D01*
X135728571Y-55623866D02*
X135919047Y-55623866D01*
X135919047Y-55623866D02*
X136014285Y-55576247D01*
X136014285Y-55576247D02*
X136061904Y-55528628D01*
X136061904Y-55528628D02*
X136109523Y-55433390D01*
X190659580Y-65942857D02*
X190707200Y-65990476D01*
X190707200Y-65990476D02*
X190754819Y-66133333D01*
X190754819Y-66133333D02*
X190754819Y-66228571D01*
X190754819Y-66228571D02*
X190707200Y-66371428D01*
X190707200Y-66371428D02*
X190611961Y-66466666D01*
X190611961Y-66466666D02*
X190516723Y-66514285D01*
X190516723Y-66514285D02*
X190326247Y-66561904D01*
X190326247Y-66561904D02*
X190183390Y-66561904D01*
X190183390Y-66561904D02*
X189992914Y-66514285D01*
X189992914Y-66514285D02*
X189897676Y-66466666D01*
X189897676Y-66466666D02*
X189802438Y-66371428D01*
X189802438Y-66371428D02*
X189754819Y-66228571D01*
X189754819Y-66228571D02*
X189754819Y-66133333D01*
X189754819Y-66133333D02*
X189802438Y-65990476D01*
X189802438Y-65990476D02*
X189850057Y-65942857D01*
X189850057Y-65561904D02*
X189802438Y-65514285D01*
X189802438Y-65514285D02*
X189754819Y-65419047D01*
X189754819Y-65419047D02*
X189754819Y-65180952D01*
X189754819Y-65180952D02*
X189802438Y-65085714D01*
X189802438Y-65085714D02*
X189850057Y-65038095D01*
X189850057Y-65038095D02*
X189945295Y-64990476D01*
X189945295Y-64990476D02*
X190040533Y-64990476D01*
X190040533Y-64990476D02*
X190183390Y-65038095D01*
X190183390Y-65038095D02*
X190754819Y-65609523D01*
X190754819Y-65609523D02*
X190754819Y-64990476D01*
X189754819Y-64371428D02*
X189754819Y-64276190D01*
X189754819Y-64276190D02*
X189802438Y-64180952D01*
X189802438Y-64180952D02*
X189850057Y-64133333D01*
X189850057Y-64133333D02*
X189945295Y-64085714D01*
X189945295Y-64085714D02*
X190135771Y-64038095D01*
X190135771Y-64038095D02*
X190373866Y-64038095D01*
X190373866Y-64038095D02*
X190564342Y-64085714D01*
X190564342Y-64085714D02*
X190659580Y-64133333D01*
X190659580Y-64133333D02*
X190707200Y-64180952D01*
X190707200Y-64180952D02*
X190754819Y-64276190D01*
X190754819Y-64276190D02*
X190754819Y-64371428D01*
X190754819Y-64371428D02*
X190707200Y-64466666D01*
X190707200Y-64466666D02*
X190659580Y-64514285D01*
X190659580Y-64514285D02*
X190564342Y-64561904D01*
X190564342Y-64561904D02*
X190373866Y-64609523D01*
X190373866Y-64609523D02*
X190135771Y-64609523D01*
X190135771Y-64609523D02*
X189945295Y-64561904D01*
X189945295Y-64561904D02*
X189850057Y-64514285D01*
X189850057Y-64514285D02*
X189802438Y-64466666D01*
X189802438Y-64466666D02*
X189754819Y-64371428D01*
X180433333Y-42329819D02*
X180100000Y-41853628D01*
X179861905Y-42329819D02*
X179861905Y-41329819D01*
X179861905Y-41329819D02*
X180242857Y-41329819D01*
X180242857Y-41329819D02*
X180338095Y-41377438D01*
X180338095Y-41377438D02*
X180385714Y-41425057D01*
X180385714Y-41425057D02*
X180433333Y-41520295D01*
X180433333Y-41520295D02*
X180433333Y-41663152D01*
X180433333Y-41663152D02*
X180385714Y-41758390D01*
X180385714Y-41758390D02*
X180338095Y-41806009D01*
X180338095Y-41806009D02*
X180242857Y-41853628D01*
X180242857Y-41853628D02*
X179861905Y-41853628D01*
X181290476Y-41663152D02*
X181290476Y-42329819D01*
X181052381Y-41282200D02*
X180814286Y-41996485D01*
X180814286Y-41996485D02*
X181433333Y-41996485D01*
X211897080Y-49742857D02*
X211944700Y-49790476D01*
X211944700Y-49790476D02*
X211992319Y-49933333D01*
X211992319Y-49933333D02*
X211992319Y-50028571D01*
X211992319Y-50028571D02*
X211944700Y-50171428D01*
X211944700Y-50171428D02*
X211849461Y-50266666D01*
X211849461Y-50266666D02*
X211754223Y-50314285D01*
X211754223Y-50314285D02*
X211563747Y-50361904D01*
X211563747Y-50361904D02*
X211420890Y-50361904D01*
X211420890Y-50361904D02*
X211230414Y-50314285D01*
X211230414Y-50314285D02*
X211135176Y-50266666D01*
X211135176Y-50266666D02*
X211039938Y-50171428D01*
X211039938Y-50171428D02*
X210992319Y-50028571D01*
X210992319Y-50028571D02*
X210992319Y-49933333D01*
X210992319Y-49933333D02*
X211039938Y-49790476D01*
X211039938Y-49790476D02*
X211087557Y-49742857D01*
X211087557Y-49361904D02*
X211039938Y-49314285D01*
X211039938Y-49314285D02*
X210992319Y-49219047D01*
X210992319Y-49219047D02*
X210992319Y-48980952D01*
X210992319Y-48980952D02*
X211039938Y-48885714D01*
X211039938Y-48885714D02*
X211087557Y-48838095D01*
X211087557Y-48838095D02*
X211182795Y-48790476D01*
X211182795Y-48790476D02*
X211278033Y-48790476D01*
X211278033Y-48790476D02*
X211420890Y-48838095D01*
X211420890Y-48838095D02*
X211992319Y-49409523D01*
X211992319Y-49409523D02*
X211992319Y-48790476D01*
X210992319Y-47885714D02*
X210992319Y-48361904D01*
X210992319Y-48361904D02*
X211468509Y-48409523D01*
X211468509Y-48409523D02*
X211420890Y-48361904D01*
X211420890Y-48361904D02*
X211373271Y-48266666D01*
X211373271Y-48266666D02*
X211373271Y-48028571D01*
X211373271Y-48028571D02*
X211420890Y-47933333D01*
X211420890Y-47933333D02*
X211468509Y-47885714D01*
X211468509Y-47885714D02*
X211563747Y-47838095D01*
X211563747Y-47838095D02*
X211801842Y-47838095D01*
X211801842Y-47838095D02*
X211897080Y-47885714D01*
X211897080Y-47885714D02*
X211944700Y-47933333D01*
X211944700Y-47933333D02*
X211992319Y-48028571D01*
X211992319Y-48028571D02*
X211992319Y-48266666D01*
X211992319Y-48266666D02*
X211944700Y-48361904D01*
X211944700Y-48361904D02*
X211897080Y-48409523D01*
X204657142Y-56959580D02*
X204609523Y-57007200D01*
X204609523Y-57007200D02*
X204466666Y-57054819D01*
X204466666Y-57054819D02*
X204371428Y-57054819D01*
X204371428Y-57054819D02*
X204228571Y-57007200D01*
X204228571Y-57007200D02*
X204133333Y-56911961D01*
X204133333Y-56911961D02*
X204085714Y-56816723D01*
X204085714Y-56816723D02*
X204038095Y-56626247D01*
X204038095Y-56626247D02*
X204038095Y-56483390D01*
X204038095Y-56483390D02*
X204085714Y-56292914D01*
X204085714Y-56292914D02*
X204133333Y-56197676D01*
X204133333Y-56197676D02*
X204228571Y-56102438D01*
X204228571Y-56102438D02*
X204371428Y-56054819D01*
X204371428Y-56054819D02*
X204466666Y-56054819D01*
X204466666Y-56054819D02*
X204609523Y-56102438D01*
X204609523Y-56102438D02*
X204657142Y-56150057D01*
X204990476Y-56054819D02*
X205609523Y-56054819D01*
X205609523Y-56054819D02*
X205276190Y-56435771D01*
X205276190Y-56435771D02*
X205419047Y-56435771D01*
X205419047Y-56435771D02*
X205514285Y-56483390D01*
X205514285Y-56483390D02*
X205561904Y-56531009D01*
X205561904Y-56531009D02*
X205609523Y-56626247D01*
X205609523Y-56626247D02*
X205609523Y-56864342D01*
X205609523Y-56864342D02*
X205561904Y-56959580D01*
X205561904Y-56959580D02*
X205514285Y-57007200D01*
X205514285Y-57007200D02*
X205419047Y-57054819D01*
X205419047Y-57054819D02*
X205133333Y-57054819D01*
X205133333Y-57054819D02*
X205038095Y-57007200D01*
X205038095Y-57007200D02*
X204990476Y-56959580D01*
X206228571Y-56054819D02*
X206323809Y-56054819D01*
X206323809Y-56054819D02*
X206419047Y-56102438D01*
X206419047Y-56102438D02*
X206466666Y-56150057D01*
X206466666Y-56150057D02*
X206514285Y-56245295D01*
X206514285Y-56245295D02*
X206561904Y-56435771D01*
X206561904Y-56435771D02*
X206561904Y-56673866D01*
X206561904Y-56673866D02*
X206514285Y-56864342D01*
X206514285Y-56864342D02*
X206466666Y-56959580D01*
X206466666Y-56959580D02*
X206419047Y-57007200D01*
X206419047Y-57007200D02*
X206323809Y-57054819D01*
X206323809Y-57054819D02*
X206228571Y-57054819D01*
X206228571Y-57054819D02*
X206133333Y-57007200D01*
X206133333Y-57007200D02*
X206085714Y-56959580D01*
X206085714Y-56959580D02*
X206038095Y-56864342D01*
X206038095Y-56864342D02*
X205990476Y-56673866D01*
X205990476Y-56673866D02*
X205990476Y-56435771D01*
X205990476Y-56435771D02*
X206038095Y-56245295D01*
X206038095Y-56245295D02*
X206085714Y-56150057D01*
X206085714Y-56150057D02*
X206133333Y-56102438D01*
X206133333Y-56102438D02*
X206228571Y-56054819D01*
X196766666Y-85154819D02*
X196766666Y-85869104D01*
X196766666Y-85869104D02*
X196719047Y-86011961D01*
X196719047Y-86011961D02*
X196623809Y-86107200D01*
X196623809Y-86107200D02*
X196480952Y-86154819D01*
X196480952Y-86154819D02*
X196385714Y-86154819D01*
X197671428Y-85488152D02*
X197671428Y-86154819D01*
X197433333Y-85107200D02*
X197195238Y-85821485D01*
X197195238Y-85821485D02*
X197814285Y-85821485D01*
X199054819Y-60404166D02*
X199054819Y-60880356D01*
X199054819Y-60880356D02*
X198054819Y-60880356D01*
X198054819Y-59642261D02*
X198054819Y-59832737D01*
X198054819Y-59832737D02*
X198102438Y-59927975D01*
X198102438Y-59927975D02*
X198150057Y-59975594D01*
X198150057Y-59975594D02*
X198292914Y-60070832D01*
X198292914Y-60070832D02*
X198483390Y-60118451D01*
X198483390Y-60118451D02*
X198864342Y-60118451D01*
X198864342Y-60118451D02*
X198959580Y-60070832D01*
X198959580Y-60070832D02*
X199007200Y-60023213D01*
X199007200Y-60023213D02*
X199054819Y-59927975D01*
X199054819Y-59927975D02*
X199054819Y-59737499D01*
X199054819Y-59737499D02*
X199007200Y-59642261D01*
X199007200Y-59642261D02*
X198959580Y-59594642D01*
X198959580Y-59594642D02*
X198864342Y-59547023D01*
X198864342Y-59547023D02*
X198626247Y-59547023D01*
X198626247Y-59547023D02*
X198531009Y-59594642D01*
X198531009Y-59594642D02*
X198483390Y-59642261D01*
X198483390Y-59642261D02*
X198435771Y-59737499D01*
X198435771Y-59737499D02*
X198435771Y-59927975D01*
X198435771Y-59927975D02*
X198483390Y-60023213D01*
X198483390Y-60023213D02*
X198531009Y-60070832D01*
X198531009Y-60070832D02*
X198626247Y-60118451D01*
X174133333Y-70759580D02*
X174085714Y-70807200D01*
X174085714Y-70807200D02*
X173942857Y-70854819D01*
X173942857Y-70854819D02*
X173847619Y-70854819D01*
X173847619Y-70854819D02*
X173704762Y-70807200D01*
X173704762Y-70807200D02*
X173609524Y-70711961D01*
X173609524Y-70711961D02*
X173561905Y-70616723D01*
X173561905Y-70616723D02*
X173514286Y-70426247D01*
X173514286Y-70426247D02*
X173514286Y-70283390D01*
X173514286Y-70283390D02*
X173561905Y-70092914D01*
X173561905Y-70092914D02*
X173609524Y-69997676D01*
X173609524Y-69997676D02*
X173704762Y-69902438D01*
X173704762Y-69902438D02*
X173847619Y-69854819D01*
X173847619Y-69854819D02*
X173942857Y-69854819D01*
X173942857Y-69854819D02*
X174085714Y-69902438D01*
X174085714Y-69902438D02*
X174133333Y-69950057D01*
X174466667Y-69854819D02*
X175085714Y-69854819D01*
X175085714Y-69854819D02*
X174752381Y-70235771D01*
X174752381Y-70235771D02*
X174895238Y-70235771D01*
X174895238Y-70235771D02*
X174990476Y-70283390D01*
X174990476Y-70283390D02*
X175038095Y-70331009D01*
X175038095Y-70331009D02*
X175085714Y-70426247D01*
X175085714Y-70426247D02*
X175085714Y-70664342D01*
X175085714Y-70664342D02*
X175038095Y-70759580D01*
X175038095Y-70759580D02*
X174990476Y-70807200D01*
X174990476Y-70807200D02*
X174895238Y-70854819D01*
X174895238Y-70854819D02*
X174609524Y-70854819D01*
X174609524Y-70854819D02*
X174514286Y-70807200D01*
X174514286Y-70807200D02*
X174466667Y-70759580D01*
X184433333Y-42354819D02*
X184100000Y-41878628D01*
X183861905Y-42354819D02*
X183861905Y-41354819D01*
X183861905Y-41354819D02*
X184242857Y-41354819D01*
X184242857Y-41354819D02*
X184338095Y-41402438D01*
X184338095Y-41402438D02*
X184385714Y-41450057D01*
X184385714Y-41450057D02*
X184433333Y-41545295D01*
X184433333Y-41545295D02*
X184433333Y-41688152D01*
X184433333Y-41688152D02*
X184385714Y-41783390D01*
X184385714Y-41783390D02*
X184338095Y-41831009D01*
X184338095Y-41831009D02*
X184242857Y-41878628D01*
X184242857Y-41878628D02*
X183861905Y-41878628D01*
X184766667Y-41354819D02*
X185385714Y-41354819D01*
X185385714Y-41354819D02*
X185052381Y-41735771D01*
X185052381Y-41735771D02*
X185195238Y-41735771D01*
X185195238Y-41735771D02*
X185290476Y-41783390D01*
X185290476Y-41783390D02*
X185338095Y-41831009D01*
X185338095Y-41831009D02*
X185385714Y-41926247D01*
X185385714Y-41926247D02*
X185385714Y-42164342D01*
X185385714Y-42164342D02*
X185338095Y-42259580D01*
X185338095Y-42259580D02*
X185290476Y-42307200D01*
X185290476Y-42307200D02*
X185195238Y-42354819D01*
X185195238Y-42354819D02*
X184909524Y-42354819D01*
X184909524Y-42354819D02*
X184814286Y-42307200D01*
X184814286Y-42307200D02*
X184766667Y-42259580D01*
X186757142Y-70754819D02*
X186423809Y-70278628D01*
X186185714Y-70754819D02*
X186185714Y-69754819D01*
X186185714Y-69754819D02*
X186566666Y-69754819D01*
X186566666Y-69754819D02*
X186661904Y-69802438D01*
X186661904Y-69802438D02*
X186709523Y-69850057D01*
X186709523Y-69850057D02*
X186757142Y-69945295D01*
X186757142Y-69945295D02*
X186757142Y-70088152D01*
X186757142Y-70088152D02*
X186709523Y-70183390D01*
X186709523Y-70183390D02*
X186661904Y-70231009D01*
X186661904Y-70231009D02*
X186566666Y-70278628D01*
X186566666Y-70278628D02*
X186185714Y-70278628D01*
X187709523Y-70754819D02*
X187138095Y-70754819D01*
X187423809Y-70754819D02*
X187423809Y-69754819D01*
X187423809Y-69754819D02*
X187328571Y-69897676D01*
X187328571Y-69897676D02*
X187233333Y-69992914D01*
X187233333Y-69992914D02*
X187138095Y-70040533D01*
X188328571Y-69754819D02*
X188423809Y-69754819D01*
X188423809Y-69754819D02*
X188519047Y-69802438D01*
X188519047Y-69802438D02*
X188566666Y-69850057D01*
X188566666Y-69850057D02*
X188614285Y-69945295D01*
X188614285Y-69945295D02*
X188661904Y-70135771D01*
X188661904Y-70135771D02*
X188661904Y-70373866D01*
X188661904Y-70373866D02*
X188614285Y-70564342D01*
X188614285Y-70564342D02*
X188566666Y-70659580D01*
X188566666Y-70659580D02*
X188519047Y-70707200D01*
X188519047Y-70707200D02*
X188423809Y-70754819D01*
X188423809Y-70754819D02*
X188328571Y-70754819D01*
X188328571Y-70754819D02*
X188233333Y-70707200D01*
X188233333Y-70707200D02*
X188185714Y-70659580D01*
X188185714Y-70659580D02*
X188138095Y-70564342D01*
X188138095Y-70564342D02*
X188090476Y-70373866D01*
X188090476Y-70373866D02*
X188090476Y-70135771D01*
X188090476Y-70135771D02*
X188138095Y-69945295D01*
X188138095Y-69945295D02*
X188185714Y-69850057D01*
X188185714Y-69850057D02*
X188233333Y-69802438D01*
X188233333Y-69802438D02*
X188328571Y-69754819D01*
X212409580Y-55067857D02*
X212457200Y-55115476D01*
X212457200Y-55115476D02*
X212504819Y-55258333D01*
X212504819Y-55258333D02*
X212504819Y-55353571D01*
X212504819Y-55353571D02*
X212457200Y-55496428D01*
X212457200Y-55496428D02*
X212361961Y-55591666D01*
X212361961Y-55591666D02*
X212266723Y-55639285D01*
X212266723Y-55639285D02*
X212076247Y-55686904D01*
X212076247Y-55686904D02*
X211933390Y-55686904D01*
X211933390Y-55686904D02*
X211742914Y-55639285D01*
X211742914Y-55639285D02*
X211647676Y-55591666D01*
X211647676Y-55591666D02*
X211552438Y-55496428D01*
X211552438Y-55496428D02*
X211504819Y-55353571D01*
X211504819Y-55353571D02*
X211504819Y-55258333D01*
X211504819Y-55258333D02*
X211552438Y-55115476D01*
X211552438Y-55115476D02*
X211600057Y-55067857D01*
X211600057Y-54686904D02*
X211552438Y-54639285D01*
X211552438Y-54639285D02*
X211504819Y-54544047D01*
X211504819Y-54544047D02*
X211504819Y-54305952D01*
X211504819Y-54305952D02*
X211552438Y-54210714D01*
X211552438Y-54210714D02*
X211600057Y-54163095D01*
X211600057Y-54163095D02*
X211695295Y-54115476D01*
X211695295Y-54115476D02*
X211790533Y-54115476D01*
X211790533Y-54115476D02*
X211933390Y-54163095D01*
X211933390Y-54163095D02*
X212504819Y-54734523D01*
X212504819Y-54734523D02*
X212504819Y-54115476D01*
X211504819Y-53258333D02*
X211504819Y-53448809D01*
X211504819Y-53448809D02*
X211552438Y-53544047D01*
X211552438Y-53544047D02*
X211600057Y-53591666D01*
X211600057Y-53591666D02*
X211742914Y-53686904D01*
X211742914Y-53686904D02*
X211933390Y-53734523D01*
X211933390Y-53734523D02*
X212314342Y-53734523D01*
X212314342Y-53734523D02*
X212409580Y-53686904D01*
X212409580Y-53686904D02*
X212457200Y-53639285D01*
X212457200Y-53639285D02*
X212504819Y-53544047D01*
X212504819Y-53544047D02*
X212504819Y-53353571D01*
X212504819Y-53353571D02*
X212457200Y-53258333D01*
X212457200Y-53258333D02*
X212409580Y-53210714D01*
X212409580Y-53210714D02*
X212314342Y-53163095D01*
X212314342Y-53163095D02*
X212076247Y-53163095D01*
X212076247Y-53163095D02*
X211981009Y-53210714D01*
X211981009Y-53210714D02*
X211933390Y-53258333D01*
X211933390Y-53258333D02*
X211885771Y-53353571D01*
X211885771Y-53353571D02*
X211885771Y-53544047D01*
X211885771Y-53544047D02*
X211933390Y-53639285D01*
X211933390Y-53639285D02*
X211981009Y-53686904D01*
X211981009Y-53686904D02*
X212076247Y-53734523D01*
X134854819Y-43933333D02*
X135569104Y-43933333D01*
X135569104Y-43933333D02*
X135711961Y-43980952D01*
X135711961Y-43980952D02*
X135807200Y-44076190D01*
X135807200Y-44076190D02*
X135854819Y-44219047D01*
X135854819Y-44219047D02*
X135854819Y-44314285D01*
X135283390Y-43314285D02*
X135235771Y-43409523D01*
X135235771Y-43409523D02*
X135188152Y-43457142D01*
X135188152Y-43457142D02*
X135092914Y-43504761D01*
X135092914Y-43504761D02*
X135045295Y-43504761D01*
X135045295Y-43504761D02*
X134950057Y-43457142D01*
X134950057Y-43457142D02*
X134902438Y-43409523D01*
X134902438Y-43409523D02*
X134854819Y-43314285D01*
X134854819Y-43314285D02*
X134854819Y-43123809D01*
X134854819Y-43123809D02*
X134902438Y-43028571D01*
X134902438Y-43028571D02*
X134950057Y-42980952D01*
X134950057Y-42980952D02*
X135045295Y-42933333D01*
X135045295Y-42933333D02*
X135092914Y-42933333D01*
X135092914Y-42933333D02*
X135188152Y-42980952D01*
X135188152Y-42980952D02*
X135235771Y-43028571D01*
X135235771Y-43028571D02*
X135283390Y-43123809D01*
X135283390Y-43123809D02*
X135283390Y-43314285D01*
X135283390Y-43314285D02*
X135331009Y-43409523D01*
X135331009Y-43409523D02*
X135378628Y-43457142D01*
X135378628Y-43457142D02*
X135473866Y-43504761D01*
X135473866Y-43504761D02*
X135664342Y-43504761D01*
X135664342Y-43504761D02*
X135759580Y-43457142D01*
X135759580Y-43457142D02*
X135807200Y-43409523D01*
X135807200Y-43409523D02*
X135854819Y-43314285D01*
X135854819Y-43314285D02*
X135854819Y-43123809D01*
X135854819Y-43123809D02*
X135807200Y-43028571D01*
X135807200Y-43028571D02*
X135759580Y-42980952D01*
X135759580Y-42980952D02*
X135664342Y-42933333D01*
X135664342Y-42933333D02*
X135473866Y-42933333D01*
X135473866Y-42933333D02*
X135378628Y-42980952D01*
X135378628Y-42980952D02*
X135331009Y-43028571D01*
X135331009Y-43028571D02*
X135283390Y-43123809D01*
X189757142Y-70754819D02*
X189423809Y-70278628D01*
X189185714Y-70754819D02*
X189185714Y-69754819D01*
X189185714Y-69754819D02*
X189566666Y-69754819D01*
X189566666Y-69754819D02*
X189661904Y-69802438D01*
X189661904Y-69802438D02*
X189709523Y-69850057D01*
X189709523Y-69850057D02*
X189757142Y-69945295D01*
X189757142Y-69945295D02*
X189757142Y-70088152D01*
X189757142Y-70088152D02*
X189709523Y-70183390D01*
X189709523Y-70183390D02*
X189661904Y-70231009D01*
X189661904Y-70231009D02*
X189566666Y-70278628D01*
X189566666Y-70278628D02*
X189185714Y-70278628D01*
X190709523Y-70754819D02*
X190138095Y-70754819D01*
X190423809Y-70754819D02*
X190423809Y-69754819D01*
X190423809Y-69754819D02*
X190328571Y-69897676D01*
X190328571Y-69897676D02*
X190233333Y-69992914D01*
X190233333Y-69992914D02*
X190138095Y-70040533D01*
X191661904Y-70754819D02*
X191090476Y-70754819D01*
X191376190Y-70754819D02*
X191376190Y-69754819D01*
X191376190Y-69754819D02*
X191280952Y-69897676D01*
X191280952Y-69897676D02*
X191185714Y-69992914D01*
X191185714Y-69992914D02*
X191090476Y-70040533D01*
X137559580Y-61366666D02*
X137607200Y-61414285D01*
X137607200Y-61414285D02*
X137654819Y-61557142D01*
X137654819Y-61557142D02*
X137654819Y-61652380D01*
X137654819Y-61652380D02*
X137607200Y-61795237D01*
X137607200Y-61795237D02*
X137511961Y-61890475D01*
X137511961Y-61890475D02*
X137416723Y-61938094D01*
X137416723Y-61938094D02*
X137226247Y-61985713D01*
X137226247Y-61985713D02*
X137083390Y-61985713D01*
X137083390Y-61985713D02*
X136892914Y-61938094D01*
X136892914Y-61938094D02*
X136797676Y-61890475D01*
X136797676Y-61890475D02*
X136702438Y-61795237D01*
X136702438Y-61795237D02*
X136654819Y-61652380D01*
X136654819Y-61652380D02*
X136654819Y-61557142D01*
X136654819Y-61557142D02*
X136702438Y-61414285D01*
X136702438Y-61414285D02*
X136750057Y-61366666D01*
X137654819Y-60890475D02*
X137654819Y-60699999D01*
X137654819Y-60699999D02*
X137607200Y-60604761D01*
X137607200Y-60604761D02*
X137559580Y-60557142D01*
X137559580Y-60557142D02*
X137416723Y-60461904D01*
X137416723Y-60461904D02*
X137226247Y-60414285D01*
X137226247Y-60414285D02*
X136845295Y-60414285D01*
X136845295Y-60414285D02*
X136750057Y-60461904D01*
X136750057Y-60461904D02*
X136702438Y-60509523D01*
X136702438Y-60509523D02*
X136654819Y-60604761D01*
X136654819Y-60604761D02*
X136654819Y-60795237D01*
X136654819Y-60795237D02*
X136702438Y-60890475D01*
X136702438Y-60890475D02*
X136750057Y-60938094D01*
X136750057Y-60938094D02*
X136845295Y-60985713D01*
X136845295Y-60985713D02*
X137083390Y-60985713D01*
X137083390Y-60985713D02*
X137178628Y-60938094D01*
X137178628Y-60938094D02*
X137226247Y-60890475D01*
X137226247Y-60890475D02*
X137273866Y-60795237D01*
X137273866Y-60795237D02*
X137273866Y-60604761D01*
X137273866Y-60604761D02*
X137226247Y-60509523D01*
X137226247Y-60509523D02*
X137178628Y-60461904D01*
X137178628Y-60461904D02*
X137083390Y-60414285D01*
X181461905Y-70954819D02*
X181461905Y-69954819D01*
X181461905Y-69954819D02*
X181700000Y-69954819D01*
X181700000Y-69954819D02*
X181842857Y-70002438D01*
X181842857Y-70002438D02*
X181938095Y-70097676D01*
X181938095Y-70097676D02*
X181985714Y-70192914D01*
X181985714Y-70192914D02*
X182033333Y-70383390D01*
X182033333Y-70383390D02*
X182033333Y-70526247D01*
X182033333Y-70526247D02*
X181985714Y-70716723D01*
X181985714Y-70716723D02*
X181938095Y-70811961D01*
X181938095Y-70811961D02*
X181842857Y-70907200D01*
X181842857Y-70907200D02*
X181700000Y-70954819D01*
X181700000Y-70954819D02*
X181461905Y-70954819D01*
X182938095Y-69954819D02*
X182461905Y-69954819D01*
X182461905Y-69954819D02*
X182414286Y-70431009D01*
X182414286Y-70431009D02*
X182461905Y-70383390D01*
X182461905Y-70383390D02*
X182557143Y-70335771D01*
X182557143Y-70335771D02*
X182795238Y-70335771D01*
X182795238Y-70335771D02*
X182890476Y-70383390D01*
X182890476Y-70383390D02*
X182938095Y-70431009D01*
X182938095Y-70431009D02*
X182985714Y-70526247D01*
X182985714Y-70526247D02*
X182985714Y-70764342D01*
X182985714Y-70764342D02*
X182938095Y-70859580D01*
X182938095Y-70859580D02*
X182890476Y-70907200D01*
X182890476Y-70907200D02*
X182795238Y-70954819D01*
X182795238Y-70954819D02*
X182557143Y-70954819D01*
X182557143Y-70954819D02*
X182461905Y-70907200D01*
X182461905Y-70907200D02*
X182414286Y-70859580D01*
X204344642Y-54209580D02*
X204297023Y-54257200D01*
X204297023Y-54257200D02*
X204154166Y-54304819D01*
X204154166Y-54304819D02*
X204058928Y-54304819D01*
X204058928Y-54304819D02*
X203916071Y-54257200D01*
X203916071Y-54257200D02*
X203820833Y-54161961D01*
X203820833Y-54161961D02*
X203773214Y-54066723D01*
X203773214Y-54066723D02*
X203725595Y-53876247D01*
X203725595Y-53876247D02*
X203725595Y-53733390D01*
X203725595Y-53733390D02*
X203773214Y-53542914D01*
X203773214Y-53542914D02*
X203820833Y-53447676D01*
X203820833Y-53447676D02*
X203916071Y-53352438D01*
X203916071Y-53352438D02*
X204058928Y-53304819D01*
X204058928Y-53304819D02*
X204154166Y-53304819D01*
X204154166Y-53304819D02*
X204297023Y-53352438D01*
X204297023Y-53352438D02*
X204344642Y-53400057D01*
X204725595Y-53400057D02*
X204773214Y-53352438D01*
X204773214Y-53352438D02*
X204868452Y-53304819D01*
X204868452Y-53304819D02*
X205106547Y-53304819D01*
X205106547Y-53304819D02*
X205201785Y-53352438D01*
X205201785Y-53352438D02*
X205249404Y-53400057D01*
X205249404Y-53400057D02*
X205297023Y-53495295D01*
X205297023Y-53495295D02*
X205297023Y-53590533D01*
X205297023Y-53590533D02*
X205249404Y-53733390D01*
X205249404Y-53733390D02*
X204677976Y-54304819D01*
X204677976Y-54304819D02*
X205297023Y-54304819D01*
X205630357Y-53304819D02*
X206249404Y-53304819D01*
X206249404Y-53304819D02*
X205916071Y-53685771D01*
X205916071Y-53685771D02*
X206058928Y-53685771D01*
X206058928Y-53685771D02*
X206154166Y-53733390D01*
X206154166Y-53733390D02*
X206201785Y-53781009D01*
X206201785Y-53781009D02*
X206249404Y-53876247D01*
X206249404Y-53876247D02*
X206249404Y-54114342D01*
X206249404Y-54114342D02*
X206201785Y-54209580D01*
X206201785Y-54209580D02*
X206154166Y-54257200D01*
X206154166Y-54257200D02*
X206058928Y-54304819D01*
X206058928Y-54304819D02*
X205773214Y-54304819D01*
X205773214Y-54304819D02*
X205677976Y-54257200D01*
X205677976Y-54257200D02*
X205630357Y-54209580D01*
X142954819Y-68092857D02*
X142478628Y-68426190D01*
X142954819Y-68664285D02*
X141954819Y-68664285D01*
X141954819Y-68664285D02*
X141954819Y-68283333D01*
X141954819Y-68283333D02*
X142002438Y-68188095D01*
X142002438Y-68188095D02*
X142050057Y-68140476D01*
X142050057Y-68140476D02*
X142145295Y-68092857D01*
X142145295Y-68092857D02*
X142288152Y-68092857D01*
X142288152Y-68092857D02*
X142383390Y-68140476D01*
X142383390Y-68140476D02*
X142431009Y-68188095D01*
X142431009Y-68188095D02*
X142478628Y-68283333D01*
X142478628Y-68283333D02*
X142478628Y-68664285D01*
X142954819Y-67140476D02*
X142954819Y-67711904D01*
X142954819Y-67426190D02*
X141954819Y-67426190D01*
X141954819Y-67426190D02*
X142097676Y-67521428D01*
X142097676Y-67521428D02*
X142192914Y-67616666D01*
X142192914Y-67616666D02*
X142240533Y-67711904D01*
X142050057Y-66759523D02*
X142002438Y-66711904D01*
X142002438Y-66711904D02*
X141954819Y-66616666D01*
X141954819Y-66616666D02*
X141954819Y-66378571D01*
X141954819Y-66378571D02*
X142002438Y-66283333D01*
X142002438Y-66283333D02*
X142050057Y-66235714D01*
X142050057Y-66235714D02*
X142145295Y-66188095D01*
X142145295Y-66188095D02*
X142240533Y-66188095D01*
X142240533Y-66188095D02*
X142383390Y-66235714D01*
X142383390Y-66235714D02*
X142954819Y-66807142D01*
X142954819Y-66807142D02*
X142954819Y-66188095D01*
X208220833Y-54304819D02*
X207744643Y-54304819D01*
X207744643Y-54304819D02*
X207744643Y-53304819D01*
X208982738Y-53638152D02*
X208982738Y-54304819D01*
X208744643Y-53257200D02*
X208506548Y-53971485D01*
X208506548Y-53971485D02*
X209125595Y-53971485D01*
X175433333Y-33859580D02*
X175385714Y-33907200D01*
X175385714Y-33907200D02*
X175242857Y-33954819D01*
X175242857Y-33954819D02*
X175147619Y-33954819D01*
X175147619Y-33954819D02*
X175004762Y-33907200D01*
X175004762Y-33907200D02*
X174909524Y-33811961D01*
X174909524Y-33811961D02*
X174861905Y-33716723D01*
X174861905Y-33716723D02*
X174814286Y-33526247D01*
X174814286Y-33526247D02*
X174814286Y-33383390D01*
X174814286Y-33383390D02*
X174861905Y-33192914D01*
X174861905Y-33192914D02*
X174909524Y-33097676D01*
X174909524Y-33097676D02*
X175004762Y-33002438D01*
X175004762Y-33002438D02*
X175147619Y-32954819D01*
X175147619Y-32954819D02*
X175242857Y-32954819D01*
X175242857Y-32954819D02*
X175385714Y-33002438D01*
X175385714Y-33002438D02*
X175433333Y-33050057D01*
X176385714Y-33954819D02*
X175814286Y-33954819D01*
X176100000Y-33954819D02*
X176100000Y-32954819D01*
X176100000Y-32954819D02*
X176004762Y-33097676D01*
X176004762Y-33097676D02*
X175909524Y-33192914D01*
X175909524Y-33192914D02*
X175814286Y-33240533D01*
X215857142Y-69734580D02*
X215809523Y-69782200D01*
X215809523Y-69782200D02*
X215666666Y-69829819D01*
X215666666Y-69829819D02*
X215571428Y-69829819D01*
X215571428Y-69829819D02*
X215428571Y-69782200D01*
X215428571Y-69782200D02*
X215333333Y-69686961D01*
X215333333Y-69686961D02*
X215285714Y-69591723D01*
X215285714Y-69591723D02*
X215238095Y-69401247D01*
X215238095Y-69401247D02*
X215238095Y-69258390D01*
X215238095Y-69258390D02*
X215285714Y-69067914D01*
X215285714Y-69067914D02*
X215333333Y-68972676D01*
X215333333Y-68972676D02*
X215428571Y-68877438D01*
X215428571Y-68877438D02*
X215571428Y-68829819D01*
X215571428Y-68829819D02*
X215666666Y-68829819D01*
X215666666Y-68829819D02*
X215809523Y-68877438D01*
X215809523Y-68877438D02*
X215857142Y-68925057D01*
X216238095Y-68925057D02*
X216285714Y-68877438D01*
X216285714Y-68877438D02*
X216380952Y-68829819D01*
X216380952Y-68829819D02*
X216619047Y-68829819D01*
X216619047Y-68829819D02*
X216714285Y-68877438D01*
X216714285Y-68877438D02*
X216761904Y-68925057D01*
X216761904Y-68925057D02*
X216809523Y-69020295D01*
X216809523Y-69020295D02*
X216809523Y-69115533D01*
X216809523Y-69115533D02*
X216761904Y-69258390D01*
X216761904Y-69258390D02*
X216190476Y-69829819D01*
X216190476Y-69829819D02*
X216809523Y-69829819D01*
X217380952Y-69258390D02*
X217285714Y-69210771D01*
X217285714Y-69210771D02*
X217238095Y-69163152D01*
X217238095Y-69163152D02*
X217190476Y-69067914D01*
X217190476Y-69067914D02*
X217190476Y-69020295D01*
X217190476Y-69020295D02*
X217238095Y-68925057D01*
X217238095Y-68925057D02*
X217285714Y-68877438D01*
X217285714Y-68877438D02*
X217380952Y-68829819D01*
X217380952Y-68829819D02*
X217571428Y-68829819D01*
X217571428Y-68829819D02*
X217666666Y-68877438D01*
X217666666Y-68877438D02*
X217714285Y-68925057D01*
X217714285Y-68925057D02*
X217761904Y-69020295D01*
X217761904Y-69020295D02*
X217761904Y-69067914D01*
X217761904Y-69067914D02*
X217714285Y-69163152D01*
X217714285Y-69163152D02*
X217666666Y-69210771D01*
X217666666Y-69210771D02*
X217571428Y-69258390D01*
X217571428Y-69258390D02*
X217380952Y-69258390D01*
X217380952Y-69258390D02*
X217285714Y-69306009D01*
X217285714Y-69306009D02*
X217238095Y-69353628D01*
X217238095Y-69353628D02*
X217190476Y-69448866D01*
X217190476Y-69448866D02*
X217190476Y-69639342D01*
X217190476Y-69639342D02*
X217238095Y-69734580D01*
X217238095Y-69734580D02*
X217285714Y-69782200D01*
X217285714Y-69782200D02*
X217380952Y-69829819D01*
X217380952Y-69829819D02*
X217571428Y-69829819D01*
X217571428Y-69829819D02*
X217666666Y-69782200D01*
X217666666Y-69782200D02*
X217714285Y-69734580D01*
X217714285Y-69734580D02*
X217761904Y-69639342D01*
X217761904Y-69639342D02*
X217761904Y-69448866D01*
X217761904Y-69448866D02*
X217714285Y-69353628D01*
X217714285Y-69353628D02*
X217666666Y-69306009D01*
X217666666Y-69306009D02*
X217571428Y-69258390D01*
X191633333Y-33459580D02*
X191585714Y-33507200D01*
X191585714Y-33507200D02*
X191442857Y-33554819D01*
X191442857Y-33554819D02*
X191347619Y-33554819D01*
X191347619Y-33554819D02*
X191204762Y-33507200D01*
X191204762Y-33507200D02*
X191109524Y-33411961D01*
X191109524Y-33411961D02*
X191061905Y-33316723D01*
X191061905Y-33316723D02*
X191014286Y-33126247D01*
X191014286Y-33126247D02*
X191014286Y-32983390D01*
X191014286Y-32983390D02*
X191061905Y-32792914D01*
X191061905Y-32792914D02*
X191109524Y-32697676D01*
X191109524Y-32697676D02*
X191204762Y-32602438D01*
X191204762Y-32602438D02*
X191347619Y-32554819D01*
X191347619Y-32554819D02*
X191442857Y-32554819D01*
X191442857Y-32554819D02*
X191585714Y-32602438D01*
X191585714Y-32602438D02*
X191633333Y-32650057D01*
X192014286Y-32650057D02*
X192061905Y-32602438D01*
X192061905Y-32602438D02*
X192157143Y-32554819D01*
X192157143Y-32554819D02*
X192395238Y-32554819D01*
X192395238Y-32554819D02*
X192490476Y-32602438D01*
X192490476Y-32602438D02*
X192538095Y-32650057D01*
X192538095Y-32650057D02*
X192585714Y-32745295D01*
X192585714Y-32745295D02*
X192585714Y-32840533D01*
X192585714Y-32840533D02*
X192538095Y-32983390D01*
X192538095Y-32983390D02*
X191966667Y-33554819D01*
X191966667Y-33554819D02*
X192585714Y-33554819D01*
X190638095Y-57954819D02*
X190638095Y-58764342D01*
X190638095Y-58764342D02*
X190685714Y-58859580D01*
X190685714Y-58859580D02*
X190733333Y-58907200D01*
X190733333Y-58907200D02*
X190828571Y-58954819D01*
X190828571Y-58954819D02*
X191019047Y-58954819D01*
X191019047Y-58954819D02*
X191114285Y-58907200D01*
X191114285Y-58907200D02*
X191161904Y-58859580D01*
X191161904Y-58859580D02*
X191209523Y-58764342D01*
X191209523Y-58764342D02*
X191209523Y-57954819D01*
X191590476Y-57954819D02*
X192209523Y-57954819D01*
X192209523Y-57954819D02*
X191876190Y-58335771D01*
X191876190Y-58335771D02*
X192019047Y-58335771D01*
X192019047Y-58335771D02*
X192114285Y-58383390D01*
X192114285Y-58383390D02*
X192161904Y-58431009D01*
X192161904Y-58431009D02*
X192209523Y-58526247D01*
X192209523Y-58526247D02*
X192209523Y-58764342D01*
X192209523Y-58764342D02*
X192161904Y-58859580D01*
X192161904Y-58859580D02*
X192114285Y-58907200D01*
X192114285Y-58907200D02*
X192019047Y-58954819D01*
X192019047Y-58954819D02*
X191733333Y-58954819D01*
X191733333Y-58954819D02*
X191638095Y-58907200D01*
X191638095Y-58907200D02*
X191590476Y-58859580D01*
X215657142Y-62659580D02*
X215609523Y-62707200D01*
X215609523Y-62707200D02*
X215466666Y-62754819D01*
X215466666Y-62754819D02*
X215371428Y-62754819D01*
X215371428Y-62754819D02*
X215228571Y-62707200D01*
X215228571Y-62707200D02*
X215133333Y-62611961D01*
X215133333Y-62611961D02*
X215085714Y-62516723D01*
X215085714Y-62516723D02*
X215038095Y-62326247D01*
X215038095Y-62326247D02*
X215038095Y-62183390D01*
X215038095Y-62183390D02*
X215085714Y-61992914D01*
X215085714Y-61992914D02*
X215133333Y-61897676D01*
X215133333Y-61897676D02*
X215228571Y-61802438D01*
X215228571Y-61802438D02*
X215371428Y-61754819D01*
X215371428Y-61754819D02*
X215466666Y-61754819D01*
X215466666Y-61754819D02*
X215609523Y-61802438D01*
X215609523Y-61802438D02*
X215657142Y-61850057D01*
X216038095Y-61850057D02*
X216085714Y-61802438D01*
X216085714Y-61802438D02*
X216180952Y-61754819D01*
X216180952Y-61754819D02*
X216419047Y-61754819D01*
X216419047Y-61754819D02*
X216514285Y-61802438D01*
X216514285Y-61802438D02*
X216561904Y-61850057D01*
X216561904Y-61850057D02*
X216609523Y-61945295D01*
X216609523Y-61945295D02*
X216609523Y-62040533D01*
X216609523Y-62040533D02*
X216561904Y-62183390D01*
X216561904Y-62183390D02*
X215990476Y-62754819D01*
X215990476Y-62754819D02*
X216609523Y-62754819D01*
X216942857Y-61754819D02*
X217609523Y-61754819D01*
X217609523Y-61754819D02*
X217180952Y-62754819D01*
X190657142Y-50659580D02*
X190609523Y-50707200D01*
X190609523Y-50707200D02*
X190466666Y-50754819D01*
X190466666Y-50754819D02*
X190371428Y-50754819D01*
X190371428Y-50754819D02*
X190228571Y-50707200D01*
X190228571Y-50707200D02*
X190133333Y-50611961D01*
X190133333Y-50611961D02*
X190085714Y-50516723D01*
X190085714Y-50516723D02*
X190038095Y-50326247D01*
X190038095Y-50326247D02*
X190038095Y-50183390D01*
X190038095Y-50183390D02*
X190085714Y-49992914D01*
X190085714Y-49992914D02*
X190133333Y-49897676D01*
X190133333Y-49897676D02*
X190228571Y-49802438D01*
X190228571Y-49802438D02*
X190371428Y-49754819D01*
X190371428Y-49754819D02*
X190466666Y-49754819D01*
X190466666Y-49754819D02*
X190609523Y-49802438D01*
X190609523Y-49802438D02*
X190657142Y-49850057D01*
X191609523Y-50754819D02*
X191038095Y-50754819D01*
X191323809Y-50754819D02*
X191323809Y-49754819D01*
X191323809Y-49754819D02*
X191228571Y-49897676D01*
X191228571Y-49897676D02*
X191133333Y-49992914D01*
X191133333Y-49992914D02*
X191038095Y-50040533D01*
X192180952Y-50183390D02*
X192085714Y-50135771D01*
X192085714Y-50135771D02*
X192038095Y-50088152D01*
X192038095Y-50088152D02*
X191990476Y-49992914D01*
X191990476Y-49992914D02*
X191990476Y-49945295D01*
X191990476Y-49945295D02*
X192038095Y-49850057D01*
X192038095Y-49850057D02*
X192085714Y-49802438D01*
X192085714Y-49802438D02*
X192180952Y-49754819D01*
X192180952Y-49754819D02*
X192371428Y-49754819D01*
X192371428Y-49754819D02*
X192466666Y-49802438D01*
X192466666Y-49802438D02*
X192514285Y-49850057D01*
X192514285Y-49850057D02*
X192561904Y-49945295D01*
X192561904Y-49945295D02*
X192561904Y-49992914D01*
X192561904Y-49992914D02*
X192514285Y-50088152D01*
X192514285Y-50088152D02*
X192466666Y-50135771D01*
X192466666Y-50135771D02*
X192371428Y-50183390D01*
X192371428Y-50183390D02*
X192180952Y-50183390D01*
X192180952Y-50183390D02*
X192085714Y-50231009D01*
X192085714Y-50231009D02*
X192038095Y-50278628D01*
X192038095Y-50278628D02*
X191990476Y-50373866D01*
X191990476Y-50373866D02*
X191990476Y-50564342D01*
X191990476Y-50564342D02*
X192038095Y-50659580D01*
X192038095Y-50659580D02*
X192085714Y-50707200D01*
X192085714Y-50707200D02*
X192180952Y-50754819D01*
X192180952Y-50754819D02*
X192371428Y-50754819D01*
X192371428Y-50754819D02*
X192466666Y-50707200D01*
X192466666Y-50707200D02*
X192514285Y-50659580D01*
X192514285Y-50659580D02*
X192561904Y-50564342D01*
X192561904Y-50564342D02*
X192561904Y-50373866D01*
X192561904Y-50373866D02*
X192514285Y-50278628D01*
X192514285Y-50278628D02*
X192466666Y-50231009D01*
X192466666Y-50231009D02*
X192371428Y-50183390D01*
X193178628Y-47876190D02*
X193654819Y-47876190D01*
X192654819Y-48209523D02*
X193178628Y-47876190D01*
X193178628Y-47876190D02*
X192654819Y-47542857D01*
X193654819Y-46685714D02*
X193654819Y-47257142D01*
X193654819Y-46971428D02*
X192654819Y-46971428D01*
X192654819Y-46971428D02*
X192797676Y-47066666D01*
X192797676Y-47066666D02*
X192892914Y-47161904D01*
X192892914Y-47161904D02*
X192940533Y-47257142D01*
X174638095Y-42554819D02*
X174638095Y-43364342D01*
X174638095Y-43364342D02*
X174685714Y-43459580D01*
X174685714Y-43459580D02*
X174733333Y-43507200D01*
X174733333Y-43507200D02*
X174828571Y-43554819D01*
X174828571Y-43554819D02*
X175019047Y-43554819D01*
X175019047Y-43554819D02*
X175114285Y-43507200D01*
X175114285Y-43507200D02*
X175161904Y-43459580D01*
X175161904Y-43459580D02*
X175209523Y-43364342D01*
X175209523Y-43364342D02*
X175209523Y-42554819D01*
X176209523Y-43554819D02*
X175638095Y-43554819D01*
X175923809Y-43554819D02*
X175923809Y-42554819D01*
X175923809Y-42554819D02*
X175828571Y-42697676D01*
X175828571Y-42697676D02*
X175733333Y-42792914D01*
X175733333Y-42792914D02*
X175638095Y-42840533D01*
X179657142Y-51059580D02*
X179609523Y-51107200D01*
X179609523Y-51107200D02*
X179466666Y-51154819D01*
X179466666Y-51154819D02*
X179371428Y-51154819D01*
X179371428Y-51154819D02*
X179228571Y-51107200D01*
X179228571Y-51107200D02*
X179133333Y-51011961D01*
X179133333Y-51011961D02*
X179085714Y-50916723D01*
X179085714Y-50916723D02*
X179038095Y-50726247D01*
X179038095Y-50726247D02*
X179038095Y-50583390D01*
X179038095Y-50583390D02*
X179085714Y-50392914D01*
X179085714Y-50392914D02*
X179133333Y-50297676D01*
X179133333Y-50297676D02*
X179228571Y-50202438D01*
X179228571Y-50202438D02*
X179371428Y-50154819D01*
X179371428Y-50154819D02*
X179466666Y-50154819D01*
X179466666Y-50154819D02*
X179609523Y-50202438D01*
X179609523Y-50202438D02*
X179657142Y-50250057D01*
X180609523Y-51154819D02*
X180038095Y-51154819D01*
X180323809Y-51154819D02*
X180323809Y-50154819D01*
X180323809Y-50154819D02*
X180228571Y-50297676D01*
X180228571Y-50297676D02*
X180133333Y-50392914D01*
X180133333Y-50392914D02*
X180038095Y-50440533D01*
X181514285Y-50154819D02*
X181038095Y-50154819D01*
X181038095Y-50154819D02*
X180990476Y-50631009D01*
X180990476Y-50631009D02*
X181038095Y-50583390D01*
X181038095Y-50583390D02*
X181133333Y-50535771D01*
X181133333Y-50535771D02*
X181371428Y-50535771D01*
X181371428Y-50535771D02*
X181466666Y-50583390D01*
X181466666Y-50583390D02*
X181514285Y-50631009D01*
X181514285Y-50631009D02*
X181561904Y-50726247D01*
X181561904Y-50726247D02*
X181561904Y-50964342D01*
X181561904Y-50964342D02*
X181514285Y-51059580D01*
X181514285Y-51059580D02*
X181466666Y-51107200D01*
X181466666Y-51107200D02*
X181371428Y-51154819D01*
X181371428Y-51154819D02*
X181133333Y-51154819D01*
X181133333Y-51154819D02*
X181038095Y-51107200D01*
X181038095Y-51107200D02*
X180990476Y-51059580D01*
X186159580Y-47342857D02*
X186207200Y-47390476D01*
X186207200Y-47390476D02*
X186254819Y-47533333D01*
X186254819Y-47533333D02*
X186254819Y-47628571D01*
X186254819Y-47628571D02*
X186207200Y-47771428D01*
X186207200Y-47771428D02*
X186111961Y-47866666D01*
X186111961Y-47866666D02*
X186016723Y-47914285D01*
X186016723Y-47914285D02*
X185826247Y-47961904D01*
X185826247Y-47961904D02*
X185683390Y-47961904D01*
X185683390Y-47961904D02*
X185492914Y-47914285D01*
X185492914Y-47914285D02*
X185397676Y-47866666D01*
X185397676Y-47866666D02*
X185302438Y-47771428D01*
X185302438Y-47771428D02*
X185254819Y-47628571D01*
X185254819Y-47628571D02*
X185254819Y-47533333D01*
X185254819Y-47533333D02*
X185302438Y-47390476D01*
X185302438Y-47390476D02*
X185350057Y-47342857D01*
X186254819Y-46390476D02*
X186254819Y-46961904D01*
X186254819Y-46676190D02*
X185254819Y-46676190D01*
X185254819Y-46676190D02*
X185397676Y-46771428D01*
X185397676Y-46771428D02*
X185492914Y-46866666D01*
X185492914Y-46866666D02*
X185540533Y-46961904D01*
X185254819Y-46057142D02*
X185254819Y-45438095D01*
X185254819Y-45438095D02*
X185635771Y-45771428D01*
X185635771Y-45771428D02*
X185635771Y-45628571D01*
X185635771Y-45628571D02*
X185683390Y-45533333D01*
X185683390Y-45533333D02*
X185731009Y-45485714D01*
X185731009Y-45485714D02*
X185826247Y-45438095D01*
X185826247Y-45438095D02*
X186064342Y-45438095D01*
X186064342Y-45438095D02*
X186159580Y-45485714D01*
X186159580Y-45485714D02*
X186207200Y-45533333D01*
X186207200Y-45533333D02*
X186254819Y-45628571D01*
X186254819Y-45628571D02*
X186254819Y-45914285D01*
X186254819Y-45914285D02*
X186207200Y-46009523D01*
X186207200Y-46009523D02*
X186159580Y-46057142D01*
X141638095Y-37854819D02*
X141638095Y-38664342D01*
X141638095Y-38664342D02*
X141685714Y-38759580D01*
X141685714Y-38759580D02*
X141733333Y-38807200D01*
X141733333Y-38807200D02*
X141828571Y-38854819D01*
X141828571Y-38854819D02*
X142019047Y-38854819D01*
X142019047Y-38854819D02*
X142114285Y-38807200D01*
X142114285Y-38807200D02*
X142161904Y-38759580D01*
X142161904Y-38759580D02*
X142209523Y-38664342D01*
X142209523Y-38664342D02*
X142209523Y-37854819D01*
X143114285Y-37854819D02*
X142923809Y-37854819D01*
X142923809Y-37854819D02*
X142828571Y-37902438D01*
X142828571Y-37902438D02*
X142780952Y-37950057D01*
X142780952Y-37950057D02*
X142685714Y-38092914D01*
X142685714Y-38092914D02*
X142638095Y-38283390D01*
X142638095Y-38283390D02*
X142638095Y-38664342D01*
X142638095Y-38664342D02*
X142685714Y-38759580D01*
X142685714Y-38759580D02*
X142733333Y-38807200D01*
X142733333Y-38807200D02*
X142828571Y-38854819D01*
X142828571Y-38854819D02*
X143019047Y-38854819D01*
X143019047Y-38854819D02*
X143114285Y-38807200D01*
X143114285Y-38807200D02*
X143161904Y-38759580D01*
X143161904Y-38759580D02*
X143209523Y-38664342D01*
X143209523Y-38664342D02*
X143209523Y-38426247D01*
X143209523Y-38426247D02*
X143161904Y-38331009D01*
X143161904Y-38331009D02*
X143114285Y-38283390D01*
X143114285Y-38283390D02*
X143019047Y-38235771D01*
X143019047Y-38235771D02*
X142828571Y-38235771D01*
X142828571Y-38235771D02*
X142733333Y-38283390D01*
X142733333Y-38283390D02*
X142685714Y-38331009D01*
X142685714Y-38331009D02*
X142638095Y-38426247D01*
X144954819Y-68092857D02*
X144478628Y-68426190D01*
X144954819Y-68664285D02*
X143954819Y-68664285D01*
X143954819Y-68664285D02*
X143954819Y-68283333D01*
X143954819Y-68283333D02*
X144002438Y-68188095D01*
X144002438Y-68188095D02*
X144050057Y-68140476D01*
X144050057Y-68140476D02*
X144145295Y-68092857D01*
X144145295Y-68092857D02*
X144288152Y-68092857D01*
X144288152Y-68092857D02*
X144383390Y-68140476D01*
X144383390Y-68140476D02*
X144431009Y-68188095D01*
X144431009Y-68188095D02*
X144478628Y-68283333D01*
X144478628Y-68283333D02*
X144478628Y-68664285D01*
X144954819Y-67140476D02*
X144954819Y-67711904D01*
X144954819Y-67426190D02*
X143954819Y-67426190D01*
X143954819Y-67426190D02*
X144097676Y-67521428D01*
X144097676Y-67521428D02*
X144192914Y-67616666D01*
X144192914Y-67616666D02*
X144240533Y-67711904D01*
X143954819Y-66283333D02*
X143954819Y-66473809D01*
X143954819Y-66473809D02*
X144002438Y-66569047D01*
X144002438Y-66569047D02*
X144050057Y-66616666D01*
X144050057Y-66616666D02*
X144192914Y-66711904D01*
X144192914Y-66711904D02*
X144383390Y-66759523D01*
X144383390Y-66759523D02*
X144764342Y-66759523D01*
X144764342Y-66759523D02*
X144859580Y-66711904D01*
X144859580Y-66711904D02*
X144907200Y-66664285D01*
X144907200Y-66664285D02*
X144954819Y-66569047D01*
X144954819Y-66569047D02*
X144954819Y-66378571D01*
X144954819Y-66378571D02*
X144907200Y-66283333D01*
X144907200Y-66283333D02*
X144859580Y-66235714D01*
X144859580Y-66235714D02*
X144764342Y-66188095D01*
X144764342Y-66188095D02*
X144526247Y-66188095D01*
X144526247Y-66188095D02*
X144431009Y-66235714D01*
X144431009Y-66235714D02*
X144383390Y-66283333D01*
X144383390Y-66283333D02*
X144335771Y-66378571D01*
X144335771Y-66378571D02*
X144335771Y-66569047D01*
X144335771Y-66569047D02*
X144383390Y-66664285D01*
X144383390Y-66664285D02*
X144431009Y-66711904D01*
X144431009Y-66711904D02*
X144526247Y-66759523D01*
X141159580Y-67216666D02*
X141207200Y-67264285D01*
X141207200Y-67264285D02*
X141254819Y-67407142D01*
X141254819Y-67407142D02*
X141254819Y-67502380D01*
X141254819Y-67502380D02*
X141207200Y-67645237D01*
X141207200Y-67645237D02*
X141111961Y-67740475D01*
X141111961Y-67740475D02*
X141016723Y-67788094D01*
X141016723Y-67788094D02*
X140826247Y-67835713D01*
X140826247Y-67835713D02*
X140683390Y-67835713D01*
X140683390Y-67835713D02*
X140492914Y-67788094D01*
X140492914Y-67788094D02*
X140397676Y-67740475D01*
X140397676Y-67740475D02*
X140302438Y-67645237D01*
X140302438Y-67645237D02*
X140254819Y-67502380D01*
X140254819Y-67502380D02*
X140254819Y-67407142D01*
X140254819Y-67407142D02*
X140302438Y-67264285D01*
X140302438Y-67264285D02*
X140350057Y-67216666D01*
X140683390Y-66645237D02*
X140635771Y-66740475D01*
X140635771Y-66740475D02*
X140588152Y-66788094D01*
X140588152Y-66788094D02*
X140492914Y-66835713D01*
X140492914Y-66835713D02*
X140445295Y-66835713D01*
X140445295Y-66835713D02*
X140350057Y-66788094D01*
X140350057Y-66788094D02*
X140302438Y-66740475D01*
X140302438Y-66740475D02*
X140254819Y-66645237D01*
X140254819Y-66645237D02*
X140254819Y-66454761D01*
X140254819Y-66454761D02*
X140302438Y-66359523D01*
X140302438Y-66359523D02*
X140350057Y-66311904D01*
X140350057Y-66311904D02*
X140445295Y-66264285D01*
X140445295Y-66264285D02*
X140492914Y-66264285D01*
X140492914Y-66264285D02*
X140588152Y-66311904D01*
X140588152Y-66311904D02*
X140635771Y-66359523D01*
X140635771Y-66359523D02*
X140683390Y-66454761D01*
X140683390Y-66454761D02*
X140683390Y-66645237D01*
X140683390Y-66645237D02*
X140731009Y-66740475D01*
X140731009Y-66740475D02*
X140778628Y-66788094D01*
X140778628Y-66788094D02*
X140873866Y-66835713D01*
X140873866Y-66835713D02*
X141064342Y-66835713D01*
X141064342Y-66835713D02*
X141159580Y-66788094D01*
X141159580Y-66788094D02*
X141207200Y-66740475D01*
X141207200Y-66740475D02*
X141254819Y-66645237D01*
X141254819Y-66645237D02*
X141254819Y-66454761D01*
X141254819Y-66454761D02*
X141207200Y-66359523D01*
X141207200Y-66359523D02*
X141159580Y-66311904D01*
X141159580Y-66311904D02*
X141064342Y-66264285D01*
X141064342Y-66264285D02*
X140873866Y-66264285D01*
X140873866Y-66264285D02*
X140778628Y-66311904D01*
X140778628Y-66311904D02*
X140731009Y-66359523D01*
X140731009Y-66359523D02*
X140683390Y-66454761D01*
X151511905Y-61279819D02*
X151511905Y-60279819D01*
X151511905Y-60279819D02*
X151750000Y-60279819D01*
X151750000Y-60279819D02*
X151892857Y-60327438D01*
X151892857Y-60327438D02*
X151988095Y-60422676D01*
X151988095Y-60422676D02*
X152035714Y-60517914D01*
X152035714Y-60517914D02*
X152083333Y-60708390D01*
X152083333Y-60708390D02*
X152083333Y-60851247D01*
X152083333Y-60851247D02*
X152035714Y-61041723D01*
X152035714Y-61041723D02*
X151988095Y-61136961D01*
X151988095Y-61136961D02*
X151892857Y-61232200D01*
X151892857Y-61232200D02*
X151750000Y-61279819D01*
X151750000Y-61279819D02*
X151511905Y-61279819D01*
X152940476Y-60279819D02*
X152750000Y-60279819D01*
X152750000Y-60279819D02*
X152654762Y-60327438D01*
X152654762Y-60327438D02*
X152607143Y-60375057D01*
X152607143Y-60375057D02*
X152511905Y-60517914D01*
X152511905Y-60517914D02*
X152464286Y-60708390D01*
X152464286Y-60708390D02*
X152464286Y-61089342D01*
X152464286Y-61089342D02*
X152511905Y-61184580D01*
X152511905Y-61184580D02*
X152559524Y-61232200D01*
X152559524Y-61232200D02*
X152654762Y-61279819D01*
X152654762Y-61279819D02*
X152845238Y-61279819D01*
X152845238Y-61279819D02*
X152940476Y-61232200D01*
X152940476Y-61232200D02*
X152988095Y-61184580D01*
X152988095Y-61184580D02*
X153035714Y-61089342D01*
X153035714Y-61089342D02*
X153035714Y-60851247D01*
X153035714Y-60851247D02*
X152988095Y-60756009D01*
X152988095Y-60756009D02*
X152940476Y-60708390D01*
X152940476Y-60708390D02*
X152845238Y-60660771D01*
X152845238Y-60660771D02*
X152654762Y-60660771D01*
X152654762Y-60660771D02*
X152559524Y-60708390D01*
X152559524Y-60708390D02*
X152511905Y-60756009D01*
X152511905Y-60756009D02*
X152464286Y-60851247D01*
X155757142Y-36459580D02*
X155709523Y-36507200D01*
X155709523Y-36507200D02*
X155566666Y-36554819D01*
X155566666Y-36554819D02*
X155471428Y-36554819D01*
X155471428Y-36554819D02*
X155328571Y-36507200D01*
X155328571Y-36507200D02*
X155233333Y-36411961D01*
X155233333Y-36411961D02*
X155185714Y-36316723D01*
X155185714Y-36316723D02*
X155138095Y-36126247D01*
X155138095Y-36126247D02*
X155138095Y-35983390D01*
X155138095Y-35983390D02*
X155185714Y-35792914D01*
X155185714Y-35792914D02*
X155233333Y-35697676D01*
X155233333Y-35697676D02*
X155328571Y-35602438D01*
X155328571Y-35602438D02*
X155471428Y-35554819D01*
X155471428Y-35554819D02*
X155566666Y-35554819D01*
X155566666Y-35554819D02*
X155709523Y-35602438D01*
X155709523Y-35602438D02*
X155757142Y-35650057D01*
X156090476Y-35554819D02*
X156709523Y-35554819D01*
X156709523Y-35554819D02*
X156376190Y-35935771D01*
X156376190Y-35935771D02*
X156519047Y-35935771D01*
X156519047Y-35935771D02*
X156614285Y-35983390D01*
X156614285Y-35983390D02*
X156661904Y-36031009D01*
X156661904Y-36031009D02*
X156709523Y-36126247D01*
X156709523Y-36126247D02*
X156709523Y-36364342D01*
X156709523Y-36364342D02*
X156661904Y-36459580D01*
X156661904Y-36459580D02*
X156614285Y-36507200D01*
X156614285Y-36507200D02*
X156519047Y-36554819D01*
X156519047Y-36554819D02*
X156233333Y-36554819D01*
X156233333Y-36554819D02*
X156138095Y-36507200D01*
X156138095Y-36507200D02*
X156090476Y-36459580D01*
X157042857Y-35554819D02*
X157709523Y-35554819D01*
X157709523Y-35554819D02*
X157280952Y-36554819D01*
X174359580Y-50629166D02*
X174407200Y-50676785D01*
X174407200Y-50676785D02*
X174454819Y-50819642D01*
X174454819Y-50819642D02*
X174454819Y-50914880D01*
X174454819Y-50914880D02*
X174407200Y-51057737D01*
X174407200Y-51057737D02*
X174311961Y-51152975D01*
X174311961Y-51152975D02*
X174216723Y-51200594D01*
X174216723Y-51200594D02*
X174026247Y-51248213D01*
X174026247Y-51248213D02*
X173883390Y-51248213D01*
X173883390Y-51248213D02*
X173692914Y-51200594D01*
X173692914Y-51200594D02*
X173597676Y-51152975D01*
X173597676Y-51152975D02*
X173502438Y-51057737D01*
X173502438Y-51057737D02*
X173454819Y-50914880D01*
X173454819Y-50914880D02*
X173454819Y-50819642D01*
X173454819Y-50819642D02*
X173502438Y-50676785D01*
X173502438Y-50676785D02*
X173550057Y-50629166D01*
X173454819Y-49724404D02*
X173454819Y-50200594D01*
X173454819Y-50200594D02*
X173931009Y-50248213D01*
X173931009Y-50248213D02*
X173883390Y-50200594D01*
X173883390Y-50200594D02*
X173835771Y-50105356D01*
X173835771Y-50105356D02*
X173835771Y-49867261D01*
X173835771Y-49867261D02*
X173883390Y-49772023D01*
X173883390Y-49772023D02*
X173931009Y-49724404D01*
X173931009Y-49724404D02*
X174026247Y-49676785D01*
X174026247Y-49676785D02*
X174264342Y-49676785D01*
X174264342Y-49676785D02*
X174359580Y-49724404D01*
X174359580Y-49724404D02*
X174407200Y-49772023D01*
X174407200Y-49772023D02*
X174454819Y-49867261D01*
X174454819Y-49867261D02*
X174454819Y-50105356D01*
X174454819Y-50105356D02*
X174407200Y-50200594D01*
X174407200Y-50200594D02*
X174359580Y-50248213D01*
X196959580Y-49542857D02*
X197007200Y-49590476D01*
X197007200Y-49590476D02*
X197054819Y-49733333D01*
X197054819Y-49733333D02*
X197054819Y-49828571D01*
X197054819Y-49828571D02*
X197007200Y-49971428D01*
X197007200Y-49971428D02*
X196911961Y-50066666D01*
X196911961Y-50066666D02*
X196816723Y-50114285D01*
X196816723Y-50114285D02*
X196626247Y-50161904D01*
X196626247Y-50161904D02*
X196483390Y-50161904D01*
X196483390Y-50161904D02*
X196292914Y-50114285D01*
X196292914Y-50114285D02*
X196197676Y-50066666D01*
X196197676Y-50066666D02*
X196102438Y-49971428D01*
X196102438Y-49971428D02*
X196054819Y-49828571D01*
X196054819Y-49828571D02*
X196054819Y-49733333D01*
X196054819Y-49733333D02*
X196102438Y-49590476D01*
X196102438Y-49590476D02*
X196150057Y-49542857D01*
X196150057Y-49161904D02*
X196102438Y-49114285D01*
X196102438Y-49114285D02*
X196054819Y-49019047D01*
X196054819Y-49019047D02*
X196054819Y-48780952D01*
X196054819Y-48780952D02*
X196102438Y-48685714D01*
X196102438Y-48685714D02*
X196150057Y-48638095D01*
X196150057Y-48638095D02*
X196245295Y-48590476D01*
X196245295Y-48590476D02*
X196340533Y-48590476D01*
X196340533Y-48590476D02*
X196483390Y-48638095D01*
X196483390Y-48638095D02*
X197054819Y-49209523D01*
X197054819Y-49209523D02*
X197054819Y-48590476D01*
X197054819Y-47638095D02*
X197054819Y-48209523D01*
X197054819Y-47923809D02*
X196054819Y-47923809D01*
X196054819Y-47923809D02*
X196197676Y-48019047D01*
X196197676Y-48019047D02*
X196292914Y-48114285D01*
X196292914Y-48114285D02*
X196340533Y-48209523D01*
X211916666Y-72029819D02*
X211916666Y-72744104D01*
X211916666Y-72744104D02*
X211869047Y-72886961D01*
X211869047Y-72886961D02*
X211773809Y-72982200D01*
X211773809Y-72982200D02*
X211630952Y-73029819D01*
X211630952Y-73029819D02*
X211535714Y-73029819D01*
X212821428Y-72029819D02*
X212630952Y-72029819D01*
X212630952Y-72029819D02*
X212535714Y-72077438D01*
X212535714Y-72077438D02*
X212488095Y-72125057D01*
X212488095Y-72125057D02*
X212392857Y-72267914D01*
X212392857Y-72267914D02*
X212345238Y-72458390D01*
X212345238Y-72458390D02*
X212345238Y-72839342D01*
X212345238Y-72839342D02*
X212392857Y-72934580D01*
X212392857Y-72934580D02*
X212440476Y-72982200D01*
X212440476Y-72982200D02*
X212535714Y-73029819D01*
X212535714Y-73029819D02*
X212726190Y-73029819D01*
X212726190Y-73029819D02*
X212821428Y-72982200D01*
X212821428Y-72982200D02*
X212869047Y-72934580D01*
X212869047Y-72934580D02*
X212916666Y-72839342D01*
X212916666Y-72839342D02*
X212916666Y-72601247D01*
X212916666Y-72601247D02*
X212869047Y-72506009D01*
X212869047Y-72506009D02*
X212821428Y-72458390D01*
X212821428Y-72458390D02*
X212726190Y-72410771D01*
X212726190Y-72410771D02*
X212535714Y-72410771D01*
X212535714Y-72410771D02*
X212440476Y-72458390D01*
X212440476Y-72458390D02*
X212392857Y-72506009D01*
X212392857Y-72506009D02*
X212345238Y-72601247D01*
X147259580Y-34042857D02*
X147307200Y-34090476D01*
X147307200Y-34090476D02*
X147354819Y-34233333D01*
X147354819Y-34233333D02*
X147354819Y-34328571D01*
X147354819Y-34328571D02*
X147307200Y-34471428D01*
X147307200Y-34471428D02*
X147211961Y-34566666D01*
X147211961Y-34566666D02*
X147116723Y-34614285D01*
X147116723Y-34614285D02*
X146926247Y-34661904D01*
X146926247Y-34661904D02*
X146783390Y-34661904D01*
X146783390Y-34661904D02*
X146592914Y-34614285D01*
X146592914Y-34614285D02*
X146497676Y-34566666D01*
X146497676Y-34566666D02*
X146402438Y-34471428D01*
X146402438Y-34471428D02*
X146354819Y-34328571D01*
X146354819Y-34328571D02*
X146354819Y-34233333D01*
X146354819Y-34233333D02*
X146402438Y-34090476D01*
X146402438Y-34090476D02*
X146450057Y-34042857D01*
X146354819Y-33709523D02*
X146354819Y-33090476D01*
X146354819Y-33090476D02*
X146735771Y-33423809D01*
X146735771Y-33423809D02*
X146735771Y-33280952D01*
X146735771Y-33280952D02*
X146783390Y-33185714D01*
X146783390Y-33185714D02*
X146831009Y-33138095D01*
X146831009Y-33138095D02*
X146926247Y-33090476D01*
X146926247Y-33090476D02*
X147164342Y-33090476D01*
X147164342Y-33090476D02*
X147259580Y-33138095D01*
X147259580Y-33138095D02*
X147307200Y-33185714D01*
X147307200Y-33185714D02*
X147354819Y-33280952D01*
X147354819Y-33280952D02*
X147354819Y-33566666D01*
X147354819Y-33566666D02*
X147307200Y-33661904D01*
X147307200Y-33661904D02*
X147259580Y-33709523D01*
X146354819Y-32185714D02*
X146354819Y-32661904D01*
X146354819Y-32661904D02*
X146831009Y-32709523D01*
X146831009Y-32709523D02*
X146783390Y-32661904D01*
X146783390Y-32661904D02*
X146735771Y-32566666D01*
X146735771Y-32566666D02*
X146735771Y-32328571D01*
X146735771Y-32328571D02*
X146783390Y-32233333D01*
X146783390Y-32233333D02*
X146831009Y-32185714D01*
X146831009Y-32185714D02*
X146926247Y-32138095D01*
X146926247Y-32138095D02*
X147164342Y-32138095D01*
X147164342Y-32138095D02*
X147259580Y-32185714D01*
X147259580Y-32185714D02*
X147307200Y-32233333D01*
X147307200Y-32233333D02*
X147354819Y-32328571D01*
X147354819Y-32328571D02*
X147354819Y-32566666D01*
X147354819Y-32566666D02*
X147307200Y-32661904D01*
X147307200Y-32661904D02*
X147259580Y-32709523D01*
X196458333Y-33582319D02*
X196125000Y-33106128D01*
X195886905Y-33582319D02*
X195886905Y-32582319D01*
X195886905Y-32582319D02*
X196267857Y-32582319D01*
X196267857Y-32582319D02*
X196363095Y-32629938D01*
X196363095Y-32629938D02*
X196410714Y-32677557D01*
X196410714Y-32677557D02*
X196458333Y-32772795D01*
X196458333Y-32772795D02*
X196458333Y-32915652D01*
X196458333Y-32915652D02*
X196410714Y-33010890D01*
X196410714Y-33010890D02*
X196363095Y-33058509D01*
X196363095Y-33058509D02*
X196267857Y-33106128D01*
X196267857Y-33106128D02*
X195886905Y-33106128D01*
X197315476Y-32582319D02*
X197125000Y-32582319D01*
X197125000Y-32582319D02*
X197029762Y-32629938D01*
X197029762Y-32629938D02*
X196982143Y-32677557D01*
X196982143Y-32677557D02*
X196886905Y-32820414D01*
X196886905Y-32820414D02*
X196839286Y-33010890D01*
X196839286Y-33010890D02*
X196839286Y-33391842D01*
X196839286Y-33391842D02*
X196886905Y-33487080D01*
X196886905Y-33487080D02*
X196934524Y-33534700D01*
X196934524Y-33534700D02*
X197029762Y-33582319D01*
X197029762Y-33582319D02*
X197220238Y-33582319D01*
X197220238Y-33582319D02*
X197315476Y-33534700D01*
X197315476Y-33534700D02*
X197363095Y-33487080D01*
X197363095Y-33487080D02*
X197410714Y-33391842D01*
X197410714Y-33391842D02*
X197410714Y-33153747D01*
X197410714Y-33153747D02*
X197363095Y-33058509D01*
X197363095Y-33058509D02*
X197315476Y-33010890D01*
X197315476Y-33010890D02*
X197220238Y-32963271D01*
X197220238Y-32963271D02*
X197029762Y-32963271D01*
X197029762Y-32963271D02*
X196934524Y-33010890D01*
X196934524Y-33010890D02*
X196886905Y-33058509D01*
X196886905Y-33058509D02*
X196839286Y-33153747D01*
X169533333Y-42154819D02*
X169200000Y-41678628D01*
X168961905Y-42154819D02*
X168961905Y-41154819D01*
X168961905Y-41154819D02*
X169342857Y-41154819D01*
X169342857Y-41154819D02*
X169438095Y-41202438D01*
X169438095Y-41202438D02*
X169485714Y-41250057D01*
X169485714Y-41250057D02*
X169533333Y-41345295D01*
X169533333Y-41345295D02*
X169533333Y-41488152D01*
X169533333Y-41488152D02*
X169485714Y-41583390D01*
X169485714Y-41583390D02*
X169438095Y-41631009D01*
X169438095Y-41631009D02*
X169342857Y-41678628D01*
X169342857Y-41678628D02*
X168961905Y-41678628D01*
X170485714Y-42154819D02*
X169914286Y-42154819D01*
X170200000Y-42154819D02*
X170200000Y-41154819D01*
X170200000Y-41154819D02*
X170104762Y-41297676D01*
X170104762Y-41297676D02*
X170009524Y-41392914D01*
X170009524Y-41392914D02*
X169914286Y-41440533D01*
X147554819Y-40442857D02*
X147078628Y-40776190D01*
X147554819Y-41014285D02*
X146554819Y-41014285D01*
X146554819Y-41014285D02*
X146554819Y-40633333D01*
X146554819Y-40633333D02*
X146602438Y-40538095D01*
X146602438Y-40538095D02*
X146650057Y-40490476D01*
X146650057Y-40490476D02*
X146745295Y-40442857D01*
X146745295Y-40442857D02*
X146888152Y-40442857D01*
X146888152Y-40442857D02*
X146983390Y-40490476D01*
X146983390Y-40490476D02*
X147031009Y-40538095D01*
X147031009Y-40538095D02*
X147078628Y-40633333D01*
X147078628Y-40633333D02*
X147078628Y-41014285D01*
X146650057Y-40061904D02*
X146602438Y-40014285D01*
X146602438Y-40014285D02*
X146554819Y-39919047D01*
X146554819Y-39919047D02*
X146554819Y-39680952D01*
X146554819Y-39680952D02*
X146602438Y-39585714D01*
X146602438Y-39585714D02*
X146650057Y-39538095D01*
X146650057Y-39538095D02*
X146745295Y-39490476D01*
X146745295Y-39490476D02*
X146840533Y-39490476D01*
X146840533Y-39490476D02*
X146983390Y-39538095D01*
X146983390Y-39538095D02*
X147554819Y-40109523D01*
X147554819Y-40109523D02*
X147554819Y-39490476D01*
X146554819Y-38585714D02*
X146554819Y-39061904D01*
X146554819Y-39061904D02*
X147031009Y-39109523D01*
X147031009Y-39109523D02*
X146983390Y-39061904D01*
X146983390Y-39061904D02*
X146935771Y-38966666D01*
X146935771Y-38966666D02*
X146935771Y-38728571D01*
X146935771Y-38728571D02*
X146983390Y-38633333D01*
X146983390Y-38633333D02*
X147031009Y-38585714D01*
X147031009Y-38585714D02*
X147126247Y-38538095D01*
X147126247Y-38538095D02*
X147364342Y-38538095D01*
X147364342Y-38538095D02*
X147459580Y-38585714D01*
X147459580Y-38585714D02*
X147507200Y-38633333D01*
X147507200Y-38633333D02*
X147554819Y-38728571D01*
X147554819Y-38728571D02*
X147554819Y-38966666D01*
X147554819Y-38966666D02*
X147507200Y-39061904D01*
X147507200Y-39061904D02*
X147459580Y-39109523D01*
X210979819Y-66179166D02*
X210979819Y-66655356D01*
X210979819Y-66655356D02*
X209979819Y-66655356D01*
X209979819Y-65369642D02*
X209979819Y-65845832D01*
X209979819Y-65845832D02*
X210456009Y-65893451D01*
X210456009Y-65893451D02*
X210408390Y-65845832D01*
X210408390Y-65845832D02*
X210360771Y-65750594D01*
X210360771Y-65750594D02*
X210360771Y-65512499D01*
X210360771Y-65512499D02*
X210408390Y-65417261D01*
X210408390Y-65417261D02*
X210456009Y-65369642D01*
X210456009Y-65369642D02*
X210551247Y-65322023D01*
X210551247Y-65322023D02*
X210789342Y-65322023D01*
X210789342Y-65322023D02*
X210884580Y-65369642D01*
X210884580Y-65369642D02*
X210932200Y-65417261D01*
X210932200Y-65417261D02*
X210979819Y-65512499D01*
X210979819Y-65512499D02*
X210979819Y-65750594D01*
X210979819Y-65750594D02*
X210932200Y-65845832D01*
X210932200Y-65845832D02*
X210884580Y-65893451D01*
X169733333Y-70854819D02*
X169400000Y-70378628D01*
X169161905Y-70854819D02*
X169161905Y-69854819D01*
X169161905Y-69854819D02*
X169542857Y-69854819D01*
X169542857Y-69854819D02*
X169638095Y-69902438D01*
X169638095Y-69902438D02*
X169685714Y-69950057D01*
X169685714Y-69950057D02*
X169733333Y-70045295D01*
X169733333Y-70045295D02*
X169733333Y-70188152D01*
X169733333Y-70188152D02*
X169685714Y-70283390D01*
X169685714Y-70283390D02*
X169638095Y-70331009D01*
X169638095Y-70331009D02*
X169542857Y-70378628D01*
X169542857Y-70378628D02*
X169161905Y-70378628D01*
X170304762Y-70283390D02*
X170209524Y-70235771D01*
X170209524Y-70235771D02*
X170161905Y-70188152D01*
X170161905Y-70188152D02*
X170114286Y-70092914D01*
X170114286Y-70092914D02*
X170114286Y-70045295D01*
X170114286Y-70045295D02*
X170161905Y-69950057D01*
X170161905Y-69950057D02*
X170209524Y-69902438D01*
X170209524Y-69902438D02*
X170304762Y-69854819D01*
X170304762Y-69854819D02*
X170495238Y-69854819D01*
X170495238Y-69854819D02*
X170590476Y-69902438D01*
X170590476Y-69902438D02*
X170638095Y-69950057D01*
X170638095Y-69950057D02*
X170685714Y-70045295D01*
X170685714Y-70045295D02*
X170685714Y-70092914D01*
X170685714Y-70092914D02*
X170638095Y-70188152D01*
X170638095Y-70188152D02*
X170590476Y-70235771D01*
X170590476Y-70235771D02*
X170495238Y-70283390D01*
X170495238Y-70283390D02*
X170304762Y-70283390D01*
X170304762Y-70283390D02*
X170209524Y-70331009D01*
X170209524Y-70331009D02*
X170161905Y-70378628D01*
X170161905Y-70378628D02*
X170114286Y-70473866D01*
X170114286Y-70473866D02*
X170114286Y-70664342D01*
X170114286Y-70664342D02*
X170161905Y-70759580D01*
X170161905Y-70759580D02*
X170209524Y-70807200D01*
X170209524Y-70807200D02*
X170304762Y-70854819D01*
X170304762Y-70854819D02*
X170495238Y-70854819D01*
X170495238Y-70854819D02*
X170590476Y-70807200D01*
X170590476Y-70807200D02*
X170638095Y-70759580D01*
X170638095Y-70759580D02*
X170685714Y-70664342D01*
X170685714Y-70664342D02*
X170685714Y-70473866D01*
X170685714Y-70473866D02*
X170638095Y-70378628D01*
X170638095Y-70378628D02*
X170590476Y-70331009D01*
X170590476Y-70331009D02*
X170495238Y-70283390D01*
X156479819Y-43042857D02*
X156003628Y-43376190D01*
X156479819Y-43614285D02*
X155479819Y-43614285D01*
X155479819Y-43614285D02*
X155479819Y-43233333D01*
X155479819Y-43233333D02*
X155527438Y-43138095D01*
X155527438Y-43138095D02*
X155575057Y-43090476D01*
X155575057Y-43090476D02*
X155670295Y-43042857D01*
X155670295Y-43042857D02*
X155813152Y-43042857D01*
X155813152Y-43042857D02*
X155908390Y-43090476D01*
X155908390Y-43090476D02*
X155956009Y-43138095D01*
X155956009Y-43138095D02*
X156003628Y-43233333D01*
X156003628Y-43233333D02*
X156003628Y-43614285D01*
X155575057Y-42661904D02*
X155527438Y-42614285D01*
X155527438Y-42614285D02*
X155479819Y-42519047D01*
X155479819Y-42519047D02*
X155479819Y-42280952D01*
X155479819Y-42280952D02*
X155527438Y-42185714D01*
X155527438Y-42185714D02*
X155575057Y-42138095D01*
X155575057Y-42138095D02*
X155670295Y-42090476D01*
X155670295Y-42090476D02*
X155765533Y-42090476D01*
X155765533Y-42090476D02*
X155908390Y-42138095D01*
X155908390Y-42138095D02*
X156479819Y-42709523D01*
X156479819Y-42709523D02*
X156479819Y-42090476D01*
X155479819Y-41233333D02*
X155479819Y-41423809D01*
X155479819Y-41423809D02*
X155527438Y-41519047D01*
X155527438Y-41519047D02*
X155575057Y-41566666D01*
X155575057Y-41566666D02*
X155717914Y-41661904D01*
X155717914Y-41661904D02*
X155908390Y-41709523D01*
X155908390Y-41709523D02*
X156289342Y-41709523D01*
X156289342Y-41709523D02*
X156384580Y-41661904D01*
X156384580Y-41661904D02*
X156432200Y-41614285D01*
X156432200Y-41614285D02*
X156479819Y-41519047D01*
X156479819Y-41519047D02*
X156479819Y-41328571D01*
X156479819Y-41328571D02*
X156432200Y-41233333D01*
X156432200Y-41233333D02*
X156384580Y-41185714D01*
X156384580Y-41185714D02*
X156289342Y-41138095D01*
X156289342Y-41138095D02*
X156051247Y-41138095D01*
X156051247Y-41138095D02*
X155956009Y-41185714D01*
X155956009Y-41185714D02*
X155908390Y-41233333D01*
X155908390Y-41233333D02*
X155860771Y-41328571D01*
X155860771Y-41328571D02*
X155860771Y-41519047D01*
X155860771Y-41519047D02*
X155908390Y-41614285D01*
X155908390Y-41614285D02*
X155956009Y-41661904D01*
X155956009Y-41661904D02*
X156051247Y-41709523D01*
X157461905Y-20154819D02*
X157461905Y-19154819D01*
X157461905Y-19154819D02*
X157700000Y-19154819D01*
X157700000Y-19154819D02*
X157842857Y-19202438D01*
X157842857Y-19202438D02*
X157938095Y-19297676D01*
X157938095Y-19297676D02*
X157985714Y-19392914D01*
X157985714Y-19392914D02*
X158033333Y-19583390D01*
X158033333Y-19583390D02*
X158033333Y-19726247D01*
X158033333Y-19726247D02*
X157985714Y-19916723D01*
X157985714Y-19916723D02*
X157938095Y-20011961D01*
X157938095Y-20011961D02*
X157842857Y-20107200D01*
X157842857Y-20107200D02*
X157700000Y-20154819D01*
X157700000Y-20154819D02*
X157461905Y-20154819D01*
X158985714Y-20154819D02*
X158414286Y-20154819D01*
X158700000Y-20154819D02*
X158700000Y-19154819D01*
X158700000Y-19154819D02*
X158604762Y-19297676D01*
X158604762Y-19297676D02*
X158509524Y-19392914D01*
X158509524Y-19392914D02*
X158414286Y-19440533D01*
X172033333Y-70854819D02*
X171700000Y-70378628D01*
X171461905Y-70854819D02*
X171461905Y-69854819D01*
X171461905Y-69854819D02*
X171842857Y-69854819D01*
X171842857Y-69854819D02*
X171938095Y-69902438D01*
X171938095Y-69902438D02*
X171985714Y-69950057D01*
X171985714Y-69950057D02*
X172033333Y-70045295D01*
X172033333Y-70045295D02*
X172033333Y-70188152D01*
X172033333Y-70188152D02*
X171985714Y-70283390D01*
X171985714Y-70283390D02*
X171938095Y-70331009D01*
X171938095Y-70331009D02*
X171842857Y-70378628D01*
X171842857Y-70378628D02*
X171461905Y-70378628D01*
X172509524Y-70854819D02*
X172700000Y-70854819D01*
X172700000Y-70854819D02*
X172795238Y-70807200D01*
X172795238Y-70807200D02*
X172842857Y-70759580D01*
X172842857Y-70759580D02*
X172938095Y-70616723D01*
X172938095Y-70616723D02*
X172985714Y-70426247D01*
X172985714Y-70426247D02*
X172985714Y-70045295D01*
X172985714Y-70045295D02*
X172938095Y-69950057D01*
X172938095Y-69950057D02*
X172890476Y-69902438D01*
X172890476Y-69902438D02*
X172795238Y-69854819D01*
X172795238Y-69854819D02*
X172604762Y-69854819D01*
X172604762Y-69854819D02*
X172509524Y-69902438D01*
X172509524Y-69902438D02*
X172461905Y-69950057D01*
X172461905Y-69950057D02*
X172414286Y-70045295D01*
X172414286Y-70045295D02*
X172414286Y-70283390D01*
X172414286Y-70283390D02*
X172461905Y-70378628D01*
X172461905Y-70378628D02*
X172509524Y-70426247D01*
X172509524Y-70426247D02*
X172604762Y-70473866D01*
X172604762Y-70473866D02*
X172795238Y-70473866D01*
X172795238Y-70473866D02*
X172890476Y-70426247D01*
X172890476Y-70426247D02*
X172938095Y-70378628D01*
X172938095Y-70378628D02*
X172985714Y-70283390D01*
X201382142Y-60459580D02*
X201334523Y-60507200D01*
X201334523Y-60507200D02*
X201191666Y-60554819D01*
X201191666Y-60554819D02*
X201096428Y-60554819D01*
X201096428Y-60554819D02*
X200953571Y-60507200D01*
X200953571Y-60507200D02*
X200858333Y-60411961D01*
X200858333Y-60411961D02*
X200810714Y-60316723D01*
X200810714Y-60316723D02*
X200763095Y-60126247D01*
X200763095Y-60126247D02*
X200763095Y-59983390D01*
X200763095Y-59983390D02*
X200810714Y-59792914D01*
X200810714Y-59792914D02*
X200858333Y-59697676D01*
X200858333Y-59697676D02*
X200953571Y-59602438D01*
X200953571Y-59602438D02*
X201096428Y-59554819D01*
X201096428Y-59554819D02*
X201191666Y-59554819D01*
X201191666Y-59554819D02*
X201334523Y-59602438D01*
X201334523Y-59602438D02*
X201382142Y-59650057D01*
X201763095Y-59650057D02*
X201810714Y-59602438D01*
X201810714Y-59602438D02*
X201905952Y-59554819D01*
X201905952Y-59554819D02*
X202144047Y-59554819D01*
X202144047Y-59554819D02*
X202239285Y-59602438D01*
X202239285Y-59602438D02*
X202286904Y-59650057D01*
X202286904Y-59650057D02*
X202334523Y-59745295D01*
X202334523Y-59745295D02*
X202334523Y-59840533D01*
X202334523Y-59840533D02*
X202286904Y-59983390D01*
X202286904Y-59983390D02*
X201715476Y-60554819D01*
X201715476Y-60554819D02*
X202334523Y-60554819D01*
X202810714Y-60554819D02*
X203001190Y-60554819D01*
X203001190Y-60554819D02*
X203096428Y-60507200D01*
X203096428Y-60507200D02*
X203144047Y-60459580D01*
X203144047Y-60459580D02*
X203239285Y-60316723D01*
X203239285Y-60316723D02*
X203286904Y-60126247D01*
X203286904Y-60126247D02*
X203286904Y-59745295D01*
X203286904Y-59745295D02*
X203239285Y-59650057D01*
X203239285Y-59650057D02*
X203191666Y-59602438D01*
X203191666Y-59602438D02*
X203096428Y-59554819D01*
X203096428Y-59554819D02*
X202905952Y-59554819D01*
X202905952Y-59554819D02*
X202810714Y-59602438D01*
X202810714Y-59602438D02*
X202763095Y-59650057D01*
X202763095Y-59650057D02*
X202715476Y-59745295D01*
X202715476Y-59745295D02*
X202715476Y-59983390D01*
X202715476Y-59983390D02*
X202763095Y-60078628D01*
X202763095Y-60078628D02*
X202810714Y-60126247D01*
X202810714Y-60126247D02*
X202905952Y-60173866D01*
X202905952Y-60173866D02*
X203096428Y-60173866D01*
X203096428Y-60173866D02*
X203191666Y-60126247D01*
X203191666Y-60126247D02*
X203239285Y-60078628D01*
X203239285Y-60078628D02*
X203286904Y-59983390D01*
X202959580Y-50292857D02*
X203007200Y-50340476D01*
X203007200Y-50340476D02*
X203054819Y-50483333D01*
X203054819Y-50483333D02*
X203054819Y-50578571D01*
X203054819Y-50578571D02*
X203007200Y-50721428D01*
X203007200Y-50721428D02*
X202911961Y-50816666D01*
X202911961Y-50816666D02*
X202816723Y-50864285D01*
X202816723Y-50864285D02*
X202626247Y-50911904D01*
X202626247Y-50911904D02*
X202483390Y-50911904D01*
X202483390Y-50911904D02*
X202292914Y-50864285D01*
X202292914Y-50864285D02*
X202197676Y-50816666D01*
X202197676Y-50816666D02*
X202102438Y-50721428D01*
X202102438Y-50721428D02*
X202054819Y-50578571D01*
X202054819Y-50578571D02*
X202054819Y-50483333D01*
X202054819Y-50483333D02*
X202102438Y-50340476D01*
X202102438Y-50340476D02*
X202150057Y-50292857D01*
X202150057Y-49911904D02*
X202102438Y-49864285D01*
X202102438Y-49864285D02*
X202054819Y-49769047D01*
X202054819Y-49769047D02*
X202054819Y-49530952D01*
X202054819Y-49530952D02*
X202102438Y-49435714D01*
X202102438Y-49435714D02*
X202150057Y-49388095D01*
X202150057Y-49388095D02*
X202245295Y-49340476D01*
X202245295Y-49340476D02*
X202340533Y-49340476D01*
X202340533Y-49340476D02*
X202483390Y-49388095D01*
X202483390Y-49388095D02*
X203054819Y-49959523D01*
X203054819Y-49959523D02*
X203054819Y-49340476D01*
X202150057Y-48959523D02*
X202102438Y-48911904D01*
X202102438Y-48911904D02*
X202054819Y-48816666D01*
X202054819Y-48816666D02*
X202054819Y-48578571D01*
X202054819Y-48578571D02*
X202102438Y-48483333D01*
X202102438Y-48483333D02*
X202150057Y-48435714D01*
X202150057Y-48435714D02*
X202245295Y-48388095D01*
X202245295Y-48388095D02*
X202340533Y-48388095D01*
X202340533Y-48388095D02*
X202483390Y-48435714D01*
X202483390Y-48435714D02*
X203054819Y-49007142D01*
X203054819Y-49007142D02*
X203054819Y-48388095D01*
X136061905Y-37354819D02*
X136061905Y-36354819D01*
X136061905Y-36354819D02*
X136300000Y-36354819D01*
X136300000Y-36354819D02*
X136442857Y-36402438D01*
X136442857Y-36402438D02*
X136538095Y-36497676D01*
X136538095Y-36497676D02*
X136585714Y-36592914D01*
X136585714Y-36592914D02*
X136633333Y-36783390D01*
X136633333Y-36783390D02*
X136633333Y-36926247D01*
X136633333Y-36926247D02*
X136585714Y-37116723D01*
X136585714Y-37116723D02*
X136538095Y-37211961D01*
X136538095Y-37211961D02*
X136442857Y-37307200D01*
X136442857Y-37307200D02*
X136300000Y-37354819D01*
X136300000Y-37354819D02*
X136061905Y-37354819D01*
X137109524Y-37354819D02*
X137300000Y-37354819D01*
X137300000Y-37354819D02*
X137395238Y-37307200D01*
X137395238Y-37307200D02*
X137442857Y-37259580D01*
X137442857Y-37259580D02*
X137538095Y-37116723D01*
X137538095Y-37116723D02*
X137585714Y-36926247D01*
X137585714Y-36926247D02*
X137585714Y-36545295D01*
X137585714Y-36545295D02*
X137538095Y-36450057D01*
X137538095Y-36450057D02*
X137490476Y-36402438D01*
X137490476Y-36402438D02*
X137395238Y-36354819D01*
X137395238Y-36354819D02*
X137204762Y-36354819D01*
X137204762Y-36354819D02*
X137109524Y-36402438D01*
X137109524Y-36402438D02*
X137061905Y-36450057D01*
X137061905Y-36450057D02*
X137014286Y-36545295D01*
X137014286Y-36545295D02*
X137014286Y-36783390D01*
X137014286Y-36783390D02*
X137061905Y-36878628D01*
X137061905Y-36878628D02*
X137109524Y-36926247D01*
X137109524Y-36926247D02*
X137204762Y-36973866D01*
X137204762Y-36973866D02*
X137395238Y-36973866D01*
X137395238Y-36973866D02*
X137490476Y-36926247D01*
X137490476Y-36926247D02*
X137538095Y-36878628D01*
X137538095Y-36878628D02*
X137585714Y-36783390D01*
X146161905Y-19854819D02*
X146161905Y-18854819D01*
X146161905Y-18854819D02*
X146400000Y-18854819D01*
X146400000Y-18854819D02*
X146542857Y-18902438D01*
X146542857Y-18902438D02*
X146638095Y-18997676D01*
X146638095Y-18997676D02*
X146685714Y-19092914D01*
X146685714Y-19092914D02*
X146733333Y-19283390D01*
X146733333Y-19283390D02*
X146733333Y-19426247D01*
X146733333Y-19426247D02*
X146685714Y-19616723D01*
X146685714Y-19616723D02*
X146638095Y-19711961D01*
X146638095Y-19711961D02*
X146542857Y-19807200D01*
X146542857Y-19807200D02*
X146400000Y-19854819D01*
X146400000Y-19854819D02*
X146161905Y-19854819D01*
X147304762Y-19283390D02*
X147209524Y-19235771D01*
X147209524Y-19235771D02*
X147161905Y-19188152D01*
X147161905Y-19188152D02*
X147114286Y-19092914D01*
X147114286Y-19092914D02*
X147114286Y-19045295D01*
X147114286Y-19045295D02*
X147161905Y-18950057D01*
X147161905Y-18950057D02*
X147209524Y-18902438D01*
X147209524Y-18902438D02*
X147304762Y-18854819D01*
X147304762Y-18854819D02*
X147495238Y-18854819D01*
X147495238Y-18854819D02*
X147590476Y-18902438D01*
X147590476Y-18902438D02*
X147638095Y-18950057D01*
X147638095Y-18950057D02*
X147685714Y-19045295D01*
X147685714Y-19045295D02*
X147685714Y-19092914D01*
X147685714Y-19092914D02*
X147638095Y-19188152D01*
X147638095Y-19188152D02*
X147590476Y-19235771D01*
X147590476Y-19235771D02*
X147495238Y-19283390D01*
X147495238Y-19283390D02*
X147304762Y-19283390D01*
X147304762Y-19283390D02*
X147209524Y-19331009D01*
X147209524Y-19331009D02*
X147161905Y-19378628D01*
X147161905Y-19378628D02*
X147114286Y-19473866D01*
X147114286Y-19473866D02*
X147114286Y-19664342D01*
X147114286Y-19664342D02*
X147161905Y-19759580D01*
X147161905Y-19759580D02*
X147209524Y-19807200D01*
X147209524Y-19807200D02*
X147304762Y-19854819D01*
X147304762Y-19854819D02*
X147495238Y-19854819D01*
X147495238Y-19854819D02*
X147590476Y-19807200D01*
X147590476Y-19807200D02*
X147638095Y-19759580D01*
X147638095Y-19759580D02*
X147685714Y-19664342D01*
X147685714Y-19664342D02*
X147685714Y-19473866D01*
X147685714Y-19473866D02*
X147638095Y-19378628D01*
X147638095Y-19378628D02*
X147590476Y-19331009D01*
X147590476Y-19331009D02*
X147495238Y-19283390D01*
X141782142Y-31659580D02*
X141734523Y-31707200D01*
X141734523Y-31707200D02*
X141591666Y-31754819D01*
X141591666Y-31754819D02*
X141496428Y-31754819D01*
X141496428Y-31754819D02*
X141353571Y-31707200D01*
X141353571Y-31707200D02*
X141258333Y-31611961D01*
X141258333Y-31611961D02*
X141210714Y-31516723D01*
X141210714Y-31516723D02*
X141163095Y-31326247D01*
X141163095Y-31326247D02*
X141163095Y-31183390D01*
X141163095Y-31183390D02*
X141210714Y-30992914D01*
X141210714Y-30992914D02*
X141258333Y-30897676D01*
X141258333Y-30897676D02*
X141353571Y-30802438D01*
X141353571Y-30802438D02*
X141496428Y-30754819D01*
X141496428Y-30754819D02*
X141591666Y-30754819D01*
X141591666Y-30754819D02*
X141734523Y-30802438D01*
X141734523Y-30802438D02*
X141782142Y-30850057D01*
X142115476Y-30754819D02*
X142734523Y-30754819D01*
X142734523Y-30754819D02*
X142401190Y-31135771D01*
X142401190Y-31135771D02*
X142544047Y-31135771D01*
X142544047Y-31135771D02*
X142639285Y-31183390D01*
X142639285Y-31183390D02*
X142686904Y-31231009D01*
X142686904Y-31231009D02*
X142734523Y-31326247D01*
X142734523Y-31326247D02*
X142734523Y-31564342D01*
X142734523Y-31564342D02*
X142686904Y-31659580D01*
X142686904Y-31659580D02*
X142639285Y-31707200D01*
X142639285Y-31707200D02*
X142544047Y-31754819D01*
X142544047Y-31754819D02*
X142258333Y-31754819D01*
X142258333Y-31754819D02*
X142163095Y-31707200D01*
X142163095Y-31707200D02*
X142115476Y-31659580D01*
X143591666Y-30754819D02*
X143401190Y-30754819D01*
X143401190Y-30754819D02*
X143305952Y-30802438D01*
X143305952Y-30802438D02*
X143258333Y-30850057D01*
X143258333Y-30850057D02*
X143163095Y-30992914D01*
X143163095Y-30992914D02*
X143115476Y-31183390D01*
X143115476Y-31183390D02*
X143115476Y-31564342D01*
X143115476Y-31564342D02*
X143163095Y-31659580D01*
X143163095Y-31659580D02*
X143210714Y-31707200D01*
X143210714Y-31707200D02*
X143305952Y-31754819D01*
X143305952Y-31754819D02*
X143496428Y-31754819D01*
X143496428Y-31754819D02*
X143591666Y-31707200D01*
X143591666Y-31707200D02*
X143639285Y-31659580D01*
X143639285Y-31659580D02*
X143686904Y-31564342D01*
X143686904Y-31564342D02*
X143686904Y-31326247D01*
X143686904Y-31326247D02*
X143639285Y-31231009D01*
X143639285Y-31231009D02*
X143591666Y-31183390D01*
X143591666Y-31183390D02*
X143496428Y-31135771D01*
X143496428Y-31135771D02*
X143305952Y-31135771D01*
X143305952Y-31135771D02*
X143210714Y-31183390D01*
X143210714Y-31183390D02*
X143163095Y-31231009D01*
X143163095Y-31231009D02*
X143115476Y-31326247D01*
X176583333Y-56459580D02*
X176535714Y-56507200D01*
X176535714Y-56507200D02*
X176392857Y-56554819D01*
X176392857Y-56554819D02*
X176297619Y-56554819D01*
X176297619Y-56554819D02*
X176154762Y-56507200D01*
X176154762Y-56507200D02*
X176059524Y-56411961D01*
X176059524Y-56411961D02*
X176011905Y-56316723D01*
X176011905Y-56316723D02*
X175964286Y-56126247D01*
X175964286Y-56126247D02*
X175964286Y-55983390D01*
X175964286Y-55983390D02*
X176011905Y-55792914D01*
X176011905Y-55792914D02*
X176059524Y-55697676D01*
X176059524Y-55697676D02*
X176154762Y-55602438D01*
X176154762Y-55602438D02*
X176297619Y-55554819D01*
X176297619Y-55554819D02*
X176392857Y-55554819D01*
X176392857Y-55554819D02*
X176535714Y-55602438D01*
X176535714Y-55602438D02*
X176583333Y-55650057D01*
X176916667Y-55554819D02*
X177583333Y-55554819D01*
X177583333Y-55554819D02*
X177154762Y-56554819D01*
D12*
%TO.C,J7*%
X131780000Y-59715000D02*
X131310000Y-59375000D01*
X131780000Y-59035000D01*
X131780000Y-59715000D01*
G36*
X131780000Y-59715000D02*
G01*
X131310000Y-59375000D01*
X131780000Y-59035000D01*
X131780000Y-59715000D01*
G37*
X130970000Y-61945000D02*
X128900000Y-61945000D01*
X130970000Y-61075000D02*
X130970000Y-61945000D01*
X130970000Y-54205000D02*
X130970000Y-55075000D01*
X130970000Y-54205000D02*
X128900000Y-54205000D01*
%TO.C,FB3*%
X190875279Y-42090000D02*
X190549721Y-42090000D01*
X190875279Y-43110000D02*
X190549721Y-43110000D01*
%TO.C,J1*%
X164600000Y-17780000D02*
X185160000Y-17780000D01*
X164600000Y-20800000D02*
X185160000Y-20800000D01*
X164600000Y-25700000D02*
X185160000Y-25700000D01*
X164600000Y-27200000D02*
X185160000Y-27200000D01*
X164600000Y-27820000D02*
X164600000Y-17780000D01*
X166960000Y-27820000D02*
X164600000Y-27820000D01*
X185160000Y-17780000D02*
X185160000Y-27820000D01*
X185160000Y-27820000D02*
X167560000Y-27820000D01*
X167700000Y-28430000D02*
X166820000Y-28430000D01*
X167260000Y-27820000D01*
X167700000Y-28430000D01*
G36*
X167700000Y-28430000D02*
G01*
X166820000Y-28430000D01*
X167260000Y-27820000D01*
X167700000Y-28430000D01*
G37*
%TO.C,R23*%
X144777500Y-36462742D02*
X144777500Y-36937258D01*
X145822500Y-36462742D02*
X145822500Y-36937258D01*
%TO.C,L8*%
X162340000Y-39000378D02*
X162340000Y-39799622D01*
X163460000Y-39000378D02*
X163460000Y-39799622D01*
%TO.C,C32*%
X135090000Y-46640580D02*
X135090000Y-46359420D01*
X136110000Y-46640580D02*
X136110000Y-46359420D01*
%TO.C,R5*%
X167177500Y-39512258D02*
X167177500Y-39037742D01*
X168222500Y-39512258D02*
X168222500Y-39037742D01*
%TO.C,R20*%
X134577500Y-23762742D02*
X134577500Y-24237258D01*
X135622500Y-23762742D02*
X135622500Y-24237258D01*
%TO.C,C34*%
X149190000Y-21859420D02*
X149190000Y-22140580D01*
X150210000Y-21859420D02*
X150210000Y-22140580D01*
%TO.C,R15*%
X154327500Y-67262258D02*
X154327500Y-66787742D01*
X155372500Y-67262258D02*
X155372500Y-66787742D01*
%TO.C,R24*%
X138277500Y-34537258D02*
X138277500Y-34062742D01*
X139322500Y-34537258D02*
X139322500Y-34062742D01*
%TO.C,C6*%
X179665580Y-53690000D02*
X179384420Y-53690000D01*
X179665580Y-54710000D02*
X179384420Y-54710000D01*
%TO.C,L7*%
X140500378Y-26440000D02*
X141299622Y-26440000D01*
X140500378Y-27560000D02*
X141299622Y-27560000D01*
%TO.C,J3*%
X160880000Y-76180000D02*
X173400000Y-76180000D01*
X160880000Y-86220000D02*
X160880000Y-76180000D01*
X174000000Y-76180000D02*
X176360000Y-76180000D01*
X176360000Y-76180000D02*
X176360000Y-86220000D01*
X176360000Y-76800000D02*
X160880000Y-76800000D01*
X176360000Y-78300000D02*
X160880000Y-78300000D01*
X176360000Y-83200000D02*
X160880000Y-83200000D01*
X176360000Y-86220000D02*
X160880000Y-86220000D01*
X173700000Y-76180000D02*
X173260000Y-75570000D01*
X174140000Y-75570000D01*
X173700000Y-76180000D01*
G36*
X173700000Y-76180000D02*
G01*
X173260000Y-75570000D01*
X174140000Y-75570000D01*
X173700000Y-76180000D01*
G37*
%TO.C,L1*%
X179640000Y-59062122D02*
X179640000Y-58262878D01*
X180760000Y-59062122D02*
X180760000Y-58262878D01*
%TO.C,BT1*%
X126650000Y-39300000D02*
X126650000Y-37300000D01*
X127040000Y-29680000D02*
X127040000Y-38910000D01*
X127040000Y-38910000D02*
X134510000Y-38910000D01*
X127900000Y-39300000D02*
X126650000Y-39300000D01*
X128000000Y-30890000D02*
X129000000Y-31140000D01*
X128000000Y-33890000D02*
X128000000Y-30890000D01*
X128000000Y-34700000D02*
X129000000Y-34950000D01*
X128000000Y-37700000D02*
X128000000Y-34700000D01*
X129000000Y-31140000D02*
X129000000Y-31640000D01*
X129000000Y-31640000D02*
X129350000Y-31640000D01*
X129000000Y-33140000D02*
X129000000Y-33640000D01*
X129000000Y-33640000D02*
X128000000Y-33890000D01*
X129000000Y-34950000D02*
X129000000Y-35450000D01*
X129000000Y-35450000D02*
X129350000Y-35450000D01*
X129000000Y-36950000D02*
X129000000Y-37450000D01*
X129000000Y-37450000D02*
X128000000Y-37700000D01*
X129350000Y-30890000D02*
X133650000Y-30890000D01*
X129350000Y-31640000D02*
X129350000Y-30890000D01*
X129350000Y-33140000D02*
X129000000Y-33140000D01*
X129350000Y-33890000D02*
X129350000Y-33140000D01*
X129350000Y-34700000D02*
X133650000Y-34700000D01*
X129350000Y-35450000D02*
X129350000Y-34700000D01*
X129350000Y-36950000D02*
X129000000Y-36950000D01*
X129350000Y-37700000D02*
X129350000Y-36950000D01*
X133650000Y-30890000D02*
X133650000Y-31640000D01*
X133650000Y-33140000D02*
X133650000Y-33890000D01*
X133650000Y-33890000D02*
X129350000Y-33890000D01*
X133650000Y-34700000D02*
X133650000Y-35450000D01*
X133650000Y-36950000D02*
X133650000Y-37700000D01*
X133650000Y-37700000D02*
X129350000Y-37700000D01*
X134510000Y-29680000D02*
X127040000Y-29680000D01*
X134510000Y-38910000D02*
X134510000Y-29680000D01*
X133650000Y-33140000D02*
G75*
G02*
X133649844Y-31640353I1700000J750000D01*
G01*
X133650000Y-36950000D02*
G75*
G02*
X133649844Y-35450353I1700000J750000D01*
G01*
%TO.C,R27*%
X154077500Y-39162742D02*
X154077500Y-39637258D01*
X155122500Y-39162742D02*
X155122500Y-39637258D01*
%TO.C,D7*%
X154115000Y-61740000D02*
X154115000Y-64025000D01*
X155585000Y-61740000D02*
X154115000Y-61740000D01*
X155585000Y-64025000D02*
X155585000Y-61740000D01*
%TO.C,C4*%
X192090000Y-73159420D02*
X192090000Y-73440580D01*
X193110000Y-73159420D02*
X193110000Y-73440580D01*
%TO.C,C14*%
X166129420Y-61690000D02*
X166410580Y-61690000D01*
X166129420Y-62710000D02*
X166410580Y-62710000D01*
%TO.C,R22*%
X136277500Y-29962742D02*
X136277500Y-30437258D01*
X137322500Y-29962742D02*
X137322500Y-30437258D01*
%TO.C,J2*%
X191680000Y-17780000D02*
X207160000Y-17780000D01*
X191680000Y-20800000D02*
X207160000Y-20800000D01*
X191680000Y-25700000D02*
X207160000Y-25700000D01*
X191680000Y-27200000D02*
X207160000Y-27200000D01*
X191680000Y-27820000D02*
X191680000Y-17780000D01*
X194040000Y-27820000D02*
X191680000Y-27820000D01*
X207160000Y-17780000D02*
X207160000Y-27820000D01*
X207160000Y-27820000D02*
X194640000Y-27820000D01*
X194780000Y-28430000D02*
X193900000Y-28430000D01*
X194340000Y-27820000D01*
X194780000Y-28430000D01*
G36*
X194780000Y-28430000D02*
G01*
X193900000Y-28430000D01*
X194340000Y-27820000D01*
X194780000Y-28430000D01*
G37*
%TO.C,C10*%
X142090000Y-60509420D02*
X142090000Y-60790580D01*
X143110000Y-60509420D02*
X143110000Y-60790580D01*
%TO.C,L3*%
X199890000Y-53225279D02*
X199890000Y-52899721D01*
X200910000Y-53225279D02*
X200910000Y-52899721D01*
%TO.C,FB2*%
X175290000Y-53049721D02*
X175290000Y-53375279D01*
X176310000Y-53049721D02*
X176310000Y-53375279D01*
%TO.C,R19*%
X143577500Y-22037258D02*
X143577500Y-21562742D01*
X144622500Y-22037258D02*
X144622500Y-21562742D01*
%TO.C,R13*%
X146277500Y-64512258D02*
X146277500Y-64037742D01*
X147322500Y-64512258D02*
X147322500Y-64037742D01*
%TO.C,U4*%
X209415000Y-57985000D02*
X209415000Y-56615000D01*
X209415000Y-57985000D02*
X210585000Y-57985000D01*
X209615000Y-56415000D02*
X210585000Y-56415000D01*
X210585000Y-57985000D02*
X210585000Y-56415000D01*
D13*
X209400000Y-56400000D02*
X209040000Y-56400000D01*
X209400000Y-56040000D01*
X209400000Y-56400000D01*
G36*
X209400000Y-56400000D02*
G01*
X209040000Y-56400000D01*
X209400000Y-56040000D01*
X209400000Y-56400000D01*
G37*
D12*
%TO.C,U2*%
X144360000Y-55590000D02*
X145085000Y-55590000D01*
X144360000Y-56315000D02*
X144360000Y-55590000D01*
X144360000Y-60810000D02*
X144360000Y-60085000D01*
X145085000Y-60810000D02*
X144360000Y-60810000D01*
X148855000Y-55590000D02*
X149580000Y-55590000D01*
X149580000Y-55590000D02*
X149580000Y-56315000D01*
X149580000Y-60085000D02*
X149580000Y-60810000D01*
X149580000Y-60810000D02*
X148855000Y-60810000D01*
X143860000Y-56700000D02*
X143530000Y-56940000D01*
X143530000Y-56460000D01*
X143860000Y-56700000D01*
G36*
X143860000Y-56700000D02*
G01*
X143530000Y-56940000D01*
X143530000Y-56460000D01*
X143860000Y-56700000D01*
G37*
%TO.C,R7*%
X193702500Y-30265242D02*
X193702500Y-30739758D01*
X194747500Y-30265242D02*
X194747500Y-30739758D01*
%TO.C,D2*%
X182090000Y-30375000D02*
X183090000Y-30375000D01*
X182090000Y-31895000D02*
X182090000Y-30375000D01*
X182140000Y-31895000D02*
X182090000Y-31895000D01*
X184040000Y-31895000D02*
X183260000Y-31895000D01*
X184210000Y-30375000D02*
X185210000Y-30375000D01*
X185210000Y-30375000D02*
X185210000Y-31895000D01*
X185210000Y-31895000D02*
X185160000Y-31895000D01*
X183600000Y-32675000D02*
X183270000Y-32435000D01*
X183600000Y-32195000D01*
X183600000Y-32675000D01*
G36*
X183600000Y-32675000D02*
G01*
X183270000Y-32435000D01*
X183600000Y-32195000D01*
X183600000Y-32675000D01*
G37*
%TO.C,D4*%
X161090000Y-71650000D02*
X161090000Y-74950000D01*
X161090000Y-71650000D02*
X166600000Y-71650000D01*
X161090000Y-74950000D02*
X166600000Y-74950000D01*
%TO.C,U7*%
X158340000Y-38015000D02*
X161060000Y-38015000D01*
X161060000Y-40785000D02*
X158340000Y-40785000D01*
X157810000Y-38400000D02*
X157480000Y-38640000D01*
X157480000Y-38160000D01*
X157810000Y-38400000D01*
G36*
X157810000Y-38400000D02*
G01*
X157480000Y-38640000D01*
X157480000Y-38160000D01*
X157810000Y-38400000D01*
G37*
%TO.C,SW1*%
X146800000Y-81400000D02*
X146800000Y-78800000D01*
X146900000Y-76850000D02*
X152900000Y-76850000D01*
X147000000Y-83350000D02*
X152800000Y-83350000D01*
X153000000Y-81400000D02*
X153000000Y-78800000D01*
X155000000Y-82400000D02*
X155000000Y-83400000D01*
X155000000Y-83400000D02*
X154000000Y-83400000D01*
%TO.C,R2*%
X182177500Y-39037742D02*
X182177500Y-39512258D01*
X183222500Y-39037742D02*
X183222500Y-39512258D01*
%TO.C,R21*%
X141312258Y-20477500D02*
X140837742Y-20477500D01*
X141312258Y-21522500D02*
X140837742Y-21522500D01*
%TO.C,FB1*%
X154090000Y-22250279D02*
X154090000Y-21924721D01*
X155110000Y-22250279D02*
X155110000Y-21924721D01*
%TO.C,U5*%
X139990000Y-22240000D02*
X141810000Y-22240000D01*
X139990000Y-22290000D02*
X139990000Y-22240000D01*
X139990000Y-25360000D02*
X139990000Y-25310000D01*
X141810000Y-22240000D02*
X141810000Y-22290000D01*
X141810000Y-25310000D02*
X141810000Y-25360000D01*
X141810000Y-25360000D02*
X139990000Y-25360000D01*
X142590000Y-25640000D02*
X142110000Y-25640000D01*
X142350000Y-25310000D01*
X142590000Y-25640000D01*
G36*
X142590000Y-25640000D02*
G01*
X142110000Y-25640000D01*
X142350000Y-25310000D01*
X142590000Y-25640000D01*
G37*
%TO.C,C38*%
X162559420Y-41790000D02*
X162840580Y-41790000D01*
X162559420Y-42810000D02*
X162840580Y-42810000D01*
%TO.C,C24*%
X203877500Y-49215580D02*
X203877500Y-48934420D01*
X204897500Y-49215580D02*
X204897500Y-48934420D01*
%TO.C,C16*%
X187190000Y-50065580D02*
X187190000Y-49784420D01*
X188210000Y-50065580D02*
X188210000Y-49784420D01*
%TO.C,C33*%
X136890000Y-24065580D02*
X136890000Y-23784420D01*
X137910000Y-24065580D02*
X137910000Y-23784420D01*
%TO.C,C19*%
X187990000Y-61959420D02*
X187990000Y-62240580D01*
X189010000Y-61959420D02*
X189010000Y-62240580D01*
%TO.C,C11*%
X177890000Y-58684420D02*
X177890000Y-58965580D01*
X178910000Y-58684420D02*
X178910000Y-58965580D01*
%TO.C,J5*%
X163695000Y-59835000D02*
X163695000Y-59200000D01*
X164330000Y-59835000D02*
X163695000Y-59835000D01*
%TO.C,D3*%
X205335000Y-28877500D02*
X199825000Y-28877500D01*
X205335000Y-32177500D02*
X199825000Y-32177500D01*
X205335000Y-32177500D02*
X205335000Y-28877500D01*
%TO.C,R18*%
X194237500Y-73037742D02*
X194237500Y-73512258D01*
X195282500Y-73037742D02*
X195282500Y-73512258D01*
%TO.C,R14*%
X151727500Y-67237258D02*
X151727500Y-66762742D01*
X152772500Y-67237258D02*
X152772500Y-66762742D01*
%TO.C,L2*%
X197890000Y-53200279D02*
X197890000Y-52874721D01*
X198910000Y-53200279D02*
X198910000Y-52874721D01*
%TO.C,C12*%
X190840580Y-43890000D02*
X190559420Y-43890000D01*
X190840580Y-44910000D02*
X190559420Y-44910000D01*
%TO.C,F1*%
X151490000Y-21841422D02*
X151490000Y-22358578D01*
X152910000Y-21841422D02*
X152910000Y-22358578D01*
%TO.C,U9*%
X134400000Y-60060000D02*
X136200000Y-60060000D01*
X135400000Y-56840000D02*
X134600000Y-56840000D01*
X135400000Y-56840000D02*
X136200000Y-56840000D01*
X134100000Y-56890000D02*
X133860000Y-56560000D01*
X134340000Y-56560000D01*
X134100000Y-56890000D01*
G36*
X134100000Y-56890000D02*
G01*
X133860000Y-56560000D01*
X134340000Y-56560000D01*
X134100000Y-56890000D01*
G37*
%TO.C,C20*%
X189690000Y-61984420D02*
X189690000Y-62265580D01*
X190710000Y-61984420D02*
X190710000Y-62265580D01*
%TO.C,R4*%
X180077500Y-39037742D02*
X180077500Y-39512258D01*
X181122500Y-39037742D02*
X181122500Y-39512258D01*
%TO.C,C25*%
X209277500Y-49215580D02*
X209277500Y-48934420D01*
X210297500Y-49215580D02*
X210297500Y-48934420D01*
%TO.C,C30*%
X201884420Y-56090000D02*
X202165580Y-56090000D01*
X201884420Y-57110000D02*
X202165580Y-57110000D01*
%TO.C,J4*%
X179465000Y-76107500D02*
X191985000Y-76107500D01*
X179465000Y-86147500D02*
X179465000Y-76107500D01*
X192585000Y-76107500D02*
X194945000Y-76107500D01*
X194945000Y-76107500D02*
X194945000Y-86147500D01*
X194945000Y-76727500D02*
X179465000Y-76727500D01*
X194945000Y-78227500D02*
X179465000Y-78227500D01*
X194945000Y-83127500D02*
X179465000Y-83127500D01*
X194945000Y-86147500D02*
X179465000Y-86147500D01*
X192285000Y-76107500D02*
X191845000Y-75497500D01*
X192725000Y-75497500D01*
X192285000Y-76107500D01*
G36*
X192285000Y-76107500D02*
G01*
X191845000Y-75497500D01*
X192725000Y-75497500D01*
X192285000Y-76107500D01*
G37*
%TO.C,L6*%
X198090000Y-57612779D02*
X198090000Y-57287221D01*
X199110000Y-57612779D02*
X199110000Y-57287221D01*
%TO.C,C3*%
X173890000Y-73159420D02*
X173890000Y-73440580D01*
X174910000Y-73159420D02*
X174910000Y-73440580D01*
%TO.C,R3*%
X184277500Y-39537258D02*
X184277500Y-39062742D01*
X185322500Y-39537258D02*
X185322500Y-39062742D01*
%TO.C,R10*%
X187677500Y-73537258D02*
X187677500Y-73062742D01*
X188722500Y-73537258D02*
X188722500Y-73062742D01*
%TO.C,C26*%
X211590000Y-57759420D02*
X211590000Y-58040580D01*
X212610000Y-57759420D02*
X212610000Y-58040580D01*
%TO.C,J8*%
X126730000Y-43840000D02*
X133470000Y-43840000D01*
X126730000Y-45160000D02*
X126730000Y-43840000D01*
X126730000Y-49620000D02*
X126730000Y-45760000D01*
X127250000Y-43840000D02*
X127250000Y-49620000D01*
X132350000Y-43840000D02*
X132350000Y-49620000D01*
X133470000Y-43840000D02*
X133470000Y-49620000D01*
X133470000Y-49620000D02*
X126730000Y-49620000D01*
X126730000Y-45460000D02*
X126120000Y-45900000D01*
X126120000Y-45020000D01*
X126730000Y-45460000D01*
G36*
X126730000Y-45460000D02*
G01*
X126120000Y-45900000D01*
X126120000Y-45020000D01*
X126730000Y-45460000D01*
G37*
%TO.C,R11*%
X189877500Y-73562258D02*
X189877500Y-73087742D01*
X190922500Y-73562258D02*
X190922500Y-73087742D01*
%TO.C,C9*%
X140290000Y-60559420D02*
X140290000Y-60840580D01*
X141310000Y-60559420D02*
X141310000Y-60840580D01*
%TO.C,D5*%
X179090000Y-71850000D02*
X179090000Y-75150000D01*
X179090000Y-71850000D02*
X184600000Y-71850000D01*
X179090000Y-75150000D02*
X184600000Y-75150000D01*
%TO.C,C23*%
X205071920Y-51740000D02*
X205353080Y-51740000D01*
X205071920Y-52760000D02*
X205353080Y-52760000D01*
%TO.C,R12*%
X142077500Y-63987742D02*
X142077500Y-64462258D01*
X143122500Y-63987742D02*
X143122500Y-64462258D01*
%TO.C,L4*%
X208837221Y-51740000D02*
X209162779Y-51740000D01*
X208837221Y-52760000D02*
X209162779Y-52760000D01*
%TO.C,C1*%
X175540580Y-34790000D02*
X175259420Y-34790000D01*
X175540580Y-35810000D02*
X175259420Y-35810000D01*
%TO.C,C28*%
X212784420Y-68690000D02*
X213065580Y-68690000D01*
X212784420Y-69710000D02*
X213065580Y-69710000D01*
%TO.C,C2*%
X191290000Y-30665580D02*
X191290000Y-30384420D01*
X192310000Y-30665580D02*
X192310000Y-30384420D01*
%TO.C,U3*%
X182290000Y-52490000D02*
X182765000Y-52490000D01*
X182290000Y-52965000D02*
X182290000Y-52490000D01*
X182290000Y-59710000D02*
X182290000Y-59235000D01*
X182765000Y-59710000D02*
X182290000Y-59710000D01*
X189035000Y-52490000D02*
X189510000Y-52490000D01*
X189510000Y-52490000D02*
X189510000Y-52965000D01*
X189510000Y-59235000D02*
X189510000Y-59710000D01*
X189510000Y-59710000D02*
X189035000Y-59710000D01*
X183390000Y-60570000D02*
X182910000Y-60570000D01*
X183150000Y-60240000D01*
X183390000Y-60570000D01*
G36*
X183390000Y-60570000D02*
G01*
X182910000Y-60570000D01*
X183150000Y-60240000D01*
X183390000Y-60570000D01*
G37*
%TO.C,C27*%
X212784420Y-61790000D02*
X213065580Y-61790000D01*
X212784420Y-62810000D02*
X213065580Y-62810000D01*
%TO.C,C18*%
X191159420Y-51390000D02*
X191440580Y-51390000D01*
X191159420Y-52410000D02*
X191440580Y-52410000D01*
%TO.C,Y1*%
X192410000Y-45990000D02*
X189090000Y-45990000D01*
X192410000Y-48710000D02*
X192410000Y-45990000D01*
%TO.C,U1*%
X173340000Y-36740000D02*
X177460000Y-36740000D01*
X173340000Y-36835000D02*
X173340000Y-36740000D01*
X173340000Y-41860000D02*
X173340000Y-41765000D01*
X177460000Y-36740000D02*
X177460000Y-36835000D01*
X177460000Y-41765000D02*
X177460000Y-41860000D01*
X177460000Y-41860000D02*
X173340000Y-41860000D01*
X172800000Y-36830000D02*
X172560000Y-36500000D01*
X173040000Y-36500000D01*
X172800000Y-36830000D01*
G36*
X172800000Y-36830000D02*
G01*
X172560000Y-36500000D01*
X173040000Y-36500000D01*
X172800000Y-36830000D01*
G37*
%TO.C,C15*%
X180565580Y-51590000D02*
X180284420Y-51590000D01*
X180565580Y-52610000D02*
X180284420Y-52610000D01*
%TO.C,C13*%
X185590000Y-50065580D02*
X185590000Y-49784420D01*
X186610000Y-50065580D02*
X186610000Y-49784420D01*
%TO.C,U6*%
X141290000Y-37260000D02*
X141290000Y-37035000D01*
X141533741Y-34040000D02*
X143510000Y-34040000D01*
X143510000Y-34040000D02*
X143510000Y-34265000D01*
X143510000Y-37035000D02*
X143510000Y-37260000D01*
X143510000Y-37260000D02*
X141290000Y-37260000D01*
X141140000Y-34260000D02*
X141000000Y-34070000D01*
X141280000Y-34070000D01*
X141140000Y-34260000D01*
G36*
X141140000Y-34260000D02*
G01*
X141000000Y-34070000D01*
X141280000Y-34070000D01*
X141140000Y-34260000D01*
G37*
%TO.C,R16*%
X143997500Y-64462258D02*
X143997500Y-63987742D01*
X145042500Y-64462258D02*
X145042500Y-63987742D01*
%TO.C,C8*%
X140290000Y-64084420D02*
X140290000Y-64365580D01*
X141310000Y-64084420D02*
X141310000Y-64365580D01*
%TO.C,D6*%
X151515000Y-61740000D02*
X151515000Y-64025000D01*
X152985000Y-61740000D02*
X151515000Y-61740000D01*
X152985000Y-64025000D02*
X152985000Y-61740000D01*
%TO.C,C37*%
X156090000Y-39284420D02*
X156090000Y-39565580D01*
X157110000Y-39284420D02*
X157110000Y-39565580D01*
%TO.C,C5*%
X173490000Y-53378080D02*
X173490000Y-53096920D01*
X174510000Y-53378080D02*
X174510000Y-53096920D01*
%TO.C,C21*%
X197890000Y-49015580D02*
X197890000Y-48734420D01*
X198910000Y-49015580D02*
X198910000Y-48734420D01*
%TO.C,J6*%
X206470000Y-76175000D02*
X206470000Y-81825000D01*
X209375000Y-84500000D02*
X215025000Y-84500000D01*
X212200000Y-84300000D02*
X211700000Y-83600000D01*
X212200000Y-84300000D02*
X212700000Y-83600000D01*
X215025000Y-73270000D02*
X209375000Y-73270000D01*
X217930000Y-81825000D02*
X217930000Y-76175000D01*
%TO.C,C35*%
X144790000Y-33640580D02*
X144790000Y-33359420D01*
X145810000Y-33640580D02*
X145810000Y-33359420D01*
%TO.C,R6*%
X195902500Y-30290242D02*
X195902500Y-30764758D01*
X196947500Y-30290242D02*
X196947500Y-30764758D01*
%TO.C,R1*%
X169177500Y-39037742D02*
X169177500Y-39512258D01*
X170222500Y-39037742D02*
X170222500Y-39512258D01*
%TO.C,R25*%
X146577500Y-36937258D02*
X146577500Y-36462742D01*
X147622500Y-36937258D02*
X147622500Y-36462742D01*
%TO.C,L5*%
X211615000Y-65649721D02*
X211615000Y-65975279D01*
X212635000Y-65649721D02*
X212635000Y-65975279D01*
%TO.C,R8*%
X169477500Y-73537258D02*
X169477500Y-73062742D01*
X170522500Y-73537258D02*
X170522500Y-73062742D01*
%TO.C,R26*%
X158362742Y-41677500D02*
X158837258Y-41677500D01*
X158362742Y-42722500D02*
X158837258Y-42722500D01*
%TO.C,D1*%
X156350000Y-20590000D02*
X156350000Y-26100000D01*
X159650000Y-20590000D02*
X156350000Y-20590000D01*
X159650000Y-20590000D02*
X159650000Y-26100000D01*
%TO.C,R9*%
X171677500Y-73537258D02*
X171677500Y-73062742D01*
X172722500Y-73537258D02*
X172722500Y-73062742D01*
%TO.C,C29*%
X201884420Y-57840000D02*
X202165580Y-57840000D01*
X201884420Y-58860000D02*
X202165580Y-58860000D01*
%TO.C,C22*%
X201890000Y-52934420D02*
X201890000Y-53215580D01*
X202910000Y-52934420D02*
X202910000Y-53215580D01*
%TO.C,D9*%
X136065000Y-33487500D02*
X136065000Y-35772500D01*
X136065000Y-35772500D02*
X137535000Y-35772500D01*
X137535000Y-35772500D02*
X137535000Y-33487500D01*
%TO.C,D8*%
X145540000Y-20640000D02*
X145540000Y-25700000D01*
X148260000Y-20640000D02*
X145540000Y-20640000D01*
X148260000Y-20640000D02*
X148260000Y-25700000D01*
%TO.C,C36*%
X142259420Y-32190000D02*
X142540580Y-32190000D01*
X142259420Y-33210000D02*
X142540580Y-33210000D01*
%TO.C,C7*%
X179665580Y-55390000D02*
X179384420Y-55390000D01*
X179665580Y-56410000D02*
X179384420Y-56410000D01*
%TD*%
M02*
