%TF.GenerationSoftware,KiCad,Pcbnew,9.0.6*%
%TF.CreationDate,2025-12-23T13:53:16+01:00*%
%TF.ProjectId,demo wateranalyser,64656d6f-2077-4617-9465-72616e616c79,rev?*%
%TF.SameCoordinates,Original*%
%TF.FileFunction,Paste,Top*%
%TF.FilePolarity,Positive*%
%FSLAX46Y46*%
G04 Gerber Fmt 4.6, Leading zero omitted, Abs format (unit mm)*
G04 Created by KiCad (PCBNEW 9.0.6) date 2025-12-23 13:53:16*
%MOMM*%
%LPD*%
G01*
G04 APERTURE LIST*
G04 Aperture macros list*
%AMRoundRect*
0 Rectangle with rounded corners*
0 $1 Rounding radius*
0 $2 $3 $4 $5 $6 $7 $8 $9 X,Y pos of 4 corners*
0 Add a 4 corners polygon primitive as box body*
4,1,4,$2,$3,$4,$5,$6,$7,$8,$9,$2,$3,0*
0 Add four circle primitives for the rounded corners*
1,1,$1+$1,$2,$3*
1,1,$1+$1,$4,$5*
1,1,$1+$1,$6,$7*
1,1,$1+$1,$8,$9*
0 Add four rect primitives between the rounded corners*
20,1,$1+$1,$2,$3,$4,$5,0*
20,1,$1+$1,$4,$5,$6,$7,0*
20,1,$1+$1,$6,$7,$8,$9,0*
20,1,$1+$1,$8,$9,$2,$3,0*%
G04 Aperture macros list end*
%ADD10RoundRect,0.250000X-0.700000X1.200000X-0.700000X-1.200000X0.700000X-1.200000X0.700000X1.200000X0*%
%ADD11RoundRect,0.100000X-0.575000X0.100000X-0.575000X-0.100000X0.575000X-0.100000X0.575000X0.100000X0*%
%ADD12R,0.850000X0.300000*%
%ADD13RoundRect,0.218750X0.218750X0.256250X-0.218750X0.256250X-0.218750X-0.256250X0.218750X-0.256250X0*%
%ADD14RoundRect,0.200000X-0.275000X0.200000X-0.275000X-0.200000X0.275000X-0.200000X0.275000X0.200000X0*%
%ADD15RoundRect,0.218750X-0.381250X0.218750X-0.381250X-0.218750X0.381250X-0.218750X0.381250X0.218750X0*%
%ADD16RoundRect,0.225000X0.250000X-0.225000X0.250000X0.225000X-0.250000X0.225000X-0.250000X-0.225000X0*%
%ADD17RoundRect,0.200000X0.275000X-0.200000X0.275000X0.200000X-0.275000X0.200000X-0.275000X-0.200000X0*%
%ADD18RoundRect,0.225000X-0.250000X0.225000X-0.250000X-0.225000X0.250000X-0.225000X0.250000X0.225000X0*%
%ADD19RoundRect,0.225000X0.225000X0.250000X-0.225000X0.250000X-0.225000X-0.250000X0.225000X-0.250000X0*%
%ADD20RoundRect,0.218750X-0.218750X-0.381250X0.218750X-0.381250X0.218750X0.381250X-0.218750X0.381250X0*%
%ADD21RoundRect,0.218750X0.381250X-0.218750X0.381250X0.218750X-0.381250X0.218750X-0.381250X-0.218750X0*%
%ADD22RoundRect,0.218750X-0.256250X0.218750X-0.256250X-0.218750X0.256250X-0.218750X0.256250X0.218750X0*%
%ADD23RoundRect,0.225000X-0.225000X-0.250000X0.225000X-0.250000X0.225000X0.250000X-0.225000X0.250000X0*%
%ADD24RoundRect,0.218750X0.256250X-0.218750X0.256250X0.218750X-0.256250X0.218750X-0.256250X-0.218750X0*%
%ADD25C,0.250000*%
%ADD26RoundRect,0.225000X-0.225000X-0.225000X0.225000X-0.225000X0.225000X0.225000X-0.225000X0.225000X0*%
%ADD27RoundRect,0.062500X-0.337500X-0.062500X0.337500X-0.062500X0.337500X0.062500X-0.337500X0.062500X0*%
%ADD28RoundRect,0.062500X-0.062500X-0.337500X0.062500X-0.337500X0.062500X0.337500X-0.062500X0.337500X0*%
%ADD29RoundRect,0.150000X0.150000X-0.587500X0.150000X0.587500X-0.150000X0.587500X-0.150000X-0.587500X0*%
%ADD30RoundRect,0.250000X-1.000000X-0.650000X1.000000X-0.650000X1.000000X0.650000X-1.000000X0.650000X0*%
%ADD31RoundRect,0.130000X-0.130000X-0.305000X0.130000X-0.305000X0.130000X0.305000X-0.130000X0.305000X0*%
%ADD32RoundRect,0.062500X-0.350000X-0.062500X0.350000X-0.062500X0.350000X0.062500X-0.350000X0.062500X0*%
%ADD33R,1.600000X1.400000*%
%ADD34RoundRect,0.200000X0.200000X0.275000X-0.200000X0.275000X-0.200000X-0.275000X0.200000X-0.275000X0*%
%ADD35RoundRect,0.150000X0.512500X0.150000X-0.512500X0.150000X-0.512500X-0.150000X0.512500X-0.150000X0*%
%ADD36RoundRect,0.250000X1.000000X0.650000X-1.000000X0.650000X-1.000000X-0.650000X1.000000X-0.650000X0*%
%ADD37RoundRect,0.243750X-0.456250X0.243750X-0.456250X-0.243750X0.456250X-0.243750X0.456250X0.243750X0*%
%ADD38RoundRect,0.162500X-0.617500X-0.162500X0.617500X-0.162500X0.617500X0.162500X-0.617500X0.162500X0*%
%ADD39RoundRect,0.218750X-0.218750X-0.256250X0.218750X-0.256250X0.218750X0.256250X-0.218750X0.256250X0*%
%ADD40RoundRect,0.250000X0.315000X-0.315000X0.315000X0.315000X-0.315000X0.315000X-0.315000X-0.315000X0*%
%ADD41RoundRect,0.062500X0.062500X-0.375000X0.062500X0.375000X-0.062500X0.375000X-0.062500X-0.375000X0*%
%ADD42RoundRect,0.062500X0.375000X-0.062500X0.375000X0.062500X-0.375000X0.062500X-0.375000X-0.062500X0*%
%ADD43RoundRect,0.225000X0.325000X0.225000X-0.325000X0.225000X-0.325000X-0.225000X0.325000X-0.225000X0*%
%ADD44RoundRect,0.150000X-0.825000X-0.150000X0.825000X-0.150000X0.825000X0.150000X-0.825000X0.150000X0*%
%ADD45RoundRect,0.182500X-0.182500X-0.337500X0.182500X-0.337500X0.182500X0.337500X-0.182500X0.337500X0*%
%ADD46RoundRect,0.062500X-0.312500X-0.062500X0.312500X-0.062500X0.312500X0.062500X-0.312500X0.062500X0*%
%ADD47RoundRect,0.200000X-0.200000X-0.275000X0.200000X-0.275000X0.200000X0.275000X-0.200000X0.275000X0*%
%ADD48RoundRect,0.250000X-0.650000X1.000000X-0.650000X-1.000000X0.650000X-1.000000X0.650000X1.000000X0*%
%ADD49RoundRect,0.250000X-0.800000X0.450000X-0.800000X-0.450000X0.800000X-0.450000X0.800000X0.450000X0*%
G04 APERTURE END LIST*
D10*
%TO.C,J7*%
X127700000Y-58075000D03*
D11*
X130375000Y-56775000D03*
X130375000Y-57425000D03*
X130375000Y-58075000D03*
X130375000Y-58725000D03*
X130375000Y-59375000D03*
D12*
X127700000Y-61575000D03*
X127700000Y-54575000D03*
%TD*%
D13*
%TO.C,FB3*%
X191500000Y-42600000D03*
X189925000Y-42600000D03*
%TD*%
D14*
%TO.C,R23*%
X145300000Y-35875000D03*
X145300000Y-37525000D03*
%TD*%
D15*
%TO.C,L8*%
X162900000Y-38337500D03*
X162900000Y-40462500D03*
%TD*%
D16*
%TO.C,C32*%
X135600000Y-47275000D03*
X135600000Y-45725000D03*
%TD*%
D17*
%TO.C,R5*%
X167700000Y-40100000D03*
X167700000Y-38450000D03*
%TD*%
D14*
%TO.C,R20*%
X135100000Y-23175000D03*
X135100000Y-24825000D03*
%TD*%
D18*
%TO.C,C34*%
X149700000Y-21225000D03*
X149700000Y-22775000D03*
%TD*%
D17*
%TO.C,R15*%
X154850000Y-67850000D03*
X154850000Y-66200000D03*
%TD*%
%TO.C,R24*%
X138800000Y-35125000D03*
X138800000Y-33475000D03*
%TD*%
D19*
%TO.C,C6*%
X180300000Y-54200000D03*
X178750000Y-54200000D03*
%TD*%
D20*
%TO.C,L7*%
X139837500Y-27000000D03*
X141962500Y-27000000D03*
%TD*%
D21*
%TO.C,L1*%
X180200000Y-59725000D03*
X180200000Y-57600000D03*
%TD*%
D14*
%TO.C,R27*%
X154600000Y-38575000D03*
X154600000Y-40225000D03*
%TD*%
D22*
%TO.C,D7*%
X154850000Y-62437500D03*
X154850000Y-64012500D03*
%TD*%
D18*
%TO.C,C4*%
X192600000Y-72525000D03*
X192600000Y-74075000D03*
%TD*%
D23*
%TO.C,C14*%
X165495000Y-62200000D03*
X167045000Y-62200000D03*
%TD*%
D14*
%TO.C,R22*%
X136800000Y-29375000D03*
X136800000Y-31025000D03*
%TD*%
D18*
%TO.C,C10*%
X142600000Y-59875000D03*
X142600000Y-61425000D03*
%TD*%
D24*
%TO.C,L3*%
X200400000Y-53850000D03*
X200400000Y-52275000D03*
%TD*%
D22*
%TO.C,FB2*%
X175800000Y-52425000D03*
X175800000Y-54000000D03*
%TD*%
D17*
%TO.C,R19*%
X144100000Y-22625000D03*
X144100000Y-20975000D03*
%TD*%
%TO.C,R13*%
X146800000Y-65100000D03*
X146800000Y-63450000D03*
%TD*%
D25*
%TO.C,U4*%
X209800000Y-56800000D03*
X209800000Y-57200000D03*
X209800000Y-57600000D03*
X210200000Y-56800000D03*
X210200000Y-57200000D03*
X210200000Y-57600000D03*
%TD*%
D26*
%TO.C,U2*%
X145850000Y-57080000D03*
X145850000Y-58200000D03*
X145850000Y-59320000D03*
X146970000Y-57080000D03*
X146970000Y-58200000D03*
X146970000Y-59320000D03*
X148090000Y-57080000D03*
X148090000Y-58200000D03*
X148090000Y-59320000D03*
D27*
X144520000Y-56700000D03*
X144520000Y-57200000D03*
X144520000Y-57700000D03*
X144520000Y-58200000D03*
X144520000Y-58700000D03*
X144520000Y-59200000D03*
X144520000Y-59700000D03*
D28*
X145470000Y-60650000D03*
X145970000Y-60650000D03*
X146470000Y-60650000D03*
X146970000Y-60650000D03*
X147470000Y-60650000D03*
X147970000Y-60650000D03*
X148470000Y-60650000D03*
D27*
X149420000Y-59700000D03*
X149420000Y-59200000D03*
X149420000Y-58700000D03*
X149420000Y-58200000D03*
X149420000Y-57700000D03*
X149420000Y-57200000D03*
X149420000Y-56700000D03*
D28*
X148470000Y-55750000D03*
X147970000Y-55750000D03*
X147470000Y-55750000D03*
X146970000Y-55750000D03*
X146470000Y-55750000D03*
X145970000Y-55750000D03*
X145470000Y-55750000D03*
%TD*%
D14*
%TO.C,R7*%
X194225000Y-29677500D03*
X194225000Y-31327500D03*
%TD*%
D29*
%TO.C,D2*%
X182700000Y-32072500D03*
X184600000Y-32072500D03*
X183650000Y-30197500D03*
%TD*%
D30*
%TO.C,D4*%
X162600000Y-73300000D03*
X166600000Y-73300000D03*
%TD*%
D31*
%TO.C,U7*%
X159400000Y-38900000D03*
X159400000Y-39900000D03*
X160000000Y-38900000D03*
X160000000Y-39900000D03*
D32*
X158487500Y-38400000D03*
X158487500Y-38900000D03*
X158487500Y-39400000D03*
X158487500Y-39900000D03*
X158487500Y-40400000D03*
X160912500Y-40400000D03*
X160912500Y-39900000D03*
X160912500Y-39400000D03*
X160912500Y-38900000D03*
X160912500Y-38400000D03*
%TD*%
D33*
%TO.C,SW1*%
X153900000Y-82350000D03*
X145900000Y-82350000D03*
X153900000Y-77850000D03*
X145900000Y-77850000D03*
%TD*%
D14*
%TO.C,R2*%
X182700000Y-38450000D03*
X182700000Y-40100000D03*
%TD*%
D34*
%TO.C,R21*%
X141900000Y-21000000D03*
X140250000Y-21000000D03*
%TD*%
D24*
%TO.C,FB1*%
X154600000Y-22875000D03*
X154600000Y-21300000D03*
%TD*%
D35*
%TO.C,U5*%
X142037500Y-24750000D03*
X142037500Y-23800000D03*
X142037500Y-22850000D03*
X139762500Y-22850000D03*
X139762500Y-23800000D03*
X139762500Y-24750000D03*
%TD*%
D23*
%TO.C,C38*%
X161925000Y-42300000D03*
X163475000Y-42300000D03*
%TD*%
D16*
%TO.C,C24*%
X204387500Y-49850000D03*
X204387500Y-48300000D03*
%TD*%
%TO.C,C16*%
X187700000Y-50700000D03*
X187700000Y-49150000D03*
%TD*%
%TO.C,C33*%
X137400000Y-24700000D03*
X137400000Y-23150000D03*
%TD*%
D18*
%TO.C,C19*%
X188500000Y-61325000D03*
X188500000Y-62875000D03*
%TD*%
%TO.C,C11*%
X178400000Y-58050000D03*
X178400000Y-59600000D03*
%TD*%
D36*
%TO.C,D3*%
X203825000Y-30527500D03*
X199825000Y-30527500D03*
%TD*%
D14*
%TO.C,R18*%
X194760000Y-72450000D03*
X194760000Y-74100000D03*
%TD*%
D17*
%TO.C,R14*%
X152250000Y-67825000D03*
X152250000Y-66175000D03*
%TD*%
D24*
%TO.C,L2*%
X198400000Y-53825000D03*
X198400000Y-52250000D03*
%TD*%
D19*
%TO.C,C12*%
X191475000Y-44400000D03*
X189925000Y-44400000D03*
%TD*%
D37*
%TO.C,F1*%
X152200000Y-21162500D03*
X152200000Y-23037500D03*
%TD*%
D38*
%TO.C,U9*%
X133950000Y-57500000D03*
X133950000Y-58450000D03*
X133950000Y-59400000D03*
X136650000Y-59400000D03*
X136650000Y-58450000D03*
X136650000Y-57500000D03*
%TD*%
D18*
%TO.C,C20*%
X190200000Y-61350000D03*
X190200000Y-62900000D03*
%TD*%
D14*
%TO.C,R4*%
X180600000Y-38450000D03*
X180600000Y-40100000D03*
%TD*%
D16*
%TO.C,C25*%
X209787500Y-49850000D03*
X209787500Y-48300000D03*
%TD*%
D23*
%TO.C,C30*%
X201250000Y-56600000D03*
X202800000Y-56600000D03*
%TD*%
D24*
%TO.C,L6*%
X198600000Y-58237500D03*
X198600000Y-56662500D03*
%TD*%
D18*
%TO.C,C3*%
X174400000Y-72525000D03*
X174400000Y-74075000D03*
%TD*%
D17*
%TO.C,R3*%
X184800000Y-40125000D03*
X184800000Y-38475000D03*
%TD*%
%TO.C,R10*%
X188200000Y-74125000D03*
X188200000Y-72475000D03*
%TD*%
D18*
%TO.C,C26*%
X212100000Y-57125000D03*
X212100000Y-58675000D03*
%TD*%
D17*
%TO.C,R11*%
X190400000Y-74150000D03*
X190400000Y-72500000D03*
%TD*%
D18*
%TO.C,C9*%
X140800000Y-59925000D03*
X140800000Y-61475000D03*
%TD*%
D30*
%TO.C,D5*%
X180600000Y-73500000D03*
X184600000Y-73500000D03*
%TD*%
D23*
%TO.C,C23*%
X204437500Y-52250000D03*
X205987500Y-52250000D03*
%TD*%
D14*
%TO.C,R12*%
X142600000Y-63400000D03*
X142600000Y-65050000D03*
%TD*%
D39*
%TO.C,L4*%
X208212500Y-52250000D03*
X209787500Y-52250000D03*
%TD*%
D19*
%TO.C,C1*%
X176175000Y-35300000D03*
X174625000Y-35300000D03*
%TD*%
D23*
%TO.C,C28*%
X212150000Y-69200000D03*
X213700000Y-69200000D03*
%TD*%
D16*
%TO.C,C2*%
X191800000Y-31300000D03*
X191800000Y-29750000D03*
%TD*%
D40*
%TO.C,U3*%
X183800000Y-58200000D03*
X185200000Y-58200000D03*
X186600000Y-58200000D03*
X188000000Y-58200000D03*
X183800000Y-56800000D03*
X185200000Y-56800000D03*
X186600000Y-56800000D03*
X188000000Y-56800000D03*
X183800000Y-55400000D03*
X185200000Y-55400000D03*
X186600000Y-55400000D03*
X188000000Y-55400000D03*
X183800000Y-54000000D03*
X185200000Y-54000000D03*
X186600000Y-54000000D03*
X188000000Y-54000000D03*
D41*
X183150000Y-59537500D03*
X183650000Y-59537500D03*
X184150000Y-59537500D03*
X184650000Y-59537500D03*
X185150000Y-59537500D03*
X185650000Y-59537500D03*
X186150000Y-59537500D03*
X186650000Y-59537500D03*
X187150000Y-59537500D03*
X187650000Y-59537500D03*
X188150000Y-59537500D03*
X188650000Y-59537500D03*
D42*
X189337500Y-58850000D03*
X189337500Y-58350000D03*
X189337500Y-57850000D03*
X189337500Y-57350000D03*
X189337500Y-56850000D03*
X189337500Y-56350000D03*
X189337500Y-55850000D03*
X189337500Y-55350000D03*
X189337500Y-54850000D03*
X189337500Y-54350000D03*
X189337500Y-53850000D03*
X189337500Y-53350000D03*
D41*
X188650000Y-52662500D03*
X188150000Y-52662500D03*
X187650000Y-52662500D03*
X187150000Y-52662500D03*
X186650000Y-52662500D03*
X186150000Y-52662500D03*
X185650000Y-52662500D03*
X185150000Y-52662500D03*
X184650000Y-52662500D03*
X184150000Y-52662500D03*
X183650000Y-52662500D03*
X183150000Y-52662500D03*
D42*
X182462500Y-53350000D03*
X182462500Y-53850000D03*
X182462500Y-54350000D03*
X182462500Y-54850000D03*
X182462500Y-55350000D03*
X182462500Y-55850000D03*
X182462500Y-56350000D03*
X182462500Y-56850000D03*
X182462500Y-57350000D03*
X182462500Y-57850000D03*
X182462500Y-58350000D03*
X182462500Y-58850000D03*
%TD*%
D23*
%TO.C,C27*%
X212150000Y-62300000D03*
X213700000Y-62300000D03*
%TD*%
%TO.C,C18*%
X190525000Y-51900000D03*
X192075000Y-51900000D03*
%TD*%
D43*
%TO.C,Y1*%
X191600000Y-46700000D03*
X189900000Y-46700000D03*
X189900000Y-48000000D03*
X191600000Y-48000000D03*
%TD*%
D44*
%TO.C,U1*%
X172925000Y-37395000D03*
X172925000Y-38665000D03*
X172925000Y-39935000D03*
X172925000Y-41205000D03*
X177875000Y-41205000D03*
X177875000Y-39935000D03*
X177875000Y-38665000D03*
X177875000Y-37395000D03*
%TD*%
D19*
%TO.C,C15*%
X181200000Y-52100000D03*
X179650000Y-52100000D03*
%TD*%
D16*
%TO.C,C13*%
X186100000Y-50700000D03*
X186100000Y-49150000D03*
%TD*%
D45*
%TO.C,U6*%
X142400000Y-35050000D03*
X142400000Y-36250000D03*
D46*
X141400000Y-34650000D03*
X141400000Y-35150000D03*
X141400000Y-35650000D03*
X141400000Y-36150000D03*
X141400000Y-36650000D03*
X143400000Y-36650000D03*
X143400000Y-36150000D03*
X143400000Y-35650000D03*
X143400000Y-35150000D03*
X143400000Y-34650000D03*
%TD*%
D17*
%TO.C,R16*%
X144520000Y-65050000D03*
X144520000Y-63400000D03*
%TD*%
D18*
%TO.C,C8*%
X140800000Y-63450000D03*
X140800000Y-65000000D03*
%TD*%
D22*
%TO.C,D6*%
X152250000Y-62437500D03*
X152250000Y-64012500D03*
%TD*%
D18*
%TO.C,C37*%
X156600000Y-38650000D03*
X156600000Y-40200000D03*
%TD*%
D16*
%TO.C,C5*%
X174000000Y-54012500D03*
X174000000Y-52462500D03*
%TD*%
%TO.C,C21*%
X198400000Y-49650000D03*
X198400000Y-48100000D03*
%TD*%
%TO.C,C35*%
X145300000Y-34275000D03*
X145300000Y-32725000D03*
%TD*%
D14*
%TO.C,R6*%
X196425000Y-29702500D03*
X196425000Y-31352500D03*
%TD*%
%TO.C,R1*%
X169700000Y-38450000D03*
X169700000Y-40100000D03*
%TD*%
D17*
%TO.C,R25*%
X147100000Y-37525000D03*
X147100000Y-35875000D03*
%TD*%
D22*
%TO.C,L5*%
X212125000Y-65025000D03*
X212125000Y-66600000D03*
%TD*%
D17*
%TO.C,R8*%
X170000000Y-74125000D03*
X170000000Y-72475000D03*
%TD*%
D47*
%TO.C,R26*%
X157775000Y-42200000D03*
X159425000Y-42200000D03*
%TD*%
D48*
%TO.C,D1*%
X158000000Y-22100000D03*
X158000000Y-26100000D03*
%TD*%
D17*
%TO.C,R9*%
X172200000Y-74125000D03*
X172200000Y-72475000D03*
%TD*%
D23*
%TO.C,C29*%
X201250000Y-58350000D03*
X202800000Y-58350000D03*
%TD*%
D18*
%TO.C,C22*%
X202400000Y-52300000D03*
X202400000Y-53850000D03*
%TD*%
D24*
%TO.C,D9*%
X136800000Y-35075000D03*
X136800000Y-33500000D03*
%TD*%
D49*
%TO.C,D8*%
X146900000Y-21600000D03*
X146900000Y-26000000D03*
%TD*%
D23*
%TO.C,C36*%
X141625000Y-32700000D03*
X143175000Y-32700000D03*
%TD*%
D19*
%TO.C,C7*%
X180300000Y-55900000D03*
X178750000Y-55900000D03*
%TD*%
M02*
