%TF.GenerationSoftware,KiCad,Pcbnew,9.0.6*%
%TF.CreationDate,2025-12-23T13:53:16+01:00*%
%TF.ProjectId,demo wateranalyser,64656d6f-2077-4617-9465-72616e616c79,rev?*%
%TF.SameCoordinates,Original*%
%TF.FileFunction,Copper,L4,Bot*%
%TF.FilePolarity,Positive*%
%FSLAX46Y46*%
G04 Gerber Fmt 4.6, Leading zero omitted, Abs format (unit mm)*
G04 Created by KiCad (PCBNEW 9.0.6) date 2025-12-23 13:53:16*
%MOMM*%
%LPD*%
G01*
G04 APERTURE LIST*
G04 Aperture macros list*
%AMRoundRect*
0 Rectangle with rounded corners*
0 $1 Rounding radius*
0 $2 $3 $4 $5 $6 $7 $8 $9 X,Y pos of 4 corners*
0 Add a 4 corners polygon primitive as box body*
4,1,4,$2,$3,$4,$5,$6,$7,$8,$9,$2,$3,0*
0 Add four circle primitives for the rounded corners*
1,1,$1+$1,$2,$3*
1,1,$1+$1,$4,$5*
1,1,$1+$1,$6,$7*
1,1,$1+$1,$8,$9*
0 Add four rect primitives between the rounded corners*
20,1,$1+$1,$2,$3,$4,$5,0*
20,1,$1+$1,$4,$5,$6,$7,0*
20,1,$1+$1,$6,$7,$8,$9,0*
20,1,$1+$1,$8,$9,$2,$3,0*%
G04 Aperture macros list end*
%TA.AperFunction,HeatsinkPad*%
%ADD10O,2.000000X1.400000*%
%TD*%
%TA.AperFunction,HeatsinkPad*%
%ADD11O,1.500000X1.100000*%
%TD*%
%TA.AperFunction,ComponentPad*%
%ADD12RoundRect,0.250000X-1.050000X-1.050000X1.050000X-1.050000X1.050000X1.050000X-1.050000X1.050000X0*%
%TD*%
%TA.AperFunction,ComponentPad*%
%ADD13C,2.600000*%
%TD*%
%TA.AperFunction,ComponentPad*%
%ADD14RoundRect,0.250000X1.050000X1.050000X-1.050000X1.050000X-1.050000X-1.050000X1.050000X-1.050000X0*%
%TD*%
%TA.AperFunction,ComponentPad*%
%ADD15RoundRect,0.250000X1.550000X-0.650000X1.550000X0.650000X-1.550000X0.650000X-1.550000X-0.650000X0*%
%TD*%
%TA.AperFunction,ComponentPad*%
%ADD16O,3.600000X1.800000*%
%TD*%
%TA.AperFunction,HeatsinkPad*%
%ADD17C,0.500000*%
%TD*%
%TA.AperFunction,HeatsinkPad*%
%ADD18R,1.200000X2.000000*%
%TD*%
%TA.AperFunction,ComponentPad*%
%ADD19RoundRect,0.250001X-0.799999X0.799999X-0.799999X-0.799999X0.799999X-0.799999X0.799999X0.799999X0*%
%TD*%
%TA.AperFunction,ComponentPad*%
%ADD20C,2.100000*%
%TD*%
%TA.AperFunction,HeatsinkPad*%
%ADD21R,0.500000X2.400000*%
%TD*%
%TA.AperFunction,ComponentPad*%
%ADD22R,3.500000X3.500000*%
%TD*%
%TA.AperFunction,ComponentPad*%
%ADD23C,4.000000*%
%TD*%
%TA.AperFunction,ViaPad*%
%ADD24C,0.500000*%
%TD*%
%TA.AperFunction,ViaPad*%
%ADD25C,0.600000*%
%TD*%
%TA.AperFunction,Conductor*%
%ADD26C,0.250000*%
%TD*%
G04 APERTURE END LIST*
D10*
%TO.P,J7,6,Shield*%
%TO.N,GND*%
X127700000Y-62250000D03*
D11*
X130700000Y-60300000D03*
X130700000Y-55850000D03*
D10*
X127700000Y-53900000D03*
%TD*%
D12*
%TO.P,J1,1,Pin_1*%
%TO.N,Net-(D1-A1)*%
X167260000Y-23100000D03*
D13*
%TO.P,J1,2,Pin_2*%
%TO.N,/analog/RS485+*%
X172340000Y-23100000D03*
%TO.P,J1,3,Pin_3*%
%TO.N,/analog/RS485-*%
X177420000Y-23100000D03*
%TO.P,J1,4,Pin_4*%
%TO.N,GND*%
X182500000Y-23100000D03*
%TD*%
D14*
%TO.P,J3,1,Pin_1*%
%TO.N,Net-(D1-A1)*%
X173700000Y-80900000D03*
D13*
%TO.P,J3,2,Pin_2*%
%TO.N,Net-(D4-A2)*%
X168620000Y-80900000D03*
%TO.P,J3,3,Pin_3*%
%TO.N,GND*%
X163540000Y-80900000D03*
%TD*%
D15*
%TO.P,BT1,1,+*%
%TO.N,Net-(BT1-+)*%
X131400000Y-36200000D03*
D16*
%TO.P,BT1,2,-*%
%TO.N,GND*%
X131400000Y-32390000D03*
%TD*%
D12*
%TO.P,J2,1,Pin_1*%
%TO.N,Net-(D1-A1)*%
X194340000Y-23100000D03*
D13*
%TO.P,J2,2,Pin_2*%
%TO.N,Net-(D3-A2)*%
X199420000Y-23100000D03*
%TO.P,J2,3,Pin_3*%
%TO.N,GND*%
X204500000Y-23100000D03*
%TD*%
D17*
%TO.P,U7,11,GND*%
%TO.N,GND*%
X159350000Y-38650000D03*
X159350000Y-39400000D03*
X159350000Y-40150000D03*
D18*
X159700000Y-39400000D03*
D17*
X160050000Y-38650000D03*
X160050000Y-39400000D03*
X160050000Y-40150000D03*
%TD*%
D14*
%TO.P,J4,1,Pin_1*%
%TO.N,Net-(D1-A1)*%
X192285000Y-80827500D03*
D13*
%TO.P,J4,2,Pin_2*%
%TO.N,Net-(D5-A2)*%
X187205000Y-80827500D03*
%TO.P,J4,3,Pin_3*%
%TO.N,GND*%
X182125000Y-80827500D03*
%TD*%
D19*
%TO.P,J8,1,Pin_1*%
%TO.N,GND*%
X130100000Y-45460000D03*
D20*
%TO.P,J8,2,Pin_2*%
%TO.N,+5V*%
X130100000Y-48000000D03*
%TD*%
D17*
%TO.P,U6,11,PWR_PAD*%
%TO.N,GND*%
X142400000Y-34700000D03*
X142400000Y-35650000D03*
D21*
X142400000Y-35650000D03*
D17*
X142400000Y-36600000D03*
%TD*%
D22*
%TO.P,J6,1,In*%
%TO.N,Net-(J6-In)*%
X212200000Y-79000000D03*
D23*
%TO.P,J6,2,Ext*%
%TO.N,GND*%
X217225000Y-84025000D03*
X217225000Y-73975000D03*
X207175000Y-84025000D03*
X207175000Y-73975000D03*
%TD*%
D24*
%TO.N,GND*%
X209050000Y-57200000D03*
X178800000Y-54200000D03*
%TO.N,SWCLK*%
X181625000Y-56200000D03*
%TO.N,GND*%
X174000000Y-52400000D03*
%TO.N,+3V3*%
X175800000Y-52500000D03*
%TO.N,GND*%
X178400000Y-59600000D03*
%TO.N,+3V3*%
X181200000Y-52100000D03*
X190200000Y-61300000D03*
X188500000Y-61300000D03*
X180300000Y-55900000D03*
X187700000Y-50700000D03*
X189900000Y-42600000D03*
X190500000Y-51900000D03*
%TO.N,Net-(U3-VDDRF1V55)*%
X186100000Y-50700000D03*
X180200000Y-57600000D03*
%TO.N,+3V3*%
X178400000Y-58100000D03*
%TO.N,GND*%
X190300000Y-62900000D03*
X178700000Y-55900000D03*
X188500000Y-62900000D03*
X179600000Y-52100000D03*
X192100000Y-51900000D03*
X187700000Y-49200000D03*
%TO.N,/LoRa RF/RF-Switch*%
X181400000Y-53200000D03*
%TO.N,GND*%
X186100000Y-49200000D03*
D25*
%TO.N,/MCU/UART-TX*%
X184600000Y-64100000D03*
%TO.N,NRST*%
X184700000Y-65600000D03*
%TO.N,/MCU/UART-RX*%
X185500000Y-63300000D03*
%TO.N,/MCU/RS485-EN*%
X185800000Y-64700000D03*
%TO.N,+3V3*%
X192700000Y-59700000D03*
%TO.N,GND*%
X183700000Y-28800000D03*
X134625000Y-45725000D03*
X134200000Y-24800000D03*
X205700000Y-30500000D03*
X138800000Y-32400000D03*
%TO.N,+3V3*%
X177800000Y-35300000D03*
X141700000Y-60150000D03*
X169700000Y-37300000D03*
%TO.N,/MCU/ADC-CH2*%
X191800000Y-35000000D03*
%TO.N,+5V*%
X140300000Y-33700000D03*
%TO.N,+3V3*%
X143600000Y-60150000D03*
%TO.N,Vbat*%
X144400000Y-34500000D03*
%TO.N,+3V3*%
X178700000Y-36200000D03*
%TO.N,+5V*%
X136600000Y-47275000D03*
X140300000Y-32400000D03*
X140300000Y-33000000D03*
X140300000Y-34300000D03*
%TO.N,+3V3*%
X177600000Y-36200000D03*
%TO.N,GND*%
X188700000Y-44500000D03*
X193000000Y-29700000D03*
X143300000Y-23800000D03*
X139300000Y-21000000D03*
X149700000Y-23900000D03*
X148275000Y-35875000D03*
X178300000Y-42300000D03*
X144200000Y-32700000D03*
X167700000Y-37400000D03*
X139725000Y-61475000D03*
X173400000Y-35300000D03*
X164500000Y-42300000D03*
X143600000Y-61450000D03*
%TO.N,/MCU/RS485-EN*%
X170200000Y-43900000D03*
%TO.N,Vbat*%
X143900000Y-34000000D03*
X138700000Y-26400000D03*
X158600000Y-37600000D03*
X138700000Y-27000000D03*
%TO.N,/MCU/UART-RX*%
X175300000Y-44100000D03*
%TO.N,/MCU/12V-EN*%
X166100000Y-44900000D03*
%TO.N,Vbat*%
X156200000Y-37600000D03*
X138700000Y-27600000D03*
X157000000Y-37600000D03*
%TO.N,/analog/RS485+*%
X182700000Y-34300000D03*
%TO.N,/MCU/12V-EN*%
X137200000Y-21800000D03*
%TO.N,/analog/RS485+*%
X182700000Y-37300000D03*
%TO.N,Vbat*%
X157800000Y-37600000D03*
X144400000Y-33700000D03*
%TO.N,/MCU/UART-TX*%
X172900000Y-43900000D03*
%TO.N,GND*%
X188600000Y-46700000D03*
%TO.N,Net-(D1-A1)*%
X155800000Y-20700000D03*
%TO.N,GND*%
X201100000Y-66500000D03*
X127300000Y-59000000D03*
X185900000Y-58300000D03*
X194600000Y-48700000D03*
X185900000Y-56100000D03*
X148000000Y-58200000D03*
X193700000Y-74100000D03*
X139700000Y-65050000D03*
X194600000Y-60700000D03*
X196900000Y-62700000D03*
X183800000Y-56100000D03*
X178600000Y-73500000D03*
D24*
X213700000Y-69200000D03*
D25*
X183750000Y-58250000D03*
X127350000Y-57200000D03*
X194600000Y-44700000D03*
X188000000Y-54399000D03*
X199000000Y-62700000D03*
X198600000Y-44400000D03*
X144500000Y-62450000D03*
X196600000Y-44400000D03*
X201100000Y-68500000D03*
X188000000Y-56100000D03*
X188000000Y-58300000D03*
D24*
X198400000Y-48100000D03*
D25*
X201100000Y-70500000D03*
X202600000Y-44400000D03*
D24*
X213700000Y-62300000D03*
D25*
X157500000Y-28200000D03*
X194600000Y-54700000D03*
X200600000Y-44400000D03*
X191500000Y-74100000D03*
X194600000Y-58700000D03*
X173300000Y-74200000D03*
D24*
X202900000Y-56600000D03*
D25*
X183900000Y-54400000D03*
D24*
X204400000Y-48300000D03*
D25*
X145900000Y-58200000D03*
X127350000Y-58075000D03*
X155500000Y-82300000D03*
X201100000Y-64500000D03*
D24*
X209800000Y-48300000D03*
D25*
X186000000Y-54399000D03*
X167070000Y-62200000D03*
X194600000Y-52700000D03*
X160600000Y-73300000D03*
X194600000Y-62700000D03*
X194600000Y-50700000D03*
X146970000Y-58200000D03*
D24*
X134500000Y-58400000D03*
D25*
X201100000Y-72500000D03*
X201100000Y-62700000D03*
X158400000Y-28200000D03*
X194600000Y-46700000D03*
X204600000Y-44400000D03*
%TO.N,+3V3*%
X160900000Y-41200000D03*
X160900000Y-42800000D03*
X164330000Y-60300000D03*
X153500000Y-67850000D03*
X163700000Y-60300000D03*
X160900000Y-42000000D03*
X147900000Y-65150000D03*
%TO.N,/MCU/ADC-CH2*%
X184100000Y-50600000D03*
%TO.N,NRST*%
X165500000Y-64900000D03*
%TO.N,Net-(D7-K)*%
X150500000Y-58250000D03*
X154850000Y-58300000D03*
%TO.N,SWCLK*%
X171700000Y-55300000D03*
D24*
%TO.N,Net-(U2-RXD)*%
X186400000Y-60800000D03*
D25*
X159700000Y-66400000D03*
D24*
%TO.N,Net-(U2-TXD)*%
X187300000Y-60800000D03*
D25*
X160600000Y-67100000D03*
D24*
%TO.N,/LoRa RF/RF-Switch*%
X210900000Y-56100000D03*
D25*
%TO.N,Net-(D1-A1)*%
X155800000Y-21500000D03*
%TD*%
D26*
%TO.N,Net-(U2-RXD)*%
X185600000Y-66400000D02*
X159700000Y-66400000D01*
X186400000Y-65600000D02*
X185600000Y-66400000D01*
X186400000Y-60800000D02*
X186400000Y-65600000D01*
%TO.N,/LoRa RF/RF-Switch*%
X181700000Y-53500000D02*
X181400000Y-53200000D01*
X191500000Y-53500000D02*
X181700000Y-53500000D01*
X192000000Y-54000000D02*
X191500000Y-53500000D01*
X196200000Y-54000000D02*
X192000000Y-54000000D01*
X197200000Y-55000000D02*
X196200000Y-54000000D01*
X210200000Y-55000000D02*
X197200000Y-55000000D01*
X210900000Y-55700000D02*
X210200000Y-55000000D01*
X210900000Y-56100000D02*
X210900000Y-55700000D01*
%TO.N,/analog/RS485+*%
X182700000Y-34300000D02*
X182700000Y-37300000D01*
%TO.N,SWCLK*%
X180600000Y-55300000D02*
X171700000Y-55300000D01*
X181100000Y-55800000D02*
X180600000Y-55300000D01*
X181300000Y-55800000D02*
X181100000Y-55800000D01*
X181600000Y-56100000D02*
X181300000Y-55800000D01*
X181625000Y-56200000D02*
X181600000Y-56175000D01*
X181600000Y-56175000D02*
X181600000Y-56100000D01*
%TO.N,/MCU/ADC-CH2*%
X184100000Y-44300000D02*
X185600000Y-42800000D01*
X191800000Y-36600000D02*
X191800000Y-35000000D01*
X184100000Y-50600000D02*
X184100000Y-44300000D01*
X185600000Y-42800000D02*
X191800000Y-36600000D01*
%TO.N,NRST*%
X166200000Y-65600000D02*
X165500000Y-64900000D01*
X184700000Y-65600000D02*
X166200000Y-65600000D01*
%TO.N,Net-(D7-K)*%
X150500000Y-58250000D02*
X154800000Y-58250000D01*
X154800000Y-58250000D02*
X154850000Y-58300000D01*
%TO.N,/MCU/UART-RX*%
X185500000Y-63300000D02*
X172300000Y-63300000D01*
X172300000Y-63300000D02*
X170800000Y-61800000D01*
X175300000Y-45500000D02*
X175300000Y-44100000D01*
X170800000Y-50000000D02*
X175300000Y-45500000D01*
X170800000Y-61800000D02*
X170800000Y-50000000D01*
%TO.N,/MCU/RS485-EN*%
X171800000Y-64700000D02*
X169200000Y-62100000D01*
X185800000Y-64700000D02*
X171800000Y-64700000D01*
X169200000Y-62100000D02*
X169200000Y-47800000D01*
X170200000Y-46800000D02*
X170200000Y-43900000D01*
X169200000Y-47800000D02*
X170200000Y-46800000D01*
%TO.N,/MCU/12V-EN*%
X139000000Y-18300000D02*
X137200000Y-20100000D01*
X160200000Y-18300000D02*
X139000000Y-18300000D01*
X137200000Y-20100000D02*
X137200000Y-21800000D01*
X166100000Y-44900000D02*
X166100000Y-33500000D01*
X161500000Y-28900000D02*
X161500000Y-19600000D01*
X166100000Y-33500000D02*
X161500000Y-28900000D01*
X161500000Y-19600000D02*
X160200000Y-18300000D01*
%TO.N,/MCU/UART-TX*%
X184600000Y-64100000D02*
X184500000Y-64000000D01*
X172900000Y-45600000D02*
X172900000Y-43900000D01*
X172000000Y-64000000D02*
X170000000Y-62000000D01*
X170000000Y-62000000D02*
X170000000Y-48500000D01*
X184600000Y-64100000D02*
X184700000Y-64100000D01*
X184500000Y-64000000D02*
X172000000Y-64000000D01*
X170000000Y-48500000D02*
X172900000Y-45600000D01*
%TO.N,Net-(U2-TXD)*%
X186200000Y-67100000D02*
X187300000Y-66000000D01*
X160600000Y-67100000D02*
X186200000Y-67100000D01*
X187300000Y-66000000D02*
X187300000Y-60800000D01*
%TD*%
%TA.AperFunction,Conductor*%
%TO.N,+3V3*%
G36*
X143852508Y-59000597D02*
G01*
X144000818Y-59015204D01*
X144024644Y-59019943D01*
X144161409Y-59061430D01*
X144183853Y-59070728D01*
X144309883Y-59138092D01*
X144330093Y-59151596D01*
X144440558Y-59242251D01*
X144457748Y-59259441D01*
X144548403Y-59369906D01*
X144561907Y-59390116D01*
X144629268Y-59516138D01*
X144638571Y-59538596D01*
X144680054Y-59675346D01*
X144684796Y-59699188D01*
X144699403Y-59847491D01*
X144700000Y-59859645D01*
X144700000Y-61524665D01*
X144695921Y-61524665D01*
X144698379Y-61547500D01*
X144667112Y-61609984D01*
X144607028Y-61645644D01*
X144576346Y-61649500D01*
X144524500Y-61649500D01*
X144457461Y-61629815D01*
X144411706Y-61577011D01*
X144400500Y-61525500D01*
X144400500Y-61371155D01*
X144400499Y-61371153D01*
X144369738Y-61216510D01*
X144369737Y-61216503D01*
X144369735Y-61216498D01*
X144309397Y-61070827D01*
X144309390Y-61070814D01*
X144221789Y-60939711D01*
X144221786Y-60939707D01*
X144110292Y-60828213D01*
X144110288Y-60828210D01*
X143979185Y-60740609D01*
X143979172Y-60740602D01*
X143833501Y-60680264D01*
X143833489Y-60680261D01*
X143678845Y-60649500D01*
X143678842Y-60649500D01*
X143521158Y-60649500D01*
X143521155Y-60649500D01*
X143366510Y-60680261D01*
X143366498Y-60680264D01*
X143220827Y-60740602D01*
X143220814Y-60740609D01*
X143089711Y-60828210D01*
X143089707Y-60828213D01*
X142978213Y-60939707D01*
X142978210Y-60939711D01*
X142890609Y-61070814D01*
X142890602Y-61070827D01*
X142830264Y-61216498D01*
X142830261Y-61216510D01*
X142799500Y-61371153D01*
X142799500Y-61528846D01*
X142830261Y-61683489D01*
X142830264Y-61683501D01*
X142890602Y-61829172D01*
X142890609Y-61829185D01*
X142978210Y-61960288D01*
X142978213Y-61960292D01*
X143089707Y-62071786D01*
X143089711Y-62071789D01*
X143220814Y-62159390D01*
X143220827Y-62159397D01*
X143358695Y-62216503D01*
X143366503Y-62219737D01*
X143521153Y-62250499D01*
X143521156Y-62250500D01*
X143575500Y-62250500D01*
X143642539Y-62270185D01*
X143688294Y-62322989D01*
X143699500Y-62374500D01*
X143699500Y-62528846D01*
X143730261Y-62683489D01*
X143730264Y-62683501D01*
X143790602Y-62829172D01*
X143790609Y-62829185D01*
X143878210Y-62960288D01*
X143878213Y-62960292D01*
X143989707Y-63071786D01*
X143989711Y-63071789D01*
X144120814Y-63159390D01*
X144120827Y-63159397D01*
X144266498Y-63219735D01*
X144266503Y-63219737D01*
X144421153Y-63250499D01*
X144421156Y-63250500D01*
X144421158Y-63250500D01*
X144578844Y-63250500D01*
X144578845Y-63250499D01*
X144733497Y-63219737D01*
X144879179Y-63159394D01*
X145010289Y-63071789D01*
X145121789Y-62960289D01*
X145209394Y-62829179D01*
X145269737Y-62683497D01*
X145300500Y-62528842D01*
X145300500Y-62399862D01*
X145320185Y-62332823D01*
X145372989Y-62287068D01*
X145442147Y-62277124D01*
X145505703Y-62306149D01*
X145512181Y-62312181D01*
X145800000Y-62600000D01*
X154544387Y-62600000D01*
X154560572Y-62601061D01*
X154690967Y-62618228D01*
X154722235Y-62626606D01*
X154836174Y-62673801D01*
X154864207Y-62689986D01*
X154968553Y-62770053D01*
X154980748Y-62780748D01*
X155150000Y-62950000D01*
X155146592Y-62953408D01*
X156446592Y-64253408D01*
X156453408Y-64253408D01*
X156518071Y-64318071D01*
X156533488Y-64336857D01*
X156567248Y-64387382D01*
X156585763Y-64432081D01*
X156597617Y-64491674D01*
X156600000Y-64515866D01*
X156600000Y-67593907D01*
X156599403Y-67606061D01*
X156581982Y-67782934D01*
X156577240Y-67806775D01*
X156527424Y-67970998D01*
X156518121Y-67993456D01*
X156437227Y-68144798D01*
X156423722Y-68165010D01*
X156314854Y-68297666D01*
X156297666Y-68314854D01*
X156165010Y-68423722D01*
X156144798Y-68437227D01*
X155993456Y-68518121D01*
X155970998Y-68527424D01*
X155806775Y-68577240D01*
X155782934Y-68581982D01*
X155606061Y-68599403D01*
X155593907Y-68600000D01*
X151106093Y-68600000D01*
X151093939Y-68599403D01*
X150917065Y-68581982D01*
X150893224Y-68577240D01*
X150729001Y-68527424D01*
X150706543Y-68518121D01*
X150555201Y-68437227D01*
X150534989Y-68423722D01*
X150402333Y-68314854D01*
X150385145Y-68297666D01*
X150276277Y-68165010D01*
X150262772Y-68144798D01*
X150181878Y-67993456D01*
X150172575Y-67970998D01*
X150122757Y-67806769D01*
X150118018Y-67782941D01*
X150100597Y-67606061D01*
X150100000Y-67593907D01*
X150100000Y-66100000D01*
X149800000Y-65800000D01*
X149587868Y-65800000D01*
X141482923Y-65800000D01*
X141458731Y-65797617D01*
X141429574Y-65791817D01*
X141384874Y-65773301D01*
X141370507Y-65763701D01*
X141336298Y-65729492D01*
X141326698Y-65715125D01*
X141308182Y-65670425D01*
X141302381Y-65641263D01*
X141300000Y-65617076D01*
X141300000Y-59182923D01*
X141302382Y-59158735D01*
X141303802Y-59151596D01*
X141308183Y-59129572D01*
X141326698Y-59084874D01*
X141336298Y-59070507D01*
X141370507Y-59036298D01*
X141372537Y-59034941D01*
X141384875Y-59026697D01*
X141429572Y-59008183D01*
X141458737Y-59002381D01*
X141482923Y-59000000D01*
X143840354Y-59000000D01*
X143852508Y-59000597D01*
G37*
%TD.AperFunction*%
%TD*%
%TA.AperFunction,Conductor*%
%TO.N,+5V*%
G36*
X140982941Y-31718018D02*
G01*
X141006769Y-31722757D01*
X141171001Y-31772576D01*
X141193453Y-31781877D01*
X141344798Y-31862772D01*
X141365010Y-31876277D01*
X141497666Y-31985145D01*
X141514854Y-32002333D01*
X141623722Y-32134989D01*
X141637227Y-32155201D01*
X141718121Y-32306543D01*
X141727424Y-32329001D01*
X141777240Y-32493224D01*
X141781982Y-32517065D01*
X141799403Y-32693938D01*
X141800000Y-32706092D01*
X141800000Y-44579693D01*
X141799403Y-44591847D01*
X141781982Y-44768721D01*
X141777240Y-44792562D01*
X141727424Y-44956785D01*
X141718121Y-44979243D01*
X141637227Y-45130585D01*
X141623722Y-45150797D01*
X141510969Y-45288186D01*
X141502797Y-45297202D01*
X136897202Y-49902797D01*
X136888186Y-49910969D01*
X136750797Y-50023722D01*
X136730585Y-50037227D01*
X136579243Y-50118121D01*
X136556785Y-50127424D01*
X136392562Y-50177240D01*
X136368721Y-50181982D01*
X136191847Y-50199403D01*
X136179693Y-50200000D01*
X127959646Y-50200000D01*
X127947492Y-50199403D01*
X127799188Y-50184796D01*
X127775348Y-50180054D01*
X127638596Y-50138571D01*
X127616141Y-50129269D01*
X127490116Y-50061907D01*
X127469906Y-50048403D01*
X127359441Y-49957748D01*
X127342251Y-49940558D01*
X127251596Y-49830093D01*
X127238092Y-49809883D01*
X127170728Y-49683853D01*
X127161430Y-49661409D01*
X127119943Y-49524644D01*
X127115204Y-49500818D01*
X127100597Y-49352508D01*
X127100000Y-49340354D01*
X127100000Y-47779143D01*
X127100597Y-47766989D01*
X127117500Y-47595364D01*
X127122239Y-47571540D01*
X127170527Y-47412355D01*
X127179821Y-47389918D01*
X127258235Y-47243216D01*
X127271733Y-47223016D01*
X127377256Y-47094435D01*
X127394435Y-47077256D01*
X127523016Y-46971733D01*
X127543216Y-46958235D01*
X127689918Y-46879821D01*
X127712355Y-46870527D01*
X127871540Y-46822239D01*
X127895364Y-46817500D01*
X128066990Y-46800597D01*
X128079144Y-46800000D01*
X131099999Y-46800000D01*
X131100000Y-46800000D01*
X131244266Y-46655733D01*
X131256430Y-46645065D01*
X131343124Y-46578543D01*
X131371143Y-46562367D01*
X131464502Y-46523697D01*
X131495768Y-46515319D01*
X131604073Y-46501061D01*
X131620258Y-46500000D01*
X136100000Y-46500000D01*
X139800000Y-42800000D01*
X139800000Y-32706092D01*
X139800597Y-32693938D01*
X139818018Y-32517056D01*
X139822757Y-32493232D01*
X139872577Y-32328994D01*
X139881875Y-32306549D01*
X139962775Y-32155195D01*
X139976272Y-32134995D01*
X140085149Y-32002328D01*
X140102328Y-31985149D01*
X140234995Y-31876272D01*
X140255195Y-31862775D01*
X140406549Y-31781875D01*
X140428994Y-31772577D01*
X140593232Y-31722757D01*
X140617056Y-31718018D01*
X140787847Y-31701197D01*
X140812153Y-31701197D01*
X140982941Y-31718018D01*
G37*
%TD.AperFunction*%
%TD*%
%TA.AperFunction,Conductor*%
%TO.N,Vbat*%
G36*
X158741261Y-31902381D02*
G01*
X158770427Y-31908183D01*
X158815125Y-31926698D01*
X158829492Y-31936298D01*
X158863701Y-31970507D01*
X158873301Y-31984874D01*
X158891817Y-32029574D01*
X158897617Y-32058731D01*
X158900000Y-32082923D01*
X158900000Y-38210817D01*
X158880315Y-38277856D01*
X158879103Y-38279706D01*
X158864033Y-38302259D01*
X158849500Y-38375323D01*
X158849500Y-38874324D01*
X158840557Y-38904777D01*
X158833258Y-38935677D01*
X158830783Y-38938065D01*
X158829815Y-38941363D01*
X158805833Y-38962143D01*
X158782982Y-38984196D01*
X158778597Y-38985742D01*
X158777011Y-38987118D01*
X158749698Y-38995940D01*
X158741271Y-38997616D01*
X158717077Y-39000000D01*
X156082923Y-39000000D01*
X156058731Y-38997617D01*
X156029574Y-38991817D01*
X155984874Y-38973301D01*
X155970507Y-38963701D01*
X155936298Y-38929492D01*
X155926698Y-38915125D01*
X155908182Y-38870425D01*
X155902381Y-38841263D01*
X155900000Y-38817076D01*
X155900000Y-34800000D01*
X155850000Y-34800000D01*
X145400000Y-34800000D01*
X145400000Y-31900000D01*
X158717077Y-31900000D01*
X158741261Y-31902381D01*
G37*
%TD.AperFunction*%
%TD*%
%TA.AperFunction,Conductor*%
%TO.N,+3V3*%
G36*
X164104650Y-59854468D02*
G01*
X164222758Y-59870018D01*
X164254024Y-59878396D01*
X164356508Y-59920846D01*
X164384542Y-59937031D01*
X164472551Y-60004562D01*
X164495439Y-60027450D01*
X164562968Y-60115457D01*
X164579153Y-60143491D01*
X164621603Y-60245975D01*
X164629981Y-60277241D01*
X164645531Y-60395348D01*
X164646592Y-60411534D01*
X164646592Y-60533101D01*
X164645995Y-60545255D01*
X164628574Y-60722129D01*
X164623832Y-60745970D01*
X164574016Y-60910193D01*
X164564713Y-60932651D01*
X164483819Y-61083993D01*
X164470314Y-61104205D01*
X164357561Y-61241594D01*
X164349389Y-61250610D01*
X161643794Y-63956205D01*
X161634778Y-63964377D01*
X161497389Y-64077130D01*
X161477177Y-64090635D01*
X161325835Y-64171529D01*
X161303377Y-64180832D01*
X161139154Y-64230648D01*
X161115313Y-64235390D01*
X160938439Y-64252811D01*
X160926285Y-64253408D01*
X156446592Y-64253408D01*
X155146592Y-62953408D01*
X157949399Y-60150600D01*
X157958394Y-60142447D01*
X158095800Y-60029680D01*
X158116000Y-60016183D01*
X158267354Y-59935283D01*
X158289799Y-59925985D01*
X158454037Y-59876165D01*
X158477861Y-59871426D01*
X158654745Y-59854005D01*
X158666899Y-59853408D01*
X164088466Y-59853408D01*
X164104650Y-59854468D01*
G37*
%TD.AperFunction*%
%TD*%
%TA.AperFunction,Conductor*%
%TO.N,Vbat*%
G36*
X144908059Y-26001061D02*
G01*
X145013223Y-26014906D01*
X145044491Y-26023284D01*
X145134918Y-26060740D01*
X145162952Y-26076925D01*
X145240602Y-26136509D01*
X145263491Y-26159398D01*
X145323074Y-26237048D01*
X145339259Y-26265081D01*
X145376715Y-26355508D01*
X145385093Y-26386775D01*
X145398939Y-26491939D01*
X145400000Y-26508125D01*
X145400000Y-34800000D01*
X143608126Y-34800000D01*
X143591941Y-34798939D01*
X143578917Y-34797224D01*
X143486775Y-34785093D01*
X143455508Y-34776715D01*
X143365081Y-34739259D01*
X143337048Y-34723074D01*
X143259398Y-34663491D01*
X143236508Y-34640601D01*
X143176925Y-34562951D01*
X143160740Y-34534918D01*
X143123284Y-34444491D01*
X143114906Y-34413223D01*
X143101061Y-34308059D01*
X143100000Y-34291874D01*
X143100000Y-32627525D01*
X143649500Y-32627525D01*
X143649500Y-32772475D01*
X143667730Y-32840509D01*
X143687017Y-32912488D01*
X143759488Y-33038011D01*
X143759490Y-33038013D01*
X143759491Y-33038015D01*
X143861985Y-33140509D01*
X143861986Y-33140510D01*
X143861988Y-33140511D01*
X143987511Y-33212982D01*
X143987512Y-33212982D01*
X143987515Y-33212984D01*
X144127525Y-33250500D01*
X144127528Y-33250500D01*
X144272472Y-33250500D01*
X144272475Y-33250500D01*
X144412485Y-33212984D01*
X144538015Y-33140509D01*
X144640509Y-33038015D01*
X144712984Y-32912485D01*
X144750500Y-32772475D01*
X144750500Y-32627525D01*
X144712984Y-32487515D01*
X144640509Y-32361985D01*
X144538015Y-32259491D01*
X144538013Y-32259490D01*
X144538011Y-32259488D01*
X144412488Y-32187017D01*
X144412489Y-32187017D01*
X144401006Y-32183940D01*
X144272475Y-32149500D01*
X144127525Y-32149500D01*
X143998993Y-32183940D01*
X143987511Y-32187017D01*
X143861988Y-32259488D01*
X143861982Y-32259493D01*
X143759493Y-32361982D01*
X143759488Y-32361988D01*
X143687017Y-32487511D01*
X143687016Y-32487515D01*
X143649500Y-32627525D01*
X143100000Y-32627525D01*
X143100000Y-28100000D01*
X142600000Y-28100000D01*
X138508126Y-28100000D01*
X138491941Y-28098939D01*
X138478917Y-28097224D01*
X138386775Y-28085093D01*
X138355508Y-28076715D01*
X138265081Y-28039259D01*
X138237048Y-28023074D01*
X138159398Y-27963491D01*
X138136508Y-27940601D01*
X138076925Y-27862951D01*
X138060740Y-27834918D01*
X138023284Y-27744491D01*
X138014906Y-27713223D01*
X138001061Y-27608059D01*
X138000000Y-27591874D01*
X138000000Y-26508125D01*
X138001061Y-26491940D01*
X138014906Y-26386776D01*
X138014906Y-26386775D01*
X138023284Y-26355508D01*
X138060740Y-26265081D01*
X138076923Y-26237050D01*
X138136513Y-26159392D01*
X138159392Y-26136513D01*
X138237050Y-26076923D01*
X138265079Y-26060740D01*
X138355509Y-26023283D01*
X138386775Y-26014906D01*
X138491941Y-26001061D01*
X138508126Y-26000000D01*
X144891874Y-26000000D01*
X144908059Y-26001061D01*
G37*
%TD.AperFunction*%
%TD*%
M02*
