M48
; DRILL file {KiCad 9.0.6} date 2025-12-23T13:53:11+0100
; FORMAT={-:-/ absolute / metric / decimal}
; #@! TF.CreationDate,2025-12-23T13:53:11+01:00
; #@! TF.GenerationSoftware,Kicad,Pcbnew,9.0.6
; #@! TF.FileFunction,Plated,1,4,PTH
FMAT,2
METRIC
; #@! TA.AperFunction,Plated,PTH,ViaDrill
T1C0.200
; #@! TA.AperFunction,Plated,PTH,ComponentDrill
T2C0.200
; #@! TA.AperFunction,Plated,PTH,ComponentDrill
T3C0.820
; #@! TA.AperFunction,Plated,PTH,ComponentDrill
T4C1.100
; #@! TA.AperFunction,Plated,PTH,ComponentDrill
T5C1.200
; #@! TA.AperFunction,Plated,PTH,ComponentDrill
T6C1.300
; #@! TA.AperFunction,Plated,PTH,ComponentDrill
T7C1.500
%
G90
G05
T1
X127.3Y-59.0
X127.35Y-57.2
X127.35Y-58.075
X134.2Y-24.8
X134.5Y-58.4
X134.625Y-45.725
X136.6Y-47.275
X137.2Y-21.8
X138.7Y-26.4
X138.7Y-27.0
X138.7Y-27.6
X138.8Y-32.4
X139.3Y-21.0
X139.7Y-65.05
X139.725Y-61.475
X140.3Y-32.4
X140.3Y-33.0
X140.3Y-33.7
X140.3Y-34.3
X141.7Y-60.15
X143.3Y-23.8
X143.6Y-60.15
X143.6Y-61.45
X143.9Y-34.0
X144.2Y-32.7
X144.4Y-33.7
X144.4Y-34.5
X144.5Y-62.45
X145.9Y-58.2
X146.97Y-58.2
X147.9Y-65.15
X148.0Y-58.2
X148.275Y-35.875
X149.7Y-23.9
X150.5Y-58.25
X153.5Y-67.85
X154.85Y-58.3
X155.5Y-82.3
X155.8Y-20.7
X155.8Y-21.5
X156.2Y-37.6
X157.0Y-37.6
X157.5Y-28.2
X157.8Y-37.6
X158.4Y-28.2
X158.6Y-37.6
X159.7Y-66.4
X160.6Y-67.1
X160.6Y-73.3
X160.9Y-41.2
X160.9Y-42.0
X160.9Y-42.8
X163.7Y-60.3
X164.33Y-60.3
X164.5Y-42.3
X165.5Y-64.9
X166.1Y-44.9
X167.07Y-62.2
X167.7Y-37.4
X169.7Y-37.3
X170.2Y-43.9
X171.7Y-55.3
X172.9Y-43.9
X173.3Y-74.2
X173.4Y-35.3
X174.0Y-52.4
X175.3Y-44.1
X175.8Y-52.5
X177.6Y-36.2
X177.8Y-35.3
X178.3Y-42.3
X178.4Y-58.1
X178.4Y-59.6
X178.6Y-73.5
X178.7Y-36.2
X178.7Y-55.9
X178.8Y-54.2
X179.6Y-52.1
X180.2Y-57.6
X180.3Y-55.9
X181.2Y-52.1
X181.4Y-53.2
X181.625Y-56.2
X182.7Y-34.3
X182.7Y-37.3
X183.7Y-28.8
X183.75Y-58.25
X183.8Y-56.1
X183.9Y-54.4
X184.1Y-50.6
X184.6Y-64.1
X184.7Y-65.6
X185.5Y-63.3
X185.8Y-64.7
X185.9Y-56.1
X185.9Y-58.3
X186.0Y-54.399
X186.1Y-49.2
X186.1Y-50.7
X186.4Y-60.8
X187.3Y-60.8
X187.7Y-49.2
X187.7Y-50.7
X188.0Y-54.399
X188.0Y-56.1
X188.0Y-58.3
X188.5Y-61.3
X188.5Y-62.9
X188.6Y-46.7
X188.7Y-44.5
X189.9Y-42.6
X190.2Y-61.3
X190.3Y-62.9
X190.5Y-51.9
X191.5Y-74.1
X191.8Y-35.0
X192.1Y-51.9
X192.7Y-59.7
X193.0Y-29.7
X193.7Y-74.1
X194.6Y-44.7
X194.6Y-46.7
X194.6Y-48.7
X194.6Y-50.7
X194.6Y-52.7
X194.6Y-54.7
X194.6Y-58.7
X194.6Y-60.7
X194.6Y-62.7
X196.6Y-44.4
X196.9Y-62.7
X198.4Y-48.1
X198.6Y-44.4
X199.0Y-62.7
X200.6Y-44.4
X201.1Y-62.7
X201.1Y-64.5
X201.1Y-66.5
X201.1Y-68.5
X201.1Y-70.5
X201.1Y-72.5
X202.6Y-44.4
X202.9Y-56.6
X204.4Y-48.3
X204.6Y-44.4
X205.7Y-30.5
X209.05Y-57.2
X209.8Y-48.3
X210.9Y-56.1
X213.7Y-62.3
X213.7Y-69.2
T2
X142.4Y-34.7
X142.4Y-35.65
X142.4Y-36.6
X159.35Y-38.65
X159.35Y-39.4
X159.35Y-40.15
X160.05Y-38.65
X160.05Y-39.4
X160.05Y-40.15
T4
X130.1Y-45.46
X130.1Y-48.0
X212.2Y-79.0
T5
X131.4Y-32.39
X131.4Y-36.2
T6
X163.54Y-80.9
X167.26Y-23.1
X168.62Y-80.9
X172.34Y-23.1
X173.7Y-80.9
X177.42Y-23.1
X182.125Y-80.828
X182.5Y-23.1
X187.205Y-80.828
X192.285Y-80.828
X194.34Y-23.1
X199.42Y-23.1
X204.5Y-23.1
T7
X207.175Y-73.975
X207.175Y-84.025
X217.225Y-73.975
X217.225Y-84.025
T3
G00X127.94Y-53.9
M15
G01X127.46Y-53.9
M16
G05
G00X127.94Y-62.25
M15
G01X127.46Y-62.25
M16
G05
G00X130.715Y-55.85
M15
G01X130.685Y-55.85
M16
G05
G00X130.715Y-60.3
M15
G01X130.685Y-60.3
M16
G05
M30
