%TF.GenerationSoftware,KiCad,Pcbnew,9.0.6*%
%TF.CreationDate,2025-12-23T13:53:16+01:00*%
%TF.ProjectId,demo wateranalyser,64656d6f-2077-4617-9465-72616e616c79,rev?*%
%TF.SameCoordinates,Original*%
%TF.FileFunction,Copper,L1,Top*%
%TF.FilePolarity,Positive*%
%FSLAX46Y46*%
G04 Gerber Fmt 4.6, Leading zero omitted, Abs format (unit mm)*
G04 Created by KiCad (PCBNEW 9.0.6) date 2025-12-23 13:53:16*
%MOMM*%
%LPD*%
G01*
G04 APERTURE LIST*
G04 Aperture macros list*
%AMRoundRect*
0 Rectangle with rounded corners*
0 $1 Rounding radius*
0 $2 $3 $4 $5 $6 $7 $8 $9 X,Y pos of 4 corners*
0 Add a 4 corners polygon primitive as box body*
4,1,4,$2,$3,$4,$5,$6,$7,$8,$9,$2,$3,0*
0 Add four circle primitives for the rounded corners*
1,1,$1+$1,$2,$3*
1,1,$1+$1,$4,$5*
1,1,$1+$1,$6,$7*
1,1,$1+$1,$8,$9*
0 Add four rect primitives between the rounded corners*
20,1,$1+$1,$2,$3,$4,$5,0*
20,1,$1+$1,$4,$5,$6,$7,0*
20,1,$1+$1,$6,$7,$8,$9,0*
20,1,$1+$1,$8,$9,$2,$3,0*%
G04 Aperture macros list end*
%TA.AperFunction,Conductor*%
%ADD10C,0.200000*%
%TD*%
%TA.AperFunction,HeatsinkPad*%
%ADD11O,2.000000X1.400000*%
%TD*%
%TA.AperFunction,SMDPad,CuDef*%
%ADD12R,1.900000X0.875000*%
%TD*%
%TA.AperFunction,HeatsinkPad*%
%ADD13O,1.500000X1.100000*%
%TD*%
%TA.AperFunction,SMDPad,CuDef*%
%ADD14RoundRect,0.250000X-0.700000X1.200000X-0.700000X-1.200000X0.700000X-1.200000X0.700000X1.200000X0*%
%TD*%
%TA.AperFunction,SMDPad,CuDef*%
%ADD15RoundRect,0.100000X-0.575000X0.100000X-0.575000X-0.100000X0.575000X-0.100000X0.575000X0.100000X0*%
%TD*%
%TA.AperFunction,SMDPad,CuDef*%
%ADD16RoundRect,0.218750X0.218750X0.256250X-0.218750X0.256250X-0.218750X-0.256250X0.218750X-0.256250X0*%
%TD*%
%TA.AperFunction,ComponentPad*%
%ADD17RoundRect,0.250000X-1.050000X-1.050000X1.050000X-1.050000X1.050000X1.050000X-1.050000X1.050000X0*%
%TD*%
%TA.AperFunction,ComponentPad*%
%ADD18C,2.600000*%
%TD*%
%TA.AperFunction,SMDPad,CuDef*%
%ADD19RoundRect,0.200000X-0.275000X0.200000X-0.275000X-0.200000X0.275000X-0.200000X0.275000X0.200000X0*%
%TD*%
%TA.AperFunction,SMDPad,CuDef*%
%ADD20RoundRect,0.218750X-0.381250X0.218750X-0.381250X-0.218750X0.381250X-0.218750X0.381250X0.218750X0*%
%TD*%
%TA.AperFunction,SMDPad,CuDef*%
%ADD21RoundRect,0.225000X0.250000X-0.225000X0.250000X0.225000X-0.250000X0.225000X-0.250000X-0.225000X0*%
%TD*%
%TA.AperFunction,SMDPad,CuDef*%
%ADD22RoundRect,0.200000X0.275000X-0.200000X0.275000X0.200000X-0.275000X0.200000X-0.275000X-0.200000X0*%
%TD*%
%TA.AperFunction,SMDPad,CuDef*%
%ADD23RoundRect,0.225000X-0.250000X0.225000X-0.250000X-0.225000X0.250000X-0.225000X0.250000X0.225000X0*%
%TD*%
%TA.AperFunction,SMDPad,CuDef*%
%ADD24RoundRect,0.225000X0.225000X0.250000X-0.225000X0.250000X-0.225000X-0.250000X0.225000X-0.250000X0*%
%TD*%
%TA.AperFunction,SMDPad,CuDef*%
%ADD25RoundRect,0.218750X-0.218750X-0.381250X0.218750X-0.381250X0.218750X0.381250X-0.218750X0.381250X0*%
%TD*%
%TA.AperFunction,ComponentPad*%
%ADD26RoundRect,0.250000X1.050000X1.050000X-1.050000X1.050000X-1.050000X-1.050000X1.050000X-1.050000X0*%
%TD*%
%TA.AperFunction,SMDPad,CuDef*%
%ADD27RoundRect,0.218750X0.381250X-0.218750X0.381250X0.218750X-0.381250X0.218750X-0.381250X-0.218750X0*%
%TD*%
%TA.AperFunction,ComponentPad*%
%ADD28RoundRect,0.250000X1.550000X-0.650000X1.550000X0.650000X-1.550000X0.650000X-1.550000X-0.650000X0*%
%TD*%
%TA.AperFunction,ComponentPad*%
%ADD29O,3.600000X1.800000*%
%TD*%
%TA.AperFunction,SMDPad,CuDef*%
%ADD30RoundRect,0.218750X-0.256250X0.218750X-0.256250X-0.218750X0.256250X-0.218750X0.256250X0.218750X0*%
%TD*%
%TA.AperFunction,SMDPad,CuDef*%
%ADD31RoundRect,0.225000X-0.225000X-0.250000X0.225000X-0.250000X0.225000X0.250000X-0.225000X0.250000X0*%
%TD*%
%TA.AperFunction,SMDPad,CuDef*%
%ADD32RoundRect,0.218750X0.256250X-0.218750X0.256250X0.218750X-0.256250X0.218750X-0.256250X-0.218750X0*%
%TD*%
%TA.AperFunction,SMDPad,CuDef*%
%ADD33RoundRect,0.062500X-0.062500X-0.062500X0.062500X-0.062500X0.062500X0.062500X-0.062500X0.062500X0*%
%TD*%
%TA.AperFunction,SMDPad,CuDef*%
%ADD34RoundRect,0.062500X-0.337500X-0.062500X0.337500X-0.062500X0.337500X0.062500X-0.337500X0.062500X0*%
%TD*%
%TA.AperFunction,SMDPad,CuDef*%
%ADD35RoundRect,0.062500X-0.062500X-0.337500X0.062500X-0.337500X0.062500X0.337500X-0.062500X0.337500X0*%
%TD*%
%TA.AperFunction,HeatsinkPad*%
%ADD36R,3.350000X3.350000*%
%TD*%
%TA.AperFunction,SMDPad,CuDef*%
%ADD37RoundRect,0.150000X0.150000X-0.587500X0.150000X0.587500X-0.150000X0.587500X-0.150000X-0.587500X0*%
%TD*%
%TA.AperFunction,SMDPad,CuDef*%
%ADD38RoundRect,0.250000X-1.000000X-0.650000X1.000000X-0.650000X1.000000X0.650000X-1.000000X0.650000X0*%
%TD*%
%TA.AperFunction,SMDPad,CuDef*%
%ADD39RoundRect,0.062500X-0.350000X-0.062500X0.350000X-0.062500X0.350000X0.062500X-0.350000X0.062500X0*%
%TD*%
%TA.AperFunction,HeatsinkPad*%
%ADD40C,0.500000*%
%TD*%
%TA.AperFunction,HeatsinkPad*%
%ADD41R,1.200000X2.000000*%
%TD*%
%TA.AperFunction,SMDPad,CuDef*%
%ADD42R,1.600000X1.400000*%
%TD*%
%TA.AperFunction,SMDPad,CuDef*%
%ADD43RoundRect,0.200000X0.200000X0.275000X-0.200000X0.275000X-0.200000X-0.275000X0.200000X-0.275000X0*%
%TD*%
%TA.AperFunction,SMDPad,CuDef*%
%ADD44RoundRect,0.150000X0.512500X0.150000X-0.512500X0.150000X-0.512500X-0.150000X0.512500X-0.150000X0*%
%TD*%
%TA.AperFunction,ConnectorPad*%
%ADD45C,0.787400*%
%TD*%
%TA.AperFunction,SMDPad,CuDef*%
%ADD46RoundRect,0.250000X1.000000X0.650000X-1.000000X0.650000X-1.000000X-0.650000X1.000000X-0.650000X0*%
%TD*%
%TA.AperFunction,SMDPad,CuDef*%
%ADD47RoundRect,0.243750X-0.456250X0.243750X-0.456250X-0.243750X0.456250X-0.243750X0.456250X0.243750X0*%
%TD*%
%TA.AperFunction,SMDPad,CuDef*%
%ADD48RoundRect,0.162500X-0.617500X-0.162500X0.617500X-0.162500X0.617500X0.162500X-0.617500X0.162500X0*%
%TD*%
%TA.AperFunction,ComponentPad*%
%ADD49RoundRect,0.250001X-0.799999X0.799999X-0.799999X-0.799999X0.799999X-0.799999X0.799999X0.799999X0*%
%TD*%
%TA.AperFunction,ComponentPad*%
%ADD50C,2.100000*%
%TD*%
%TA.AperFunction,SMDPad,CuDef*%
%ADD51RoundRect,0.218750X-0.218750X-0.256250X0.218750X-0.256250X0.218750X0.256250X-0.218750X0.256250X0*%
%TD*%
%TA.AperFunction,SMDPad,CuDef*%
%ADD52RoundRect,0.062500X0.062500X-0.375000X0.062500X0.375000X-0.062500X0.375000X-0.062500X-0.375000X0*%
%TD*%
%TA.AperFunction,SMDPad,CuDef*%
%ADD53RoundRect,0.062500X0.375000X-0.062500X0.375000X0.062500X-0.375000X0.062500X-0.375000X-0.062500X0*%
%TD*%
%TA.AperFunction,HeatsinkPad*%
%ADD54R,5.600000X5.600000*%
%TD*%
%TA.AperFunction,SMDPad,CuDef*%
%ADD55RoundRect,0.225000X0.325000X0.225000X-0.325000X0.225000X-0.325000X-0.225000X0.325000X-0.225000X0*%
%TD*%
%TA.AperFunction,SMDPad,CuDef*%
%ADD56RoundRect,0.150000X-0.825000X-0.150000X0.825000X-0.150000X0.825000X0.150000X-0.825000X0.150000X0*%
%TD*%
%TA.AperFunction,SMDPad,CuDef*%
%ADD57RoundRect,0.062500X-0.312500X-0.062500X0.312500X-0.062500X0.312500X0.062500X-0.312500X0.062500X0*%
%TD*%
%TA.AperFunction,HeatsinkPad*%
%ADD58R,0.840000X2.400000*%
%TD*%
%TA.AperFunction,ComponentPad*%
%ADD59R,3.500000X3.500000*%
%TD*%
%TA.AperFunction,ComponentPad*%
%ADD60C,4.000000*%
%TD*%
%TA.AperFunction,SMDPad,CuDef*%
%ADD61RoundRect,0.200000X-0.200000X-0.275000X0.200000X-0.275000X0.200000X0.275000X-0.200000X0.275000X0*%
%TD*%
%TA.AperFunction,SMDPad,CuDef*%
%ADD62RoundRect,0.250000X-0.650000X1.000000X-0.650000X-1.000000X0.650000X-1.000000X0.650000X1.000000X0*%
%TD*%
%TA.AperFunction,SMDPad,CuDef*%
%ADD63RoundRect,0.250000X-0.800000X0.450000X-0.800000X-0.450000X0.800000X-0.450000X0.800000X0.450000X0*%
%TD*%
%TA.AperFunction,ViaPad*%
%ADD64C,0.500000*%
%TD*%
%TA.AperFunction,ViaPad*%
%ADD65C,0.600000*%
%TD*%
%TA.AperFunction,Conductor*%
%ADD66C,0.250000*%
%TD*%
%TA.AperFunction,Conductor*%
%ADD67C,0.340000*%
%TD*%
%TA.AperFunction,Conductor*%
%ADD68C,0.450000*%
%TD*%
%TA.AperFunction,Conductor*%
%ADD69C,0.350000*%
%TD*%
%TA.AperFunction,Conductor*%
%ADD70C,0.150000*%
%TD*%
%TA.AperFunction,Conductor*%
%ADD71C,0.300000*%
%TD*%
%TA.AperFunction,Conductor*%
%ADD72C,0.210000*%
%TD*%
%TA.AperFunction,Conductor*%
%ADD73C,0.400000*%
%TD*%
G04 APERTURE END LIST*
D10*
%TO.N,Vbat*%
X161400000Y-38500000D02*
X160600000Y-38500000D01*
X160600000Y-38000000D01*
X156000000Y-38000000D01*
X156000000Y-37500000D01*
X161400000Y-37500000D01*
X161400000Y-38500000D01*
%TA.AperFunction,Conductor*%
G36*
X161400000Y-38500000D02*
G01*
X160600000Y-38500000D01*
X160600000Y-38000000D01*
X156000000Y-38000000D01*
X156000000Y-37500000D01*
X161400000Y-37500000D01*
X161400000Y-38500000D01*
G37*
%TD.AperFunction*%
X158800000Y-38900000D02*
X156000000Y-38900000D01*
X156000000Y-38000000D01*
X158800000Y-38000000D01*
X158800000Y-38900000D01*
%TA.AperFunction,Conductor*%
G36*
X158800000Y-38900000D02*
G01*
X156000000Y-38900000D01*
X156000000Y-38000000D01*
X158800000Y-38000000D01*
X158800000Y-38900000D01*
G37*
%TD.AperFunction*%
%TO.N,+3V3*%
X161600000Y-41600000D02*
X162300000Y-41600000D01*
X162300000Y-43000000D01*
X160600000Y-43000000D01*
X160600000Y-40300000D01*
X161600000Y-40300000D01*
X161600000Y-41600000D01*
%TA.AperFunction,Conductor*%
G36*
X161600000Y-41600000D02*
G01*
X162300000Y-41600000D01*
X162300000Y-43000000D01*
X160600000Y-43000000D01*
X160600000Y-40300000D01*
X161600000Y-40300000D01*
X161600000Y-41600000D01*
G37*
%TD.AperFunction*%
%TO.N,Net-(F1-Pad2)*%
X155500000Y-23800000D02*
X151400000Y-23800000D01*
X151400000Y-22500000D01*
X155500000Y-22500000D01*
X155500000Y-23800000D01*
%TA.AperFunction,Conductor*%
G36*
X155500000Y-23800000D02*
G01*
X151400000Y-23800000D01*
X151400000Y-22500000D01*
X155500000Y-22500000D01*
X155500000Y-23800000D01*
G37*
%TD.AperFunction*%
%TO.N,+5V*%
X142200000Y-33550000D02*
X141700000Y-33550000D01*
X141700000Y-34750000D01*
X140100000Y-34750000D01*
X140100000Y-31850000D01*
X142200000Y-31850000D01*
X142200000Y-33550000D01*
%TA.AperFunction,Conductor*%
G36*
X142200000Y-33550000D02*
G01*
X141700000Y-33550000D01*
X141700000Y-34750000D01*
X140100000Y-34750000D01*
X140100000Y-31850000D01*
X142200000Y-31850000D01*
X142200000Y-33550000D01*
G37*
%TD.AperFunction*%
%TO.N,Net-(BT1-+)*%
X134900000Y-36600000D02*
X141700000Y-36600000D01*
X141700000Y-37800000D01*
X129400000Y-37800000D01*
X129400000Y-35200000D01*
X134900000Y-35200000D01*
X134900000Y-36600000D01*
%TA.AperFunction,Conductor*%
G36*
X134900000Y-36600000D02*
G01*
X141700000Y-36600000D01*
X141700000Y-37800000D01*
X129400000Y-37800000D01*
X129400000Y-35200000D01*
X134900000Y-35200000D01*
X134900000Y-36600000D01*
G37*
%TD.AperFunction*%
%TO.N,Vbat*%
X140400000Y-24100000D02*
X138700000Y-24100000D01*
X138700000Y-26100000D01*
X140200000Y-26100000D01*
X140200000Y-29600000D01*
X136200000Y-29600000D01*
X136200000Y-26600000D01*
X136200000Y-24300000D01*
X138200000Y-24300000D01*
X138200000Y-23600000D01*
X140400000Y-23600000D01*
X140400000Y-24100000D01*
%TA.AperFunction,Conductor*%
G36*
X140400000Y-24100000D02*
G01*
X138700000Y-24100000D01*
X138700000Y-26100000D01*
X140200000Y-26100000D01*
X140200000Y-29600000D01*
X136200000Y-29600000D01*
X136200000Y-26600000D01*
X136200000Y-24300000D01*
X138200000Y-24300000D01*
X138200000Y-23600000D01*
X140400000Y-23600000D01*
X140400000Y-24100000D01*
G37*
%TD.AperFunction*%
%TO.N,Net-(D8-A)*%
X143100000Y-25200000D02*
X148300000Y-25200000D01*
X148300000Y-28100000D01*
X141500000Y-28100000D01*
X141500000Y-24500000D01*
X143100000Y-24500000D01*
X143100000Y-25200000D01*
%TA.AperFunction,Conductor*%
G36*
X143100000Y-25200000D02*
G01*
X148300000Y-25200000D01*
X148300000Y-28100000D01*
X141500000Y-28100000D01*
X141500000Y-24500000D01*
X143100000Y-24500000D01*
X143100000Y-25200000D01*
G37*
%TD.AperFunction*%
%TO.N,Net-(D1-A1)*%
X158900000Y-21700000D02*
X153900000Y-21700000D01*
X153900000Y-20500000D01*
X158900000Y-20500000D01*
X158900000Y-21700000D01*
%TA.AperFunction,Conductor*%
G36*
X158900000Y-21700000D02*
G01*
X153900000Y-21700000D01*
X153900000Y-20500000D01*
X158900000Y-20500000D01*
X158900000Y-21700000D01*
G37*
%TD.AperFunction*%
%TO.N,+12V*%
X153100000Y-21700000D02*
X148100000Y-21700000D01*
X148100000Y-23000000D01*
X143700000Y-23000000D01*
X143700000Y-22000000D01*
X145300000Y-22000000D01*
X145300000Y-20500000D01*
X153100000Y-20500000D01*
X153100000Y-21700000D01*
%TA.AperFunction,Conductor*%
G36*
X153100000Y-21700000D02*
G01*
X148100000Y-21700000D01*
X148100000Y-23000000D01*
X143700000Y-23000000D01*
X143700000Y-22000000D01*
X145300000Y-22000000D01*
X145300000Y-20500000D01*
X153100000Y-20500000D01*
X153100000Y-21700000D01*
G37*
%TD.AperFunction*%
%TO.N,Vbat*%
X146100000Y-34700000D02*
X143100000Y-34700000D01*
X143100000Y-33800000D01*
X143400000Y-33500000D01*
X146100000Y-33500000D01*
X146100000Y-34700000D01*
%TA.AperFunction,Conductor*%
G36*
X146100000Y-34700000D02*
G01*
X143100000Y-34700000D01*
X143100000Y-33800000D01*
X143400000Y-33500000D01*
X146100000Y-33500000D01*
X146100000Y-34700000D01*
G37*
%TD.AperFunction*%
%TO.N,+3V3*%
X144900000Y-60400000D02*
X144100000Y-60400000D01*
X140000000Y-60400000D01*
X140000000Y-59200000D01*
X144900000Y-59200000D01*
X144900000Y-60400000D01*
%TA.AperFunction,Conductor*%
G36*
X144900000Y-60400000D02*
G01*
X144100000Y-60400000D01*
X140000000Y-60400000D01*
X140000000Y-59200000D01*
X144900000Y-59200000D01*
X144900000Y-60400000D01*
G37*
%TD.AperFunction*%
%TO.N,GND*%
X158900000Y-28800000D02*
X157100000Y-28800000D01*
X157100000Y-26700000D01*
X158900000Y-26700000D01*
X158900000Y-28800000D01*
%TA.AperFunction,Conductor*%
G36*
X158900000Y-28800000D02*
G01*
X157100000Y-28800000D01*
X157100000Y-26700000D01*
X158900000Y-26700000D01*
X158900000Y-28800000D01*
G37*
%TD.AperFunction*%
%TO.N,+3V3*%
X179249353Y-35500000D02*
X179249353Y-37900000D01*
X177049353Y-37800000D01*
X175649353Y-36000000D01*
X175649353Y-34600000D01*
X178349353Y-34600000D01*
X179249353Y-35500000D01*
%TA.AperFunction,Conductor*%
G36*
X179249353Y-35500000D02*
G01*
X179249353Y-37900000D01*
X177049353Y-37800000D01*
X175649353Y-36000000D01*
X175649353Y-34600000D01*
X178349353Y-34600000D01*
X179249353Y-35500000D01*
G37*
%TD.AperFunction*%
%TD*%
D11*
%TO.P,J7,6,Shield*%
%TO.N,GND*%
X127700000Y-62250000D03*
D12*
X127700000Y-61812500D03*
D13*
X130700000Y-60300000D03*
D14*
X127700000Y-58075000D03*
D13*
X130700000Y-55850000D03*
D12*
X127700000Y-54337500D03*
D11*
X127700000Y-53900000D03*
D15*
%TO.P,J7,5,GND*%
X130375000Y-56775000D03*
%TO.P,J7,4,ID*%
%TO.N,unconnected-(J7-ID-Pad4)*%
X130375000Y-57425000D03*
%TO.P,J7,3,D+*%
%TO.N,/Power/USB_C+*%
X130375000Y-58075000D03*
%TO.P,J7,2,D-*%
%TO.N,/Power/USB_C-*%
X130375000Y-58725000D03*
%TO.P,J7,1,VBUS*%
%TO.N,Vbus*%
X130375000Y-59375000D03*
%TD*%
D16*
%TO.P,FB3,1*%
%TO.N,Net-(Y1-Vcc)*%
X191500000Y-42600000D03*
%TO.P,FB3,2*%
%TO.N,+3V3*%
X189925000Y-42600000D03*
%TD*%
D17*
%TO.P,J1,1,Pin_1*%
%TO.N,Net-(D1-A1)*%
X167260000Y-23100000D03*
D18*
%TO.P,J1,2,Pin_2*%
%TO.N,/analog/RS485+*%
X172340000Y-23100000D03*
%TO.P,J1,3,Pin_3*%
%TO.N,/analog/RS485-*%
X177420000Y-23100000D03*
%TO.P,J1,4,Pin_4*%
%TO.N,GND*%
X182500000Y-23100000D03*
%TD*%
D19*
%TO.P,R23,1*%
%TO.N,Net-(U6-CHG)*%
X145300000Y-35875000D03*
%TO.P,R23,2*%
%TO.N,Net-(U6-BAT)*%
X145300000Y-37525000D03*
%TD*%
D20*
%TO.P,L8,1,1*%
%TO.N,Net-(U7-LX1)*%
X162900000Y-38337500D03*
%TO.P,L8,2,2*%
%TO.N,Net-(U7-LX2)*%
X162900000Y-40462500D03*
%TD*%
D21*
%TO.P,C32,1*%
%TO.N,+5V*%
X135600000Y-47275000D03*
%TO.P,C32,2*%
%TO.N,GND*%
X135600000Y-45725000D03*
%TD*%
D22*
%TO.P,R5,1*%
%TO.N,/MCU/RS485-EN*%
X167700000Y-40100000D03*
%TO.P,R5,2*%
%TO.N,GND*%
X167700000Y-38450000D03*
%TD*%
D19*
%TO.P,R20,1*%
%TO.N,/MCU/12V-EN*%
X135100000Y-23175000D03*
%TO.P,R20,2*%
%TO.N,GND*%
X135100000Y-24825000D03*
%TD*%
D23*
%TO.P,C34,1*%
%TO.N,+12V*%
X149700000Y-21225000D03*
%TO.P,C34,2*%
%TO.N,GND*%
X149700000Y-22775000D03*
%TD*%
D22*
%TO.P,R15,1*%
%TO.N,+3V3*%
X154850000Y-67850000D03*
%TO.P,R15,2*%
%TO.N,Net-(D7-A)*%
X154850000Y-66200000D03*
%TD*%
%TO.P,R24,1*%
%TO.N,Net-(U6-ISET)*%
X138800000Y-35125000D03*
%TO.P,R24,2*%
%TO.N,GND*%
X138800000Y-33475000D03*
%TD*%
D24*
%TO.P,C6,1*%
%TO.N,Net-(U3-VDDA)*%
X180300000Y-54200000D03*
%TO.P,C6,2*%
%TO.N,GND*%
X178750000Y-54200000D03*
%TD*%
D25*
%TO.P,L7,1,1*%
%TO.N,Vbat*%
X139837500Y-27000000D03*
%TO.P,L7,2,2*%
%TO.N,Net-(D8-A)*%
X141962500Y-27000000D03*
%TD*%
D26*
%TO.P,J3,1,Pin_1*%
%TO.N,Net-(D1-A1)*%
X173700000Y-80900000D03*
D18*
%TO.P,J3,2,Pin_2*%
%TO.N,Net-(D4-A2)*%
X168620000Y-80900000D03*
%TO.P,J3,3,Pin_3*%
%TO.N,GND*%
X163540000Y-80900000D03*
%TD*%
D27*
%TO.P,L1,1,1*%
%TO.N,Net-(U3-VLXSMPS)*%
X180200000Y-59725000D03*
%TO.P,L1,2,2*%
%TO.N,Net-(U3-VDDRF1V55)*%
X180200000Y-57600000D03*
%TD*%
D28*
%TO.P,BT1,1,+*%
%TO.N,Net-(BT1-+)*%
X131400000Y-36200000D03*
D29*
%TO.P,BT1,2,-*%
%TO.N,GND*%
X131400000Y-32390000D03*
%TD*%
D19*
%TO.P,R27,1*%
%TO.N,Net-(U7-CFG1)*%
X154600000Y-38575000D03*
%TO.P,R27,2*%
%TO.N,GND*%
X154600000Y-40225000D03*
%TD*%
D30*
%TO.P,D7,1,K*%
%TO.N,Net-(D7-K)*%
X154850000Y-62437500D03*
%TO.P,D7,2,A*%
%TO.N,Net-(D7-A)*%
X154850000Y-64012500D03*
%TD*%
D23*
%TO.P,C4,1*%
%TO.N,/MCU/ADC-CH4*%
X192600000Y-72525000D03*
%TO.P,C4,2*%
%TO.N,GND*%
X192600000Y-74075000D03*
%TD*%
D31*
%TO.P,C14,1*%
%TO.N,NRST*%
X165495000Y-62200000D03*
%TO.P,C14,2*%
%TO.N,GND*%
X167045000Y-62200000D03*
%TD*%
D19*
%TO.P,R22,1*%
%TO.N,Vbat*%
X136800000Y-29375000D03*
%TO.P,R22,2*%
%TO.N,Net-(D9-A)*%
X136800000Y-31025000D03*
%TD*%
D17*
%TO.P,J2,1,Pin_1*%
%TO.N,Net-(D1-A1)*%
X194340000Y-23100000D03*
D18*
%TO.P,J2,2,Pin_2*%
%TO.N,Net-(D3-A2)*%
X199420000Y-23100000D03*
%TO.P,J2,3,Pin_3*%
%TO.N,GND*%
X204500000Y-23100000D03*
%TD*%
D23*
%TO.P,C10,1*%
%TO.N,+3V3*%
X142600000Y-59875000D03*
%TO.P,C10,2*%
%TO.N,GND*%
X142600000Y-61425000D03*
%TD*%
D32*
%TO.P,L3,1,1*%
%TO.N,/LoRa RF/RFO_HP*%
X200400000Y-53850000D03*
%TO.P,L3,2,2*%
%TO.N,Net-(C22-Pad1)*%
X200400000Y-52275000D03*
%TD*%
D30*
%TO.P,FB2,1*%
%TO.N,+3V3*%
X175800000Y-52425000D03*
%TO.P,FB2,2*%
%TO.N,Net-(U3-VDDA)*%
X175800000Y-54000000D03*
%TD*%
D22*
%TO.P,R19,1*%
%TO.N,+12V*%
X144100000Y-22625000D03*
%TO.P,R19,2*%
%TO.N,Net-(U5-FB)*%
X144100000Y-20975000D03*
%TD*%
%TO.P,R13,1*%
%TO.N,+3V3*%
X146800000Y-65100000D03*
%TO.P,R13,2*%
%TO.N,Net-(U2-~{RST})*%
X146800000Y-63450000D03*
%TD*%
D33*
%TO.P,U4,1,RF2*%
%TO.N,Net-(U4-RF2)*%
X209800000Y-56800000D03*
%TO.P,U4,2,GND*%
%TO.N,GND*%
X209800000Y-57200000D03*
%TO.P,U4,3,RF1*%
%TO.N,Net-(U4-RF1)*%
X209800000Y-57600000D03*
%TO.P,U4,4,VDD*%
%TO.N,+3V3*%
X210200000Y-57600000D03*
%TO.P,U4,5,RFIN*%
%TO.N,Net-(U4-RFIN)*%
X210200000Y-57200000D03*
%TO.P,U4,6,CTRL*%
%TO.N,/LoRa RF/RF-Switch*%
X210200000Y-56800000D03*
%TD*%
D34*
%TO.P,U2,1,~{DCD}*%
%TO.N,unconnected-(U2-~{DCD}-Pad1)*%
X144520000Y-56700000D03*
%TO.P,U2,2,~{RI}/CLK*%
%TO.N,unconnected-(U2-~{RI}{slash}CLK-Pad2)*%
X144520000Y-57200000D03*
%TO.P,U2,3,GND*%
%TO.N,GND*%
X144520000Y-57700000D03*
%TO.P,U2,4,D+*%
%TO.N,/MCU/USB_MCU+*%
X144520000Y-58200000D03*
%TO.P,U2,5,D-*%
%TO.N,/MCU/USB_MCU-*%
X144520000Y-58700000D03*
%TO.P,U2,6,VDD*%
%TO.N,+3V3*%
X144520000Y-59200000D03*
%TO.P,U2,7,VREGIN*%
X144520000Y-59700000D03*
D35*
%TO.P,U2,8,VBUS*%
%TO.N,Net-(U2-VBUS)*%
X145470000Y-60650000D03*
%TO.P,U2,9,~{RST}*%
%TO.N,Net-(U2-~{RST})*%
X145970000Y-60650000D03*
%TO.P,U2,10,NC*%
%TO.N,unconnected-(U2-NC-Pad10)*%
X146470000Y-60650000D03*
%TO.P,U2,11,~{SUSPEND}*%
%TO.N,unconnected-(U2-~{SUSPEND}-Pad11)*%
X146970000Y-60650000D03*
%TO.P,U2,12,SUSPEND*%
%TO.N,unconnected-(U2-SUSPEND-Pad12)*%
X147470000Y-60650000D03*
%TO.P,U2,13,CHREN*%
%TO.N,unconnected-(U2-CHREN-Pad13)*%
X147970000Y-60650000D03*
%TO.P,U2,14,CHR1*%
%TO.N,unconnected-(U2-CHR1-Pad14)*%
X148470000Y-60650000D03*
D34*
%TO.P,U2,15,CHR0*%
%TO.N,unconnected-(U2-CHR0-Pad15)*%
X149420000Y-59700000D03*
%TO.P,U2,16,~{WAKEUP}/GPIO.3*%
%TO.N,unconnected-(U2-~{WAKEUP}{slash}GPIO.3-Pad16)*%
X149420000Y-59200000D03*
%TO.P,U2,17,RS485/GPIO.2*%
%TO.N,unconnected-(U2-RS485{slash}GPIO.2-Pad17)*%
X149420000Y-58700000D03*
%TO.P,U2,18,~{RXT}/GPIO.1*%
%TO.N,Net-(D7-K)*%
X149420000Y-58200000D03*
%TO.P,U2,19,~{TXT}/GPIO.0*%
%TO.N,Net-(D6-K)*%
X149420000Y-57700000D03*
%TO.P,U2,20,GPIO.6*%
%TO.N,unconnected-(U2-GPIO.6-Pad20)*%
X149420000Y-57200000D03*
%TO.P,U2,21,GPIO.5*%
%TO.N,unconnected-(U2-GPIO.5-Pad21)*%
X149420000Y-56700000D03*
D35*
%TO.P,U2,22,GPIO.4*%
%TO.N,unconnected-(U2-GPIO.4-Pad22)*%
X148470000Y-55750000D03*
%TO.P,U2,23,~{CTS}*%
%TO.N,unconnected-(U2-~{CTS}-Pad23)*%
X147970000Y-55750000D03*
%TO.P,U2,24,~{RTS}*%
%TO.N,unconnected-(U2-~{RTS}-Pad24)*%
X147470000Y-55750000D03*
%TO.P,U2,25,RXD*%
%TO.N,Net-(U2-RXD)*%
X146970000Y-55750000D03*
%TO.P,U2,26,TXD*%
%TO.N,Net-(U2-TXD)*%
X146470000Y-55750000D03*
%TO.P,U2,27,~{DSR}*%
%TO.N,unconnected-(U2-~{DSR}-Pad27)*%
X145970000Y-55750000D03*
%TO.P,U2,28,~{DTR}*%
%TO.N,unconnected-(U2-~{DTR}-Pad28)*%
X145470000Y-55750000D03*
D36*
%TO.P,U2,29,GND*%
%TO.N,GND*%
X146970000Y-58200000D03*
%TD*%
D19*
%TO.P,R7,1*%
%TO.N,GND*%
X194225000Y-29677500D03*
%TO.P,R7,2*%
%TO.N,/MCU/ADC-CH2*%
X194225000Y-31327500D03*
%TD*%
D37*
%TO.P,D2,1,A1*%
%TO.N,/analog/RS485+*%
X182700000Y-32072500D03*
%TO.P,D2,2,A2*%
%TO.N,/analog/RS485-*%
X184600000Y-32072500D03*
%TO.P,D2,3,common*%
%TO.N,GND*%
X183650000Y-30197500D03*
%TD*%
D38*
%TO.P,D4,1,A1*%
%TO.N,GND*%
X162600000Y-73300000D03*
%TO.P,D4,2,A2*%
%TO.N,Net-(D4-A2)*%
X166600000Y-73300000D03*
%TD*%
D39*
%TO.P,U7,1,EN*%
%TO.N,Vbat*%
X158487500Y-38400000D03*
%TO.P,U7,2,SEL*%
X158487500Y-38900000D03*
%TO.P,U7,3,CFG1*%
%TO.N,Net-(U7-CFG1)*%
X158487500Y-39400000D03*
%TO.P,U7,4,CFG2*%
%TO.N,GND*%
X158487500Y-39900000D03*
%TO.P,U7,5,CFG3*%
%TO.N,Net-(U7-CFG3)*%
X158487500Y-40400000D03*
%TO.P,U7,6,VOUT*%
%TO.N,+3V3*%
X160912500Y-40400000D03*
%TO.P,U7,7,LX2*%
%TO.N,Net-(U7-LX2)*%
X160912500Y-39900000D03*
%TO.P,U7,8,GND*%
%TO.N,GND*%
X160912500Y-39400000D03*
%TO.P,U7,9,LX1*%
%TO.N,Net-(U7-LX1)*%
X160912500Y-38900000D03*
%TO.P,U7,10,VIN*%
%TO.N,Vbat*%
X160912500Y-38400000D03*
D40*
%TO.P,U7,11,GND*%
%TO.N,GND*%
X159350000Y-38650000D03*
X159350000Y-39400000D03*
X159350000Y-40150000D03*
D41*
X159700000Y-39400000D03*
D40*
X160050000Y-38650000D03*
X160050000Y-39400000D03*
X160050000Y-40150000D03*
%TD*%
D42*
%TO.P,SW1,1,1*%
%TO.N,GND*%
X153900000Y-82350000D03*
X145900000Y-82350000D03*
%TO.P,SW1,2,2*%
%TO.N,NRST*%
X153900000Y-77850000D03*
X145900000Y-77850000D03*
%TD*%
D19*
%TO.P,R2,1*%
%TO.N,/analog/RS485+*%
X182700000Y-38450000D03*
%TO.P,R2,2*%
%TO.N,/analog/RS485R+*%
X182700000Y-40100000D03*
%TD*%
D43*
%TO.P,R21,1*%
%TO.N,Net-(U5-FB)*%
X141900000Y-21000000D03*
%TO.P,R21,2*%
%TO.N,GND*%
X140250000Y-21000000D03*
%TD*%
D32*
%TO.P,FB1,1*%
%TO.N,Net-(F1-Pad2)*%
X154600000Y-22875000D03*
%TO.P,FB1,2*%
%TO.N,Net-(D1-A1)*%
X154600000Y-21300000D03*
%TD*%
D44*
%TO.P,U5,1,SW*%
%TO.N,Net-(D8-A)*%
X142037500Y-24750000D03*
%TO.P,U5,2,GND*%
%TO.N,GND*%
X142037500Y-23800000D03*
%TO.P,U5,3,FB*%
%TO.N,Net-(U5-FB)*%
X142037500Y-22850000D03*
%TO.P,U5,4,EN*%
%TO.N,/MCU/12V-EN*%
X139762500Y-22850000D03*
%TO.P,U5,5,IN*%
%TO.N,Vbat*%
X139762500Y-23800000D03*
%TO.P,U5,6,NC*%
%TO.N,unconnected-(U5-NC-Pad6)*%
X139762500Y-24750000D03*
%TD*%
D31*
%TO.P,C38,1*%
%TO.N,+3V3*%
X161925000Y-42300000D03*
%TO.P,C38,2*%
%TO.N,GND*%
X163475000Y-42300000D03*
%TD*%
D21*
%TO.P,C24,1*%
%TO.N,Net-(C22-Pad1)*%
X204387500Y-49850000D03*
%TO.P,C24,2*%
%TO.N,GND*%
X204387500Y-48300000D03*
%TD*%
%TO.P,C16,1*%
%TO.N,+3V3*%
X187700000Y-50700000D03*
%TO.P,C16,2*%
%TO.N,GND*%
X187700000Y-49150000D03*
%TD*%
%TO.P,C33,1*%
%TO.N,Vbat*%
X137400000Y-24700000D03*
%TO.P,C33,2*%
%TO.N,GND*%
X137400000Y-23150000D03*
%TD*%
D23*
%TO.P,C19,1*%
%TO.N,+3V3*%
X188500000Y-61325000D03*
%TO.P,C19,2*%
%TO.N,GND*%
X188500000Y-62875000D03*
%TD*%
%TO.P,C11,1*%
%TO.N,+3V3*%
X178400000Y-58050000D03*
%TO.P,C11,2*%
%TO.N,GND*%
X178400000Y-59600000D03*
%TD*%
D45*
%TO.P,J5,1,VCC*%
%TO.N,+3V3*%
X164330000Y-59200000D03*
%TO.P,J5,2,SWDIO*%
%TO.N,SWDIO*%
X164330000Y-57930000D03*
%TO.P,J5,3,~{RESET}*%
%TO.N,NRST*%
X165600000Y-59200000D03*
%TO.P,J5,4,SWCLK*%
%TO.N,SWCLK*%
X165600000Y-57930000D03*
%TO.P,J5,5,GND*%
%TO.N,GND*%
X166870000Y-59200000D03*
%TO.P,J5,6,SWO*%
%TO.N,unconnected-(J5-SWO-Pad6)*%
X166870000Y-57930000D03*
%TD*%
D46*
%TO.P,D3,1,A1*%
%TO.N,GND*%
X203825000Y-30527500D03*
%TO.P,D3,2,A2*%
%TO.N,Net-(D3-A2)*%
X199825000Y-30527500D03*
%TD*%
D19*
%TO.P,R18,1*%
%TO.N,Net-(U3-PH3)*%
X194760000Y-72450000D03*
%TO.P,R18,2*%
%TO.N,GND*%
X194760000Y-74100000D03*
%TD*%
D22*
%TO.P,R14,1*%
%TO.N,+3V3*%
X152250000Y-67825000D03*
%TO.P,R14,2*%
%TO.N,Net-(D6-A)*%
X152250000Y-66175000D03*
%TD*%
D32*
%TO.P,L2,1,1*%
%TO.N,/LoRa RF/RFO_HP*%
X198400000Y-53825000D03*
%TO.P,L2,2,2*%
%TO.N,VR_PA*%
X198400000Y-52250000D03*
%TD*%
D24*
%TO.P,C12,1*%
%TO.N,Net-(Y1-Vcc)*%
X191475000Y-44400000D03*
%TO.P,C12,2*%
%TO.N,GND*%
X189925000Y-44400000D03*
%TD*%
D47*
%TO.P,F1,1*%
%TO.N,+12V*%
X152200000Y-21162500D03*
%TO.P,F1,2*%
%TO.N,Net-(F1-Pad2)*%
X152200000Y-23037500D03*
%TD*%
D48*
%TO.P,U9,1*%
%TO.N,/Power/USB_C+*%
X133950000Y-57500000D03*
%TO.P,U9,2*%
%TO.N,GND*%
X133950000Y-58450000D03*
%TO.P,U9,3*%
%TO.N,/Power/USB_C-*%
X133950000Y-59400000D03*
%TO.P,U9,4*%
%TO.N,/MCU/USB_MCU-*%
X136650000Y-59400000D03*
%TO.P,U9,5*%
%TO.N,Vbus*%
X136650000Y-58450000D03*
%TO.P,U9,6*%
%TO.N,/MCU/USB_MCU+*%
X136650000Y-57500000D03*
%TD*%
D23*
%TO.P,C20,1*%
%TO.N,+3V3*%
X190200000Y-61350000D03*
%TO.P,C20,2*%
%TO.N,GND*%
X190200000Y-62900000D03*
%TD*%
D19*
%TO.P,R4,1*%
%TO.N,/analog/RS485R-*%
X180600000Y-38450000D03*
%TO.P,R4,2*%
%TO.N,/analog/RS485R+*%
X180600000Y-40100000D03*
%TD*%
D21*
%TO.P,C25,1*%
%TO.N,Net-(U4-RF2)*%
X209787500Y-49850000D03*
%TO.P,C25,2*%
%TO.N,GND*%
X209787500Y-48300000D03*
%TD*%
D31*
%TO.P,C30,1*%
%TO.N,/LoRa RF/RFI_N*%
X201250000Y-56600000D03*
%TO.P,C30,2*%
%TO.N,GND*%
X202800000Y-56600000D03*
%TD*%
D26*
%TO.P,J4,1,Pin_1*%
%TO.N,Net-(D1-A1)*%
X192285000Y-80827500D03*
D18*
%TO.P,J4,2,Pin_2*%
%TO.N,Net-(D5-A2)*%
X187205000Y-80827500D03*
%TO.P,J4,3,Pin_3*%
%TO.N,GND*%
X182125000Y-80827500D03*
%TD*%
D32*
%TO.P,L6,1,1*%
%TO.N,/LoRa RF/RFI_P*%
X198600000Y-58237500D03*
%TO.P,L6,2,2*%
%TO.N,/LoRa RF/RFI_N*%
X198600000Y-56662500D03*
%TD*%
D23*
%TO.P,C3,1*%
%TO.N,/MCU/ADC-CH3*%
X174400000Y-72525000D03*
%TO.P,C3,2*%
%TO.N,GND*%
X174400000Y-74075000D03*
%TD*%
D22*
%TO.P,R3,1*%
%TO.N,/analog/RS485-*%
X184800000Y-40125000D03*
%TO.P,R3,2*%
%TO.N,/analog/RS485R-*%
X184800000Y-38475000D03*
%TD*%
%TO.P,R10,1*%
%TO.N,Net-(D5-A2)*%
X188200000Y-74125000D03*
%TO.P,R10,2*%
%TO.N,/MCU/ADC-CH4*%
X188200000Y-72475000D03*
%TD*%
D23*
%TO.P,C26,1*%
%TO.N,Net-(U4-RFIN)*%
X212100000Y-57125000D03*
%TO.P,C26,2*%
%TO.N,Net-(C26-Pad2)*%
X212100000Y-58675000D03*
%TD*%
D49*
%TO.P,J8,1,Pin_1*%
%TO.N,GND*%
X130100000Y-45460000D03*
D50*
%TO.P,J8,2,Pin_2*%
%TO.N,+5V*%
X130100000Y-48000000D03*
%TD*%
D22*
%TO.P,R11,1*%
%TO.N,GND*%
X190400000Y-74150000D03*
%TO.P,R11,2*%
%TO.N,/MCU/ADC-CH4*%
X190400000Y-72500000D03*
%TD*%
D23*
%TO.P,C9,1*%
%TO.N,+3V3*%
X140800000Y-59925000D03*
%TO.P,C9,2*%
%TO.N,GND*%
X140800000Y-61475000D03*
%TD*%
D38*
%TO.P,D5,1,A1*%
%TO.N,GND*%
X180600000Y-73500000D03*
%TO.P,D5,2,A2*%
%TO.N,Net-(D5-A2)*%
X184600000Y-73500000D03*
%TD*%
D31*
%TO.P,C23,1*%
%TO.N,Net-(C22-Pad1)*%
X204437500Y-52250000D03*
%TO.P,C23,2*%
%TO.N,Net-(C23-Pad2)*%
X205987500Y-52250000D03*
%TD*%
D19*
%TO.P,R12,1*%
%TO.N,Vbus*%
X142600000Y-63400000D03*
%TO.P,R12,2*%
%TO.N,Net-(U2-VBUS)*%
X142600000Y-65050000D03*
%TD*%
D51*
%TO.P,L4,1,1*%
%TO.N,Net-(C23-Pad2)*%
X208212500Y-52250000D03*
%TO.P,L4,2,2*%
%TO.N,Net-(U4-RF2)*%
X209787500Y-52250000D03*
%TD*%
D24*
%TO.P,C1,1*%
%TO.N,+3V3*%
X176175000Y-35300000D03*
%TO.P,C1,2*%
%TO.N,GND*%
X174625000Y-35300000D03*
%TD*%
D31*
%TO.P,C28,1*%
%TO.N,Net-(J6-In)*%
X212150000Y-69200000D03*
%TO.P,C28,2*%
%TO.N,GND*%
X213700000Y-69200000D03*
%TD*%
D21*
%TO.P,C2,1*%
%TO.N,/MCU/ADC-CH2*%
X191800000Y-31300000D03*
%TO.P,C2,2*%
%TO.N,GND*%
X191800000Y-29750000D03*
%TD*%
D52*
%TO.P,U3,1,PB3*%
%TO.N,/MCU/ADC-CH3*%
X183150000Y-59537500D03*
%TO.P,U3,2,PB4*%
%TO.N,/MCU/ADC-CH4*%
X183650000Y-59537500D03*
%TO.P,U3,3,PB5*%
%TO.N,unconnected-(U3-PB5-Pad3)*%
X184150000Y-59537500D03*
%TO.P,U3,4,PB6*%
%TO.N,/MCU/UART-TX*%
X184650000Y-59537500D03*
%TO.P,U3,5,PB7*%
%TO.N,/MCU/UART-RX*%
X185150000Y-59537500D03*
%TO.P,U3,6,PB8*%
%TO.N,/MCU/RS485-EN*%
X185650000Y-59537500D03*
%TO.P,U3,7,PA0*%
%TO.N,unconnected-(U3-PA0-Pad7)*%
X186150000Y-59537500D03*
%TO.P,U3,8,PA1*%
%TO.N,unconnected-(U3-PA1-Pad8)*%
X186650000Y-59537500D03*
%TO.P,U3,9,PA2*%
%TO.N,Net-(U2-RXD)*%
X187150000Y-59537500D03*
%TO.P,U3,10,PA3*%
%TO.N,Net-(U2-TXD)*%
X187650000Y-59537500D03*
%TO.P,U3,11,VDD*%
%TO.N,+3V3*%
X188150000Y-59537500D03*
%TO.P,U3,12,PA4*%
%TO.N,unconnected-(U3-PA4-Pad12)*%
X188650000Y-59537500D03*
D53*
%TO.P,U3,13,PA5*%
%TO.N,unconnected-(U3-PA5-Pad13)*%
X189337500Y-58850000D03*
%TO.P,U3,14,PA6*%
%TO.N,unconnected-(U3-PA6-Pad14)*%
X189337500Y-58350000D03*
%TO.P,U3,15,PA7*%
%TO.N,unconnected-(U3-PA7-Pad15)*%
X189337500Y-57850000D03*
%TO.P,U3,16,PA8*%
%TO.N,unconnected-(U3-PA8-Pad16)*%
X189337500Y-57350000D03*
%TO.P,U3,17,PA9*%
%TO.N,unconnected-(U3-PA9-Pad17)*%
X189337500Y-56850000D03*
%TO.P,U3,18,NRST*%
%TO.N,NRST*%
X189337500Y-56350000D03*
%TO.P,U3,19,PH3*%
%TO.N,Net-(U3-PH3)*%
X189337500Y-55850000D03*
%TO.P,U3,20,RFI_P*%
%TO.N,/LoRa RF/RFI_P*%
X189337500Y-55350000D03*
%TO.P,U3,21,RFI_N*%
%TO.N,/LoRa RF/RFI_N*%
X189337500Y-54850000D03*
%TO.P,U3,22,RFO_LP*%
%TO.N,unconnected-(U3-RFO_LP-Pad22)*%
X189337500Y-54350000D03*
%TO.P,U3,23,RFO_HP*%
%TO.N,/LoRa RF/RFO_HP*%
X189337500Y-53850000D03*
%TO.P,U3,24,VR_PA*%
%TO.N,VR_PA*%
X189337500Y-53350000D03*
D52*
%TO.P,U3,25,VDDPA*%
%TO.N,+3V3*%
X188650000Y-52662500D03*
%TO.P,U3,26,OSC_IN*%
%TO.N,Net-(U3-OSC_IN)*%
X188150000Y-52662500D03*
%TO.P,U3,27,OSC_OUT*%
%TO.N,unconnected-(U3-OSC_OUT-Pad27)*%
X187650000Y-52662500D03*
%TO.P,U3,28,VDDRF*%
%TO.N,+3V3*%
X187150000Y-52662500D03*
%TO.P,U3,29,VDDRF1V55*%
%TO.N,Net-(U3-VDDRF1V55)*%
X186650000Y-52662500D03*
%TO.P,U3,30,PB0*%
%TO.N,unconnected-(U3-PB0-Pad30)*%
X186150000Y-52662500D03*
%TO.P,U3,31,PB2*%
%TO.N,/MCU/ADC-CH2*%
X185650000Y-52662500D03*
%TO.P,U3,32,PB12*%
%TO.N,/MCU/12V-EN*%
X185150000Y-52662500D03*
%TO.P,U3,33,PA10*%
%TO.N,unconnected-(U3-PA10-Pad33)*%
X184650000Y-52662500D03*
%TO.P,U3,34,PA11*%
%TO.N,unconnected-(U3-PA11-Pad34)*%
X184150000Y-52662500D03*
%TO.P,U3,35,PA12*%
%TO.N,unconnected-(U3-PA12-Pad35)*%
X183650000Y-52662500D03*
%TO.P,U3,36,PA13*%
%TO.N,SWDIO*%
X183150000Y-52662500D03*
D53*
%TO.P,U3,37,VBAT*%
%TO.N,+3V3*%
X182462500Y-53350000D03*
%TO.P,U3,38,PC13*%
%TO.N,/LoRa RF/RF-Switch*%
X182462500Y-53850000D03*
%TO.P,U3,39,PC14*%
%TO.N,unconnected-(U3-PC14-Pad39)*%
X182462500Y-54350000D03*
%TO.P,U3,40,PC15*%
%TO.N,unconnected-(U3-PC15-Pad40)*%
X182462500Y-54850000D03*
%TO.P,U3,41,VDDA*%
%TO.N,Net-(U3-VDDA)*%
X182462500Y-55350000D03*
%TO.P,U3,42,PA14*%
%TO.N,SWCLK*%
X182462500Y-55850000D03*
%TO.P,U3,43,PA15*%
%TO.N,unconnected-(U3-PA15-Pad43)*%
X182462500Y-56350000D03*
%TO.P,U3,44,VDD*%
%TO.N,+3V3*%
X182462500Y-56850000D03*
%TO.P,U3,45,VFBSMPS*%
%TO.N,Net-(U3-VDDRF1V55)*%
X182462500Y-57350000D03*
%TO.P,U3,46,VDDSMPS*%
%TO.N,+3V3*%
X182462500Y-57850000D03*
%TO.P,U3,47,VLXSMPS*%
%TO.N,Net-(U3-VLXSMPS)*%
X182462500Y-58350000D03*
%TO.P,U3,48,VSSSMPS*%
%TO.N,GND*%
X182462500Y-58850000D03*
D54*
%TO.P,U3,49,VSS*%
X185900000Y-56100000D03*
%TD*%
D31*
%TO.P,C27,1*%
%TO.N,Net-(C26-Pad2)*%
X212150000Y-62300000D03*
%TO.P,C27,2*%
%TO.N,GND*%
X213700000Y-62300000D03*
%TD*%
%TO.P,C18,1*%
%TO.N,+3V3*%
X190525000Y-51900000D03*
%TO.P,C18,2*%
%TO.N,GND*%
X192075000Y-51900000D03*
%TD*%
D55*
%TO.P,Y1,1,~{ST}*%
%TO.N,Net-(Y1-Vcc)*%
X191600000Y-46700000D03*
%TO.P,Y1,2,GND*%
%TO.N,GND*%
X189900000Y-46700000D03*
%TO.P,Y1,3,OUT*%
%TO.N,Net-(U3-OSC_IN)*%
X189900000Y-48000000D03*
%TO.P,Y1,4,Vcc*%
%TO.N,Net-(Y1-Vcc)*%
X191600000Y-48000000D03*
%TD*%
D56*
%TO.P,U1,1,RO*%
%TO.N,/MCU/UART-RX*%
X172925000Y-37395000D03*
%TO.P,U1,2,~{RE}*%
%TO.N,/MCU/RS485-EN*%
X172925000Y-38665000D03*
%TO.P,U1,3,DE*%
X172925000Y-39935000D03*
%TO.P,U1,4,DI*%
%TO.N,/MCU/UART-TX*%
X172925000Y-41205000D03*
%TO.P,U1,5,GND*%
%TO.N,GND*%
X177875000Y-41205000D03*
%TO.P,U1,6,A*%
%TO.N,/analog/RS485R+*%
X177875000Y-39935000D03*
%TO.P,U1,7,B*%
%TO.N,/analog/RS485R-*%
X177875000Y-38665000D03*
%TO.P,U1,8,VCC*%
%TO.N,+3V3*%
X177875000Y-37395000D03*
%TD*%
D24*
%TO.P,C15,1*%
%TO.N,+3V3*%
X181200000Y-52100000D03*
%TO.P,C15,2*%
%TO.N,GND*%
X179650000Y-52100000D03*
%TD*%
D21*
%TO.P,C13,1*%
%TO.N,Net-(U3-VDDRF1V55)*%
X186100000Y-50700000D03*
%TO.P,C13,2*%
%TO.N,GND*%
X186100000Y-49150000D03*
%TD*%
D57*
%TO.P,U6,1,IN*%
%TO.N,+5V*%
X141400000Y-34650000D03*
%TO.P,U6,2,ISET*%
%TO.N,Net-(U6-ISET)*%
X141400000Y-35150000D03*
%TO.P,U6,3,GND*%
%TO.N,GND*%
X141400000Y-35650000D03*
%TO.P,U6,4,LDO*%
%TO.N,Net-(D9-K)*%
X141400000Y-36150000D03*
%TO.P,U6,5,TS*%
%TO.N,Net-(BT1-+)*%
X141400000Y-36650000D03*
%TO.P,U6,6,BAT*%
%TO.N,Net-(U6-BAT)*%
X143400000Y-36650000D03*
%TO.P,U6,7,EN*%
%TO.N,GND*%
X143400000Y-36150000D03*
%TO.P,U6,8,CHG*%
%TO.N,Net-(U6-CHG)*%
X143400000Y-35650000D03*
%TO.P,U6,9,GND*%
%TO.N,GND*%
X143400000Y-35150000D03*
%TO.P,U6,10,OUT*%
%TO.N,Vbat*%
X143400000Y-34650000D03*
D40*
%TO.P,U6,11,PWR_PAD*%
%TO.N,GND*%
X142400000Y-34700000D03*
X142400000Y-35650000D03*
D58*
X142400000Y-35650000D03*
D40*
X142400000Y-36600000D03*
%TD*%
D22*
%TO.P,R16,1*%
%TO.N,Net-(U2-VBUS)*%
X144520000Y-65050000D03*
%TO.P,R16,2*%
%TO.N,GND*%
X144520000Y-63400000D03*
%TD*%
D23*
%TO.P,C8,1*%
%TO.N,Vbus*%
X140800000Y-63450000D03*
%TO.P,C8,2*%
%TO.N,GND*%
X140800000Y-65000000D03*
%TD*%
D30*
%TO.P,D6,1,K*%
%TO.N,Net-(D6-K)*%
X152250000Y-62437500D03*
%TO.P,D6,2,A*%
%TO.N,Net-(D6-A)*%
X152250000Y-64012500D03*
%TD*%
D23*
%TO.P,C37,1*%
%TO.N,Vbat*%
X156600000Y-38650000D03*
%TO.P,C37,2*%
%TO.N,GND*%
X156600000Y-40200000D03*
%TD*%
D21*
%TO.P,C5,1*%
%TO.N,Net-(U3-VDDA)*%
X174000000Y-54012500D03*
%TO.P,C5,2*%
%TO.N,GND*%
X174000000Y-52462500D03*
%TD*%
%TO.P,C21,1*%
%TO.N,VR_PA*%
X198400000Y-49650000D03*
%TO.P,C21,2*%
%TO.N,GND*%
X198400000Y-48100000D03*
%TD*%
D59*
%TO.P,J6,1,In*%
%TO.N,Net-(J6-In)*%
X212200000Y-79000000D03*
D60*
%TO.P,J6,2,Ext*%
%TO.N,GND*%
X217225000Y-84025000D03*
X217225000Y-73975000D03*
X207175000Y-84025000D03*
X207175000Y-73975000D03*
%TD*%
D21*
%TO.P,C35,1*%
%TO.N,Vbat*%
X145300000Y-34275000D03*
%TO.P,C35,2*%
%TO.N,GND*%
X145300000Y-32725000D03*
%TD*%
D19*
%TO.P,R6,1*%
%TO.N,Net-(D3-A2)*%
X196425000Y-29702500D03*
%TO.P,R6,2*%
%TO.N,/MCU/ADC-CH2*%
X196425000Y-31352500D03*
%TD*%
%TO.P,R1,1*%
%TO.N,+3V3*%
X169700000Y-38450000D03*
%TO.P,R1,2*%
%TO.N,/MCU/UART-RX*%
X169700000Y-40100000D03*
%TD*%
D22*
%TO.P,R25,1*%
%TO.N,Net-(U6-BAT)*%
X147100000Y-37525000D03*
%TO.P,R25,2*%
%TO.N,GND*%
X147100000Y-35875000D03*
%TD*%
D30*
%TO.P,L5,1,1*%
%TO.N,Net-(C26-Pad2)*%
X212125000Y-65025000D03*
%TO.P,L5,2,2*%
%TO.N,Net-(J6-In)*%
X212125000Y-66600000D03*
%TD*%
D22*
%TO.P,R8,1*%
%TO.N,Net-(D4-A2)*%
X170000000Y-74125000D03*
%TO.P,R8,2*%
%TO.N,/MCU/ADC-CH3*%
X170000000Y-72475000D03*
%TD*%
D61*
%TO.P,R26,1*%
%TO.N,Net-(U7-CFG3)*%
X157775000Y-42200000D03*
%TO.P,R26,2*%
%TO.N,GND*%
X159425000Y-42200000D03*
%TD*%
D62*
%TO.P,D1,1,A1*%
%TO.N,Net-(D1-A1)*%
X158000000Y-22100000D03*
%TO.P,D1,2,A2*%
%TO.N,GND*%
X158000000Y-26100000D03*
%TD*%
D22*
%TO.P,R9,1*%
%TO.N,GND*%
X172200000Y-74125000D03*
%TO.P,R9,2*%
%TO.N,/MCU/ADC-CH3*%
X172200000Y-72475000D03*
%TD*%
D31*
%TO.P,C29,1*%
%TO.N,/LoRa RF/RFI_P*%
X201250000Y-58350000D03*
%TO.P,C29,2*%
%TO.N,Net-(U4-RF1)*%
X202800000Y-58350000D03*
%TD*%
D23*
%TO.P,C22,1*%
%TO.N,Net-(C22-Pad1)*%
X202400000Y-52300000D03*
%TO.P,C22,2*%
%TO.N,/LoRa RF/RFO_HP*%
X202400000Y-53850000D03*
%TD*%
D32*
%TO.P,D9,1,K*%
%TO.N,Net-(D9-K)*%
X136800000Y-35075000D03*
%TO.P,D9,2,A*%
%TO.N,Net-(D9-A)*%
X136800000Y-33500000D03*
%TD*%
D63*
%TO.P,D8,1,K*%
%TO.N,+12V*%
X146900000Y-21600000D03*
%TO.P,D8,2,A*%
%TO.N,Net-(D8-A)*%
X146900000Y-26000000D03*
%TD*%
D31*
%TO.P,C36,1*%
%TO.N,+5V*%
X141625000Y-32700000D03*
%TO.P,C36,2*%
%TO.N,GND*%
X143175000Y-32700000D03*
%TD*%
D24*
%TO.P,C7,1*%
%TO.N,+3V3*%
X180300000Y-55900000D03*
%TO.P,C7,2*%
%TO.N,GND*%
X178750000Y-55900000D03*
%TD*%
D64*
%TO.N,GND*%
X209050000Y-57200000D03*
X178800000Y-54200000D03*
%TO.N,SWCLK*%
X181625000Y-56200000D03*
%TO.N,GND*%
X174000000Y-52400000D03*
%TO.N,+3V3*%
X175800000Y-52500000D03*
%TO.N,GND*%
X178400000Y-59600000D03*
%TO.N,+3V3*%
X181200000Y-52100000D03*
X190200000Y-61300000D03*
X188500000Y-61300000D03*
X180300000Y-55900000D03*
X187700000Y-50700000D03*
X189900000Y-42600000D03*
X190500000Y-51900000D03*
%TO.N,Net-(U3-VDDRF1V55)*%
X186100000Y-50700000D03*
X180200000Y-57600000D03*
%TO.N,+3V3*%
X178400000Y-58100000D03*
%TO.N,GND*%
X190300000Y-62900000D03*
X178700000Y-55900000D03*
X188500000Y-62900000D03*
X179600000Y-52100000D03*
X192100000Y-51900000D03*
X187700000Y-49200000D03*
%TO.N,/LoRa RF/RF-Switch*%
X181400000Y-53200000D03*
%TO.N,GND*%
X186100000Y-49200000D03*
D65*
%TO.N,/MCU/UART-TX*%
X184600000Y-64100000D03*
%TO.N,NRST*%
X184700000Y-65600000D03*
%TO.N,/MCU/UART-RX*%
X185500000Y-63300000D03*
%TO.N,/MCU/RS485-EN*%
X185800000Y-64700000D03*
%TO.N,+3V3*%
X192700000Y-59700000D03*
%TO.N,GND*%
X183700000Y-28800000D03*
X134625000Y-45725000D03*
X134200000Y-24800000D03*
X205700000Y-30500000D03*
X138800000Y-32400000D03*
%TO.N,+3V3*%
X177800000Y-35300000D03*
X141700000Y-60150000D03*
X169700000Y-37300000D03*
%TO.N,/MCU/ADC-CH2*%
X191800000Y-35000000D03*
%TO.N,+5V*%
X140300000Y-33700000D03*
%TO.N,+3V3*%
X143600000Y-60150000D03*
%TO.N,Vbat*%
X144400000Y-34500000D03*
%TO.N,+3V3*%
X178700000Y-36200000D03*
%TO.N,+5V*%
X136600000Y-47275000D03*
X140300000Y-32400000D03*
X140300000Y-33000000D03*
X140300000Y-34300000D03*
%TO.N,+3V3*%
X177600000Y-36200000D03*
%TO.N,GND*%
X188700000Y-44500000D03*
X193000000Y-29700000D03*
X143300000Y-23800000D03*
X139300000Y-21000000D03*
X149700000Y-23900000D03*
X148275000Y-35875000D03*
X178300000Y-42300000D03*
X144200000Y-32700000D03*
X167700000Y-37400000D03*
X139725000Y-61475000D03*
X173400000Y-35300000D03*
X164500000Y-42300000D03*
X143600000Y-61450000D03*
%TO.N,/MCU/RS485-EN*%
X170200000Y-43900000D03*
%TO.N,Vbat*%
X143900000Y-34000000D03*
X138700000Y-26400000D03*
X158600000Y-37600000D03*
X138700000Y-27000000D03*
%TO.N,/MCU/UART-RX*%
X175300000Y-44100000D03*
%TO.N,/MCU/12V-EN*%
X166100000Y-44900000D03*
%TO.N,Vbat*%
X156200000Y-37600000D03*
X138700000Y-27600000D03*
X157000000Y-37600000D03*
%TO.N,/analog/RS485+*%
X182700000Y-34300000D03*
%TO.N,/MCU/12V-EN*%
X137200000Y-21800000D03*
%TO.N,/analog/RS485+*%
X182700000Y-37300000D03*
%TO.N,Vbat*%
X157800000Y-37600000D03*
X144400000Y-33700000D03*
%TO.N,/MCU/UART-TX*%
X172900000Y-43900000D03*
%TO.N,GND*%
X188600000Y-46700000D03*
%TO.N,Net-(D1-A1)*%
X155800000Y-20700000D03*
%TO.N,GND*%
X201100000Y-66500000D03*
X127300000Y-59000000D03*
X185900000Y-58300000D03*
X194600000Y-48700000D03*
X185900000Y-56100000D03*
X148000000Y-58200000D03*
X193700000Y-74100000D03*
X139700000Y-65050000D03*
X194600000Y-60700000D03*
X196900000Y-62700000D03*
X183800000Y-56100000D03*
X178600000Y-73500000D03*
D64*
X213700000Y-69200000D03*
D65*
X183750000Y-58250000D03*
X127350000Y-57200000D03*
X194600000Y-44700000D03*
X188000000Y-54399000D03*
X199000000Y-62700000D03*
X198600000Y-44400000D03*
X144500000Y-62450000D03*
X196600000Y-44400000D03*
X201100000Y-68500000D03*
X188000000Y-56100000D03*
X188000000Y-58300000D03*
D64*
X198400000Y-48100000D03*
D65*
X201100000Y-70500000D03*
X202600000Y-44400000D03*
D64*
X213700000Y-62300000D03*
D65*
X157500000Y-28200000D03*
X194600000Y-54700000D03*
X200600000Y-44400000D03*
X191500000Y-74100000D03*
X194600000Y-58700000D03*
X173300000Y-74200000D03*
D64*
X202900000Y-56600000D03*
D65*
X183900000Y-54400000D03*
D64*
X204400000Y-48300000D03*
D65*
X145900000Y-58200000D03*
X127350000Y-58075000D03*
X155500000Y-82300000D03*
X201100000Y-64500000D03*
D64*
X209800000Y-48300000D03*
D65*
X186000000Y-54399000D03*
X167070000Y-62200000D03*
X194600000Y-52700000D03*
X160600000Y-73300000D03*
X194600000Y-62700000D03*
X194600000Y-50700000D03*
X146970000Y-58200000D03*
D64*
X134500000Y-58400000D03*
D65*
X201100000Y-72500000D03*
X201100000Y-62700000D03*
X158400000Y-28200000D03*
X194600000Y-46700000D03*
X204600000Y-44400000D03*
%TO.N,+3V3*%
X160900000Y-41200000D03*
X160900000Y-42800000D03*
X164330000Y-60300000D03*
X153500000Y-67850000D03*
X163700000Y-60300000D03*
X160900000Y-42000000D03*
X147900000Y-65150000D03*
%TO.N,/MCU/ADC-CH2*%
X184100000Y-50600000D03*
%TO.N,NRST*%
X165500000Y-64900000D03*
%TO.N,Net-(D7-K)*%
X150500000Y-58250000D03*
X154850000Y-58300000D03*
%TO.N,SWCLK*%
X171700000Y-55300000D03*
D64*
%TO.N,Net-(U2-RXD)*%
X186400000Y-60800000D03*
D65*
X159700000Y-66400000D03*
D64*
%TO.N,Net-(U2-TXD)*%
X187300000Y-60800000D03*
D65*
X160600000Y-67100000D03*
D64*
%TO.N,/LoRa RF/RF-Switch*%
X210900000Y-56100000D03*
D65*
%TO.N,Net-(D1-A1)*%
X155800000Y-21500000D03*
%TD*%
D66*
%TO.N,Net-(U2-RXD)*%
X187150000Y-60050000D02*
X187150000Y-59537500D01*
X186400000Y-60800000D02*
X187150000Y-60050000D01*
D10*
%TO.N,GND*%
X209100000Y-57200000D02*
X209800000Y-57200000D01*
D66*
%TO.N,/LoRa RF/RF-Switch*%
X210900000Y-56270820D02*
X210859549Y-56311271D01*
X210900000Y-56100000D02*
X210900000Y-56270820D01*
X210859549Y-56311271D02*
X210859549Y-56335991D01*
X210859549Y-56335991D02*
G75*
G02*
X210200000Y-56799947I-659949J237391D01*
G01*
%TO.N,Net-(U4-RF1)*%
X209570711Y-57829289D02*
X209800000Y-57600000D01*
D67*
X202800000Y-58350000D02*
X208313603Y-58350000D01*
X208313603Y-58350000D02*
G75*
G03*
X209570705Y-57829283I-3J1777800D01*
G01*
D66*
%TO.N,SWCLK*%
X181700000Y-56000000D02*
X181850000Y-55850000D01*
X181700000Y-56125000D02*
X181700000Y-56000000D01*
X181850000Y-55850000D02*
X182462500Y-55850000D01*
X181625000Y-56200000D02*
X181700000Y-56125000D01*
%TO.N,Net-(U3-VLXSMPS)*%
X181950000Y-58350000D02*
X182462500Y-58350000D01*
X180737500Y-59562500D02*
X181950000Y-58350000D01*
X180200000Y-59562500D02*
X180737500Y-59562500D01*
%TO.N,GND*%
X130700000Y-55850000D02*
X129650000Y-55850000D01*
X140750000Y-65050000D02*
X140800000Y-65000000D01*
X144500000Y-62450000D02*
X144500000Y-63380000D01*
X144200000Y-32700000D02*
X143175000Y-32700000D01*
X173300000Y-74200000D02*
X172275000Y-74200000D01*
X130375000Y-56775000D02*
X130375000Y-56175000D01*
X139300000Y-21000000D02*
X140250000Y-21000000D01*
X178300000Y-41630000D02*
X177875000Y-41205000D01*
X205672500Y-30527500D02*
X205700000Y-30500000D01*
X134200000Y-24800000D02*
X135100000Y-24800000D01*
X191500000Y-74100000D02*
X190450000Y-74100000D01*
X143400000Y-36150000D02*
X142900000Y-36150000D01*
X188700000Y-44500000D02*
X189825000Y-44500000D01*
X146470000Y-57700000D02*
X146970000Y-58200000D01*
X129650000Y-55850000D02*
X127700000Y-53900000D01*
X189825000Y-44500000D02*
X189925000Y-44400000D01*
X142900000Y-36150000D02*
X142400000Y-35650000D01*
X129450000Y-62250000D02*
X127700000Y-62250000D01*
X148275000Y-35875000D02*
X147100000Y-35875000D01*
X193700000Y-74100000D02*
X194760000Y-74100000D01*
X190450000Y-74100000D02*
X190400000Y-74150000D01*
X142400000Y-35650000D02*
X142900000Y-35150000D01*
X144470000Y-63425000D02*
X144520000Y-63475000D01*
X149700000Y-23900000D02*
X149700000Y-22775000D01*
X166870000Y-62025000D02*
X167045000Y-62200000D01*
X173400000Y-35300000D02*
X174625000Y-35300000D01*
X130700000Y-60300000D02*
X129925000Y-60300000D01*
X166870000Y-59200000D02*
X166870000Y-62025000D01*
X183800000Y-58300000D02*
X185900000Y-58300000D01*
X143400000Y-36150000D02*
X143850000Y-36150000D01*
X191800000Y-29750000D02*
X192950000Y-29750000D01*
X130375000Y-56175000D02*
X130700000Y-55850000D01*
X159425000Y-40225000D02*
X159350000Y-40150000D01*
X129000000Y-56775000D02*
X127700000Y-58075000D01*
X156600000Y-40200000D02*
X156900000Y-39900000D01*
X145900000Y-82350000D02*
X153900000Y-82350000D01*
X154600000Y-40225000D02*
X156575000Y-40225000D01*
X135600000Y-45725000D02*
X134625000Y-45725000D01*
X144520000Y-57700000D02*
X146470000Y-57700000D01*
X191525000Y-74075000D02*
X191500000Y-74100000D01*
X164500000Y-42300000D02*
X163475000Y-42300000D01*
X158487500Y-39900000D02*
X159700000Y-39900000D01*
X192950000Y-29750000D02*
X193000000Y-29700000D01*
X160050000Y-39400000D02*
X160912500Y-39400000D01*
X138800000Y-33475000D02*
X138800000Y-32400000D01*
X135300000Y-24400000D02*
X136550000Y-23150000D01*
X178600000Y-73500000D02*
X180600000Y-73500000D01*
X182462500Y-58850000D02*
X183150000Y-58850000D01*
X167700000Y-38450000D02*
X167700000Y-37400000D01*
D68*
X162090000Y-82350000D02*
X153900000Y-82350000D01*
D66*
X203825000Y-30527500D02*
X205672500Y-30527500D01*
X193022500Y-29677500D02*
X193000000Y-29700000D01*
X130375000Y-56775000D02*
X129000000Y-56775000D01*
X142625000Y-61450000D02*
X142600000Y-61425000D01*
X183150000Y-58850000D02*
X183750000Y-58250000D01*
X194225000Y-29677500D02*
X193022500Y-29677500D01*
X192625000Y-74100000D02*
X192600000Y-74075000D01*
X156575000Y-40225000D02*
X156600000Y-40200000D01*
X141400000Y-35650000D02*
X142400000Y-35650000D01*
X192600000Y-74075000D02*
X191525000Y-74075000D01*
X139725000Y-61475000D02*
X140800000Y-61475000D01*
X144500000Y-63380000D02*
X144520000Y-63400000D01*
X143300000Y-23800000D02*
X142037500Y-23800000D01*
X174275000Y-74200000D02*
X174400000Y-74075000D01*
X188600000Y-46700000D02*
X189900000Y-46700000D01*
X130700000Y-61100000D02*
X129500000Y-62300000D01*
X130700000Y-60300000D02*
X130700000Y-61100000D01*
X129925000Y-60300000D02*
X127700000Y-58075000D01*
X156900000Y-39900000D02*
X158487500Y-39900000D01*
X193700000Y-74100000D02*
X192625000Y-74100000D01*
X183750000Y-58250000D02*
X183800000Y-58300000D01*
X139700000Y-65050000D02*
X140750000Y-65050000D01*
X162600000Y-73300000D02*
X160600000Y-73300000D01*
X183700000Y-28800000D02*
X183700000Y-30147500D01*
X185900000Y-58300000D02*
X188000000Y-58300000D01*
X159425000Y-42200000D02*
X159425000Y-40225000D01*
X145300000Y-32725000D02*
X144225000Y-32725000D01*
X178300000Y-42300000D02*
X178300000Y-41630000D01*
D68*
X163540000Y-80900000D02*
X162090000Y-82350000D01*
D66*
X136550000Y-23150000D02*
X137400000Y-23150000D01*
X135300000Y-24825000D02*
X135300000Y-24400000D01*
X142900000Y-35150000D02*
X143400000Y-35150000D01*
X173300000Y-74200000D02*
X174275000Y-74200000D01*
X159700000Y-39900000D02*
X159700000Y-39400000D01*
X129500000Y-62300000D02*
X129450000Y-62250000D01*
X144225000Y-32725000D02*
X144200000Y-32700000D01*
X143600000Y-61450000D02*
X142625000Y-61450000D01*
X172275000Y-74200000D02*
X172200000Y-74125000D01*
X183700000Y-30147500D02*
X183650000Y-30197500D01*
%TO.N,+3V3*%
X164330000Y-60300000D02*
X164330000Y-60370000D01*
X181250000Y-56850000D02*
X180300000Y-55900000D01*
X207778069Y-60374876D02*
X207927744Y-60350339D01*
X209484567Y-59470149D02*
X209582758Y-59354550D01*
X182462500Y-57850000D02*
X181450000Y-57850000D01*
X210117734Y-58275870D02*
X210150339Y-58127744D01*
X209908902Y-58844301D02*
X209972588Y-58706647D01*
X179000000Y-58600000D02*
X178350000Y-57950000D01*
X152250000Y-67825000D02*
X154825000Y-67825000D01*
X154825000Y-67825000D02*
X154850000Y-67850000D01*
X209033804Y-59874546D02*
X209154550Y-59782758D01*
X182400000Y-52700000D02*
X181800000Y-52100000D01*
X208506647Y-60172588D02*
X208644301Y-60108902D01*
X170000000Y-38450000D02*
X170000000Y-38200000D01*
X180300000Y-55900000D02*
X180000000Y-55900000D01*
X208222014Y-60277157D02*
X208365747Y-60228728D01*
X208365747Y-60228728D02*
X208506647Y-60172588D01*
X195300000Y-59800000D02*
X195900000Y-60400000D01*
D69*
X190175000Y-61325000D02*
X190200000Y-61350000D01*
D66*
X209270149Y-59684567D02*
X209380262Y-59580262D01*
X210150339Y-58127744D02*
X210174876Y-57978069D01*
X182400000Y-53300000D02*
X182400000Y-52700000D01*
X187150000Y-51850000D02*
X187700000Y-51300000D01*
X210028728Y-58565747D02*
X210077157Y-58422014D01*
X207927744Y-60350339D02*
X208075870Y-60317734D01*
X164330000Y-60370000D02*
X164300000Y-60400000D01*
X210077157Y-58422014D02*
X210117734Y-58275870D01*
X182462500Y-56850000D02*
X181250000Y-56850000D01*
D69*
X188650000Y-52662500D02*
X189762500Y-52662500D01*
D66*
X209837858Y-58978305D02*
X209908902Y-58844301D01*
X146800000Y-65100000D02*
X147850000Y-65100000D01*
X188150000Y-59537500D02*
X188150000Y-60250000D01*
X188150000Y-60250000D02*
X188500000Y-60600000D01*
X188500000Y-60600000D02*
X188500000Y-61325000D01*
X210199487Y-57675836D02*
X210200000Y-57600000D01*
X207475836Y-60399487D02*
X207627286Y-60391275D01*
X207627286Y-60391275D02*
X207778069Y-60374876D01*
X208644301Y-60108902D02*
X208778305Y-60037858D01*
X192700000Y-59700000D02*
X192800000Y-59800000D01*
X178350000Y-57950000D02*
X178300000Y-57950000D01*
X182462500Y-53350000D02*
X182450000Y-53350000D01*
X209759662Y-59108267D02*
X209837858Y-58978305D01*
X181450000Y-57850000D02*
X180700000Y-58600000D01*
X195900000Y-60400000D02*
X207400000Y-60400000D01*
X209674546Y-59233804D02*
X209759662Y-59108267D01*
X164330000Y-59200000D02*
X164330000Y-60300000D01*
X210191275Y-57827286D02*
X210199487Y-57675836D01*
X209972588Y-58706647D02*
X210028728Y-58565747D01*
X207400000Y-60400000D02*
X207475836Y-60399487D01*
X147850000Y-65100000D02*
X147900000Y-65150000D01*
X209154550Y-59782758D02*
X209270149Y-59684567D01*
X209380262Y-59580262D02*
X209484567Y-59470149D01*
X192800000Y-59800000D02*
X195300000Y-59800000D01*
X210174876Y-57978069D02*
X210191275Y-57827286D01*
X187700000Y-51300000D02*
X187700000Y-50700000D01*
X208908267Y-59959662D02*
X209033804Y-59874546D01*
X187150000Y-52662500D02*
X187150000Y-51850000D01*
X180700000Y-58600000D02*
X179000000Y-58600000D01*
D69*
X189762500Y-52662500D02*
X190525000Y-51900000D01*
D66*
X208778305Y-60037858D02*
X208908267Y-59959662D01*
X208075870Y-60317734D02*
X208222014Y-60277157D01*
X182450000Y-53350000D02*
X182400000Y-53300000D01*
X169700000Y-38450000D02*
X169700000Y-37300000D01*
X181800000Y-52100000D02*
X181200000Y-52100000D01*
X163700000Y-60300000D02*
X164330000Y-60300000D01*
D69*
X188500000Y-61325000D02*
X190175000Y-61325000D01*
D66*
X209582758Y-59354550D02*
X209674546Y-59233804D01*
%TO.N,/MCU/ADC-CH2*%
X196372500Y-31300000D02*
X196425000Y-31352500D01*
D70*
X185650000Y-52662500D02*
X185650000Y-52150000D01*
D66*
X191800000Y-35000000D02*
X191800000Y-31300000D01*
X191800000Y-31300000D02*
X196372500Y-31300000D01*
D70*
X185650000Y-52150000D02*
X184100000Y-50600000D01*
D66*
%TO.N,/MCU/ADC-CH3*%
X183150000Y-60650000D02*
X174400000Y-69400000D01*
X174400000Y-69400000D02*
X174400000Y-72525000D01*
D71*
X170000000Y-72475000D02*
X174350000Y-72475000D01*
D66*
X183150000Y-59537500D02*
X183150000Y-60650000D01*
D71*
X174350000Y-72475000D02*
X174400000Y-72525000D01*
D66*
%TO.N,/MCU/ADC-CH4*%
X188200000Y-71200000D02*
X188200000Y-72475000D01*
X192600000Y-72525000D02*
X188250000Y-72525000D01*
X188250000Y-72525000D02*
X188200000Y-72475000D01*
X183650000Y-59537500D02*
X183650000Y-66650000D01*
X183650000Y-66650000D02*
X188200000Y-71200000D01*
%TO.N,Net-(U3-VDDA)*%
X176700000Y-54000000D02*
X177500000Y-53200000D01*
X177500000Y-53200000D02*
X179700000Y-53200000D01*
X175800000Y-54000000D02*
X176700000Y-54000000D01*
D69*
X174000000Y-54012500D02*
X175787500Y-54012500D01*
D66*
X180300000Y-53800000D02*
X180300000Y-54200000D01*
X179700000Y-53200000D02*
X180300000Y-53800000D01*
X182462500Y-55350000D02*
X181850000Y-55350000D01*
X180700000Y-54200000D02*
X180300000Y-54200000D01*
X175787500Y-54012500D02*
X175800000Y-54000000D01*
X181850000Y-55350000D02*
X180700000Y-54200000D01*
%TO.N,Vbus*%
X131475000Y-59375000D02*
X135300000Y-63200000D01*
X135300000Y-59100000D02*
X135300000Y-63200000D01*
X135300000Y-63200000D02*
X135500000Y-63400000D01*
X136650000Y-58450000D02*
X135950000Y-58450000D01*
X135950000Y-58450000D02*
X135300000Y-59100000D01*
X130375000Y-59375000D02*
X131475000Y-59375000D01*
X135500000Y-63400000D02*
X142600000Y-63400000D01*
%TO.N,Net-(Y1-Vcc)*%
X191475000Y-44400000D02*
X191475000Y-46575000D01*
X191600000Y-48000000D02*
X191600000Y-46700000D01*
X191475000Y-44400000D02*
X191475000Y-42625000D01*
X191475000Y-46575000D02*
X191600000Y-46700000D01*
X191475000Y-42625000D02*
X191500000Y-42600000D01*
%TO.N,Net-(U3-VDDRF1V55)*%
X182462500Y-57350000D02*
X180287500Y-57350000D01*
X186000000Y-50400000D02*
X186000000Y-50900000D01*
X186650000Y-52662500D02*
X186650000Y-51950000D01*
X186100000Y-51400000D02*
X186100000Y-50700000D01*
D69*
X186000000Y-50500000D02*
X186000000Y-50900000D01*
X180287500Y-57350000D02*
X180200000Y-57437500D01*
D66*
X186650000Y-51950000D02*
X186100000Y-51400000D01*
%TO.N,NRST*%
X184700000Y-65600000D02*
X190000000Y-65600000D01*
X165495000Y-66805000D02*
X165495000Y-65805000D01*
D71*
X165495000Y-62200000D02*
X165600000Y-62095000D01*
D66*
X154450000Y-77850000D02*
X165495000Y-66805000D01*
X190000000Y-65600000D02*
X191100000Y-64500000D01*
X153900000Y-77850000D02*
X154450000Y-77850000D01*
X153850000Y-77750000D02*
X145850000Y-77750000D01*
X191100000Y-61500000D02*
X191100000Y-57600000D01*
X165495000Y-64895000D02*
X165495000Y-62200000D01*
X165500000Y-64900000D02*
X165495000Y-64895000D01*
X191100000Y-64500000D02*
X191100000Y-61500000D01*
X191100000Y-57600000D02*
X189850000Y-56350000D01*
X189850000Y-56350000D02*
X189337500Y-56350000D01*
D71*
X165600000Y-62095000D02*
X165600000Y-59200000D01*
X165495000Y-62200000D02*
X165495000Y-65805000D01*
D66*
%TO.N,VR_PA*%
X198111618Y-52506819D02*
X198048998Y-52554474D01*
X198230535Y-52408872D02*
X198170545Y-52459568D01*
X198170545Y-52459568D02*
X198111618Y-52506819D01*
X198287042Y-52358615D02*
X198230535Y-52408872D01*
X198344268Y-52305008D02*
X198287042Y-52358615D01*
X189337500Y-53350000D02*
X195744365Y-53350000D01*
D67*
X198400000Y-52250000D02*
X198400000Y-49650000D01*
D66*
X198400000Y-52250000D02*
X198344268Y-52305008D01*
X195744365Y-53350000D02*
G75*
G03*
X198400010Y-52250010I35J3755600D01*
G01*
D67*
%TO.N,Net-(C22-Pad1)*%
X204387500Y-49850000D02*
X204387500Y-52200000D01*
X204387500Y-52300000D02*
X204437500Y-52250000D01*
X202375000Y-52275000D02*
X202400000Y-52300000D01*
X200400000Y-52275000D02*
X202375000Y-52275000D01*
X204387500Y-52200000D02*
X204437500Y-52250000D01*
X202400000Y-52300000D02*
X204387500Y-52300000D01*
%TO.N,/LoRa RF/RFO_HP*%
X198425000Y-53850000D02*
X198400000Y-53825000D01*
X189362500Y-53825000D02*
X189337500Y-53850000D01*
X202400000Y-53850000D02*
X198425000Y-53850000D01*
X198400000Y-53825000D02*
X189362500Y-53825000D01*
%TO.N,Net-(C23-Pad2)*%
X205987500Y-52250000D02*
X208212500Y-52250000D01*
%TO.N,Net-(U4-RF2)*%
X209787500Y-52250000D02*
X209787500Y-49850000D01*
X209800000Y-52280178D02*
G75*
G03*
X209787493Y-52250007I-42700J-22D01*
G01*
D66*
%TO.N,Net-(C26-Pad2)*%
X212150000Y-62250000D02*
X212100000Y-62200000D01*
D67*
X212100000Y-58675000D02*
X212100000Y-62250000D01*
X212100000Y-62250000D02*
X212150000Y-62300000D01*
X212125000Y-65025000D02*
X212125000Y-62325000D01*
D66*
X212150000Y-62300000D02*
X212150000Y-62250000D01*
D67*
X212125000Y-62325000D02*
X212150000Y-62300000D01*
%TO.N,Net-(U4-RFIN)*%
X210200000Y-57200000D02*
X212025000Y-57200000D01*
D66*
X212025000Y-57200000D02*
G75*
G03*
X212100000Y-57125000I0J75000D01*
G01*
D69*
%TO.N,Net-(J6-In)*%
X212125000Y-69175000D02*
X212150000Y-69200000D01*
X212125000Y-66600000D02*
X212125000Y-69175000D01*
X212150000Y-66625000D02*
X212125000Y-66600000D01*
D67*
X212150000Y-69200000D02*
X212150000Y-78950000D01*
X212150000Y-78950000D02*
X212200000Y-79000000D01*
D72*
%TO.N,/LoRa RF/RFI_P*%
X197279999Y-57630000D02*
X194375440Y-57630000D01*
X197887499Y-58237500D02*
X197279999Y-57630000D01*
X198600000Y-58237500D02*
X197887499Y-58237500D01*
X192025440Y-55280000D02*
X190063751Y-55280000D01*
X201225000Y-58350000D02*
X201250000Y-58350000D01*
X190063751Y-55280000D02*
X189993751Y-55350000D01*
X194375440Y-57630000D02*
X192025440Y-55280000D01*
X198600000Y-58237500D02*
X201137500Y-58237500D01*
X189993751Y-55350000D02*
X189337500Y-55350000D01*
X201137500Y-58237500D02*
G75*
G02*
X201250000Y-58350000I0J-112500D01*
G01*
%TO.N,/LoRa RF/RFI_N*%
X190063751Y-54920000D02*
X189993751Y-54850000D01*
X201225000Y-56600000D02*
X201250000Y-56600000D01*
X194524560Y-57270000D02*
X192174560Y-54920000D01*
X189993751Y-54850000D02*
X189337500Y-54850000D01*
X198600000Y-56662500D02*
X201187500Y-56662500D01*
X198600000Y-56662500D02*
X197887499Y-56662500D01*
X198600000Y-56662500D02*
X198600000Y-56600000D01*
X197279999Y-57270000D02*
X194524560Y-57270000D01*
X197887499Y-56662500D02*
X197279999Y-57270000D01*
X192174560Y-54920000D02*
X190063751Y-54920000D01*
X201187500Y-56662500D02*
G75*
G03*
X201250000Y-56600000I0J62500D01*
G01*
D66*
%TO.N,+5V*%
X136775000Y-47275000D02*
X136800000Y-47300000D01*
X135600000Y-47275000D02*
X136600000Y-47275000D01*
X136600000Y-47275000D02*
X136775000Y-47275000D01*
%TO.N,Vbat*%
X144300000Y-34500000D02*
X144200000Y-34500000D01*
X143700000Y-34100000D02*
X143800000Y-34100000D01*
X145300000Y-34275000D02*
X144675000Y-34275000D01*
X144300000Y-34500000D02*
X144300000Y-34400000D01*
X143800000Y-34100000D02*
X143900000Y-34200000D01*
X144200000Y-34500000D02*
X144050000Y-34650000D01*
X144300000Y-34400000D02*
X144425000Y-34275000D01*
X136800000Y-28800000D02*
X136800000Y-29375000D01*
%TO.N,/analog/RS485+*%
X182700000Y-32132500D02*
X182640000Y-32072500D01*
X172340000Y-23100000D02*
X172340000Y-23040000D01*
D70*
X182750000Y-32072500D02*
X182700000Y-32122500D01*
X182700000Y-34300000D02*
X182800000Y-34200000D01*
X182700000Y-38450000D02*
X182700000Y-38400000D01*
X182800000Y-34200000D02*
X182800000Y-34120000D01*
D66*
X182700000Y-32122500D02*
X182700000Y-34300000D01*
D68*
X172300000Y-23000000D02*
X172300000Y-27600000D01*
D66*
X172340000Y-23040000D02*
X172300000Y-23000000D01*
D68*
X176772500Y-32072500D02*
X182700000Y-32072500D01*
D66*
X182700000Y-38450000D02*
X182700000Y-37300000D01*
D68*
X172300000Y-27600000D02*
X176772500Y-32072500D01*
D66*
%TO.N,/analog/RS485-*%
X184800000Y-40125000D02*
X185675000Y-40125000D01*
X184600000Y-32072500D02*
X184700000Y-31972500D01*
D68*
X184700000Y-28700000D02*
X183200000Y-27200000D01*
D70*
X184600000Y-32072500D02*
X184600000Y-32600000D01*
D68*
X177420000Y-25220000D02*
X177420000Y-23100000D01*
D70*
X184600000Y-32600000D02*
X184700000Y-32700000D01*
D66*
X186100000Y-39700000D02*
X186100000Y-37000000D01*
D68*
X183200000Y-27200000D02*
X179400000Y-27200000D01*
X179400000Y-27200000D02*
X177420000Y-25220000D01*
X184700000Y-31972500D02*
X184700000Y-28700000D01*
D66*
X185675000Y-40125000D02*
X186100000Y-39700000D01*
X184700000Y-35600000D02*
X186100000Y-37000000D01*
X184700000Y-32700000D02*
X184700000Y-35600000D01*
%TO.N,Net-(D3-A2)*%
X198000000Y-30600000D02*
X198072500Y-30527500D01*
D68*
X196425000Y-28575000D02*
X199420000Y-25580000D01*
D66*
X196425000Y-29702500D02*
X197102500Y-29702500D01*
D68*
X196425000Y-29702500D02*
X196425000Y-28575000D01*
D66*
X198072500Y-30527500D02*
X199825000Y-30527500D01*
X197102500Y-29702500D02*
X198000000Y-30600000D01*
D68*
X199420000Y-25580000D02*
X199420000Y-23100000D01*
D71*
%TO.N,Net-(D4-A2)*%
X166600000Y-73300000D02*
X167960000Y-73300000D01*
D68*
X168785000Y-74125000D02*
X170000000Y-74125000D01*
D66*
X168620000Y-74080000D02*
X168680000Y-74020000D01*
D68*
X168620000Y-80900000D02*
X168620000Y-74080000D01*
X167960000Y-73300000D02*
X168680000Y-74020000D01*
D71*
X168680000Y-74020000D02*
X168785000Y-74125000D01*
D66*
%TO.N,Net-(D5-A2)*%
X187225000Y-74125000D02*
X186600000Y-73500000D01*
D68*
X187205000Y-80827500D02*
X187205000Y-77795000D01*
X187205000Y-77795000D02*
X188300000Y-76700000D01*
D66*
X188200000Y-74125000D02*
X187225000Y-74125000D01*
X186600000Y-73500000D02*
X184600000Y-73500000D01*
D68*
X188200000Y-76600000D02*
X188200000Y-74125000D01*
D66*
X188300000Y-76700000D02*
X188200000Y-76600000D01*
D71*
%TO.N,Net-(D6-A)*%
X152250000Y-64012500D02*
X152250000Y-66175000D01*
D66*
%TO.N,Net-(D6-K)*%
X149420000Y-57700000D02*
X151150000Y-57700000D01*
X151150000Y-57700000D02*
X152250000Y-58800000D01*
X152250000Y-58800000D02*
X152250000Y-62437500D01*
D71*
%TO.N,Net-(D7-A)*%
X154850000Y-64012500D02*
X154850000Y-66200000D01*
D66*
%TO.N,Net-(D7-K)*%
X150450000Y-58200000D02*
X149420000Y-58200000D01*
X150500000Y-58250000D02*
X150450000Y-58200000D01*
X154850000Y-58300000D02*
X154850000Y-62437500D01*
%TO.N,Net-(D9-A)*%
X136800000Y-33500000D02*
X136800000Y-31025000D01*
%TO.N,Net-(D9-K)*%
X141400000Y-36150000D02*
X137875000Y-36150000D01*
X137875000Y-36150000D02*
X136800000Y-35075000D01*
D72*
%TO.N,/MCU/USB_MCU+*%
X138240001Y-58270000D02*
X143849999Y-58270000D01*
X143919999Y-58200000D02*
X144520000Y-58200000D01*
X137470001Y-57500000D02*
X138240001Y-58270000D01*
X136300000Y-57500000D02*
X137470001Y-57500000D01*
X143849999Y-58270000D02*
X143919999Y-58200000D01*
%TO.N,/MCU/USB_MCU-*%
X136300000Y-59400000D02*
X137470001Y-59400000D01*
X143919999Y-58700000D02*
X144520000Y-58700000D01*
X138240001Y-58630000D02*
X143849999Y-58630000D01*
X143849999Y-58630000D02*
X143919999Y-58700000D01*
X137470001Y-59400000D02*
X138240001Y-58630000D01*
D66*
%TO.N,SWCLK*%
X171700000Y-55300000D02*
X166700000Y-55300000D01*
X165600000Y-56400000D02*
X165600000Y-57930000D01*
X166700000Y-55300000D02*
X165600000Y-56400000D01*
%TO.N,SWDIO*%
X180100000Y-49100000D02*
X168900000Y-49100000D01*
X183150000Y-52662500D02*
X183150000Y-52150000D01*
X183150000Y-52150000D02*
X180100000Y-49100000D01*
X168900000Y-49100000D02*
X164330000Y-53670000D01*
X164330000Y-53670000D02*
X164330000Y-57930000D01*
%TO.N,Net-(U7-LX2)*%
X160912500Y-39900000D02*
X161842005Y-39900000D01*
D73*
X161842005Y-39900000D02*
G75*
G02*
X163199999Y-40462501I-5J-1920500D01*
G01*
D66*
%TO.N,Net-(U7-LX1)*%
X160912500Y-38900000D02*
X161842005Y-38900000D01*
D73*
X161842005Y-38900000D02*
G75*
G03*
X163199999Y-38337499I-5J1920500D01*
G01*
D66*
%TO.N,/MCU/UART-RX*%
X170800000Y-39500000D02*
X170800000Y-37895000D01*
X185500000Y-62600000D02*
X185500000Y-63300000D01*
X185150000Y-62250000D02*
X185500000Y-62600000D01*
X170800000Y-37895000D02*
X171300000Y-37395000D01*
X172925000Y-37395000D02*
X174195000Y-37395000D01*
X185150000Y-59537500D02*
X185150000Y-62250000D01*
X175300000Y-38500000D02*
X175300000Y-44100000D01*
X169700000Y-40100000D02*
X170200000Y-40100000D01*
X174950000Y-38150000D02*
X175300000Y-38500000D01*
X171300000Y-37395000D02*
X172925000Y-37395000D01*
X174195000Y-37395000D02*
X174950000Y-38150000D01*
X170200000Y-40100000D02*
X170800000Y-39500000D01*
%TO.N,/analog/RS485R+*%
X180600000Y-40100000D02*
X182700000Y-40100000D01*
D70*
X180435000Y-39935000D02*
X180600000Y-40100000D01*
D66*
X177875000Y-39935000D02*
X180435000Y-39935000D01*
%TO.N,/analog/RS485R-*%
X177875000Y-38665000D02*
X180385000Y-38665000D01*
X184800000Y-37300000D02*
X184100000Y-36600000D01*
X181200000Y-36600000D02*
X180600000Y-37200000D01*
X184800000Y-38475000D02*
X184800000Y-37300000D01*
D70*
X180385000Y-38665000D02*
X180600000Y-38450000D01*
D66*
X180600000Y-37200000D02*
X180600000Y-38450000D01*
X184100000Y-36600000D02*
X181200000Y-36600000D01*
%TO.N,/MCU/RS485-EN*%
X167700000Y-40800000D02*
X168100000Y-41200000D01*
X185800000Y-64700000D02*
X186100000Y-64400000D01*
X185800000Y-64700000D02*
X185700000Y-64700000D01*
X170200000Y-41200000D02*
X170200000Y-43900000D01*
X170200000Y-41200000D02*
X171465000Y-39935000D01*
X185650000Y-61550000D02*
X185650000Y-59537500D01*
X167700000Y-40100000D02*
X167700000Y-40800000D01*
X168100000Y-41200000D02*
X170200000Y-41200000D01*
X171465000Y-39935000D02*
X172925000Y-39935000D01*
X172925000Y-38665000D02*
X172925000Y-39935000D01*
X186100000Y-62000000D02*
X185650000Y-61550000D01*
X186100000Y-64400000D02*
X186100000Y-62000000D01*
%TO.N,Net-(U2-VBUS)*%
X145470000Y-64380000D02*
X145470000Y-60650000D01*
X144520000Y-65050000D02*
X144800000Y-65050000D01*
X142600000Y-65050000D02*
X144520000Y-65050000D01*
X144800000Y-65050000D02*
X145470000Y-64380000D01*
%TO.N,Net-(U2-~{RST})*%
X145970000Y-61420000D02*
X145970000Y-60650000D01*
X146800000Y-62250000D02*
X145970000Y-61420000D01*
X146800000Y-63450000D02*
X146800000Y-62250000D01*
%TO.N,Net-(U3-PH3)*%
X190050000Y-55850000D02*
X191700000Y-57500000D01*
X189337500Y-55850000D02*
X190050000Y-55850000D01*
X191700000Y-68700000D02*
X194760000Y-71760000D01*
X191700000Y-57500000D02*
X191700000Y-68700000D01*
X194760000Y-71760000D02*
X194760000Y-72450000D01*
%TO.N,Net-(U5-FB)*%
X144075000Y-21000000D02*
X144100000Y-20975000D01*
X141900000Y-22712500D02*
X142037500Y-22850000D01*
X141900000Y-21000000D02*
X144075000Y-21000000D01*
X141900000Y-21000000D02*
X141900000Y-22712500D01*
%TO.N,/MCU/12V-EN*%
X135800000Y-21800000D02*
X137200000Y-21800000D01*
X183700000Y-51500000D02*
X179900000Y-47700000D01*
X139550000Y-22850000D02*
X139762500Y-22850000D01*
D70*
X184100000Y-51600000D02*
X184600000Y-51600000D01*
X183800000Y-51600000D02*
X183700000Y-51500000D01*
D66*
X135300000Y-22300000D02*
X135800000Y-21800000D01*
D70*
X185150000Y-52150000D02*
X185150000Y-52662500D01*
X184100000Y-51600000D02*
X183800000Y-51600000D01*
D66*
X179900000Y-47700000D02*
X167800000Y-47700000D01*
X166100000Y-46000000D02*
X166100000Y-44900000D01*
X135300000Y-23175000D02*
X135300000Y-22300000D01*
X167800000Y-47700000D02*
X166100000Y-46000000D01*
X138500000Y-21800000D02*
X139550000Y-22850000D01*
D70*
X184600000Y-51600000D02*
X185150000Y-52150000D01*
D66*
X137200000Y-21800000D02*
X138500000Y-21800000D01*
%TO.N,Net-(U6-CHG)*%
X145300000Y-35975000D02*
X144975000Y-35650000D01*
X144975000Y-35650000D02*
X143400000Y-35650000D01*
%TO.N,Net-(U6-BAT)*%
X145200000Y-37625000D02*
X144375000Y-37625000D01*
X147100000Y-37525000D02*
X145300000Y-37525000D01*
X145300000Y-37525000D02*
X145200000Y-37625000D01*
X144375000Y-37625000D02*
X143400000Y-36650000D01*
%TO.N,Net-(U6-ISET)*%
X141400000Y-35150000D02*
X138825000Y-35150000D01*
X138825000Y-35150000D02*
X138800000Y-35125000D01*
%TO.N,Net-(U7-CFG3)*%
X157775000Y-41112500D02*
X158487500Y-40400000D01*
X157775000Y-42200000D02*
X157775000Y-41112500D01*
D70*
%TO.N,Net-(U7-CFG1)*%
X155425000Y-39400000D02*
X154600000Y-38575000D01*
X158487500Y-39400000D02*
X155425000Y-39400000D01*
D66*
%TO.N,/MCU/UART-TX*%
X184650000Y-59537500D02*
X184650000Y-63950000D01*
X172925000Y-43875000D02*
X172900000Y-43900000D01*
X172925000Y-41205000D02*
X172925000Y-43875000D01*
%TO.N,Net-(U2-RXD)*%
X159700000Y-58850000D02*
X154600000Y-53750000D01*
X148000000Y-53750000D02*
X146970000Y-54780000D01*
X154600000Y-53750000D02*
X148000000Y-53750000D01*
X147000000Y-55720000D02*
X146970000Y-55750000D01*
X146970000Y-54780000D02*
X146970000Y-55750000D01*
X159700000Y-66400000D02*
X159700000Y-58850000D01*
%TO.N,Net-(U2-TXD)*%
X160600000Y-67100000D02*
X160600000Y-57650000D01*
X147600000Y-52550000D02*
X146470000Y-53680000D01*
X187650000Y-60450000D02*
X187300000Y-60800000D01*
X146470000Y-53680000D02*
X146470000Y-55750000D01*
X155500000Y-52550000D02*
X147600000Y-52550000D01*
X187650000Y-59537500D02*
X187650000Y-60450000D01*
X160600000Y-57650000D02*
X155500000Y-52550000D01*
%TO.N,Net-(U3-OSC_IN)*%
X189600000Y-50600000D02*
X189600000Y-48300000D01*
X188150000Y-52662500D02*
X188150000Y-52050000D01*
X188150000Y-52050000D02*
X189600000Y-50600000D01*
X189600000Y-48300000D02*
X189900000Y-48000000D01*
%TO.N,/LoRa RF/RF-Switch*%
X182025001Y-53850000D02*
X181400000Y-53224999D01*
X182462500Y-53850000D02*
X182025001Y-53850000D01*
X181400000Y-53224999D02*
X181400000Y-53200000D01*
D72*
%TO.N,/Power/USB_C-*%
X133132612Y-59084200D02*
X133179200Y-59084200D01*
X131387501Y-58725000D02*
X131532501Y-58580000D01*
X133179200Y-59084200D02*
X133495000Y-59400000D01*
X132050000Y-58630000D02*
X132678412Y-58630000D01*
X132678412Y-58630000D02*
X133132612Y-59084200D01*
X133495000Y-59400000D02*
X133950000Y-59400000D01*
X131532501Y-58580000D02*
X132000000Y-58580000D01*
X132000000Y-58580000D02*
X132050000Y-58630000D01*
X130375000Y-58725000D02*
X131387501Y-58725000D01*
%TO.N,/Power/USB_C+*%
X131387501Y-58075000D02*
X131532501Y-58220000D01*
X133179200Y-57815800D02*
X133495000Y-57500000D01*
X132678412Y-58270000D02*
X133132612Y-57815800D01*
X132137765Y-58220000D02*
X132187765Y-58270000D01*
X133495000Y-57500000D02*
X133950000Y-57500000D01*
X133132612Y-57815800D02*
X133179200Y-57815800D01*
X130375000Y-58075000D02*
X131387501Y-58075000D01*
X132187765Y-58270000D02*
X132678412Y-58270000D01*
X131532501Y-58220000D02*
X132137765Y-58220000D01*
D67*
%TO.N,Net-(U4-RF2)*%
X209800000Y-52262500D02*
G75*
G03*
X209787500Y-52250000I-12500J0D01*
G01*
X209800000Y-56800000D02*
X209800000Y-52262500D01*
%TD*%
%TA.AperFunction,Conductor*%
%TO.N,Net-(U3-VDDRF1V55)*%
G36*
X186128219Y-50402604D02*
G01*
X186230607Y-50485430D01*
X186234884Y-50493297D01*
X186232992Y-50501005D01*
X186104357Y-50694447D01*
X186096922Y-50699438D01*
X186092286Y-50699434D01*
X185864969Y-50653290D01*
X185857543Y-50648286D01*
X185855635Y-50640886D01*
X185874135Y-50410762D01*
X185878213Y-50402791D01*
X185885797Y-50400000D01*
X186120861Y-50400000D01*
X186128219Y-50402604D01*
G37*
%TD.AperFunction*%
%TD*%
%TA.AperFunction,Conductor*%
%TO.N,Net-(U3-VDDRF1V55)*%
G36*
X186332988Y-50746294D02*
G01*
X186340413Y-50751298D01*
X186342125Y-50760088D01*
X186341957Y-50760802D01*
X186227331Y-51186538D01*
X186221871Y-51193636D01*
X186216033Y-51195196D01*
X185983967Y-51195196D01*
X185975694Y-51191769D01*
X185972669Y-51186538D01*
X185958549Y-51134097D01*
X185858042Y-50760800D01*
X185859200Y-50751922D01*
X185866298Y-50746462D01*
X185866985Y-50746300D01*
X186097675Y-50699472D01*
X186102325Y-50699472D01*
X186332988Y-50746294D01*
G37*
%TD.AperFunction*%
%TD*%
M02*
